<?xml version="1.0" encoding="utf-8"?>
<!-- Generator: Adobe Illustrator 25.2.3, SVG Export Plug-In . SVG Version: 6.00 Build 0)  -->
<svg version="1.1" id="Layer_1" xmlns="http://www.w3.org/2000/svg" xmlns:xlink="http://www.w3.org/1999/xlink" x="0px" y="0px"
	 viewBox="0 0 612 612" style="enable-background:new 0 0 612 612;" xml:space="preserve">
<path d="M583.5,267.5v70c0,6.6-5.4,12-12,12H353V568c0,6.6-5.4,12-12,12h-70c-6.6,0-12-5.4-12-12V349.5H40.5c-6.6,0-12-5.4-12-12
	v-70c0-6.6,5.4-12,12-12H259V37c0-6.6,5.4-12,12-12h70c6.6,0,12,5.4,12,12v218.5h218.5C578.1,255.5,583.5,260.9,583.5,267.5z"/>
</svg>
