<?xml version="1.0" encoding="utf-8"?>
<!-- Generator: Adobe Illustrator 28.2.0, SVG Export Plug-In . SVG Version: 6.00 Build 0)  -->
<svg version="1.1" xmlns="http://www.w3.org/2000/svg" xmlns:xlink="http://www.w3.org/1999/xlink" x="0px" y="0px"
	 viewBox="0 0 612 612" style="enable-background:new 0 0 612 612;" xml:space="preserve">
<style type="text/css">
	.st0{fill:url(#SVGID_1_);}
	.st1{fill:#603913;}
	.st2{fill:#414042;}
	.st3{fill:#6D6E71;}
	.st4{fill:#FFFFFF;}
	.st5{fill:#A7A9AC;}
	.st6{fill:#BCBEC0;}
	.st7{fill:#8B5E3C;}
	.st8{fill:#58595B;}
	.st9{fill:#939598;}
	.st10{fill:#D1D3D4;}
	.st11{fill:#754C29;}
	.st12{fill:none;stroke:#000000;stroke-miterlimit:10;}
	.st13{fill:#8255A3;}
	.st14{fill:url(#SVGID_00000095317577242154437440000006024766171699823255_);}
	.st15{fill:#090E17;}
	.st16{fill:#9471B2;}
	.st17{fill:url(#SVGID_00000156580604748330379950000017139089739617022644_);}
	.st18{fill:url(#SVGID_00000178191212716533378020000011747619713967551898_);}
	.st19{fill:url(#SVGID_00000097492319317072175760000009954589506357068676_);}
	.st20{fill:url(#SVGID_00000008859931042735659600000003281761241264214944_);}
	.st21{fill:url(#SVGID_00000016056818339418693370000003643100673944918189_);}
	.st22{fill:url(#SVGID_00000072254067236114237920000006109672223724997036_);}
	.st23{fill:url(#SVGID_00000156550932628655182560000006002651058762598017_);}
	.st24{fill:url(#SVGID_00000126315959864616421710000013302870663239452036_);}
	.st25{fill:url(#SVGID_00000179627628757281617830000005679652923724503688_);}
	.st26{fill:#A97C50;}
	.st27{fill:#009444;}
	.st28{fill:#39B54A;}
	.st29{fill:#FBF398;}
	.st30{fill:url(#SVGID_00000081614694173464588000000014813943794883382973_);}
	.st31{fill:url(#SVGID_00000046303511524377690880000006970570935273872047_);}
	.st32{fill:url(#SVGID_00000170265179705506656190000008610860328572654240_);}
	.st33{fill:url(#SVGID_00000119827016919308743330000005884065361854441914_);}
	.st34{fill:url(#SVGID_00000070085862701602024940000001959936591355185598_);}
	.st35{fill:url(#SVGID_00000119109292401739172100000014601909216423357573_);}
	.st36{fill:url(#SVGID_00000110469269192584988430000002967672122948486560_);}
	.st37{fill:url(#SVGID_00000092455050418988942130000018123881593989275780_);}
	.st38{fill:url(#SVGID_00000147197602251955446900000009609953390136058262_);}
	.st39{fill:url(#SVGID_00000003091630760601258050000007832921848707672999_);}
	.st40{fill:url(#SVGID_00000069360731929617901940000008091643993388155550_);}
	.st41{fill:url(#SVGID_00000164481077927449346290000008409564199898647740_);}
	.st42{fill:url(#SVGID_00000103255578716314806760000012638042152989233598_);}
	.st43{fill:url(#SVGID_00000131360319575613470600000015747640409056378545_);}
	.st44{fill:url(#SVGID_00000064344048641801564790000008605681339398913167_);}
	.st45{fill:url(#SVGID_00000175295827635341200950000005864575208508245405_);}
	.st46{fill:url(#SVGID_00000064332090388819432070000003507515771514214320_);}
	.st47{fill:url(#SVGID_00000098902597288897402540000002474310048196486047_);}
	.st48{fill:url(#SVGID_00000016762957532050504540000008607031909481458612_);}
	.st49{fill:url(#SVGID_00000029020046111298472570000009869819657091109520_);}
	.st50{fill:url(#SVGID_00000106125003184853131270000000041041101457702070_);}
	.st51{fill:url(#SVGID_00000133494089421935895940000017968845709290356907_);}
	.st52{fill:url(#SVGID_00000122697063747931532850000005393878959360700801_);}
	.st53{fill:url(#SVGID_00000070091069666892134300000017889494973501264014_);}
	.st54{fill:url(#SVGID_00000013187666273803168530000015557726554064351627_);}
	.st55{fill:url(#SVGID_00000152226588340675208000000008660609564572356008_);}
	.st56{fill:url(#SVGID_00000119802283932816020340000003681314690266839170_);}
	.st57{fill:url(#SVGID_00000153662865209368292600000002735646870399480466_);}
	.st58{fill:url(#SVGID_00000007403888172417152580000014369971990991661720_);}
	.st59{fill:url(#SVGID_00000155106587289473351870000004795636661063079052_);}
	.st60{fill:url(#SVGID_00000021083506687199733530000003561010818168031128_);}
	.st61{fill:url(#SVGID_00000183213602427856752900000016465440257600935069_);}
	.st62{fill:url(#SVGID_00000038393977272920675270000005404642962467750048_);}
	.st63{fill:url(#SVGID_00000136395988332781904560000016631749076154953896_);}
	.st64{fill:url(#SVGID_00000147900574816547724920000017258643362316667278_);}
	.st65{fill:url(#SVGID_00000048500736035994511520000007725821712425607066_);}
	.st66{fill:url(#SVGID_00000046320045891035509490000003509243055676055718_);}
	.st67{fill:url(#SVGID_00000130644525099619243090000015910156557927156643_);}
	.st68{fill:url(#SVGID_00000039850235440445138400000007134425195974920357_);}
	.st69{fill:url(#SVGID_00000159436172946324590100000002080470775247322806_);}
	.st70{fill:url(#SVGID_00000039832920084192644960000005766446108716843199_);}
	.st71{fill:url(#SVGID_00000098184056879948457390000001751146355036333985_);}
	.st72{fill:url(#SVGID_00000134951621954532993300000006861857110849285248_);}
	.st73{fill:url(#SVGID_00000014609126334761122490000008248764159043924405_);}
	.st74{fill:url(#SVGID_00000176728861740049931340000011609963907473546172_);}
	.st75{fill:url(#SVGID_00000047745406992326841310000014555721337512788110_);}
	.st76{fill:url(#SVGID_00000175295500851966981260000005307503812919572409_);}
	.st77{fill:url(#SVGID_00000118392631375978258170000006515708324508338336_);}
	.st78{fill:url(#SVGID_00000092454991719068389020000017848256259849419906_);}
	.st79{fill:url(#SVGID_00000124852176798395078610000002909145405548916894_);}
	.st80{fill:url(#SVGID_00000025422460613973491310000008460358082127714962_);}
	.st81{fill:url(#SVGID_00000153664481614998019730000004821201949446466740_);}
	.st82{fill:url(#SVGID_00000157290606646204910140000007569508410577866643_);}
	.st83{fill:url(#SVGID_00000018237443957939044760000012120376993474875537_);}
	.st84{fill:url(#SVGID_00000084492095888049921030000012330551791845191818_);}
	.st85{fill:url(#SVGID_00000085221298699998637950000014813604046686942899_);}
	.st86{fill:url(#SVGID_00000003823018588989984040000003022492706525436064_);}
	.st87{fill:#006838;}
	.st88{fill:url(#SVGID_00000158027364782204112690000012223189050047352243_);}
	.st89{fill:url(#SVGID_00000099638386864249733790000002456580438031420076_);}
	.st90{fill:url(#SVGID_00000029742944887679896530000011714599714842673542_);}
	.st91{fill:url(#SVGID_00000144330082942615279360000004887205190060378503_);}
	.st92{fill:url(#SVGID_00000048472345721235207880000017320060504394283904_);}
	.st93{fill:url(#SVGID_00000098221265863253644550000000302680315794030511_);}
	.st94{fill:url(#SVGID_00000029737775081709410960000005625075055248117919_);}
	.st95{fill:url(#SVGID_00000046313149359915965210000003609197291953396404_);}
	.st96{fill:url(#SVGID_00000014610184241897574670000002546402528393615756_);}
	.st97{fill:url(#SVGID_00000081613651294193970750000001218087234786884503_);}
	.st98{fill:url(#SVGID_00000099646357927946239440000017211715782343674496_);}
	.st99{fill:url(#SVGID_00000165943896284244762380000011433809784712603274_);}
	.st100{fill:url(#SVGID_00000034804368623022362150000000426033683516978606_);}
	.st101{fill:url(#SVGID_00000135675474076875578130000015975982546398076350_);}
	.st102{fill:url(#SVGID_00000045596124760536671530000001907620446709952423_);}
	.st103{fill:url(#SVGID_00000076598812036926773410000017842877244288999339_);}
	.st104{fill:url(#SVGID_00000178175895722486385630000006231143226536150964_);}
	.st105{fill:url(#SVGID_00000020395142874071031530000011160739248817372805_);}
	.st106{fill:url(#SVGID_00000128444888618874699040000003827131379035110554_);}
	.st107{fill:url(#SVGID_00000111156498842399733450000018140034536042872963_);}
	.st108{fill:url(#SVGID_00000158714704607968800880000007934217493585923224_);}
	.st109{fill:url(#SVGID_00000081622851005503716600000009039163426976993430_);}
	.st110{fill:url(#SVGID_00000084515043618314512130000011694530983008368040_);}
	.st111{fill:url(#SVGID_00000012438185145299861260000014271548718184899258_);}
	.st112{fill:url(#SVGID_00000062163425164977246250000013054531600645746864_);}
	.st113{fill:url(#SVGID_00000054951781825686883920000013586461510884833668_);}
	.st114{fill:url(#SVGID_00000023960222393683228030000014774909741943151008_);}
	.st115{fill:url(#SVGID_00000033342236341427475750000005746150199049482687_);}
	.st116{fill:url(#SVGID_00000071524490308277368620000017322333733767369646_);}
	.st117{fill:url(#SVGID_00000029742675761592089120000008774503985105217176_);}
	.st118{fill:url(#SVGID_00000102537890685828616390000008153981966893857943_);}
	.st119{fill:url(#SVGID_00000173882704897180393500000015863209110604390019_);}
	.st120{fill:url(#SVGID_00000149353285334192016640000014665639318958581123_);}
	.st121{fill:url(#SVGID_00000057841008941221432490000013806247617402094783_);}
	.st122{fill:url(#SVGID_00000059285653885942438500000002374669084182972547_);}
	.st123{fill:url(#SVGID_00000079465021050453786630000017315566755673832856_);}
	.st124{fill:url(#SVGID_00000081618501954371336400000011344952830650325159_);}
	.st125{fill:url(#SVGID_00000152256830559414841530000005932993125156284088_);}
	.st126{fill:url(#SVGID_00000044891919029828421670000012258568698420947362_);}
	.st127{fill:url(#SVGID_00000154415285970320697830000013270023174794508964_);}
	.st128{fill:url(#SVGID_00000137843076818018790870000008764169126187456915_);}
	.st129{fill:url(#SVGID_00000142868453586500714440000013710965260963169454_);}
	.st130{fill:url(#SVGID_00000145026961532957755200000012979656831479327630_);}
	.st131{fill:url(#SVGID_00000137851500280234104460000014292523337625098396_);}
	.st132{fill:url(#SVGID_00000030481740499099385260000010743007873027921599_);}
	.st133{fill:url(#SVGID_00000142170014400941975430000007324403690044548513_);}
	.st134{fill:url(#SVGID_00000008141937203632776560000002633216595321785274_);}
	.st135{fill:url(#SVGID_00000034807131752194755280000004588179142199850384_);}
	.st136{fill:url(#SVGID_00000074423997683198921850000004894437200745471166_);}
	.st137{fill:url(#SVGID_00000038392287966938893320000011910041296050236848_);}
	.st138{fill:url(#SVGID_00000148640293377475698900000009481237514567496585_);}
	.st139{fill:url(#SVGID_00000170979249919017218470000010426582096824931978_);}
	.st140{fill:url(#SVGID_00000163042678463795545560000015162224667234183586_);}
	.st141{fill:url(#SVGID_00000124842372340122011830000005673824894840647561_);}
	.st142{fill:url(#SVGID_00000155105149805472866200000005414509083077284250_);}
	.st143{fill:url(#SVGID_00000068643767402801805270000014815368190151587505_);}
	.st144{fill:url(#SVGID_00000055672894129535110160000004143281182012565383_);}
	.st145{fill:url(#SVGID_00000062914785968107198320000004625308762252721341_);}
	.st146{fill:url(#SVGID_00000060011810381476877450000000218915592833687955_);}
	.st147{fill:url(#SVGID_00000080174779643573802230000016271048593046562478_);}
	.st148{fill:url(#SVGID_00000043447927863480187950000011796712297911440790_);}
	.st149{fill:url(#SVGID_00000085244561364812711860000002700463517636437667_);}
	.st150{fill:url(#SVGID_00000145027843760110067730000010652246062689583517_);}
	.st151{fill:url(#SVGID_00000109731385424638479820000006239049178950174646_);}
	.st152{fill:url(#SVGID_00000099620520639443064740000016817446100263609511_);}
	.st153{fill:url(#SVGID_00000015323900089128303100000012487225785404041094_);}
	.st154{fill:url(#SVGID_00000067222435233923110890000014211918840225041536_);}
	.st155{fill:url(#SVGID_00000133528213559976621200000008207635953568609943_);}
	.st156{fill:url(#SVGID_00000094617487376793093430000007967329430014727320_);}
	.st157{fill:url(#SVGID_00000142157726326343103620000009024768580569397637_);}
	.st158{fill:url(#SVGID_00000005236138199591084560000010748122394880846782_);}
	.st159{fill:url(#SVGID_00000123412777216505925430000005867469997715751097_);}
	.st160{fill:url(#SVGID_00000155108377790486512370000001868259011596562108_);}
	.st161{fill:url(#SVGID_00000098908968869722240770000008586221998181013688_);}
	.st162{fill:url(#SVGID_00000040562686935794916030000010837733837148917383_);}
	.st163{fill:url(#SVGID_00000135666527922818606180000006843444086749464465_);}
	.st164{fill:url(#SVGID_00000055704129299608323550000012721033902137140121_);}
	.st165{fill:url(#SVGID_00000165951805814986422210000005746548847431348107_);}
	.st166{fill:url(#SVGID_00000135658061274897100690000009599496818018725273_);}
	.st167{fill:url(#SVGID_00000032624150432256188520000007850081938235760541_);}
	.st168{fill:url(#SVGID_00000119832700817322867500000014106468222540144265_);}
	.st169{fill:url(#SVGID_00000158002125131022710820000014601775411909070238_);}
	.st170{fill:url(#SVGID_00000171711836179047422950000015302062810661247406_);}
	.st171{fill:url(#SVGID_00000050640176622988530720000016797414908638978959_);}
	.st172{fill:url(#SVGID_00000136384623316561658030000013411748419699211663_);}
	.st173{fill:url(#SVGID_00000152953885179929311240000017556687753809368468_);}
	.st174{fill:url(#SVGID_00000061443710755217377110000001550661878823561355_);}
	.st175{fill:url(#SVGID_00000113346785535964879730000004017763452359413418_);}
	.st176{fill:url(#SVGID_00000030477871913975565880000011677431179854313623_);}
	.st177{fill:url(#SVGID_00000008147248322975412040000014626233580374459798_);}
	.st178{fill:url(#SVGID_00000118374818822113942700000017005110302260846472_);}
	.st179{fill:url(#SVGID_00000008134972027312456790000016659680416601827759_);}
	.st180{fill:url(#SVGID_00000142165108159523747530000000890444036011294367_);}
	.st181{fill:url(#SVGID_00000037659487404590155670000002761718757134934458_);}
	.st182{fill:url(#SVGID_00000029729329525237415230000001388497051468410298_);}
	.st183{fill:url(#SVGID_00000103258335453104049380000015616772685189074582_);}
	.st184{fill:url(#SVGID_00000140693745366195047300000008475111618563777966_);}
	.st185{fill:url(#SVGID_00000081641382749471121590000001526049573235367041_);}
	.st186{fill:url(#SVGID_00000007389764343476070300000000811234317137822849_);}
	.st187{fill:url(#SVGID_00000016761320799930190300000003633967721342220195_);}
	.st188{fill:url(#SVGID_00000054247328646113973850000017082829638783771783_);}
	.st189{fill:url(#SVGID_00000089576088179483728930000003094008347355415740_);}
	.st190{fill:url(#SVGID_00000096060447527532727840000007069567365420950719_);}
	.st191{fill:url(#SVGID_00000154423041394650920580000005892765654950022786_);}
	.st192{fill:url(#SVGID_00000119087156034553045350000001707524678747931277_);}
	.st193{fill:url(#SVGID_00000081610596676856337420000003167400741576880791_);}
	.st194{fill:url(#SVGID_00000026164779417313330740000014938812590632739751_);}
	.st195{fill:url(#SVGID_00000036213328914645876570000013388686859106113206_);}
	.st196{fill:url(#SVGID_00000125597166785843029460000014042990406519217835_);}
	.st197{fill:url(#SVGID_00000131342909131686375700000002207054283227504013_);}
	.st198{fill:url(#SVGID_00000045600973967959957950000014748737747686402495_);}
	.st199{fill:url(#SVGID_00000124841022654788355300000004183079341402002100_);}
	.st200{fill:url(#SVGID_00000177451655105241066790000015910494737806770854_);}
	.st201{fill:url(#SVGID_00000106134750077361507030000006091771284837419700_);}
	.st202{fill:url(#SVGID_00000020379790725475818750000009210415466061970060_);}
	.st203{fill:url(#SVGID_00000129193370133375226040000003898011509345021871_);}
	.st204{fill:url(#SVGID_00000160171276845192174550000005348011677275640744_);}
	.st205{fill:url(#SVGID_00000131331268495536340240000009400151146727749039_);}
	.st206{fill:url(#SVGID_00000143578840225223829420000000205018679096997540_);}
	.st207{fill:url(#SVGID_00000009562480243296860090000011439152003025268666_);}
	.st208{fill:url(#SVGID_00000005947478945955021090000001373521188975478409_);}
	.st209{fill:url(#SVGID_00000122719512553797605510000003412463394615935112_);}
	.st210{fill:url(#SVGID_00000010290016889620510440000018344645239975327893_);}
	.st211{fill:url(#SVGID_00000028310235878283538410000017088990962166294930_);}
	.st212{fill:url(#SVGID_00000098200521703029578380000000656556205603570313_);}
	.st213{fill:url(#SVGID_00000013884277013258228620000008409810572168571837_);}
	.st214{fill:url(#SVGID_00000159450738584618980830000011542337255119604647_);}
	.st215{fill:url(#SVGID_00000051355862705933586920000006236891344475482535_);}
	.st216{fill:url(#SVGID_00000137108333826978912100000003292792709957606560_);}
	.st217{fill:url(#SVGID_00000085218399399655135290000010388322455947037093_);}
	.st218{fill:url(#SVGID_00000161608690776509261130000001165585317851878042_);}
	.st219{fill:url(#SVGID_00000107571974964476028090000011126226130943941533_);}
	.st220{fill:url(#SVGID_00000011713737375567048110000005685709247526760125_);}
	.st221{fill:url(#SVGID_00000032650531449582246400000010979402149716471713_);}
	.st222{fill:url(#SVGID_00000080911873345996483940000016880604122335715259_);}
	.st223{fill:url(#SVGID_00000098909105488606193320000017862198372515093154_);}
	.st224{fill:url(#SVGID_00000065765730080829454750000009209020870418399674_);}
	.st225{fill:url(#SVGID_00000151532809417794846650000009731801374394676098_);}
	.st226{fill:url(#SVGID_00000090998976576166306080000017605654302897692288_);}
	.st227{fill:url(#SVGID_00000158734682054287880780000009005741606550887086_);}
	.st228{fill:url(#SVGID_00000147194198398963628280000010824692921655176111_);}
	.st229{fill:url(#SVGID_00000043418681074566062800000004284757868269183678_);}
	.st230{fill:url(#SVGID_00000095317398560656586090000005756884865517416617_);}
	.st231{fill:url(#SVGID_00000142164596965333088550000002799984073484285623_);}
	.st232{fill:url(#SVGID_00000159440634301758974210000000318896992836286111_);}
	.st233{fill:url(#SVGID_00000047744991790984961850000003598805887578549909_);}
	.st234{fill:url(#SVGID_00000007402834183947303230000012835009383607474319_);}
	.st235{fill:url(#SVGID_00000117675884305851751270000012158220660569442968_);}
	.st236{fill:url(#SVGID_00000005972983902530538960000017393749767874158994_);}
	.st237{fill:url(#SVGID_00000067201246928050228010000002732880180956173463_);}
	.st238{fill:url(#SVGID_00000083798092915342215580000008300935137353079945_);}
	.st239{fill:url(#SVGID_00000011712934889569031290000001448418426057749655_);}
	.st240{fill:url(#SVGID_00000090995968407580130800000014330445194444036017_);}
	.st241{fill:url(#SVGID_00000073696467715045530460000002153555623208211386_);}
	.st242{fill:url(#SVGID_00000098908401905886160510000005397910906774524818_);}
	.st243{fill:url(#SVGID_00000032638639019047980580000011274878074940892343_);}
	.st244{fill:url(#SVGID_00000049931088945906110980000010094418235019917747_);}
	.st245{fill:url(#SVGID_00000070101918695922581430000002080564503811208360_);}
	.st246{fill:url(#SVGID_00000103248241496914991040000018111345702572470914_);}
	.st247{fill:url(#SVGID_00000149346964465586452320000000268997801291397799_);}
	.st248{fill:url(#SVGID_00000098194100872144942830000000486755185134073742_);}
	.st249{fill:url(#SVGID_00000016063921506204141440000005317491123260309130_);}
	.st250{fill:url(#SVGID_00000107564141165137618170000010650007946797767076_);}
</style>
<g id="Layer_1">
</g>
<g id="Layer_2">
	<g>
		<g>
			<path class="st2" d="M500.1,313.3c-5.3-16.9-20.7-29.9-38.7-35.8c-56.7-26.6-235.2-20.1-312.3,22.5l3.9-3.9
				c-11,4.4-20,11.6-26.4,20.3c-2.8,2.8-5.2,5.7-7.1,8.7C170.7,136.5,462.4,103,500.1,313.3z"/>
			<g>
				<path d="M502.5,312.6c-4.7-14.5-15.9-25.8-29.2-32.8c-5.2-2.7-10.8-4.8-16.2-6.9c-3.8-1.5-7.6-2.7-11.5-3.8
					c-20.7-5.8-42.4-8-63.8-9.2c-26.4-1.5-53-1-79.3,1c-27.1,2-54.1,5.6-80.7,11.4c-23,5-46.1,11.6-67.3,22
					c-2.2,1.1-4.4,2.2-6.6,3.4c1,1.3,2,2.6,3,3.9c1.3-1.3,2.6-2.6,3.9-3.9c1.6-1.6,0-5.2-2.4-4.2c-7.2,3-13.9,7-19.7,12.3
					c-2.7,2.5-5.1,5.1-7.3,8c-2.6,3.4-5.6,6.3-8,9.9c1.5,0.6,3,1.3,4.6,1.9c4.8-17.6,11.9-34.5,21.2-50.2
					c8.9-14.9,19.7-28.7,32.1-40.9c12.1-11.9,25.5-22.3,40.1-31c14.4-8.6,29.7-15.7,45.6-20.9c15.6-5.1,31.8-8.6,48.2-10.2
					c15.9-1.5,32.1-1.3,48,1c15.6,2.2,31,6.4,45.4,12.7c14.4,6.3,28,14.6,39.9,24.9c12.4,10.7,23.1,23.4,31.6,37.5
					c9.5,15.8,16.3,33,20.7,50.9c1.2,4.8,2.2,9.6,3.1,14.5C498.3,317.1,503.1,315.8,502.5,312.6c-3.5-19.2-9.3-37.9-18.1-55.4
					c-7.8-15.4-17.9-29.6-30.1-41.8c-11.4-11.5-24.7-21.1-39-28.6c-14.3-7.4-29.6-12.8-45.3-16.1c-16.1-3.4-32.6-4.6-49.1-4
					c-16.8,0.7-33.6,3.3-49.8,7.7c-16.5,4.5-32.4,10.8-47.5,18.7c-15.3,8.1-29.7,18-42.8,29.4c-13.3,11.6-25.1,25-35.1,39.5
					c-10.3,15.1-18.6,31.6-24.6,48.9c-1.5,4.4-2.9,8.8-4.1,13.3c-0.8,2.8,3,4.3,4.6,1.9c2.2-3.3,4.9-5.9,7.3-9
					c2.1-2.7,4.4-5.2,6.8-7.6c5.2-4.8,11.3-8.7,17.9-11.4c-0.8-1.4-1.6-2.8-2.4-4.2c-1.3,1.3-2.6,2.6-3.9,3.9c-2,2,0.5,5.3,3,3.9
					c19.6-10.8,41.3-17.5,63-22.7c25.7-6.2,51.9-10.1,78.2-12.5c26.3-2.4,52.8-3.3,79.2-2.4c21.9,0.7,44,2.5,65.4,7.4
					c7.8,1.8,16.1,4.1,23.1,7.3c3.1,1.4,6.4,2.4,9.5,3.9c3.4,1.7,6.7,3.6,9.8,5.8c5.9,4.2,11.1,9.5,14.8,15.6c1.8,3,3.3,6.1,4.3,9.5
					C498.7,317,503.5,315.7,502.5,312.6z"/>
			</g>
		</g>
		<g>
			<path class="st3" d="M499.3,335c-6.3,40.1-43.9,61.2-78.7,75.5c-46.8,22.1-96.8,38.7-148.5,28.7c-50.4-6.9-111.5-6.4-145.5-50.3
				c-18.5-22.8-17.3-53.6-1.4-75c5.9-6,13.5-11.4,22.5-16.4l-11.4,11.6c77-54,338.4-72.2,363.6,8.8c-0.4-2.4-0.7-4.7-1.1-7
				C501,318.3,501.4,326.4,499.3,335z"/>
			<g>
				<path d="M496.9,334.4c-2.5,15.4-10,29-21,40c-11,11-24.6,19.2-38.5,26c-7.4,3.6-15,6.6-22.4,10.1c-9.4,4.3-18.8,8.4-28.5,12.1
					c-19,7.2-38.7,13-58.9,15.6c-10,1.3-20.2,1.8-30.3,1.5c-5.2-0.2-10.5-0.6-15.7-1.3c-4.5-0.6-9-1.5-13.6-2.1
					c-15.6-2-31.4-3.4-47-5.6c-30.6-4.4-62.8-12.2-85.3-34.9c-6-6-11.3-12.8-14.9-20.5c-3.6-7.5-5.4-15.9-5.4-24.2
					c0-8.1,1.7-16.3,4.9-23.8c1.6-3.7,3.6-7.2,6-10.5c2.5-3.6,6.7-6.5,10.2-9c4-2.9,8.1-5.4,12.4-7.8c-1-1.3-2-2.6-3-3.9
					c-3.8,3.9-7.6,7.7-11.4,11.6c-1.9,2,0.6,5.6,3,3.9c8.5-5.9,17.8-10.6,27.3-14.7c11.4-4.8,23.1-8.7,35-12.1
					c13.6-3.8,27.4-7,41.3-9.6c14.7-2.7,29.5-4.8,44.3-6.4c15.3-1.6,30.6-2.6,45.9-3c14.9-0.4,29.9-0.2,44.8,0.7
					c13.7,0.9,27.3,2.4,40.8,4.8c12,2.2,24,5.1,35.5,9.4c9.4,3.5,18.7,7.9,26.9,14c6.6,4.9,12.5,11.2,16.2,18.9
					c0.8,1.7,1.4,3.1,2,5.2c1,3.1,5.3,1.8,4.8-1.3c-0.4-2.3-0.7-4.7-1.1-7c-1.6,0.4-3.2,0.9-4.8,1.3
					C498.5,319.1,498.7,326.8,496.9,334.4c-0.7,3.1,4.1,4.5,4.8,1.3c2-8.4,1.9-17.1-0.6-25.4c-1-3.1-5.4-1.8-4.8,1.3
					c0.4,2.3,0.8,4.7,1.1,7c1.6-0.4,3.2-0.9,4.8-1.3c-2.6-8.4-7.7-15.8-14.1-21.8c-7.3-6.9-16.1-12-25.3-16.1
					c-10.9-4.9-22.4-8.3-34-10.9c-13.3-3-26.9-4.9-40.5-6.2c-14.8-1.4-29.7-1.9-44.6-1.9c-15.4,0.1-30.9,0.8-46.3,2.1
					c-15.4,1.3-30.7,3.2-45.9,5.7c-14.4,2.4-28.8,5.3-43,8.9c-12.7,3.2-25.2,7-37.5,11.7c-10.4,4-20.6,8.6-30.1,14.4
					c-2,1.2-4,2.5-5.9,3.9c1,1.3,2,2.6,3,3.9c3.8-3.9,7.6-7.7,11.4-11.6c2-2-0.5-5.3-3-3.9c-4.6,2.6-9.2,5.4-13.4,8.6
					c-3.6,2.7-7.6,5.6-10.3,9.2c-5,6.8-8.6,14.7-10.5,23c-4,17.2-0.7,35.6,9.3,50.2c9.4,13.6,22.5,24.5,37.2,31.9
					c14.5,7.4,30.3,11.7,46.3,14.7c16.3,3,32.8,4.7,49.2,6.6c3.9,0.4,7.9,0.9,11.8,1.4c4.6,0.6,9.1,1.4,13.6,2.1
					c10.6,1.5,21.2,2,31.9,1.5c21-0.9,41.6-5.4,61.5-12c19.2-6.3,37.5-14.8,55.9-22.9c28.7-12.6,59-30.8,69.8-62.1
					c1.3-3.9,2.3-7.9,3-11.9C502.2,332.5,497.4,331.2,496.9,334.4z"/>
			</g>
		</g>
		<g>
			<path class="st4" d="M381.5,427.1c-2.7,1.6-6.5,2.3-9.4,3.3c-9.8,3.3-19.8,6.1-30,8.3c-27.1,6.5-54.9,3.9-82.4,2.2
				c-56.1,0.9-94.4-57.6-107.2-106.5c-3.2-12-5.1-25.8,2.5-35.8l0.4-0.4c76.9-35,237.4-51.4,313.4-10.9
				C478.9,347.6,429.7,397.7,381.5,427.1z"/>
			<g>
				<path d="M380.2,424.9c-2.6,1.5-5.6,2-8.4,2.9c-3.3,1-6.5,2.1-9.7,3.1c-6.9,2.1-13.9,3.8-21,5.4c-14,3.2-28.2,4.2-42.5,4
					c-7.1-0.1-14.2-0.4-21.3-0.9c-6.7-0.4-13.5-1-20.2-1.1c-9.7-0.2-19.3-2.2-28.2-5.9c-18.1-7.5-33-21.4-44.6-36.9
					c-11.9-16-20.9-34.2-26.9-53.1c-3.2-10.1-6.7-21.4-4.8-32c0.5-2.6,1.3-5.2,2.6-7.6c0.4-0.6,0.7-1.3,1.2-1.9
					c0.1-0.1,0.4-0.5,0.4-0.6c0.6-0.6,0,0,0.1-0.1c0.8-0.5,1.8-0.8,2.7-1.2c3.5-1.6,7.1-3,10.8-4.4c17-6.5,34.6-11.3,52.3-15.3
					c19.9-4.5,40.1-7.7,60.5-10c21.1-2.3,42.3-3.5,63.5-3.3c19.9,0.1,39.9,1.4,59.6,4.6c17.4,2.8,34.8,6.9,51,13.9
					c3.5,1.5,7,3.1,10.3,4.9c-0.4-0.5-0.8-1-1.1-1.5c3.7,22.1-1.1,44.3-11.6,63.9c-10.7,20-26.4,37-43.8,51.4
					C401.2,411.2,390.9,418.4,380.2,424.9c-2.7,1.7-0.2,6,2.5,4.3c24.6-15,47.5-33.7,64.7-56.9c17-22.8,27.6-50.6,24.5-79.3
					c-0.2-1.7-0.4-3.4-0.7-5c-0.2-1.2-0.3-2.2-1.4-3c-0.5-0.4-1.2-0.6-1.8-0.9c-2.3-1.2-4.6-2.3-7-3.3c-4.9-2.2-10-4.1-15.1-5.8
					c-10.9-3.7-22.1-6.3-33.5-8.3c-25.6-4.6-51.8-6-77.8-5.6c-27.1,0.4-54.1,2.9-80.9,7.2c-24.5,3.9-48.9,9.3-72.5,17.1
					c-5.1,1.7-10.2,3.5-15.2,5.5c-2.5,1-5,2-7.5,3.1c-1,0.4-2,0.9-3,1.3c-1.5,0.7-2.4,1.2-3.3,2.5c-8.9,12.3-4.9,28.9-1,42.3
					c7.2,24.7,19.4,48.5,36.4,67.9c16.8,19.1,39.4,33.6,65.3,35.3c3.6,0.2,7.1,0.2,10.7,0.4c4.7,0.3,9.3,0.6,14,0.9
					c9.1,0.5,18.2,0.9,27.4,0.8c9.1-0.1,18.3-0.8,27.3-2.2c9-1.4,18-3.6,26.8-6.1c4.3-1.2,8.6-2.6,12.8-4c3.6-1.2,7.3-1.9,10.6-3.8
					C385.5,427.6,383,423.3,380.2,424.9z"/>
			</g>
		</g>
	</g>
	<g>
		<g>
			<path d="M98.6,465.9c-0.1,15.4-9.8,29.8-24.4,35c-14.9,5.4-31.7,0.8-41.8-11.4c-9.9-12-11.1-29.6-3-42.9
				c8-13.3,24-20.4,39.2-17.3c15.3,3.1,27.2,15.5,29.7,30.9C98.5,462,98.6,464,98.6,465.9c0,3.2,5,3.2,5,0
				c-0.1-17.7-11.3-33.7-27.9-39.8c-16.5-6-35.8-0.8-47,12.8c-11.3,13.7-12.9,33.6-3.7,48.9c9.2,15.3,27.4,23.1,44.8,19.6
				c16.9-3.4,30.6-17.6,33.2-34.7c0.3-2.2,0.5-4.5,0.5-6.7C103.6,462.7,98.6,462.7,98.6,465.9z"/>
		</g>
	</g>
	<g>
		<path class="st5" d="M547.8,411.6c-0.2-3.5-0.4-7.1-0.6-10.6c-0.1-1.1,0.1-2.5,1.1-2.9c0.7,4.7,0.9,9.4,0.6,14.1"/>
		<g>
			<path d="M550.3,411.6c-0.1-2.5-0.3-4.9-0.4-7.4c-0.1-1.2-0.2-2.3-0.2-3.5c0-0.2,0-0.4,0-0.6c0-0.5-0.1,0.5,0,0
				c0.2-0.5-0.3,0.3,0,0c-0.2,0.3-0.3,0.3-0.1,0.1c-0.3,0.2-0.3,0.3-0.1,0.1c-1.2-0.5-2.4-1-3.7-1.5c0.3,1.8,0.5,4.4,0.6,6.5
				c0.1,2.3,0.1,4.6-0.1,6.9c-0.1,1.3,1.2,2.6,2.5,2.5c1.4-0.1,2.4-1.1,2.5-2.5c0.3-4.9,0-9.9-0.7-14.8c-0.1-0.7-0.8-1.3-1.4-1.6
				c-0.8-0.3-1.5-0.2-2.2,0.1c-2.7,1.2-2.3,4.7-2.2,7.1c0.2,2.8,0.3,5.7,0.5,8.5c0.1,1.3,1.1,2.6,2.5,2.5
				C549.1,414.1,550.4,413,550.3,411.6L550.3,411.6z"/>
		</g>
	</g>
	<g>
		<g>
			<path class="st5" d="M530.9,422.2c-2.6-0.4-5.1-1.4-7.2-2.9c-0.4-0.3-0.9-0.7-1-1.3c-0.1-0.7,0.5-1.3,1-1.8
				c2.4-1.8,5.5-2.4,8.4-2.9c12.6-1.9,25.4-1.4,38.1-0.8c3,0.1,6.4,0.6,7.9,3.1c0.2,0.4,0.4,0.9,0.3,1.4c-0.1,0.7-0.8,1.1-1.5,1.4
				c-3.3,1.6-6.9,2.7-10.5,3"/>
			<g>
				<path d="M531.6,419.8c-2.2-0.3-4.2-1.1-6.1-2.3c-0.1-0.1-0.5-0.4-0.5-0.4c1,0.2-0.6,1.6,0.2,1.3c0.4-0.2,0.7-0.5,1.1-0.7
					c0.9-0.5,2-0.9,3-1.1c4.8-1.3,9.9-1.5,14.9-1.8c5.3-0.3,10.6-0.2,15.9-0.1c2.7,0.1,5.4,0.2,8.1,0.3c2,0.1,4.1,0.1,6,0.7
					c0.7,0.2,1.2,0.6,1.8,1c-0.5-0.4,0.3,0.3,0.2,0.3c0.1-0.4,0.2-0.7,0.3-1.1c-0.2,0.1-0.3,0.2-0.5,0.3c-0.5,0.3-1,0.5-1.6,0.7
					c-2.5,1-5.2,1.7-7.9,2c-1.3,0.1-2.5,1.1-2.5,2.5c0,1.3,1.1,2.6,2.5,2.5c3.2-0.3,6.2-1,9.2-2.2c1.4-0.6,2.9-1.1,4-2.1
					c1.4-1.3,1.6-3.3,0.8-4.9c-2.7-5.4-10.6-4.7-15.6-4.9c-6.7-0.3-13.4-0.4-20-0.1c-3.4,0.2-6.8,0.4-10.2,0.9c-3,0.4-6.2,0.7-9,1.9
					c-1.5,0.6-3.1,1.4-4.2,2.7c-1.3,1.5-1.5,3.7-0.1,5.3c2.1,2.4,6,3.8,9,4.2c1.3,0.2,2.7-0.3,3.1-1.7
					C533.6,421.7,532.9,420,531.6,419.8L531.6,419.8z"/>
			</g>
		</g>
		<g>
			<path class="st6" d="M529,412.2c-4.9-9.5-1.6-22.4,7.2-28.4c7.4-5,15.3-10.7,18.4-19.1c6.6-18-11.7-38.7-3.8-56.1
				c1.4,6.3,5.9,11.4,10.1,16.3c5.8,6.8,11.3,14,14.8,22.2c3.5,8.2,4.9,17.6,2.1,26.1c-2,6.1-5.9,11.3-8.5,17.1
				c-2.6,5.8-3.9,13-0.5,18.4c0.3,0.5,0.1,1.1-0.1,1.6c-0.1,0.5-0.1,1.3,0.5,1.4c0.5,0.1,0.6-1.1,0.1-0.8"/>
			<g>
				<path d="M531.2,411c-3.1-6.1-2.4-13.6,1.1-19.4c1.9-3.1,4.5-5.1,7.5-7.2c3.4-2.4,6.8-4.9,9.8-7.8c5.9-5.8,9.2-13.1,9-21.4
					c-0.2-7.6-2.7-15-4.7-22.2c-2.1-7.4-4.1-15.8-0.9-23.2c-1.5-0.2-3-0.4-4.6-0.6c1.9,8.2,8.2,14.3,13.4,20.6
					c5.2,6.4,10.2,13.4,12.8,21.4c2.7,7.9,3.1,16.6-0.4,24.3c-3.5,7.6-8.8,14.3-9.8,22.9c-0.3,2.2-0.2,4.5,0.3,6.7
					c0.2,1.1,0.6,2.1,1.1,3.2c0.1,0.2,0.2,0.5,0.3,0.7c0.1,0.1,0.1,0.2,0.2,0.3c0.2,0.4,0.2,0.2,0.1-0.4c-0.2,0.1-0.3,1.6-0.3,1.6
					c-0.1,2.6,2.9,5.1,5.1,2.9c2-2,0.3-5.8-2.6-4.9c-3.1,0.9-1.8,5.7,1.3,4.8c0,0,0.1,0,0.1,0c-0.6-0.1-1.3-0.2-1.9-0.3
					c0,0,0.1,0,0.1,0c-0.3-0.3-0.6-0.6-0.9-0.9c0-0.6,0-1.2-0.1-1.8c0.3-0.3,0.6-0.6,0.9-0.9c0,0-0.1,0-0.1,0.1
					c0.4-0.1,0.8-0.2,1.3-0.3c-0.1,0-0.1,0-0.2,0c0.4,0.1,0.8,0.2,1.3,0.3c0,0,0.1,0,0.1,0.1c0.2,0.4,0.4,0.7,0.6,1.1
					c-0.2-0.5-0.2,0.6,0-0.1c0.2-0.5,0.2-1,0.2-1.5c0-1.1-0.6-1.9-1.1-2.8c-0.7-1.4-1-3-1.1-4.6c-0.2-3.4,0.7-6.7,2-9.8
					c3-7.1,8-13.2,9.7-20.9c3.5-15.9-4.7-31-14.3-43c-4.9-6.2-11.6-12.1-13.5-20.1c-0.5-2-3.7-2.6-4.6-0.6c-6.7,15.1,3.2,30,4.7,45
					c0.4,3.6,0.3,7.1-0.8,10.6c-1.1,3.8-3.4,7-6.2,9.8c-3,3-6.3,5.5-9.8,7.9c-3.3,2.3-6.2,4.7-8.4,8.1c-4.7,7.4-5.3,17-1.3,24.8
					C528.3,416.4,532.6,413.8,531.2,411L531.2,411z"/>
			</g>
		</g>
		<g>
			<path class="st5" d="M527.4,421.3c13.9,4.7,29.2,3.1,43.2-1.2"/>
			<g>
				<path d="M526.8,423.7c14.5,4.8,30.2,3.2,44.5-1.2c3.1-0.9,1.8-5.8-1.3-4.8c-13.6,4.1-28.2,5.7-41.9,1.2
					C525,417.9,523.7,422.7,526.8,423.7L526.8,423.7z"/>
			</g>
		</g>
		<g>
			<circle class="st4" cx="550.7" cy="465.9" r="39.8"/>
			<g>
				<path d="M588,465.9c-0.1,15.4-9.8,29.8-24.4,35c-14.9,5.4-31.7,0.8-41.8-11.4c-9.9-12-11.1-29.6-3-42.9
					c8-13.3,24-20.4,39.2-17.3c15.3,3.1,27.2,15.5,29.7,30.9C587.9,462,588,464,588,465.9c0,3.2,5,3.2,5,0
					c-0.1-17.7-11.3-33.7-27.9-39.8c-16.5-6-35.8-0.8-47,12.8c-11.3,13.7-12.9,33.6-3.7,48.9c9.2,15.3,27.4,23.1,44.8,19.6
					c16.9-3.4,30.6-17.6,33.2-34.7c0.3-2.2,0.5-4.5,0.5-6.7C593.1,462.7,588.1,462.7,588,465.9z"/>
			</g>
		</g>
		<g>
			<g>
				<path class="st7" d="M530.6,423.2c-2.6-0.4-5.1-1.4-7.2-2.9c-0.4-0.3-0.9-0.7-1-1.3c-0.1-0.7,0.5-1.3,1-1.8
					c2.4-1.8,5.5-2.4,8.4-2.9c12.6-1.9,25.4-1.4,38.1-0.8c3,0.1,6.4,0.6,7.9,3.1c0.2,0.4,0.4,0.9,0.3,1.4c-0.1,0.7-0.8,1.1-1.5,1.4
					c-3.3,1.6-6.9,2.7-10.5,3"/>
				<g>
					<path d="M531.3,420.8c-2.2-0.3-4.2-1.1-6.1-2.3c-0.1-0.1-0.5-0.4-0.5-0.4c1,0.2-0.6,1.6,0.2,1.3c0.4-0.2,0.7-0.5,1.1-0.7
						c0.9-0.5,2-0.9,3-1.1c4.8-1.3,9.9-1.5,14.9-1.8c5.3-0.3,10.6-0.2,15.9-0.1c2.7,0.1,5.4,0.2,8.1,0.3c2,0.1,4.1,0.1,6,0.7
						c0.7,0.2,1.2,0.6,1.8,1c-0.5-0.4,0.3,0.3,0.2,0.3c0.1-0.4,0.2-0.7,0.3-1.1c-0.2,0.1-0.3,0.2-0.5,0.3c-0.5,0.3-1,0.5-1.6,0.7
						c-2.5,1-5.2,1.7-7.9,2c-1.3,0.1-2.5,1.1-2.5,2.5c0,1.3,1.1,2.6,2.5,2.5c3.2-0.3,6.2-1,9.2-2.2c1.4-0.6,2.9-1.1,4-2.1
						c1.4-1.3,1.6-3.3,0.8-4.9c-2.7-5.4-10.6-4.7-15.6-4.9c-6.7-0.3-13.4-0.4-20-0.1c-3.4,0.2-6.8,0.4-10.2,0.9
						c-3,0.4-6.2,0.7-9,1.9c-1.5,0.6-3.1,1.4-4.2,2.7c-1.3,1.5-1.5,3.7-0.1,5.3c2.1,2.4,6,3.8,9,4.2c1.3,0.2,2.7-0.3,3.1-1.7
						C533.4,422.7,532.6,421,531.3,420.8L531.3,420.8z"/>
				</g>
			</g>
			<g>
				<path class="st7" d="M548,399.2c0.7,4.5,0.9,9,0.6,13.5l-1.1,0c-0.2-3.5-0.4-7.1-0.6-10.6C546.9,400.9,547,399.5,548,399.2z"/>
				<g>
					<path d="M545.6,399.8c0,0,0.1,0.8,0.1,0.4c0,0.3,0.1,0.6,0.1,0.9c0.1,0.5,0.1,1.1,0.2,1.6c0.1,1.1,0.2,2.2,0.2,3.3
						c0.1,2.2,0.1,4.4,0,6.6c0.8-0.8,1.7-1.7,2.5-2.5c-0.4,0-0.7,0-1.1,0c0.8,0.8,1.7,1.7,2.5,2.5c-0.1-2.5-0.3-5-0.4-7.4
						c-0.1-1.2-0.2-2.4-0.2-3.5c0-0.2,0-0.3,0-0.5c0-0.3,0-0.2,0,0.1c0-0.1,0-0.2,0.1-0.3c0.1-0.5-0.3,0.4,0,0
						c-0.1,0.2-0.3,0.4-0.5,0.5c0.1-0.1,0.2-0.1,0.3-0.1c1.2-0.5,1.6-2.4,0.9-3.4c-0.8-1.2-2.1-1.5-3.4-0.9
						c-2.8,1.2-2.3,4.7-2.2,7.2c0.2,2.8,0.3,5.7,0.5,8.5c0.1,1.3,1.1,2.5,2.5,2.5c0.4,0,0.7,0,1.1,0c1.4,0,2.4-1.1,2.5-2.5
						c0.3-4.7,0-9.5-0.7-14.1c-0.2-1.3-1.9-2.1-3.1-1.7C545.9,397.2,545.4,398.4,545.6,399.8z"/>
				</g>
			</g>
			<g>
				<path class="st7" d="M568.9,412.7c-0.3-0.1-0.5-0.4-0.5-0.8l0.7,0C569.5,411.7,569.5,412.9,568.9,412.7z"/>
				<g>
					<path d="M569.6,410.3C569.6,410.3,569.5,410.3,569.6,410.3c0.1,0.1,0.3,0.1,0.5,0.2c0,0-0.1,0-0.1-0.1c0.2,0.1,0.3,0.3,0.5,0.4
						c0,0-0.1-0.1-0.1-0.1c0.1,0.2,0.3,0.3,0.4,0.5c0-0.1-0.1-0.1-0.1-0.2c0.1,0.2,0.2,0.4,0.3,0.6c0-0.1-0.1-0.2-0.1-0.3
						c0,0.2,0.1,0.4,0.1,0.7c0,0,0,0,0,0c-0.8,0.8-1.7,1.7-2.5,2.5c0.2,0,0.4,0,0.6,0c0,0,0,0,0,0c0,0,0,0,0,0c0,0,0,0,0,0
						c0.2,0,0.4-0.1,0.7-0.1c0.2-0.1,0.4-0.2,0.6-0.3c0,0,0,0,0,0c-0.2,0.1-0.4,0.2-0.6,0.3c0,0,0,0,0.1,0c-0.2,0-0.4,0.1-0.7,0.1
						c0,0,0,0,0,0c-0.2,0-0.4-0.1-0.7-0.1c0,0,0,0,0,0c-0.2-0.1-0.4-0.2-0.6-0.3c0,0,0,0,0,0c-0.2-0.1-0.3-0.3-0.5-0.4c0,0,0,0,0,0
						c-0.1-0.2-0.3-0.3-0.4-0.5c0,0,0,0,0,0.1c-0.1-0.2-0.2-0.4-0.3-0.6c0,0,0,0.1,0,0.1c0-0.2-0.1-0.4-0.1-0.7c0,0.1,0,0.1,0,0.2
						c0-0.2,0.1-0.4,0.1-0.7c0,0.1,0,0.1,0,0.2c0.1-0.2,0.2-0.4,0.3-0.6c0,0,0,0.1-0.1,0.1c0.1-0.2,0.3-0.3,0.4-0.5c0,0,0,0-0.1,0.1
						c0.2-0.1,0.3-0.3,0.5-0.4c0,0,0,0-0.1,0c0.2-0.1,0.4-0.2,0.6-0.3c0,0,0,0-0.1,0c0.2,0,0.4-0.1,0.7-0.1c0,0-0.1,0-0.1,0
						C569.2,410.3,569.4,410.3,569.6,410.3C569.6,410.3,569.6,410.3,569.6,410.3c-0.3-0.1-0.7-0.1-1,0c-0.3,0-0.6,0.1-0.9,0.3
						c-0.3,0.2-0.5,0.4-0.7,0.6c-0.2,0.2-0.4,0.5-0.4,0.9c0,0.2-0.1,0.4-0.1,0.7c0,0.5,0.1,0.9,0.3,1.3c0.1,0.2,0.3,0.3,0.4,0.5
						c0.3,0.3,0.7,0.5,1.1,0.6c0,0,0,0,0,0c0,0,0,0,0,0c0.1,0,0.6,0.1,0.7,0.1c0,0,0,0,0,0c0,0,0,0,0,0c0,0,0,0,0,0
						c0,0,0.6-0.1,0.7-0.1c0,0,0,0,0,0c0,0,0,0,0,0c0,0,0,0,0,0c0.1,0,0.4-0.2,0.3-0.1c0,0,0.2-0.1,0.3-0.1c0,0,0,0,0.1,0
						c0,0,0.5-0.4,0.5-0.4c0,0,0,0,0,0c0,0,0,0,0,0c0,0,0,0,0,0c0,0,0,0,0,0c0,0,0,0,0,0c0-0.1,0.3-0.4,0.4-0.5c0,0,0,0,0,0
						c0,0,0,0,0-0.1c0,0,0,0,0,0c0.1-0.2,0.2-0.4,0.3-0.6c0,0,0,0,0,0c0,0,0,0,0-0.1c0,0,0,0,0,0c0,0,0,0,0,0c0-0.2,0.1-0.5,0.1-0.7
						c0-0.1,0-0.1,0-0.2c0,0,0,0,0,0c0-0.2-0.1-0.5-0.1-0.7c0,0,0,0,0,0c0,0,0,0,0-0.1c0,0.1-0.2-0.5-0.3-0.6c0,0,0,0,0,0
						c0,0-0.4-0.5-0.4-0.5c0,0,0,0,0,0c0,0,0,0,0,0c-0.4-0.4-0.4-0.4-0.8-0.5c-0.1,0-0.2-0.1-0.3-0.1c0,0,0,0,0,0
						c0,0-0.6-0.1-0.7-0.1c0,0,0,0,0,0c-0.1,0-0.4,0.1-0.4,0c0,0-0.3,0-0.4,0.1c0,0,0,0,0,0c0,0,0,0,0,0c-0.1,0-0.5,0.2-0.6,0.3
						c0,0,0,0,0,0c0.4-0.1,0.8-0.2,1.3-0.3c-0.2,0-0.4,0-0.7,0c-0.3,0-0.7,0.1-1,0.2c-0.3,0.1-0.6,0.3-0.8,0.5
						c-0.1,0.2-0.3,0.3-0.4,0.5c-0.2,0.4-0.3,0.8-0.3,1.3c0,0.3,0.1,0.5,0.1,0.8c0,0,0,0.1,0,0.1c0,0,0,0,0,0.1c0,0,0,0,0,0
						c0.1,0.2,0.2,0.4,0.3,0.6c0,0,0,0.1,0.1,0.1c0.1,0.2,0.3,0.4,0.5,0.6c0,0,0.1,0.1,0.1,0.1c0.1,0.1,0.4,0.3,0.5,0.4
						c0,0,0,0,0.1,0c0.2,0.1,0.5,0.2,0.7,0.3c0.3,0.1,0.7,0.1,1,0c0.3,0,0.6-0.1,0.9-0.3c0.3-0.2,0.5-0.4,0.7-0.6
						c0.2-0.2,0.4-0.5,0.4-0.9c0-0.2,0.1-0.4,0.1-0.7c0-0.5-0.1-0.9-0.3-1.3c-0.1-0.2-0.3-0.3-0.4-0.5
						C570.4,410.7,570,410.5,569.6,410.3z"/>
				</g>
			</g>
			<g>
				<path class="st7" d="M548.7,412.6c0,0.2,0,0.3,0,0.5c0,0,0,0.1,0,0.2l-0.3-0.1l-0.8-0.4v0c-0.2-3.5-0.4-7.1-0.6-10.6
					c-0.1-1.1,0-2.5,1.1-2.9C548.7,403.6,548.9,408.1,548.7,412.6z"/>
				<g>
					<path d="M546.2,412.6c0,0.2,0,0.4,0,0.6c1.3-0.7,2.5-1.4,3.8-2.2c-0.4-0.2-0.7-0.4-1.1-0.6c0.4,0.7,0.8,1.4,1.2,2.2
						c0-2.4-0.3-4.9-0.4-7.3c-0.1-1.2-0.2-2.4-0.2-3.5c0-0.2,0-0.4,0-0.6c0-0.1,0-0.2,0-0.3c-0.1,0.4-0.1,0.4,0,0.1
						c0.1-0.2,0.1-0.2,0,0c-0.1,0.2-0.1,0.2,0,0c-0.2,0.3-0.3,0.3-0.1,0.1c-0.3,0.2-0.3,0.3-0.1,0.1c-1.2-0.5-2.4-1-3.7-1.5
						c0,0,0.1,0.8,0.1,0.4c0,0.3,0.1,0.5,0.1,0.8c0.1,0.5,0.1,1.1,0.2,1.6c0.1,1.1,0.2,2.2,0.2,3.3
						C546.3,408.2,546.3,410.4,546.2,412.6c-0.1,1.3,1.2,2.6,2.5,2.5c1.4-0.1,2.4-1.1,2.5-2.5c0.3-4.7,0-9.5-0.7-14.1
						c-0.1-0.7-0.8-1.3-1.4-1.6c-0.8-0.3-1.5-0.2-2.2,0.1c-2.8,1.3-2.3,4.8-2.2,7.3c0.1,1.4,0.2,2.8,0.2,4.2
						c0.1,1.4,0.2,2.8,0.2,4.2c0,0.9,0.5,1.7,1.2,2.2c0.4,0.2,0.7,0.4,1.1,0.6c1.7,0.9,3.6-0.2,3.8-2.2c0-0.2,0-0.4,0-0.6
						c0-1.3-1.2-2.6-2.5-2.5C547.3,410.2,546.2,411.2,546.2,412.6z"/>
				</g>
			</g>
			<g>
				<path class="st7" d="M527.2,422.4c13.9,4.7,29.2,3.1,43.2-1.2"/>
				<g>
					<path d="M526.5,424.8c14.5,4.8,30.2,3.2,44.5-1.2c3.1-0.9,1.8-5.8-1.3-4.8c-13.6,4.1-28.2,5.7-41.9,1.2
						C524.8,419,523.4,423.8,526.5,424.8L526.5,424.8z"/>
				</g>
			</g>
		</g>
	</g>
</g>
</svg>
