<?xml version="1.0" encoding="utf-8"?>
<!-- Generator: Adobe Illustrator 28.2.0, SVG Export Plug-In . SVG Version: 6.00 Build 0)  -->
<svg version="1.1" xmlns="http://www.w3.org/2000/svg" xmlns:xlink="http://www.w3.org/1999/xlink" x="0px" y="0px"
	 viewBox="0 0 612 612" style="enable-background:new 0 0 612 612;" xml:space="preserve">
<style type="text/css">
	.st0{fill:#603913;}
	.st1{fill:#414042;}
	.st2{fill:#6D6E71;}
	.st3{fill:#FFFFFF;}
	.st4{fill:#A7A9AC;}
	.st5{fill:#BCBEC0;}
	.st6{fill:#8B5E3C;}
	.st7{fill:#58595B;}
	.st8{fill:#939598;}
	.st9{fill:#D1D3D4;}
	.st10{fill:#754C29;}
	.st11{fill:none;stroke:#000000;stroke-miterlimit:10;}
	.st12{fill:#8255A3;}
	.st13{fill:url(#SVGID_1_);}
	.st14{fill:#090E17;}
	.st15{fill:#9471B2;}
	.st16{fill:url(#SVGID_00000160191231314572859420000000109404580944984756_);}
	.st17{fill:url(#SVGID_00000110439334034882652750000011171797873287616921_);}
	.st18{fill:url(#SVGID_00000000927024300562323470000012894459985529729716_);}
	.st19{fill:url(#SVGID_00000048487569621667882670000000718081018630236550_);}
	.st20{fill:url(#SVGID_00000114060135367385846110000010806813018992994746_);}
	.st21{fill:url(#SVGID_00000036233216827474571160000013898659574177334710_);}
	.st22{fill:url(#SVGID_00000161589595320814895200000005924147482160354990_);}
	.st23{fill:url(#SVGID_00000100377492126655552870000003561125728780276379_);}
	.st24{fill:url(#SVGID_00000107566207642792660940000008371646720714833032_);}
	.st25{fill:#A97C50;}
	.st26{fill:#009444;}
	.st27{fill:#39B54A;}
	.st28{fill:#FBF398;}
	.st29{fill:url(#SVGID_00000183938358382428121960000006998242187872974773_);}
	.st30{fill:url(#SVGID_00000021110962549287967670000010652973441054317704_);}
	.st31{fill:url(#SVGID_00000136401141464147683190000016376087101455529123_);}
	.st32{fill:url(#SVGID_00000047767159927548343650000009331079906729849498_);}
	.st33{fill:url(#SVGID_00000181800920105048406170000004103340119235337632_);}
	.st34{fill:url(#SVGID_00000057841921259934809440000007886728516319438732_);}
	.st35{fill:url(#SVGID_00000078758221969492052240000005494990304232140679_);}
	.st36{fill:url(#SVGID_00000059278877207412903120000005083833396298499495_);}
	.st37{fill:url(#SVGID_00000111177764134798264010000008248649970406999946_);}
	.st38{fill:url(#SVGID_00000055686747141492280840000013256502297839430541_);}
	.st39{fill:url(#SVGID_00000097458996162378743380000007900024940988944809_);}
	.st40{fill:url(#SVGID_00000003074895779693895240000009955127945487871409_);}
	.st41{fill:url(#SVGID_00000106845120374935262650000018422172037657572508_);}
	.st42{fill:url(#SVGID_00000092436867838237687790000012215654810183650432_);}
	.st43{fill:url(#SVGID_00000080169108877446359910000007307737261430874040_);}
	.st44{fill:url(#SVGID_00000137813511806652572060000012673831623568410252_);}
	.st45{fill:url(#SVGID_00000018231771775869840840000018399288483226361261_);}
	.st46{fill:url(#SVGID_00000010285504078262142210000003935268496228746379_);}
	.st47{fill:url(#SVGID_00000000213203056513307740000011568258671950276505_);}
	.st48{fill:url(#SVGID_00000133500988339360493880000017199960966695775133_);}
	.st49{fill:url(#SVGID_00000049920285292346827910000017791949656236379798_);}
	.st50{fill:url(#SVGID_00000126293353351043680750000006471349543189290934_);}
	.st51{fill:url(#SVGID_00000175318283699912235820000017570366399029354398_);}
	.st52{fill:url(#SVGID_00000065061199637651941320000018354241902306528951_);}
	.st53{fill:url(#SVGID_00000137093262472573390630000014855729988747936915_);}
	.st54{fill:url(#SVGID_00000041296763285005223750000012856979744500964241_);}
	.st55{fill:url(#SVGID_00000131366589030720263210000000316844792313689778_);}
	.st56{fill:url(#SVGID_00000018921808895084637750000006610500147821876620_);}
	.st57{fill:url(#SVGID_00000117667695408356516110000011840139084823269765_);}
	.st58{fill:url(#SVGID_00000034048724995136871760000016875428085494311812_);}
	.st59{fill:url(#SVGID_00000018200388673123825920000002625770528147956108_);}
	.st60{fill:url(#SVGID_00000051384808983287365750000011952259850147229877_);}
	.st61{fill:url(#SVGID_00000088124453302150153250000013513519743710093482_);}
	.st62{fill:url(#SVGID_00000104682783604038236540000001729749758659541171_);}
	.st63{fill:url(#SVGID_00000157308780100111730950000002734479023345600954_);}
	.st64{fill:url(#SVGID_00000010293204603709319930000007148900926053813948_);}
	.st65{fill:url(#SVGID_00000046329207199079616830000015354653750284745655_);}
	.st66{fill:url(#SVGID_00000123399891495339925800000005274472970453617064_);}
	.st67{fill:url(#SVGID_00000029014029516420277030000015437404573168763550_);}
	.st68{fill:url(#SVGID_00000020396550970838544000000011919428766971712928_);}
	.st69{fill:url(#SVGID_00000052816709751401415490000003890438154269277095_);}
	.st70{fill:url(#SVGID_00000147193465606766174730000017331499209823558278_);}
	.st71{fill:url(#SVGID_00000036950159532978787740000012905523321576535469_);}
	.st72{fill:url(#SVGID_00000021836306356433753990000017695706379565649082_);}
	.st73{fill:url(#SVGID_00000047764912863464717540000003455785689465302463_);}
	.st74{fill:url(#SVGID_00000084501005086581620480000003598557841909289857_);}
	.st75{fill:url(#SVGID_00000069359775608763948450000006957912572059432588_);}
	.st76{fill:url(#SVGID_00000053545658241720843820000016055177655143633295_);}
	.st77{fill:url(#SVGID_00000143605507092741069130000015752968859445819820_);}
	.st78{fill:url(#SVGID_00000034054081793596313290000012284186020859909287_);}
	.st79{fill:url(#SVGID_00000035508045425949288540000014635424184259306656_);}
	.st80{fill:url(#SVGID_00000005240049380926609810000011479472915489131650_);}
	.st81{fill:url(#SVGID_00000057854597138711183850000017547030291241096098_);}
	.st82{fill:url(#SVGID_00000101102970342592356860000013302806932184677275_);}
	.st83{fill:url(#SVGID_00000100341780326772892390000011406225579685231009_);}
	.st84{fill:url(#SVGID_00000132072537512288815800000006328183070462031781_);}
	.st85{fill:url(#SVGID_00000068647187965686847520000011474863059002621861_);}
	.st86{fill:#006838;}
	.st87{fill:url(#SVGID_00000168798233242766316620000014976708398708246916_);}
	.st88{fill:url(#SVGID_00000164484981832885786680000010710439607479139501_);}
	.st89{fill:url(#SVGID_00000121261968697077904090000003496347699206983565_);}
	.st90{fill:url(#SVGID_00000129170546520718313670000009805741563898929337_);}
	.st91{fill:url(#SVGID_00000013905381518017653540000001539680441991346829_);}
	.st92{fill:url(#SVGID_00000089533000296163401080000003562608593554018977_);}
	.st93{fill:url(#SVGID_00000079480533839167369800000016115694558856100260_);}
	.st94{fill:url(#SVGID_00000125569891061553976450000016598953235071797439_);}
	.st95{fill:url(#SVGID_00000068640667862373973850000016012496925474946971_);}
	.st96{fill:url(#SVGID_00000123425952351934680750000011590943132480324480_);}
	.st97{fill:url(#SVGID_00000083792086403672828880000016439069198333112241_);}
	.st98{fill:url(#SVGID_00000051355884912413040690000005911932399685869988_);}
	.st99{fill:url(#SVGID_00000144338382506318023280000003594588933202430085_);}
	.st100{fill:url(#SVGID_00000077295101683611504570000009010289608965880195_);}
	.st101{fill:url(#SVGID_00000014629226827197365530000003003898812068057520_);}
	.st102{fill:url(#SVGID_00000036222819894815159310000000138561962618113192_);}
	.st103{fill:url(#SVGID_00000054262273260753986270000003824392300374861495_);}
	.st104{fill:url(#SVGID_00000182517632847915632920000007690415072448217769_);}
	.st105{fill:url(#SVGID_00000175322918972268123450000003628729868727997856_);}
	.st106{fill:url(#SVGID_00000085225451714713194110000002568877283542173061_);}
	.st107{fill:url(#SVGID_00000002345178528398588660000014071608747276658092_);}
	.st108{fill:url(#SVGID_00000016797204520479745520000016803978676417506177_);}
	.st109{fill:url(#SVGID_00000003786019287994327460000009704622048955893682_);}
	.st110{fill:url(#SVGID_00000163041562202953016950000010850595297942668199_);}
	.st111{fill:url(#SVGID_00000025433573146519983010000003988120067500518307_);}
	.st112{fill:url(#SVGID_00000103254843084393633150000005952580009984955021_);}
	.st113{fill:url(#SVGID_00000053510073662051776690000002512199610871975063_);}
	.st114{fill:url(#SVGID_00000066474298364463619430000001685032481973903010_);}
	.st115{fill:url(#SVGID_00000151528415615267444150000005749467575232890276_);}
	.st116{fill:url(#SVGID_00000181783671214190087800000000853297588632155296_);}
	.st117{fill:url(#SVGID_00000080165678335443144210000005334591696013864871_);}
	.st118{fill:url(#SVGID_00000118360304685232076520000001572109868403434668_);}
	.st119{fill:url(#SVGID_00000042000139844791326630000014234365175728118676_);}
	.st120{fill:url(#SVGID_00000127763077444854347880000008514488292455749787_);}
	.st121{fill:url(#SVGID_00000145029916471952002070000007309916702033683597_);}
	.st122{fill:url(#SVGID_00000011720609459367427410000018407443882378530992_);}
	.st123{fill:url(#SVGID_00000036240644659632074060000001634731318167779508_);}
	.st124{fill:url(#SVGID_00000122687991244754991070000012761203857497192374_);}
	.st125{fill:url(#SVGID_00000146484884597862618230000010635139626392284086_);}
	.st126{fill:url(#SVGID_00000026158750603058861650000004930150405893446022_);}
	.st127{fill:url(#SVGID_00000111170836534580881320000013492031507631548053_);}
	.st128{fill:url(#SVGID_00000163058910961988063540000014796132004995360902_);}
	.st129{fill:url(#SVGID_00000157282389543056202000000013200370144481543834_);}
	.st130{fill:url(#SVGID_00000075877042698707399330000013347039219332163487_);}
	.st131{fill:url(#SVGID_00000155124034160537302670000003083860347886397068_);}
	.st132{fill:url(#SVGID_00000173869913897085515920000014922307075408657544_);}
	.st133{fill:url(#SVGID_00000067917387668447532780000011925138077636805796_);}
	.st134{fill:url(#SVGID_00000039104646895518873950000008439255962218506675_);}
	.st135{fill:url(#SVGID_00000007424013939338426830000007479087055093813945_);}
	.st136{fill:url(#SVGID_00000176009682047231943230000002326558833949253292_);}
	.st137{fill:url(#SVGID_00000182517918563754860950000009058280565679612557_);}
	.st138{fill:url(#SVGID_00000082358976653757343070000016518921433264282036_);}
	.st139{fill:url(#SVGID_00000180346936191561703890000015894905153342401446_);}
	.st140{fill:url(#SVGID_00000008149921876130289370000016811556616158681998_);}
	.st141{fill:url(#SVGID_00000155132831078454874870000010451785682424516495_);}
	.st142{fill:url(#SVGID_00000017503272288349910250000001591174435900815268_);}
	.st143{fill:url(#SVGID_00000080208285363497338950000017915247526255228603_);}
	.st144{fill:url(#SVGID_00000167387718119341436960000015262034361850687396_);}
	.st145{fill:url(#SVGID_00000168092846628945615430000016338709810435258556_);}
	.st146{fill:url(#SVGID_00000177468802978699477080000014416162590596976054_);}
	.st147{fill:url(#SVGID_00000114761084784352551970000004492316618074135687_);}
	.st148{fill:url(#SVGID_00000139978637946276448040000005164341400816366250_);}
	.st149{fill:url(#SVGID_00000042727228104223104390000014824292846588595612_);}
	.st150{fill:url(#SVGID_00000121962211532036812220000001995370227504832659_);}
	.st151{fill:url(#SVGID_00000179622061101892353790000018211417635334519699_);}
	.st152{fill:url(#SVGID_00000124859885076467095210000017393027137868185524_);}
	.st153{fill:url(#SVGID_00000176039105381070148660000001235212312654196379_);}
	.st154{fill:url(#SVGID_00000116230545756699041300000004266416861392630150_);}
	.st155{fill:url(#SVGID_00000079477931462267500210000002592245585363050670_);}
	.st156{fill:url(#SVGID_00000154398820192137816530000007423904836034629052_);}
	.st157{fill:url(#SVGID_00000047062168863045446080000018355309758747566477_);}
	.st158{fill:url(#SVGID_00000003784856185212057080000003273749001886737817_);}
	.st159{fill:url(#SVGID_00000104672954111167588830000015792755371741026453_);}
	.st160{fill:url(#SVGID_00000114784663022220970740000016792633087569293699_);}
	.st161{fill:url(#SVGID_00000112619865019099369260000006922540690427674497_);}
	.st162{fill:url(#SVGID_00000026129979136358287450000017039609228640058508_);}
	.st163{fill:url(#SVGID_00000116194713179268806830000003217201171717724549_);}
	.st164{fill:url(#SVGID_00000023988634798612980100000012141810769497001874_);}
	.st165{fill:url(#SVGID_00000127740281352506850470000005431829033546956950_);}
	.st166{fill:url(#SVGID_00000066503506288408191680000002670729239381611147_);}
	.st167{fill:url(#SVGID_00000137091818581383617060000002841522480921954740_);}
	.st168{fill:url(#SVGID_00000067211322234793704660000009759369359636936341_);}
	.st169{fill:url(#SVGID_00000151522095350241264180000006183454520448844945_);}
	.st170{fill:url(#SVGID_00000072985615874647301580000009655535581545907851_);}
	.st171{fill:url(#SVGID_00000086654905982548127620000004727207354155842748_);}
	.st172{fill:url(#SVGID_00000122700943003419825700000005239535370845805961_);}
	.st173{fill:url(#SVGID_00000070835302804909898780000003311625116407808920_);}
	.st174{fill:url(#SVGID_00000081643290439506274260000007205682784481406862_);}
	.st175{fill:url(#SVGID_00000045593735877321539860000002570066641585846407_);}
	.st176{fill:url(#SVGID_00000005945783272832143330000013382981926566910882_);}
	.st177{fill:url(#SVGID_00000080889517271746982560000001018925976291139462_);}
	.st178{fill:url(#SVGID_00000075138765775344709490000015155929176612138664_);}
	.st179{fill:url(#SVGID_00000162316183924092094780000015665527044678286476_);}
	.st180{fill:url(#SVGID_00000079453591436299100570000005571347547139441563_);}
	.st181{fill:url(#SVGID_00000096760321371330820380000002550624792438501530_);}
	.st182{fill:url(#SVGID_00000005978711813545334130000011719502696992242088_);}
	.st183{fill:url(#SVGID_00000175293938386753057660000018131237420849580425_);}
	.st184{fill:url(#SVGID_00000052071162400180109820000017330736743237274756_);}
	.st185{fill:url(#SVGID_00000082360965602324366300000016353110857597105053_);}
	.st186{fill:url(#SVGID_00000098918771650320993350000012217609543707129773_);}
	.st187{fill:url(#SVGID_00000132803294841464858450000017916517283231817633_);}
	.st188{fill:url(#SVGID_00000063616590585225461090000006939655894719894455_);}
	.st189{fill:url(#SVGID_00000026874273821329208260000003403794404702557607_);}
	.st190{fill:url(#SVGID_00000047027082976304536180000008207892822085256619_);}
	.st191{fill:url(#SVGID_00000167384915367181256540000001547935728539721632_);}
	.st192{fill:url(#SVGID_00000139997538777947926000000013976929886024379579_);}
	.st193{fill:url(#SVGID_00000093162920308301619440000009856662388491983798_);}
	.st194{fill:url(#SVGID_00000107569238709839077860000002947120822649961645_);}
	.st195{fill:url(#SVGID_00000005254486691016001660000000347747561936693658_);}
	.st196{fill:url(#SVGID_00000088833602701315689640000013056755865917495471_);}
	.st197{fill:url(#SVGID_00000003790073944839571490000010582739534499131546_);}
	.st198{fill:url(#SVGID_00000144325225056003354250000007651299766289290377_);}
	.st199{fill:url(#SVGID_00000053516239121900833580000016767009792516787644_);}
	.st200{fill:url(#SVGID_00000182515088477905364650000008678532982208206227_);}
	.st201{fill:url(#SVGID_00000063602397752051477570000005654420021042947751_);}
	.st202{fill:url(#SVGID_00000055703851668486473340000011054762540922385068_);}
	.st203{fill:url(#SVGID_00000035494224575087740770000012741041388340539577_);}
	.st204{fill:url(#SVGID_00000164515014462881920470000012004695701416532613_);}
	.st205{fill:url(#SVGID_00000026870461759741091560000017217769339164948355_);}
	.st206{fill:url(#SVGID_00000077315295018109227960000013469054972513413532_);}
	.st207{fill:url(#SVGID_00000183207312163505183780000006238789152719791765_);}
	.st208{fill:url(#SVGID_00000142856958946209792600000009940341819456576700_);}
	.st209{fill:url(#SVGID_00000018215458837437935680000001190386145730088881_);}
	.st210{fill:url(#SVGID_00000104672601269832537320000006111166116139520952_);}
	.st211{fill:url(#SVGID_00000062173118934394430250000011221363760872702898_);}
	.st212{fill:url(#SVGID_00000044175492346449113430000010503789600770667150_);}
	.st213{fill:url(#SVGID_00000051372430199951682780000017804371236744908704_);}
	.st214{fill:url(#SVGID_00000099634882021771267920000007825290701619938977_);}
	.st215{fill:url(#SVGID_00000180360617238067944850000002444483937736627086_);}
	.st216{fill:url(#SVGID_00000009567169447543287870000012351325365330143618_);}
	.st217{fill:url(#SVGID_00000075124565602208348390000010588703460077545868_);}
	.st218{fill:url(#SVGID_00000098215633358907233520000014198672927858787757_);}
	.st219{fill:url(#SVGID_00000096046586458042702080000014419936710977203080_);}
	.st220{fill:url(#SVGID_00000000945526052550176500000002143666045245865143_);}
	.st221{fill:url(#SVGID_00000061456848590593209620000016410992115985232553_);}
	.st222{fill:url(#SVGID_00000075127699852212133700000013503591308220496523_);}
	.st223{fill:url(#SVGID_00000023988021088724251740000004772267082165088926_);}
	.st224{fill:url(#SVGID_00000060008095713003587030000017908842188181603758_);}
	.st225{fill:url(#SVGID_00000176004440236532603160000004360463020030820233_);}
	.st226{fill:url(#SVGID_00000076572467424571975650000011577523870758192828_);}
	.st227{fill:url(#SVGID_00000040571671239671333040000015044689720252884400_);}
	.st228{fill:url(#SVGID_00000075140130292274061400000015585570171971431602_);}
	.st229{fill:url(#SVGID_00000101104949647595960540000014713116513060631447_);}
	.st230{fill:url(#SVGID_00000133491383187415450010000000684396199234075781_);}
	.st231{fill:url(#SVGID_00000080898173499515241580000007937538166659135620_);}
	.st232{fill:url(#SVGID_00000124146799093898624080000006521925502817680283_);}
	.st233{fill:url(#SVGID_00000147217722450326251660000009937942429029740721_);}
	.st234{fill:url(#SVGID_00000091719192607257404180000013517044192290546339_);}
	.st235{fill:url(#SVGID_00000183947068451235383930000009720155436944005261_);}
	.st236{fill:url(#SVGID_00000121257561974369008410000001266966420320297118_);}
	.st237{fill:url(#SVGID_00000005232433918002545170000015622723704234012332_);}
	.st238{fill:url(#SVGID_00000053516431311518410880000012714988445888518059_);}
	.st239{fill:url(#SVGID_00000040535698687555126120000014896750905469798556_);}
	.st240{fill:url(#SVGID_00000118395973312293716490000005088862988238116536_);}
	.st241{fill:url(#SVGID_00000142865617953574254330000010318935977116839604_);}
	.st242{fill:url(#SVGID_00000142895364025844565080000010220773627481724808_);}
	.st243{fill:url(#SVGID_00000155840006669734869720000002921065613336727704_);}
	.st244{fill:url(#SVGID_00000144335410016110336430000002433137788992146109_);}
	.st245{fill:url(#SVGID_00000163037997929264803500000010712762676603212672_);}
	.st246{fill:url(#SVGID_00000156549534868421336490000002068673209445253518_);}
	.st247{fill:url(#SVGID_00000033370871136270531410000003528612139378624179_);}
	.st248{fill:url(#SVGID_00000119092327403606980430000010266693345955207606_);}
	.st249{fill:url(#SVGID_00000044150324407440135890000014351514688989885593_);}
</style>
<g id="Layer_1">
</g>
<g id="Layer_2">
	<g>
		<g>
			<path class="st1" d="M500.1,313.3c-5.3-16.9-20.7-29.9-38.7-35.8c-56.7-26.6-235.2-20.1-312.3,22.5l3.9-3.9
				c-11,4.4-20,11.6-26.4,20.3c-2.8,2.8-5.2,5.7-7.1,8.7C170.7,136.5,462.4,103,500.1,313.3z"/>
			<g>
				<path d="M502.5,312.6c-4.7-14.5-15.9-25.8-29.2-32.8c-5.2-2.7-10.8-4.8-16.2-6.9c-3.8-1.5-7.6-2.7-11.5-3.8
					c-20.7-5.8-42.4-8-63.8-9.2c-26.4-1.5-53-1-79.3,1c-27.1,2-54.1,5.6-80.7,11.4c-23,5-46.1,11.6-67.3,22
					c-2.2,1.1-4.4,2.2-6.6,3.4c1,1.3,2,2.6,3,3.9c1.3-1.3,2.6-2.6,3.9-3.9c1.6-1.6,0-5.2-2.4-4.2c-7.2,3-13.9,7-19.7,12.3
					c-2.7,2.5-5.1,5.1-7.3,8c-2.6,3.4-5.6,6.3-8,9.9c1.5,0.6,3,1.3,4.6,1.9c4.8-17.6,11.9-34.5,21.2-50.2
					c8.9-14.9,19.7-28.7,32.1-40.9c12.1-11.9,25.5-22.3,40.1-31c14.4-8.6,29.7-15.7,45.6-20.9c15.6-5.1,31.8-8.6,48.2-10.2
					c15.9-1.5,32.1-1.3,48,1c15.6,2.2,31,6.4,45.4,12.7c14.4,6.3,28,14.6,39.9,24.9c12.4,10.7,23.1,23.4,31.6,37.5
					c9.5,15.8,16.3,33,20.7,50.9c1.2,4.8,2.2,9.6,3.1,14.5C498.3,317.1,503.1,315.8,502.5,312.6c-3.5-19.2-9.3-37.9-18.1-55.4
					c-7.8-15.4-17.9-29.6-30.1-41.8c-11.4-11.5-24.7-21.1-39-28.6c-14.3-7.4-29.6-12.8-45.3-16.1c-16.1-3.4-32.6-4.6-49.1-4
					c-16.8,0.7-33.6,3.3-49.8,7.7c-16.5,4.5-32.4,10.8-47.5,18.7c-15.3,8.1-29.7,18-42.8,29.4c-13.3,11.6-25.1,25-35.1,39.5
					c-10.3,15.1-18.6,31.6-24.6,48.9c-1.5,4.4-2.9,8.8-4.1,13.3c-0.8,2.8,3,4.3,4.6,1.9c2.2-3.3,4.9-5.9,7.3-9
					c2.1-2.7,4.4-5.2,6.8-7.6c5.2-4.8,11.3-8.7,17.9-11.4c-0.8-1.4-1.6-2.8-2.4-4.2c-1.3,1.3-2.6,2.6-3.9,3.9c-2,2,0.5,5.3,3,3.9
					c19.6-10.8,41.3-17.5,63-22.7c25.7-6.2,51.9-10.1,78.2-12.5c26.3-2.4,52.8-3.3,79.2-2.4c21.9,0.7,44,2.5,65.4,7.4
					c7.8,1.8,16.1,4.1,23.1,7.3c3.1,1.4,6.4,2.4,9.5,3.9c3.4,1.7,6.7,3.6,9.8,5.8c5.9,4.2,11.1,9.5,14.8,15.6c1.8,3,3.3,6.1,4.3,9.5
					C498.7,317,503.5,315.7,502.5,312.6z"/>
			</g>
		</g>
		<g>
			<path class="st2" d="M499.3,335c-6.3,40.1-43.9,61.2-78.7,75.5c-46.8,22.1-96.8,38.7-148.5,28.7c-50.4-6.9-111.5-6.4-145.5-50.3
				c-18.5-22.8-17.3-53.6-1.4-75c5.9-6,13.5-11.4,22.5-16.4l-11.4,11.6c77-54,338.4-72.2,363.6,8.8c-0.4-2.4-0.7-4.7-1.1-7
				C501,318.3,501.4,326.4,499.3,335z"/>
			<g>
				<path d="M496.9,334.4c-2.5,15.4-10,29-21,40c-11,11-24.6,19.2-38.5,26c-7.4,3.6-15,6.6-22.4,10.1c-9.4,4.3-18.8,8.4-28.5,12.1
					c-19,7.2-38.7,13-58.9,15.6c-10,1.3-20.2,1.8-30.3,1.5c-5.2-0.2-10.5-0.6-15.7-1.3c-4.5-0.6-9-1.5-13.6-2.1
					c-15.6-2-31.4-3.4-47-5.6c-30.6-4.4-62.8-12.2-85.3-34.9c-6-6-11.3-12.8-14.9-20.5c-3.6-7.5-5.4-15.9-5.4-24.2
					c0-8.1,1.7-16.3,4.9-23.8c1.6-3.7,3.6-7.2,6-10.5c2.5-3.6,6.7-6.5,10.2-9c4-2.9,8.1-5.4,12.4-7.8c-1-1.3-2-2.6-3-3.9
					c-3.8,3.9-7.6,7.7-11.4,11.6c-1.9,2,0.6,5.6,3,3.9c8.5-5.9,17.8-10.6,27.3-14.7c11.4-4.8,23.1-8.7,35-12.1
					c13.6-3.8,27.4-7,41.3-9.6c14.7-2.7,29.5-4.8,44.3-6.4c15.3-1.6,30.6-2.6,45.9-3c14.9-0.4,29.9-0.2,44.8,0.7
					c13.7,0.9,27.3,2.4,40.8,4.8c12,2.2,24,5.1,35.5,9.4c9.4,3.5,18.7,7.9,26.9,14c6.6,4.9,12.5,11.2,16.2,18.9
					c0.8,1.7,1.4,3.1,2,5.2c1,3.1,5.3,1.8,4.8-1.3c-0.4-2.3-0.7-4.7-1.1-7c-1.6,0.4-3.2,0.9-4.8,1.3
					C498.5,319.1,498.7,326.8,496.9,334.4c-0.7,3.1,4.1,4.5,4.8,1.3c2-8.4,1.9-17.1-0.6-25.4c-1-3.1-5.4-1.8-4.8,1.3
					c0.4,2.3,0.8,4.7,1.1,7c1.6-0.4,3.2-0.9,4.8-1.3c-2.6-8.4-7.7-15.8-14.1-21.8c-7.3-6.9-16.1-12-25.3-16.1
					c-10.9-4.9-22.4-8.3-34-10.9c-13.3-3-26.9-4.9-40.5-6.2c-14.8-1.4-29.7-1.9-44.6-1.9c-15.4,0.1-30.9,0.8-46.3,2.1
					c-15.4,1.3-30.7,3.2-45.9,5.7c-14.4,2.4-28.8,5.3-43,8.9c-12.7,3.2-25.2,7-37.5,11.7c-10.4,4-20.6,8.6-30.1,14.4
					c-2,1.2-4,2.5-5.9,3.9c1,1.3,2,2.6,3,3.9c3.8-3.9,7.6-7.7,11.4-11.6c2-2-0.5-5.3-3-3.9c-4.6,2.6-9.2,5.4-13.4,8.6
					c-3.6,2.7-7.6,5.6-10.3,9.2c-5,6.8-8.6,14.7-10.5,23c-4,17.2-0.7,35.6,9.3,50.2c9.4,13.6,22.5,24.5,37.2,31.9
					c14.5,7.4,30.3,11.7,46.3,14.7c16.3,3,32.8,4.7,49.2,6.6c3.9,0.4,7.9,0.9,11.8,1.4c4.6,0.6,9.1,1.4,13.6,2.1
					c10.6,1.5,21.2,2,31.9,1.5c21-0.9,41.6-5.4,61.5-12c19.2-6.3,37.5-14.8,55.9-22.9c28.7-12.6,59-30.8,69.8-62.1
					c1.3-3.9,2.3-7.9,3-11.9C502.2,332.5,497.4,331.2,496.9,334.4z"/>
			</g>
		</g>
		<g>
			<path class="st3" d="M381.5,427.1c-2.7,1.6-6.5,2.3-9.4,3.3c-9.8,3.3-19.8,6.1-30,8.3c-27.1,6.5-54.9,3.9-82.4,2.2
				c-56.1,0.9-94.4-57.6-107.2-106.5c-3.2-12-5.1-25.8,2.5-35.8l0.4-0.4c76.9-35,237.4-51.4,313.4-10.9
				C478.9,347.6,429.7,397.7,381.5,427.1z"/>
			<g>
				<path d="M380.2,424.9c-2.6,1.5-5.6,2-8.4,2.9c-3.3,1-6.5,2.1-9.7,3.1c-6.9,2.1-13.9,3.8-21,5.4c-14,3.2-28.2,4.2-42.5,4
					c-7.1-0.1-14.2-0.4-21.3-0.9c-6.7-0.4-13.5-1-20.2-1.1c-9.7-0.2-19.3-2.2-28.2-5.9c-18.1-7.5-33-21.4-44.6-36.9
					c-11.9-16-20.9-34.2-26.9-53.1c-3.2-10.1-6.7-21.4-4.8-32c0.5-2.6,1.3-5.2,2.6-7.6c0.4-0.6,0.7-1.3,1.2-1.9
					c0.1-0.1,0.4-0.5,0.4-0.6c0.6-0.6,0,0,0.1-0.1c0.8-0.5,1.8-0.8,2.7-1.2c3.5-1.6,7.1-3,10.8-4.4c17-6.5,34.6-11.3,52.3-15.3
					c19.9-4.5,40.1-7.7,60.5-10c21.1-2.3,42.3-3.5,63.5-3.3c19.9,0.1,39.9,1.4,59.6,4.6c17.4,2.8,34.8,6.9,51,13.9
					c3.5,1.5,7,3.1,10.3,4.9c-0.4-0.5-0.8-1-1.1-1.5c3.7,22.1-1.1,44.3-11.6,63.9c-10.7,20-26.4,37-43.8,51.4
					C401.2,411.2,390.9,418.4,380.2,424.9c-2.7,1.7-0.2,6,2.5,4.3c24.6-15,47.5-33.7,64.7-56.9c17-22.8,27.6-50.6,24.5-79.3
					c-0.2-1.7-0.4-3.4-0.7-5c-0.2-1.2-0.3-2.2-1.4-3c-0.5-0.4-1.2-0.6-1.8-0.9c-2.3-1.2-4.6-2.3-7-3.3c-4.9-2.2-10-4.1-15.1-5.8
					c-10.9-3.7-22.1-6.3-33.5-8.3c-25.6-4.6-51.8-6-77.8-5.6c-27.1,0.4-54.1,2.9-80.9,7.2c-24.5,3.9-48.9,9.3-72.5,17.1
					c-5.1,1.7-10.2,3.5-15.2,5.5c-2.5,1-5,2-7.5,3.1c-1,0.4-2,0.9-3,1.3c-1.5,0.7-2.4,1.2-3.3,2.5c-8.9,12.3-4.9,28.9-1,42.3
					c7.2,24.7,19.4,48.5,36.4,67.9c16.8,19.1,39.4,33.6,65.3,35.3c3.6,0.2,7.1,0.2,10.7,0.4c4.7,0.3,9.3,0.6,14,0.9
					c9.1,0.5,18.2,0.9,27.4,0.8c9.1-0.1,18.3-0.8,27.3-2.2c9-1.4,18-3.6,26.8-6.1c4.3-1.2,8.6-2.6,12.8-4c3.6-1.2,7.3-1.9,10.6-3.8
					C385.5,427.6,383,423.3,380.2,424.9z"/>
			</g>
		</g>
	</g>
	<g>
		<circle class="st3" cx="61.3" cy="465.9" r="39.8"/>
		<g>
			<path d="M98.6,465.9c-0.1,15.4-9.8,29.8-24.4,35c-14.9,5.4-31.7,0.8-41.8-11.4c-9.9-12-11.1-29.6-3-42.9
				c8-13.3,24-20.4,39.2-17.3c15.3,3.1,27.2,15.5,29.7,30.9C98.5,462,98.6,464,98.6,465.9c0,3.2,5,3.2,5,0
				c-0.1-17.7-11.3-33.7-27.9-39.8c-16.5-6-35.8-0.8-47,12.8c-11.3,13.7-12.9,33.6-3.7,48.9c9.2,15.3,27.4,23.1,44.8,19.6
				c16.9-3.4,30.6-17.6,33.2-34.7c0.3-2.2,0.5-4.5,0.5-6.7C103.6,462.7,98.6,462.7,98.6,465.9z"/>
		</g>
	</g>
	<g>
		<path class="st4" d="M547.8,411.6c-0.2-3.5-0.4-7.1-0.6-10.6c-0.1-1.1,0.1-2.5,1.1-2.9c0.7,4.7,0.9,9.4,0.6,14.1"/>
		<g>
			<path d="M550.3,411.6c-0.1-2.5-0.3-4.9-0.4-7.4c-0.1-1.2-0.2-2.3-0.2-3.5c0-0.2,0-0.4,0-0.6c0-0.5-0.1,0.5,0,0
				c0.2-0.5-0.3,0.3,0,0c-0.2,0.3-0.3,0.3-0.1,0.1c-0.3,0.2-0.3,0.3-0.1,0.1c-1.2-0.5-2.4-1-3.7-1.5c0.3,1.8,0.5,4.4,0.6,6.5
				c0.1,2.3,0.1,4.6-0.1,6.9c-0.1,1.3,1.2,2.6,2.5,2.5c1.4-0.1,2.4-1.1,2.5-2.5c0.3-4.9,0-9.9-0.7-14.8c-0.1-0.7-0.8-1.3-1.4-1.6
				c-0.8-0.3-1.5-0.2-2.2,0.1c-2.7,1.2-2.3,4.7-2.2,7.1c0.2,2.8,0.3,5.7,0.5,8.5c0.1,1.3,1.1,2.6,2.5,2.5
				C549.1,414.1,550.4,413,550.3,411.6L550.3,411.6z"/>
		</g>
	</g>
	<g>
		<g>
			<path class="st4" d="M530.9,422.2c-2.6-0.4-5.1-1.4-7.2-2.9c-0.4-0.3-0.9-0.7-1-1.3c-0.1-0.7,0.5-1.3,1-1.8
				c2.4-1.8,5.5-2.4,8.4-2.9c12.6-1.9,25.4-1.4,38.1-0.8c3,0.1,6.4,0.6,7.9,3.1c0.2,0.4,0.4,0.9,0.3,1.4c-0.1,0.7-0.8,1.1-1.5,1.4
				c-3.3,1.6-6.9,2.7-10.5,3"/>
			<g>
				<path d="M531.6,419.8c-2.2-0.3-4.2-1.1-6.1-2.3c-0.1-0.1-0.5-0.4-0.5-0.4c1,0.2-0.6,1.6,0.2,1.3c0.4-0.2,0.7-0.5,1.1-0.7
					c0.9-0.5,2-0.9,3-1.1c4.8-1.3,9.9-1.5,14.9-1.8c5.3-0.3,10.6-0.2,15.9-0.1c2.7,0.1,5.4,0.2,8.1,0.3c2,0.1,4.1,0.1,6,0.7
					c0.7,0.2,1.2,0.6,1.8,1c-0.5-0.4,0.3,0.3,0.2,0.3c0.1-0.4,0.2-0.7,0.3-1.1c-0.2,0.1-0.3,0.2-0.5,0.3c-0.5,0.3-1,0.5-1.6,0.7
					c-2.5,1-5.2,1.7-7.9,2c-1.3,0.1-2.5,1.1-2.5,2.5c0,1.3,1.1,2.6,2.5,2.5c3.2-0.3,6.2-1,9.2-2.2c1.4-0.6,2.9-1.1,4-2.1
					c1.4-1.3,1.6-3.3,0.8-4.9c-2.7-5.4-10.6-4.7-15.6-4.9c-6.7-0.3-13.4-0.4-20-0.1c-3.4,0.2-6.8,0.4-10.2,0.9c-3,0.4-6.2,0.7-9,1.9
					c-1.5,0.6-3.1,1.4-4.2,2.7c-1.3,1.5-1.5,3.7-0.1,5.3c2.1,2.4,6,3.8,9,4.2c1.3,0.2,2.7-0.3,3.1-1.7
					C533.6,421.7,532.9,420,531.6,419.8L531.6,419.8z"/>
			</g>
		</g>
		<g>
			<path class="st5" d="M529,412.2c-4.9-9.5-1.6-22.4,7.2-28.4c7.4-5,15.3-10.7,18.4-19.1c6.6-18-11.7-38.7-3.8-56.1
				c1.4,6.3,5.9,11.4,10.1,16.3c5.8,6.8,11.3,14,14.8,22.2c3.5,8.2,4.9,17.6,2.1,26.1c-2,6.1-5.9,11.3-8.5,17.1
				c-2.6,5.8-3.9,13-0.5,18.4c0.3,0.5,0.1,1.1-0.1,1.6c-0.1,0.5-0.1,1.3,0.5,1.4c0.5,0.1,0.6-1.1,0.1-0.8"/>
			<g>
				<path d="M531.2,411c-3.1-6.1-2.4-13.6,1.1-19.4c1.9-3.1,4.5-5.1,7.5-7.2c3.4-2.4,6.8-4.9,9.8-7.8c5.9-5.8,9.2-13.1,9-21.4
					c-0.2-7.6-2.7-15-4.7-22.2c-2.1-7.4-4.1-15.8-0.9-23.2c-1.5-0.2-3-0.4-4.6-0.6c1.9,8.2,8.2,14.3,13.4,20.6
					c5.2,6.4,10.2,13.4,12.8,21.4c2.7,7.9,3.1,16.6-0.4,24.3c-3.5,7.6-8.8,14.3-9.8,22.9c-0.3,2.2-0.2,4.5,0.3,6.7
					c0.2,1.1,0.6,2.1,1.1,3.2c0.1,0.2,0.2,0.5,0.3,0.7c0.1,0.1,0.1,0.2,0.2,0.3c0.2,0.4,0.2,0.2,0.1-0.4c-0.2,0.1-0.3,1.6-0.3,1.6
					c-0.1,2.6,2.9,5.1,5.1,2.9c2-2,0.3-5.8-2.6-4.9c-3.1,0.9-1.8,5.7,1.3,4.8c0,0,0.1,0,0.1,0c-0.6-0.1-1.3-0.2-1.9-0.3
					c0,0,0.1,0,0.1,0c-0.3-0.3-0.6-0.6-0.9-0.9c0-0.6,0-1.2-0.1-1.8c0.3-0.3,0.6-0.6,0.9-0.9c0,0-0.1,0-0.1,0.1
					c0.4-0.1,0.8-0.2,1.3-0.3c-0.1,0-0.1,0-0.2,0c0.4,0.1,0.8,0.2,1.3,0.3c0,0,0.1,0,0.1,0.1c0.2,0.4,0.4,0.7,0.6,1.1
					c-0.2-0.5-0.2,0.6,0-0.1c0.2-0.5,0.2-1,0.2-1.5c0-1.1-0.6-1.9-1.1-2.8c-0.7-1.4-1-3-1.1-4.6c-0.2-3.4,0.7-6.7,2-9.8
					c3-7.1,8-13.2,9.7-20.9c3.5-15.9-4.7-31-14.3-43c-4.9-6.2-11.6-12.1-13.5-20.1c-0.5-2-3.7-2.6-4.6-0.6c-6.7,15.1,3.2,30,4.7,45
					c0.4,3.6,0.3,7.1-0.8,10.6c-1.1,3.8-3.4,7-6.2,9.8c-3,3-6.3,5.5-9.8,7.9c-3.3,2.3-6.2,4.7-8.4,8.1c-4.7,7.4-5.3,17-1.3,24.8
					C528.3,416.4,532.6,413.8,531.2,411L531.2,411z"/>
			</g>
		</g>
		<g>
			<path class="st4" d="M527.4,421.3c13.9,4.7,29.2,3.1,43.2-1.2"/>
			<g>
				<path d="M526.8,423.7c14.5,4.8,30.2,3.2,44.5-1.2c3.1-0.9,1.8-5.8-1.3-4.8c-13.6,4.1-28.2,5.7-41.9,1.2
					C525,417.9,523.7,422.7,526.8,423.7L526.8,423.7z"/>
			</g>
		</g>
		<g>
			<circle class="st3" cx="550.7" cy="465.9" r="39.8"/>
			<g>
				<path d="M588,465.9c-0.1,15.4-9.8,29.8-24.4,35c-14.9,5.4-31.7,0.8-41.8-11.4c-9.9-12-11.1-29.6-3-42.9
					c8-13.3,24-20.4,39.2-17.3c15.3,3.1,27.2,15.5,29.7,30.9C587.9,462,588,464,588,465.9c0,3.2,5,3.2,5,0
					c-0.1-17.7-11.3-33.7-27.9-39.8c-16.5-6-35.8-0.8-47,12.8c-11.3,13.7-12.9,33.6-3.7,48.9c9.2,15.3,27.4,23.1,44.8,19.6
					c16.9-3.4,30.6-17.6,33.2-34.7c0.3-2.2,0.5-4.5,0.5-6.7C593.1,462.7,588.1,462.7,588,465.9z"/>
			</g>
		</g>
		<g>
			<g>
				<path class="st6" d="M530.6,423.2c-2.6-0.4-5.1-1.4-7.2-2.9c-0.4-0.3-0.9-0.7-1-1.3c-0.1-0.7,0.5-1.3,1-1.8
					c2.4-1.8,5.5-2.4,8.4-2.9c12.6-1.9,25.4-1.4,38.1-0.8c3,0.1,6.4,0.6,7.9,3.1c0.2,0.4,0.4,0.9,0.3,1.4c-0.1,0.7-0.8,1.1-1.5,1.4
					c-3.3,1.6-6.9,2.7-10.5,3"/>
				<g>
					<path d="M531.3,420.8c-2.2-0.3-4.2-1.1-6.1-2.3c-0.1-0.1-0.5-0.4-0.5-0.4c1,0.2-0.6,1.6,0.2,1.3c0.4-0.2,0.7-0.5,1.1-0.7
						c0.9-0.5,2-0.9,3-1.1c4.8-1.3,9.9-1.5,14.9-1.8c5.3-0.3,10.6-0.2,15.9-0.1c2.7,0.1,5.4,0.2,8.1,0.3c2,0.1,4.1,0.1,6,0.7
						c0.7,0.2,1.2,0.6,1.8,1c-0.5-0.4,0.3,0.3,0.2,0.3c0.1-0.4,0.2-0.7,0.3-1.1c-0.2,0.1-0.3,0.2-0.5,0.3c-0.5,0.3-1,0.5-1.6,0.7
						c-2.5,1-5.2,1.7-7.9,2c-1.3,0.1-2.5,1.1-2.5,2.5c0,1.3,1.1,2.6,2.5,2.5c3.2-0.3,6.2-1,9.2-2.2c1.4-0.6,2.9-1.1,4-2.1
						c1.4-1.3,1.6-3.3,0.8-4.9c-2.7-5.4-10.6-4.7-15.6-4.9c-6.7-0.3-13.4-0.4-20-0.1c-3.4,0.2-6.8,0.4-10.2,0.9
						c-3,0.4-6.2,0.7-9,1.9c-1.5,0.6-3.1,1.4-4.2,2.7c-1.3,1.5-1.5,3.7-0.1,5.3c2.1,2.4,6,3.8,9,4.2c1.3,0.2,2.7-0.3,3.1-1.7
						C533.4,422.7,532.6,421,531.3,420.8L531.3,420.8z"/>
				</g>
			</g>
			<g>
				<path class="st6" d="M548,399.2c0.7,4.5,0.9,9,0.6,13.5l-1.1,0c-0.2-3.5-0.4-7.1-0.6-10.6C546.9,400.9,547,399.5,548,399.2z"/>
				<g>
					<path d="M545.6,399.8c0,0,0.1,0.8,0.1,0.4c0,0.3,0.1,0.6,0.1,0.9c0.1,0.5,0.1,1.1,0.2,1.6c0.1,1.1,0.2,2.2,0.2,3.3
						c0.1,2.2,0.1,4.4,0,6.6c0.8-0.8,1.7-1.7,2.5-2.5c-0.4,0-0.7,0-1.1,0c0.8,0.8,1.7,1.7,2.5,2.5c-0.1-2.5-0.3-5-0.4-7.4
						c-0.1-1.2-0.2-2.4-0.2-3.5c0-0.2,0-0.3,0-0.5c0-0.3,0-0.2,0,0.1c0-0.1,0-0.2,0.1-0.3c0.1-0.5-0.3,0.4,0,0
						c-0.1,0.2-0.3,0.4-0.5,0.5c0.1-0.1,0.2-0.1,0.3-0.1c1.2-0.5,1.6-2.4,0.9-3.4c-0.8-1.2-2.1-1.5-3.4-0.9
						c-2.8,1.2-2.3,4.7-2.2,7.2c0.2,2.8,0.3,5.7,0.5,8.5c0.1,1.3,1.1,2.5,2.5,2.5c0.4,0,0.7,0,1.1,0c1.4,0,2.4-1.1,2.5-2.5
						c0.3-4.7,0-9.5-0.7-14.1c-0.2-1.3-1.9-2.1-3.1-1.7C545.9,397.2,545.4,398.4,545.6,399.8z"/>
				</g>
			</g>
			<g>
				<path class="st6" d="M568.9,412.7c-0.3-0.1-0.5-0.4-0.5-0.8l0.7,0C569.5,411.7,569.5,412.9,568.9,412.7z"/>
				<g>
					<path d="M569.6,410.3C569.6,410.3,569.5,410.3,569.6,410.3c0.1,0.1,0.3,0.1,0.5,0.2c0,0-0.1,0-0.1-0.1c0.2,0.1,0.3,0.3,0.5,0.4
						c0,0-0.1-0.1-0.1-0.1c0.1,0.2,0.3,0.3,0.4,0.5c0-0.1-0.1-0.1-0.1-0.2c0.1,0.2,0.2,0.4,0.3,0.6c0-0.1-0.1-0.2-0.1-0.3
						c0,0.2,0.1,0.4,0.1,0.7c0,0,0,0,0,0c-0.8,0.8-1.7,1.7-2.5,2.5c0.2,0,0.4,0,0.6,0c0,0,0,0,0,0c0,0,0,0,0,0c0,0,0,0,0,0
						c0.2,0,0.4-0.1,0.7-0.1c0.2-0.1,0.4-0.2,0.6-0.3c0,0,0,0,0,0c-0.2,0.1-0.4,0.2-0.6,0.3c0,0,0,0,0.1,0c-0.2,0-0.4,0.1-0.7,0.1
						c0,0,0,0,0,0c-0.2,0-0.4-0.1-0.7-0.1c0,0,0,0,0,0c-0.2-0.1-0.4-0.2-0.6-0.3c0,0,0,0,0,0c-0.2-0.1-0.3-0.3-0.5-0.4c0,0,0,0,0,0
						c-0.1-0.2-0.3-0.3-0.4-0.5c0,0,0,0,0,0.1c-0.1-0.2-0.2-0.4-0.3-0.6c0,0,0,0.1,0,0.1c0-0.2-0.1-0.4-0.1-0.7c0,0.1,0,0.1,0,0.2
						c0-0.2,0.1-0.4,0.1-0.7c0,0.1,0,0.1,0,0.2c0.1-0.2,0.2-0.4,0.3-0.6c0,0,0,0.1-0.1,0.1c0.1-0.2,0.3-0.3,0.4-0.5c0,0,0,0-0.1,0.1
						c0.2-0.1,0.3-0.3,0.5-0.4c0,0,0,0-0.1,0c0.2-0.1,0.4-0.2,0.6-0.3c0,0,0,0-0.1,0c0.2,0,0.4-0.1,0.7-0.1c0,0-0.1,0-0.1,0
						C569.2,410.3,569.4,410.3,569.6,410.3C569.6,410.3,569.6,410.3,569.6,410.3c-0.3-0.1-0.7-0.1-1,0c-0.3,0-0.6,0.1-0.9,0.3
						c-0.3,0.2-0.5,0.4-0.7,0.6c-0.2,0.2-0.4,0.5-0.4,0.9c0,0.2-0.1,0.4-0.1,0.7c0,0.5,0.1,0.9,0.3,1.3c0.1,0.2,0.3,0.3,0.4,0.5
						c0.3,0.3,0.7,0.5,1.1,0.6c0,0,0,0,0,0c0,0,0,0,0,0c0.1,0,0.6,0.1,0.7,0.1c0,0,0,0,0,0c0,0,0,0,0,0c0,0,0,0,0,0
						c0,0,0.6-0.1,0.7-0.1c0,0,0,0,0,0c0,0,0,0,0,0c0,0,0,0,0,0c0.1,0,0.4-0.2,0.3-0.1c0,0,0.2-0.1,0.3-0.1c0,0,0,0,0.1,0
						c0,0,0.5-0.4,0.5-0.4c0,0,0,0,0,0c0,0,0,0,0,0c0,0,0,0,0,0c0,0,0,0,0,0c0,0,0,0,0,0c0-0.1,0.3-0.4,0.4-0.5c0,0,0,0,0,0
						c0,0,0,0,0-0.1c0,0,0,0,0,0c0.1-0.2,0.2-0.4,0.3-0.6c0,0,0,0,0,0c0,0,0,0,0-0.1c0,0,0,0,0,0c0,0,0,0,0,0c0-0.2,0.1-0.5,0.1-0.7
						c0-0.1,0-0.1,0-0.2c0,0,0,0,0,0c0-0.2-0.1-0.5-0.1-0.7c0,0,0,0,0,0c0,0,0,0,0-0.1c0,0.1-0.2-0.5-0.3-0.6c0,0,0,0,0,0
						c0,0-0.4-0.5-0.4-0.5c0,0,0,0,0,0c0,0,0,0,0,0c-0.4-0.4-0.4-0.4-0.8-0.5c-0.1,0-0.2-0.1-0.3-0.1c0,0,0,0,0,0
						c0,0-0.6-0.1-0.7-0.1c0,0,0,0,0,0c-0.1,0-0.4,0.1-0.4,0c0,0-0.3,0-0.4,0.1c0,0,0,0,0,0c0,0,0,0,0,0c-0.1,0-0.5,0.2-0.6,0.3
						c0,0,0,0,0,0c0.4-0.1,0.8-0.2,1.3-0.3c-0.2,0-0.4,0-0.7,0c-0.3,0-0.7,0.1-1,0.2c-0.3,0.1-0.6,0.3-0.8,0.5
						c-0.1,0.2-0.3,0.3-0.4,0.5c-0.2,0.4-0.3,0.8-0.3,1.3c0,0.3,0.1,0.5,0.1,0.8c0,0,0,0.1,0,0.1c0,0,0,0,0,0.1c0,0,0,0,0,0
						c0.1,0.2,0.2,0.4,0.3,0.6c0,0,0,0.1,0.1,0.1c0.1,0.2,0.3,0.4,0.5,0.6c0,0,0.1,0.1,0.1,0.1c0.1,0.1,0.4,0.3,0.5,0.4
						c0,0,0,0,0.1,0c0.2,0.1,0.5,0.2,0.7,0.3c0.3,0.1,0.7,0.1,1,0c0.3,0,0.6-0.1,0.9-0.3c0.3-0.2,0.5-0.4,0.7-0.6
						c0.2-0.2,0.4-0.5,0.4-0.9c0-0.2,0.1-0.4,0.1-0.7c0-0.5-0.1-0.9-0.3-1.3c-0.1-0.2-0.3-0.3-0.4-0.5
						C570.4,410.7,570,410.5,569.6,410.3z"/>
				</g>
			</g>
			<g>
				<path class="st6" d="M548.7,412.6c0,0.2,0,0.3,0,0.5c0,0,0,0.1,0,0.2l-0.3-0.1l-0.8-0.4v0c-0.2-3.5-0.4-7.1-0.6-10.6
					c-0.1-1.1,0-2.5,1.1-2.9C548.7,403.6,548.9,408.1,548.7,412.6z"/>
				<g>
					<path d="M546.2,412.6c0,0.2,0,0.4,0,0.6c1.3-0.7,2.5-1.4,3.8-2.2c-0.4-0.2-0.7-0.4-1.1-0.6c0.4,0.7,0.8,1.4,1.2,2.2
						c0-2.4-0.3-4.9-0.4-7.3c-0.1-1.2-0.2-2.4-0.2-3.5c0-0.2,0-0.4,0-0.6c0-0.1,0-0.2,0-0.3c-0.1,0.4-0.1,0.4,0,0.1
						c0.1-0.2,0.1-0.2,0,0c-0.1,0.2-0.1,0.2,0,0c-0.2,0.3-0.3,0.3-0.1,0.1c-0.3,0.2-0.3,0.3-0.1,0.1c-1.2-0.5-2.4-1-3.7-1.5
						c0,0,0.1,0.8,0.1,0.4c0,0.3,0.1,0.5,0.1,0.8c0.1,0.5,0.1,1.1,0.2,1.6c0.1,1.1,0.2,2.2,0.2,3.3
						C546.3,408.2,546.3,410.4,546.2,412.6c-0.1,1.3,1.2,2.6,2.5,2.5c1.4-0.1,2.4-1.1,2.5-2.5c0.3-4.7,0-9.5-0.7-14.1
						c-0.1-0.7-0.8-1.3-1.4-1.6c-0.8-0.3-1.5-0.2-2.2,0.1c-2.8,1.3-2.3,4.8-2.2,7.3c0.1,1.4,0.2,2.8,0.2,4.2
						c0.1,1.4,0.2,2.8,0.2,4.2c0,0.9,0.5,1.7,1.2,2.2c0.4,0.2,0.7,0.4,1.1,0.6c1.7,0.9,3.6-0.2,3.8-2.2c0-0.2,0-0.4,0-0.6
						c0-1.3-1.2-2.6-2.5-2.5C547.3,410.2,546.2,411.2,546.2,412.6z"/>
				</g>
			</g>
			<g>
				<path class="st6" d="M527.2,422.4c13.9,4.7,29.2,3.1,43.2-1.2"/>
				<g>
					<path d="M526.5,424.8c14.5,4.8,30.2,3.2,44.5-1.2c3.1-0.9,1.8-5.8-1.3-4.8c-13.6,4.1-28.2,5.7-41.9,1.2
						C524.8,419,523.4,423.8,526.5,424.8L526.5,424.8z"/>
				</g>
			</g>
		</g>
	</g>
</g>
</svg>
