<?xml version="1.0" encoding="utf-8"?>
<!-- Generator: Adobe Illustrator 25.2.3, SVG Export Plug-In . SVG Version: 6.00 Build 0)  -->
<svg version="1.1" id="Layer_1" xmlns="http://www.w3.org/2000/svg" xmlns:xlink="http://www.w3.org/1999/xlink" x="0px" y="0px"
	 viewBox="0 0 1080 1080" style="enable-background:new 0 0 1080 1080;" xml:space="preserve">
<g>
	<g>
		<g>
			<path d="M18.2,16c1.4,1.8,2.8,3.7,4.2,5.5c0.1,0.2,0.6,0,0.7-0.2c0.5-1.1,0.7-2.4,0.7-3.6c-0.2,0.1-0.5,0.1-0.7,0.2
				c0.6,1.7,1.5,3.1,2.8,4.3c0.1,0.1,0.7,0,0.7-0.2c0-1.8,0.5-3.5,1.3-5.1c-0.2,0.1-0.5,0.1-0.7,0.2c0.9,1.5,1.8,3,2.6,4.5
				c0.1,0.2,0.8,0,0.7-0.2c-0.9-1.5-1.8-3-2.6-4.5c-0.1-0.2-0.6,0-0.7,0.2c-0.8,1.6-1.3,3.4-1.3,5.2c0.2-0.1,0.5-0.2,0.7-0.2
				c-1.3-1.2-2.2-2.6-2.8-4.3c-0.1-0.2-0.7,0-0.7,0.2c0,1.2-0.2,2.4-0.7,3.5c0.2-0.1,0.5-0.1,0.7-0.2c-1.4-1.8-2.8-3.7-4.2-5.5
				C18.8,15.5,18.1,15.8,18.2,16L18.2,16z"/>
		</g>
	</g>
	<g>
		<g>
			<path d="M60.9,187.4c0.5-1,1.3-1.7,2.3-2.1c-0.2,0-0.3,0-0.5,0c-0.3,2.9-0.9,5.7-1.8,8.4c-0.1,0.2,0.6,0,0.7-0.1
				c0.8-1.5,1.7-3,2.5-4.6c-0.2,0.1-0.5,0.1-0.7,0.2c0.5,1.3,0.5,2.8-0.2,4c0.2,0,0.5-0.1,0.7-0.1c0.4-1.2,1.2-2.3,2.4-2.9
				c-0.2,0-0.4,0.1-0.6,0.1c0.6,1.7,0.4,3.6-0.4,5.2c-0.1,0.1,0.6,0.1,0.7-0.1c0.9-1.6,1-3.5,0.4-5.3c-0.1-0.2-0.5,0-0.6,0.1
				c-1.2,0.7-2.1,1.8-2.5,3.1c-0.1,0.2,0.6,0,0.7-0.1c0.7-1.3,0.7-2.8,0.2-4.1c-0.1-0.2-0.6,0-0.7,0.2c-0.8,1.5-1.7,3-2.5,4.6
				c0.2,0,0.5-0.1,0.7-0.1c0.9-2.8,1.5-5.6,1.8-8.5c0-0.1-0.5,0-0.5,0c-1.2,0.4-2.2,1.3-2.8,2.4C60.2,187.7,60.8,187.6,60.9,187.4
				L60.9,187.4z"/>
		</g>
	</g>
	<g>
		<g>
			<path d="M153.6,233.8c-0.6-1.4-1.2-2.9-1.7-4.3c-0.2,0.1-0.5,0.2-0.7,0.3c1.8,2.7,3.9,5.1,6.2,7.2c0.2,0.2,0.7,0.1,0.7-0.3
				c-0.3-1.8-0.6-3.7-0.9-5.5c-0.2,0.1-0.5,0.2-0.7,0.3c1,1.1,1.9,2.3,2.9,3.4c0.2,0.2,0.7,0.1,0.7-0.2c0.1-1.5-0.2-2.9-0.8-4.2
				c-0.2,0.1-0.5,0.2-0.7,0.3c1.4,1.2,3.1,2,5,2.2c0.2,0,0.4-0.1,0.5-0.2c0.4-1.1,0.6-2.2,0.5-3.4c-0.2,0.1-0.4,0.2-0.6,0.2
				c1.2,0.7,2.2,1.7,3.1,2.7c0.2,0.2,0.9,0,0.7-0.3c-0.9-1.1-2-2.1-3.2-2.8c-0.2-0.1-0.7,0-0.6,0.2c0.1,1.1-0.1,2.2-0.5,3.2
				c0.2-0.1,0.3-0.1,0.5-0.2c-1.7-0.2-3.3-0.9-4.6-2c-0.2-0.1-0.8-0.1-0.7,0.3c0.6,1.3,0.8,2.7,0.8,4.1c0.2-0.1,0.5-0.1,0.7-0.2
				c-1-1.1-1.9-2.3-2.9-3.4c-0.2-0.2-0.7-0.1-0.7,0.3c0.3,1.8,0.6,3.7,0.9,5.5c0.2-0.1,0.5-0.2,0.7-0.3c-2.4-2.2-4.4-4.6-6.2-7.2
				c-0.1-0.2-0.8,0-0.7,0.3c0.6,1.4,1.2,2.9,1.7,4.3C153,234.3,153.7,234.1,153.6,233.8L153.6,233.8z"/>
		</g>
	</g>
	<g>
		<g>
			<path d="M324.2,100.6c1.1-5.9,1.3-12,0.4-18c-0.2,0.1-0.5,0.1-0.7,0.2c1.9,4.7,3.7,9.4,5.6,14c0.1,0.2,0.7,0.1,0.7-0.1
				c0.8-5,1.2-10,1.2-15c-0.2,0.1-0.5,0.1-0.7,0.2c1,3.4,2.1,6.7,3.1,10.1c0.1,0.2,0.7,0.1,0.7-0.1c0.4-2.8,0.4-5.7,0.1-8.5
				c-0.2,0.1-0.5,0.1-0.7,0.2c2.5,5.1,4.8,10.3,6.8,15.7c0.1-0.1,0.3-0.2,0.4-0.3c-0.3-0.1-0.3-0.3-0.2-0.5c0.1-0.2-0.6-0.1-0.7,0.1
				c-0.2,0.6,0.3,0.9,0.8,0.8c0.1,0,0.5-0.1,0.4-0.3c-2-5.3-4.3-10.6-6.8-15.7c-0.1-0.2-0.8-0.1-0.7,0.2c0.3,2.8,0.3,5.6-0.1,8.4
				c0.2,0,0.5-0.1,0.7-0.1c-1-3.4-2.1-6.7-3.1-10.1c-0.1-0.3-0.7,0-0.7,0.2c0,5-0.4,10-1.2,14.9c0.2,0,0.5-0.1,0.7-0.1
				c-1.9-4.7-3.7-9.4-5.6-14c-0.1-0.2-0.8-0.1-0.7,0.2c0.9,5.9,0.8,12-0.4,17.9C323.4,100.9,324.1,100.8,324.2,100.6L324.2,100.6z"
				/>
		</g>
	</g>
	<g>
		<g>
			<path d="M333.6,282.3c-0.2-2.2-0.4-4.5-0.6-6.7c-0.2,0.1-0.5,0.1-0.7,0.2c1.9,3,3.6,6.1,5.3,9.3c0.1,0.2,0.8,0,0.7-0.2
				c-0.7-2.4-1.4-4.8-2.1-7.3c-0.2,0.1-0.5,0.2-0.7,0.2c1.1,1.4,2.3,2.9,3.4,4.3c0.1,0.1,0.7,0,0.7-0.2c-0.4-2.7-1.1-5.4-2.2-7.9
				c-0.2,0.1-0.5,0.2-0.7,0.2c2.3,1.5,4,3.7,5,6.2c0.1,0.2,0.8,0,0.7-0.2c-1-2.6-2.7-4.8-5-6.3c-0.1-0.1-0.8,0-0.7,0.2
				c1.1,2.5,1.8,5.2,2.2,7.9c0.2-0.1,0.5-0.2,0.7-0.2c-1.1-1.4-2.3-2.9-3.4-4.3c-0.1-0.1-0.8,0-0.7,0.2c0.7,2.4,1.4,4.8,2.1,7.3
				c0.2-0.1,0.5-0.1,0.7-0.2c-1.6-3.2-3.4-6.3-5.3-9.3c-0.1-0.2-0.7,0-0.7,0.2c0.2,2.2,0.4,4.5,0.6,6.7
				C332.9,282.7,333.6,282.6,333.6,282.3L333.6,282.3z"/>
		</g>
	</g>
	<g>
		<g>
			<path d="M200.2,333.7c1-2.1,2-4.3,3-6.4c-0.2,0.1-0.5,0.1-0.7,0.2c0,2.4-0.4,4.8-1.1,7.1c0.2-0.1,0.5-0.1,0.7-0.2
				c-0.6-1.5-0.4-3.2,0.5-4.5c-0.2,0-0.5,0.1-0.7,0.1c0.6,2.1,0.9,4.3,1,6.5c0,0.2,0.7,0,0.7-0.2c0.4-1.2,0.9-2.5,1.3-3.7
				c0.2-0.5,0.4-1,0.7-1.5c0.2-0.3,0.5-0.6,0.9-0.3c0.2,0.2,0.4,0.4,0.5,0.6c1.1,2.2,1.6,4.7,1.6,7.2c0,0.2,0.7,0,0.7-0.2
				c0-1.6-0.2-3.2-0.7-4.7c-0.2-0.7-0.5-1.5-0.8-2.2c-0.2-0.5-0.5-1-1.1-1.2c-1-0.2-1.7,0.6-2.1,1.4c-0.4,0.7-0.6,1.5-0.8,2.2
				c-0.3,0.8-0.6,1.6-0.9,2.5c0.2-0.1,0.5-0.1,0.7-0.2c-0.1-2.2-0.4-4.4-1-6.5c-0.1-0.2-0.6,0-0.7,0.1c-1,1.4-1.2,3.1-0.6,4.7
				c0.1,0.2,0.7,0,0.7-0.2c0.7-2.3,1.1-4.7,1.1-7.2c0-0.2-0.7,0-0.7,0.2c-1,2.1-2,4.3-3,6.4C199.4,333.9,200.1,333.9,200.2,333.7
				L200.2,333.7z"/>
		</g>
	</g>
	<g>
		<g>
			<path d="M214.6,23c-0.8,2.4-1.2,5-1.1,7.5c0,0.2,0.6,0,0.7-0.1c2.2-3.1,4.3-6.2,6.5-9.3c-0.2,0-0.5,0-0.7,0.1
				c-0.3,2.9-0.7,5.8-1,8.6c0,0.2,0.6,0,0.7-0.1c0.9-1.8,2.1-3.3,3.5-4.7c-0.2,0-0.5,0.1-0.7,0.1c0,4.4-0.8,8.8-2.2,13
				c-0.1,0.2,0.6,0.1,0.7-0.1c1.5-4.2,2.2-8.6,2.3-13.1c0-0.2-0.6,0-0.7,0.1c-1.4,1.4-2.6,3-3.6,4.8c0.2,0,0.5-0.1,0.7-0.1
				c0.3-2.9,0.7-5.8,1-8.6c0-0.2-0.6,0-0.7,0.1c-2.2,3.1-4.3,6.2-6.5,9.3c0.2,0,0.5-0.1,0.7-0.1c-0.1-2.5,0.3-5,1.1-7.4
				C215.4,22.7,214.7,22.8,214.6,23L214.6,23z"/>
		</g>
	</g>
	<g>
		<g>
			<path d="M56.8,352c0-1.4,0.8-2.5,2-3.1c-0.2-0.1-0.4-0.1-0.5-0.2c-0.5,5.2-1.4,10.4-2.8,15.4c-0.1,0.3,0.5,0.3,0.6,0.2
				c1.7-1.3,3.3-2.8,4.6-4.5c-0.2,0-0.4,0-0.7,0c0.1,0.8,0.1,1.7,0.2,2.5c0,0.2,0.4,0.2,0.5,0.1c1.1-0.5,2.2-1.1,3.3-1.6
				c-0.2,0-0.4-0.1-0.5-0.1c0.5,2.2,0.1,4.4-1.2,6.3c-0.3,0.4,0.4,0.5,0.6,0.2c1.3-2,1.8-4.4,1.3-6.8c0-0.2-0.4-0.2-0.5-0.1
				c-1.1,0.5-2.2,1.1-3.3,1.6c0.2,0,0.4,0.1,0.5,0.1c-0.1-0.8-0.1-1.7-0.2-2.5c0-0.3-0.6-0.2-0.7,0c-1.3,1.6-2.8,3.1-4.5,4.3
				c0.2,0.1,0.4,0.1,0.6,0.2c1.4-5.1,2.3-10.2,2.8-15.4c0-0.3-0.4-0.3-0.5-0.2c-1.4,0.7-2.4,2-2.4,3.6C56,352.4,56.8,352.3,56.8,352
				L56.8,352z"/>
		</g>
	</g>
	<g>
		<g>
			<path d="M365.8,354.7c0.6-2.3,1.9-4.2,3.8-5.6c-0.2,0-0.4,0-0.6,0.1c0.2,3,0.1,6-0.2,9.1c0,0.2,0.7,0.1,0.7-0.1
				c0.3-1.2,0.9-2.4,1.6-3.4c-0.2,0-0.5,0.1-0.7,0.1c0.7,1.3,1,2.7,1.1,4.1c0,0.2,0.6,0,0.7-0.1c0.6-0.8,0.5-1.7,0.8-2.6
				c0.2-0.6,0.7-1.6,1.5-1c0.4,0.3,0.5,0.8,0.6,1.2c0.5,2.4,1,4.7,1.5,7.1c0,0.2,0.8,0,0.7-0.2c-0.3-1.6-0.7-3.2-1-4.8
				c-0.2-0.8-0.3-1.6-0.5-2.4c-0.1-0.5-0.3-1-0.7-1.3c-0.7-0.4-1.6-0.1-2.1,0.4c-1,1-0.6,2.5-1.4,3.6c0.2,0,0.5-0.1,0.7-0.1
				c-0.1-1.4-0.5-2.8-1.1-4.1c-0.1-0.2-0.6,0-0.7,0.1c-0.8,1.1-1.3,2.2-1.7,3.5c0.2,0,0.5-0.1,0.7-0.1c0.3-3,0.3-6.1,0.2-9.1
				c0-0.2-0.6,0-0.6,0.1c-2,1.4-3.3,3.5-3.9,5.8C365,355,365.7,354.9,365.8,354.7L365.8,354.7z"/>
		</g>
	</g>
	<g>
		<g>
			<path d="M405.5,164.3c-0.6,1.8-0.7,3.6-0.3,5.4c0,0.2,0.7,0,0.7-0.2c0.7-1.8,2-3.4,3.7-4.3c-0.2,0-0.4,0-0.6,0
				c0.4,1.4,0.7,2.9,1.1,4.3c0.1,0.2,0.6,0,0.7-0.2c0.9-1.5,1.8-3,2.7-4.5c-0.2,0.1-0.5,0.1-0.7,0.2c0.8,2,1.2,4.1,1.2,6.2
				c0,0.2,0.7,0,0.7-0.2c0-2.1-0.4-4.2-1.2-6.2c-0.1-0.2-0.6,0-0.7,0.2c-0.9,1.5-1.8,3-2.7,4.5c0.2-0.1,0.5-0.1,0.7-0.2
				c-0.4-1.4-0.7-2.9-1.1-4.3c0-0.2-0.5,0-0.6,0c-1.8,1-3.2,2.6-4,4.6c0.2-0.1,0.5-0.1,0.7-0.2c-0.3-1.8-0.2-3.6,0.3-5.4
				C406.2,164,405.5,164.1,405.5,164.3L405.5,164.3z"/>
		</g>
	</g>
	<g>
		<g>
			<path d="M410.2,68.9c0.7,1,1.4,2,2.1,3c0.1,0.1,0.7,0,0.7-0.2c-0.2-2.4-0.9-4.8-2-6.9c-0.1,0.1-0.2,0.1-0.2,0.2
				c0.5-0.2,1-0.4,1.5-0.5c0.1,0,0.2-0.1,0.2-0.2c-0.2-1.3,0-2.6,0.5-3.9c-0.2,0.1-0.5,0.1-0.7,0.2c2.4,1.5,4.3,3.6,5.6,6.1
				c0.1,0.2,0.8-0.1,0.7-0.2c-1.3-2.5-3.2-4.6-5.6-6.1c-0.1-0.1-0.6,0-0.7,0.2c-0.5,1.3-0.6,2.6-0.5,4c0.1-0.1,0.2-0.1,0.2-0.2
				c-0.5,0.2-1,0.4-1.5,0.5c0,0-0.3,0.1-0.2,0.2c1.2,2.1,1.9,4.5,2,6.9c0.2-0.1,0.5-0.1,0.7-0.2c-0.7-1-1.4-2-2.1-3
				C410.8,68.5,410.2,68.8,410.2,68.9L410.2,68.9z"/>
		</g>
	</g>
	<g>
		<g>
			<path d="M160.5,107.3c1.2,1.1,2.3,2.3,3.1,3.7c0.2-0.1,0.5-0.2,0.7-0.2c-1.1-1.1-2-2.3-2.7-3.6c-0.2,0.1-0.5,0.2-0.7,0.2
				c0.5,0.3,1.1,0.3,1.7,0.2c0.1,0,0.4-0.1,0.4-0.2c0.2-0.6,0.4-1.3,0.6-1.9c-0.2,0.1-0.4,0.1-0.7,0.2c1.3,0.2,2.5,0.8,3.6,1.5
				c0.2,0.1,0.8-0.2,0.7-0.3c-1.1-0.8-2.4-1.3-3.7-1.6c-0.2,0-0.6,0-0.7,0.2c-0.2,0.6-0.4,1.3-0.6,1.9c0.1-0.1,0.3-0.1,0.4-0.2
				c-0.4,0.1-0.8,0-1.2-0.2c-0.1-0.1-0.8,0-0.7,0.2c0.8,1.3,1.7,2.6,2.8,3.7c0.1,0.1,0.8-0.1,0.7-0.2c-0.8-1.4-1.9-2.7-3.1-3.8
				C161,106.9,160.3,107.2,160.5,107.3L160.5,107.3z"/>
		</g>
	</g>
	<g>
		<g>
			<path d="M164.3,417.4c0.9,1.2,1.7,2.5,2.6,3.7c0.2-0.1,0.4-0.2,0.7-0.3c-1.1-0.9-2-2-2.6-3.4c-0.2,0.1-0.4,0.2-0.7,0.3
				c1.6,0.5,3.3,1.1,4.9,1.6c0.1,0,0.8,0,0.7-0.3c-0.9-1.6,1.2-2.9,2.6-2.6c1.7,0.3,3.2,1.4,4.9,1.4c0.3,0,0.8-0.4,0.3-0.4
				c-2.1-0.1-4-1.9-6.2-1.4c-1.3,0.3-3.2,1.6-2.3,3.2c0.2-0.1,0.4-0.2,0.7-0.3c-1.6-0.5-3.3-1.1-4.9-1.6c-0.1,0-0.8,0-0.7,0.3
				c0.6,1.4,1.5,2.5,2.6,3.5c0.2,0.1,0.8,0,0.7-0.3c-0.9-1.2-1.7-2.5-2.6-3.7C164.9,416.9,164.2,417.2,164.3,417.4L164.3,417.4z"/>
		</g>
	</g>
	<g>
		<g>
			<path d="M276,411.4c0.9-0.6,1.3-1.5,2-2.4c0.3-0.4,0.6-0.8,1-1c1.3-0.6,1.7,0.1,2.1,0.9c0.3,0.7,0.6,1.4,0.9,2
				c1.3,2.9,2.5,5.8,3.8,8.7c0.1,0.2,0.7,0.1,0.7-0.1c0.4-2,0.6-4,0.5-6c-0.2,0.1-0.5,0.2-0.7,0.2c1.7,2.2,3.6,4.3,5.5,6.3
				c0.1,0.1,0.7,0,0.7-0.2c0.3-1.8,0.4-3.6,0.5-5.4c-0.2,0.1-0.5,0.2-0.7,0.2c1.6,1.5,3.1,2.9,4.7,4.4c0.2,0.2,0.9-0.1,0.7-0.3
				c-1.6-1.5-3.1-2.9-4.7-4.4c-0.2-0.2-0.7,0-0.7,0.2c0,1.8-0.2,3.6-0.4,5.3c0.2-0.1,0.5-0.1,0.7-0.2c-2-2-3.8-4.1-5.5-6.3
				c-0.1-0.2-0.7,0-0.7,0.2c0.1,2-0.1,3.9-0.5,5.9c0.2,0,0.5-0.1,0.7-0.1c-0.9-2.1-1.8-4.1-2.7-6.2c-0.4-1-0.9-2.1-1.3-3.1
				c-0.3-0.7-0.6-1.6-1.1-2.2c-0.7-0.9-2-0.7-2.9-0.2c-1.4,0.8-1.8,2.5-3.1,3.4C275.1,411.5,275.9,411.5,276,411.4L276,411.4z"/>
		</g>
	</g>
</g>
<g>
	<g>
		<g>
			<path d="M447.3,16c1.4,1.8,2.8,3.7,4.2,5.5c0.1,0.2,0.6,0,0.7-0.2c0.5-1.1,0.7-2.4,0.7-3.6c-0.2,0.1-0.5,0.1-0.7,0.2
				c0.6,1.7,1.5,3.1,2.8,4.3c0.1,0.1,0.7,0,0.7-0.2c0-1.8,0.5-3.5,1.3-5.1c-0.2,0.1-0.5,0.1-0.7,0.2c0.9,1.5,1.8,3,2.6,4.5
				c0.1,0.2,0.8,0,0.7-0.2c-0.9-1.5-1.8-3-2.6-4.5c-0.1-0.2-0.6,0-0.7,0.2c-0.8,1.6-1.3,3.4-1.3,5.2c0.2-0.1,0.5-0.2,0.7-0.2
				c-1.3-1.2-2.2-2.6-2.8-4.3c-0.1-0.2-0.7,0-0.7,0.2c0,1.2-0.2,2.4-0.7,3.5c0.2-0.1,0.5-0.1,0.7-0.2c-1.4-1.8-2.8-3.7-4.2-5.5
				C447.9,15.5,447.2,15.8,447.3,16L447.3,16z"/>
		</g>
	</g>
	<g>
		<g>
			<path d="M490,187.4c0.5-1,1.3-1.7,2.3-2.1c-0.2,0-0.3,0-0.5,0c-0.3,2.9-0.9,5.7-1.8,8.4c-0.1,0.2,0.6,0,0.7-0.1
				c0.8-1.5,1.7-3,2.5-4.6c-0.2,0.1-0.5,0.1-0.7,0.2c0.5,1.3,0.5,2.8-0.2,4c0.2,0,0.5-0.1,0.7-0.1c0.4-1.2,1.2-2.3,2.4-2.9
				c-0.2,0-0.4,0.1-0.6,0.1c0.6,1.7,0.4,3.6-0.4,5.2c-0.1,0.1,0.6,0.1,0.7-0.1c0.9-1.6,1-3.5,0.4-5.3c-0.1-0.2-0.5,0-0.6,0.1
				c-1.2,0.7-2.1,1.8-2.5,3.1c-0.1,0.2,0.6,0,0.7-0.1c0.7-1.3,0.7-2.8,0.2-4.1c-0.1-0.2-0.6,0-0.7,0.2c-0.8,1.5-1.7,3-2.5,4.6
				c0.2,0,0.5-0.1,0.7-0.1c0.9-2.8,1.5-5.6,1.8-8.5c0-0.1-0.5,0-0.5,0c-1.2,0.4-2.2,1.3-2.8,2.4C489.2,187.7,489.9,187.6,490,187.4
				L490,187.4z"/>
		</g>
	</g>
	<g>
		<g>
			<path d="M582.6,233.8c-0.6-1.4-1.2-2.9-1.7-4.3c-0.2,0.1-0.5,0.2-0.7,0.3c1.8,2.7,3.9,5.1,6.2,7.2c0.2,0.2,0.7,0.1,0.7-0.3
				c-0.3-1.8-0.6-3.7-0.9-5.5c-0.2,0.1-0.5,0.2-0.7,0.3c1,1.1,1.9,2.3,2.9,3.4c0.2,0.2,0.7,0.1,0.7-0.2c0.1-1.5-0.2-2.9-0.8-4.2
				c-0.2,0.1-0.5,0.2-0.7,0.3c1.4,1.2,3.1,2,5,2.2c0.2,0,0.4-0.1,0.5-0.2c0.4-1.1,0.6-2.2,0.5-3.4c-0.2,0.1-0.4,0.2-0.6,0.2
				c1.2,0.7,2.2,1.7,3.1,2.7c0.2,0.2,0.9,0,0.7-0.3c-0.9-1.1-2-2.1-3.2-2.8c-0.2-0.1-0.7,0-0.6,0.2c0.1,1.1-0.1,2.2-0.5,3.2
				c0.2-0.1,0.3-0.1,0.5-0.2c-1.7-0.2-3.3-0.9-4.6-2c-0.2-0.1-0.8-0.1-0.7,0.3c0.6,1.3,0.8,2.7,0.8,4.1c0.2-0.1,0.5-0.1,0.7-0.2
				c-1-1.1-1.9-2.3-2.9-3.4c-0.2-0.2-0.7-0.1-0.7,0.3c0.3,1.8,0.6,3.7,0.9,5.5c0.2-0.1,0.5-0.2,0.7-0.3c-2.4-2.2-4.4-4.6-6.2-7.2
				c-0.1-0.2-0.8,0-0.7,0.3c0.6,1.4,1.2,2.9,1.7,4.3C582,234.3,582.8,234.1,582.6,233.8L582.6,233.8z"/>
		</g>
	</g>
	<g>
		<g>
			<path d="M753.3,100.6c1.1-5.9,1.3-12,0.4-18c-0.2,0.1-0.5,0.1-0.7,0.2c1.9,4.7,3.7,9.4,5.6,14c0.1,0.2,0.7,0.1,0.7-0.1
				c0.8-5,1.2-10,1.2-15c-0.2,0.1-0.5,0.1-0.7,0.2c1,3.4,2.1,6.7,3.1,10.1c0.1,0.2,0.7,0.1,0.7-0.1c0.4-2.8,0.4-5.7,0.1-8.5
				c-0.2,0.1-0.5,0.1-0.7,0.2c2.5,5.1,4.8,10.3,6.8,15.7c0.1-0.1,0.3-0.2,0.4-0.3c-0.3-0.1-0.3-0.3-0.2-0.5c0.1-0.2-0.6-0.1-0.7,0.1
				c-0.2,0.6,0.3,0.9,0.8,0.8c0.1,0,0.5-0.1,0.4-0.3c-2-5.3-4.3-10.6-6.8-15.7c-0.1-0.2-0.8-0.1-0.7,0.2c0.3,2.8,0.3,5.6-0.1,8.4
				c0.2,0,0.5-0.1,0.7-0.1c-1-3.4-2.1-6.7-3.1-10.1c-0.1-0.3-0.7,0-0.7,0.2c0,5-0.4,10-1.2,14.9c0.2,0,0.5-0.1,0.7-0.1
				c-1.9-4.7-3.7-9.4-5.6-14c-0.1-0.2-0.8-0.1-0.7,0.2c0.9,5.9,0.8,12-0.4,17.9C752.5,100.9,753.2,100.8,753.3,100.6L753.3,100.6z"
				/>
		</g>
	</g>
	<g>
		<g>
			<path d="M762.7,282.3c-0.2-2.2-0.4-4.5-0.6-6.7c-0.2,0.1-0.5,0.1-0.7,0.2c1.9,3,3.6,6.1,5.3,9.3c0.1,0.2,0.8,0,0.7-0.2
				c-0.7-2.4-1.4-4.8-2.1-7.3c-0.2,0.1-0.5,0.2-0.7,0.2c1.1,1.4,2.3,2.9,3.4,4.3c0.1,0.1,0.7,0,0.7-0.2c-0.4-2.7-1.1-5.4-2.2-7.9
				c-0.2,0.1-0.5,0.2-0.7,0.2c2.3,1.5,4,3.7,5,6.2c0.1,0.2,0.8,0,0.7-0.2c-1-2.6-2.7-4.8-5-6.3c-0.1-0.1-0.8,0-0.7,0.2
				c1.1,2.5,1.8,5.2,2.2,7.9c0.2-0.1,0.5-0.2,0.7-0.2c-1.1-1.4-2.3-2.9-3.4-4.3c-0.1-0.1-0.8,0-0.7,0.2c0.7,2.4,1.4,4.8,2.1,7.3
				c0.2-0.1,0.5-0.1,0.7-0.2c-1.6-3.2-3.4-6.3-5.3-9.3c-0.1-0.2-0.7,0-0.7,0.2c0.2,2.2,0.4,4.5,0.6,6.7
				C761.9,282.7,762.7,282.6,762.7,282.3L762.7,282.3z"/>
		</g>
	</g>
	<g>
		<g>
			<path d="M629.3,333.7c1-2.1,2-4.3,3-6.4c-0.2,0.1-0.5,0.1-0.7,0.2c0,2.4-0.4,4.8-1.1,7.1c0.2-0.1,0.5-0.1,0.7-0.2
				c-0.6-1.5-0.4-3.2,0.5-4.5c-0.2,0-0.5,0.1-0.7,0.1c0.6,2.1,0.9,4.3,1,6.5c0,0.2,0.7,0,0.7-0.2c0.4-1.2,0.9-2.5,1.3-3.7
				c0.2-0.5,0.4-1,0.7-1.5c0.2-0.3,0.5-0.6,0.9-0.3c0.2,0.2,0.4,0.4,0.5,0.6c1.1,2.2,1.6,4.7,1.6,7.2c0,0.2,0.7,0,0.7-0.2
				c0-1.6-0.2-3.2-0.7-4.7c-0.2-0.7-0.5-1.5-0.8-2.2c-0.2-0.5-0.5-1-1.1-1.2c-1-0.2-1.7,0.6-2.1,1.4c-0.4,0.7-0.6,1.5-0.8,2.2
				c-0.3,0.8-0.6,1.6-0.9,2.5c0.2-0.1,0.5-0.1,0.7-0.2c-0.1-2.2-0.4-4.4-1-6.5c-0.1-0.2-0.6,0-0.7,0.1c-1,1.4-1.2,3.1-0.6,4.7
				c0.1,0.2,0.7,0,0.7-0.2c0.7-2.3,1.1-4.7,1.1-7.2c0-0.2-0.7,0-0.7,0.2c-1,2.1-2,4.3-3,6.4C628.5,333.9,629.2,333.9,629.3,333.7
				L629.3,333.7z"/>
		</g>
	</g>
	<g>
		<g>
			<path d="M643.7,23c-0.8,2.4-1.2,5-1.1,7.5c0,0.2,0.6,0,0.7-0.1c2.2-3.1,4.3-6.2,6.5-9.3c-0.2,0-0.5,0-0.7,0.1
				c-0.3,2.9-0.7,5.8-1,8.6c0,0.2,0.6,0,0.7-0.1c0.9-1.8,2.1-3.3,3.5-4.7c-0.2,0-0.5,0.1-0.7,0.1c0,4.4-0.8,8.8-2.2,13
				c-0.1,0.2,0.6,0.1,0.7-0.1c1.5-4.2,2.2-8.6,2.3-13.1c0-0.2-0.6,0-0.7,0.1c-1.4,1.4-2.6,3-3.6,4.8c0.2,0,0.5-0.1,0.7-0.1
				c0.3-2.9,0.7-5.8,1-8.6c0-0.2-0.6,0-0.7,0.1c-2.2,3.1-4.3,6.2-6.5,9.3c0.2,0,0.5-0.1,0.7-0.1c-0.1-2.5,0.3-5,1.1-7.4
				C644.4,22.7,643.7,22.8,643.7,23L643.7,23z"/>
		</g>
	</g>
	<g>
		<g>
			<path d="M485.8,352c0-1.4,0.8-2.5,2-3.1c-0.2-0.1-0.4-0.1-0.5-0.2c-0.5,5.2-1.4,10.4-2.8,15.4c-0.1,0.3,0.5,0.3,0.6,0.2
				c1.7-1.3,3.3-2.8,4.6-4.5c-0.2,0-0.4,0-0.7,0c0.1,0.8,0.1,1.7,0.2,2.5c0,0.2,0.4,0.2,0.5,0.1c1.1-0.5,2.2-1.1,3.3-1.6
				c-0.2,0-0.4-0.1-0.5-0.1c0.5,2.2,0.1,4.4-1.2,6.3c-0.3,0.4,0.4,0.5,0.6,0.2c1.3-2,1.8-4.4,1.3-6.8c0-0.2-0.4-0.2-0.5-0.1
				c-1.1,0.5-2.2,1.1-3.3,1.6c0.2,0,0.4,0.1,0.5,0.1c-0.1-0.8-0.1-1.7-0.2-2.5c0-0.3-0.6-0.2-0.7,0c-1.3,1.6-2.8,3.1-4.5,4.3
				c0.2,0.1,0.4,0.1,0.6,0.2c1.4-5.1,2.3-10.2,2.8-15.4c0-0.3-0.4-0.3-0.5-0.2c-1.4,0.7-2.4,2-2.4,3.6
				C485.1,352.4,485.8,352.3,485.8,352L485.8,352z"/>
		</g>
	</g>
	<g>
		<g>
			<path d="M794.9,354.7c0.6-2.3,1.9-4.2,3.8-5.6c-0.2,0-0.4,0-0.6,0.1c0.2,3,0.1,6-0.2,9.1c0,0.2,0.7,0.1,0.7-0.1
				c0.3-1.2,0.9-2.4,1.6-3.4c-0.2,0-0.5,0.1-0.7,0.1c0.7,1.3,1,2.7,1.1,4.1c0,0.2,0.6,0,0.7-0.1c0.6-0.8,0.5-1.7,0.8-2.6
				c0.2-0.6,0.7-1.6,1.5-1c0.4,0.3,0.5,0.8,0.6,1.2c0.5,2.4,1,4.7,1.5,7.1c0,0.2,0.8,0,0.7-0.2c-0.3-1.6-0.7-3.2-1-4.8
				c-0.2-0.8-0.3-1.6-0.5-2.4c-0.1-0.5-0.3-1-0.7-1.3c-0.7-0.4-1.6-0.1-2.1,0.4c-1,1-0.6,2.5-1.4,3.6c0.2,0,0.5-0.1,0.7-0.1
				c-0.1-1.4-0.5-2.8-1.1-4.1c-0.1-0.2-0.6,0-0.7,0.1c-0.8,1.1-1.3,2.2-1.7,3.5c0.2,0,0.5-0.1,0.7-0.1c0.3-3,0.3-6.1,0.2-9.1
				c0-0.2-0.6,0-0.6,0.1c-2,1.4-3.3,3.5-3.9,5.8C794.1,355,794.8,354.9,794.9,354.7L794.9,354.7z"/>
		</g>
	</g>
	<g>
		<g>
			<path d="M834.5,164.3c-0.6,1.8-0.7,3.6-0.3,5.4c0,0.2,0.7,0,0.7-0.2c0.7-1.8,2-3.4,3.7-4.3c-0.2,0-0.4,0-0.6,0
				c0.4,1.4,0.7,2.9,1.1,4.3c0.1,0.2,0.6,0,0.7-0.2c0.9-1.5,1.8-3,2.7-4.5c-0.2,0.1-0.5,0.1-0.7,0.2c0.8,2,1.2,4.1,1.2,6.2
				c0,0.2,0.7,0,0.7-0.2c0-2.1-0.4-4.2-1.2-6.2c-0.1-0.2-0.6,0-0.7,0.2c-0.9,1.5-1.8,3-2.7,4.5c0.2-0.1,0.5-0.1,0.7-0.2
				c-0.4-1.4-0.7-2.9-1.1-4.3c0-0.2-0.5,0-0.6,0c-1.8,1-3.2,2.6-4,4.6c0.2-0.1,0.5-0.1,0.7-0.2c-0.3-1.8-0.2-3.6,0.3-5.4
				C835.3,164,834.6,164.1,834.5,164.3L834.5,164.3z"/>
		</g>
	</g>
	<g>
		<g>
			<path d="M839.3,68.9c0.7,1,1.4,2,2.1,3c0.1,0.1,0.7,0,0.7-0.2c-0.2-2.4-0.9-4.8-2-6.9c-0.1,0.1-0.2,0.1-0.2,0.2
				c0.5-0.2,1-0.4,1.5-0.5c0.1,0,0.2-0.1,0.2-0.2c-0.2-1.3,0-2.6,0.5-3.9c-0.2,0.1-0.5,0.1-0.7,0.2c2.4,1.5,4.3,3.6,5.6,6.1
				c0.1,0.2,0.8-0.1,0.7-0.2c-1.3-2.5-3.2-4.6-5.6-6.1c-0.1-0.1-0.6,0-0.7,0.2c-0.5,1.3-0.6,2.6-0.5,4c0.1-0.1,0.2-0.1,0.2-0.2
				c-0.5,0.2-1,0.4-1.5,0.5c0,0-0.3,0.1-0.2,0.2c1.2,2.1,1.9,4.5,2,6.9c0.2-0.1,0.5-0.1,0.7-0.2c-0.7-1-1.4-2-2.1-3
				C839.9,68.5,839.2,68.8,839.3,68.9L839.3,68.9z"/>
		</g>
	</g>
	<g>
		<g>
			<path d="M589.5,107.3c1.2,1.1,2.3,2.3,3.1,3.7c0.2-0.1,0.5-0.2,0.7-0.2c-1.1-1.1-2-2.3-2.7-3.6c-0.2,0.1-0.5,0.2-0.7,0.2
				c0.5,0.3,1.1,0.3,1.7,0.2c0.1,0,0.4-0.1,0.4-0.2c0.2-0.6,0.4-1.3,0.6-1.9c-0.2,0.1-0.4,0.1-0.7,0.2c1.3,0.2,2.5,0.8,3.6,1.5
				c0.2,0.1,0.8-0.2,0.7-0.3c-1.1-0.8-2.4-1.3-3.7-1.6c-0.2,0-0.6,0-0.7,0.2c-0.2,0.6-0.4,1.3-0.6,1.9c0.1-0.1,0.3-0.1,0.4-0.2
				c-0.4,0.1-0.8,0-1.2-0.2c-0.1-0.1-0.8,0-0.7,0.2c0.8,1.3,1.7,2.6,2.8,3.7c0.1,0.1,0.8-0.1,0.7-0.2c-0.8-1.4-1.9-2.7-3.1-3.8
				C590,106.9,589.4,107.2,589.5,107.3L589.5,107.3z"/>
		</g>
	</g>
	<g>
		<g>
			<path d="M593.4,417.4c0.9,1.2,1.7,2.5,2.6,3.7c0.2-0.1,0.4-0.2,0.7-0.3c-1.1-0.9-2-2-2.6-3.4c-0.2,0.1-0.4,0.2-0.7,0.3
				c1.6,0.5,3.3,1.1,4.9,1.6c0.1,0,0.8,0,0.7-0.3c-0.9-1.6,1.2-2.9,2.6-2.6c1.7,0.3,3.2,1.4,4.9,1.4c0.3,0,0.8-0.4,0.3-0.4
				c-2.1-0.1-4-1.9-6.2-1.4c-1.3,0.3-3.2,1.6-2.3,3.2c0.2-0.1,0.4-0.2,0.7-0.3c-1.6-0.5-3.3-1.1-4.9-1.6c-0.1,0-0.8,0-0.7,0.3
				c0.6,1.4,1.5,2.5,2.6,3.5c0.2,0.1,0.8,0,0.7-0.3c-0.9-1.2-1.7-2.5-2.6-3.7C593.9,416.9,593.2,417.2,593.4,417.4L593.4,417.4z"/>
		</g>
	</g>
	<g>
		<g>
			<path d="M705.1,411.4c0.9-0.6,1.3-1.5,2-2.4c0.3-0.4,0.6-0.8,1-1c1.3-0.6,1.7,0.1,2.1,0.9c0.3,0.7,0.6,1.4,0.9,2
				c1.3,2.9,2.5,5.8,3.8,8.7c0.1,0.2,0.7,0.1,0.7-0.1c0.4-2,0.6-4,0.5-6c-0.2,0.1-0.5,0.2-0.7,0.2c1.7,2.2,3.6,4.3,5.5,6.3
				c0.1,0.1,0.7,0,0.7-0.2c0.3-1.8,0.4-3.6,0.5-5.4c-0.2,0.1-0.5,0.2-0.7,0.2c1.6,1.5,3.1,2.9,4.7,4.4c0.2,0.2,0.9-0.1,0.7-0.3
				c-1.6-1.5-3.1-2.9-4.7-4.4c-0.2-0.2-0.7,0-0.7,0.2c0,1.8-0.2,3.6-0.4,5.3c0.2-0.1,0.5-0.1,0.7-0.2c-2-2-3.8-4.1-5.5-6.3
				c-0.1-0.2-0.7,0-0.7,0.2c0.1,2-0.1,3.9-0.5,5.9c0.2,0,0.5-0.1,0.7-0.1c-0.9-2.1-1.8-4.1-2.7-6.2c-0.4-1-0.9-2.1-1.3-3.1
				c-0.3-0.7-0.6-1.6-1.1-2.2c-0.7-0.9-2-0.7-2.9-0.2c-1.4,0.8-1.8,2.5-3.1,3.4C704.2,411.5,704.9,411.5,705.1,411.4L705.1,411.4z"
				/>
		</g>
	</g>
</g>
<g>
	<g>
		<g>
			<path d="M276,446.6c1.4,1.8,2.8,3.7,4.2,5.5c0.1,0.2,0.6,0,0.7-0.2c0.5-1.1,0.7-2.4,0.7-3.6c-0.2,0.1-0.5,0.1-0.7,0.2
				c0.6,1.7,1.5,3.1,2.8,4.3c0.1,0.1,0.7,0,0.7-0.2c0-1.8,0.5-3.5,1.3-5.1c-0.2,0.1-0.5,0.1-0.7,0.2c0.9,1.5,1.8,3,2.6,4.5
				c0.1,0.2,0.8,0,0.7-0.2c-0.9-1.5-1.8-3-2.6-4.5c-0.1-0.2-0.6,0-0.7,0.2c-0.8,1.6-1.3,3.4-1.3,5.2c0.2-0.1,0.5-0.2,0.7-0.2
				c-1.3-1.2-2.2-2.6-2.8-4.3c-0.1-0.2-0.7,0-0.7,0.2c0,1.2-0.2,2.4-0.7,3.5c0.2-0.1,0.5-0.1,0.7-0.2c-1.4-1.8-2.8-3.7-4.2-5.5
				C276.5,446.1,275.8,446.4,276,446.6L276,446.6z"/>
		</g>
	</g>
	<g>
		<g>
			<path d="M318.6,618c0.5-1,1.3-1.7,2.3-2.1c-0.2,0-0.3,0-0.5,0c-0.3,2.9-0.9,5.7-1.8,8.4c-0.1,0.2,0.6,0,0.7-0.1
				c0.8-1.5,1.7-3,2.5-4.6c-0.2,0.1-0.5,0.1-0.7,0.2c0.5,1.3,0.5,2.8-0.2,4c0.2,0,0.5-0.1,0.7-0.1c0.4-1.2,1.2-2.3,2.4-2.9
				c-0.2,0-0.4,0.1-0.6,0.1c0.6,1.7,0.4,3.6-0.4,5.2c-0.1,0.1,0.6,0.1,0.7-0.1c0.9-1.6,1-3.5,0.4-5.3c-0.1-0.2-0.5,0-0.6,0.1
				c-1.2,0.7-2.1,1.8-2.5,3.1c-0.1,0.2,0.6,0,0.7-0.1c0.7-1.3,0.7-2.8,0.2-4.1c-0.1-0.2-0.6,0-0.7,0.2c-0.8,1.5-1.7,3-2.5,4.6
				c0.2,0,0.5-0.1,0.7-0.1c0.9-2.8,1.5-5.6,1.8-8.5c0-0.1-0.5,0-0.5,0c-1.2,0.4-2.2,1.3-2.8,2.4C317.9,618.3,318.6,618.2,318.6,618
				L318.6,618z"/>
		</g>
	</g>
	<g>
		<g>
			<path d="M411.3,664.4c-0.6-1.4-1.2-2.9-1.7-4.3c-0.2,0.1-0.5,0.2-0.7,0.3c1.8,2.7,3.9,5.1,6.2,7.2c0.2,0.2,0.7,0.1,0.7-0.3
				c-0.3-1.8-0.6-3.7-0.9-5.5c-0.2,0.1-0.5,0.2-0.7,0.3c1,1.1,1.9,2.3,2.9,3.4c0.2,0.2,0.7,0.1,0.7-0.2c0.1-1.5-0.2-2.9-0.8-4.2
				c-0.2,0.1-0.5,0.2-0.7,0.3c1.4,1.2,3.1,2,5,2.2c0.2,0,0.4-0.1,0.5-0.2c0.4-1.1,0.6-2.2,0.5-3.4c-0.2,0.1-0.4,0.2-0.6,0.2
				c1.2,0.7,2.2,1.7,3.1,2.7c0.2,0.2,0.9,0,0.7-0.3c-0.9-1.1-2-2.1-3.2-2.8c-0.2-0.1-0.7,0-0.6,0.2c0.1,1.1-0.1,2.2-0.5,3.2
				c0.2-0.1,0.3-0.1,0.5-0.2c-1.7-0.2-3.3-0.9-4.6-2c-0.2-0.1-0.8-0.1-0.7,0.3c0.6,1.3,0.8,2.7,0.8,4.1c0.2-0.1,0.5-0.1,0.7-0.2
				c-1-1.1-1.9-2.3-2.9-3.4c-0.2-0.2-0.7-0.1-0.7,0.3c0.3,1.8,0.6,3.7,0.9,5.5c0.2-0.1,0.5-0.2,0.7-0.3c-2.4-2.2-4.4-4.6-6.2-7.2
				c-0.1-0.2-0.8,0-0.7,0.3c0.6,1.4,1.2,2.9,1.7,4.3C410.7,664.9,411.4,664.7,411.3,664.4L411.3,664.4z"/>
		</g>
	</g>
	<g>
		<g>
			<path d="M581.9,531.2c1.1-5.9,1.3-12,0.4-18c-0.2,0.1-0.5,0.1-0.7,0.2c1.9,4.7,3.7,9.4,5.6,14c0.1,0.2,0.7,0.1,0.7-0.1
				c0.8-5,1.2-10,1.2-15c-0.2,0.1-0.5,0.1-0.7,0.2c1,3.4,2.1,6.7,3.1,10.1c0.1,0.2,0.7,0.1,0.7-0.1c0.4-2.8,0.4-5.7,0.1-8.5
				c-0.2,0.1-0.5,0.1-0.7,0.2c2.5,5.1,4.8,10.3,6.8,15.7c0.1-0.1,0.3-0.2,0.4-0.3c-0.3-0.1-0.3-0.3-0.2-0.5c0.1-0.2-0.6-0.1-0.7,0.1
				c-0.2,0.6,0.3,0.9,0.8,0.8c0.1,0,0.5-0.1,0.4-0.3c-2-5.3-4.3-10.6-6.8-15.7c-0.1-0.2-0.8-0.1-0.7,0.2c0.3,2.8,0.3,5.6-0.1,8.4
				c0.2,0,0.5-0.1,0.7-0.1c-1-3.4-2.1-6.7-3.1-10.1c-0.1-0.3-0.7,0-0.7,0.2c0,5-0.4,10-1.2,14.9c0.2,0,0.5-0.1,0.7-0.1
				c-1.9-4.7-3.7-9.4-5.6-14c-0.1-0.2-0.8-0.1-0.7,0.2c0.9,5.9,0.8,12-0.4,17.9C581.1,531.5,581.9,531.4,581.9,531.2L581.9,531.2z"
				/>
		</g>
	</g>
	<g>
		<g>
			<path d="M591.3,712.9c-0.2-2.2-0.4-4.5-0.6-6.7c-0.2,0.1-0.5,0.1-0.7,0.2c1.9,3,3.6,6.1,5.3,9.3c0.1,0.2,0.8,0,0.7-0.2
				c-0.7-2.4-1.4-4.8-2.1-7.3c-0.2,0.1-0.5,0.2-0.7,0.2c1.1,1.4,2.3,2.9,3.4,4.3c0.1,0.1,0.7,0,0.7-0.2c-0.4-2.7-1.1-5.4-2.2-7.9
				c-0.2,0.1-0.5,0.2-0.7,0.2c2.3,1.5,4,3.7,5,6.2c0.1,0.2,0.8,0,0.7-0.2c-1-2.6-2.7-4.8-5-6.3c-0.1-0.1-0.8,0-0.7,0.2
				c1.1,2.5,1.8,5.2,2.2,7.9c0.2-0.1,0.5-0.2,0.7-0.2c-1.1-1.4-2.3-2.9-3.4-4.3c-0.1-0.1-0.8,0-0.7,0.2c0.7,2.4,1.4,4.8,2.1,7.3
				c0.2-0.1,0.5-0.1,0.7-0.2c-1.6-3.2-3.4-6.3-5.3-9.3c-0.1-0.2-0.7,0-0.7,0.2c0.2,2.2,0.4,4.5,0.6,6.7
				C590.6,713.3,591.3,713.2,591.3,712.9L591.3,712.9z"/>
		</g>
	</g>
	<g>
		<g>
			<path d="M457.9,764.3c1-2.1,2-4.3,3-6.4c-0.2,0.1-0.5,0.1-0.7,0.2c0,2.4-0.4,4.8-1.1,7.1c0.2-0.1,0.5-0.1,0.7-0.2
				c-0.6-1.5-0.4-3.2,0.5-4.5c-0.2,0-0.5,0.1-0.7,0.1c0.6,2.1,0.9,4.3,1,6.5c0,0.2,0.7,0,0.7-0.2c0.4-1.2,0.9-2.5,1.3-3.7
				c0.2-0.5,0.4-1,0.7-1.5c0.2-0.3,0.5-0.6,0.9-0.3c0.2,0.2,0.4,0.4,0.5,0.6c1.1,2.2,1.6,4.7,1.6,7.2c0,0.2,0.7,0,0.7-0.2
				c0-1.6-0.2-3.2-0.7-4.7c-0.2-0.7-0.5-1.5-0.8-2.2c-0.2-0.5-0.5-1-1.1-1.2c-1-0.2-1.7,0.6-2.1,1.4c-0.4,0.7-0.6,1.5-0.8,2.2
				c-0.3,0.8-0.6,1.6-0.9,2.5c0.2-0.1,0.5-0.1,0.7-0.2c-0.1-2.2-0.4-4.4-1-6.5c-0.1-0.2-0.6,0-0.7,0.1c-1,1.4-1.2,3.1-0.6,4.7
				c0.1,0.2,0.7,0,0.7-0.2c0.7-2.3,1.1-4.7,1.1-7.2c0-0.2-0.7,0-0.7,0.2c-1,2.1-2,4.3-3,6.4C457.1,764.5,457.8,764.5,457.9,764.3
				L457.9,764.3z"/>
		</g>
	</g>
	<g>
		<g>
			<path d="M472.3,453.6c-0.8,2.4-1.2,5-1.1,7.5c0,0.2,0.6,0,0.7-0.1c2.2-3.1,4.3-6.2,6.5-9.3c-0.2,0-0.5,0-0.7,0.1
				c-0.3,2.9-0.7,5.8-1,8.6c0,0.2,0.6,0,0.7-0.1c0.9-1.8,2.1-3.3,3.5-4.7c-0.2,0-0.5,0.1-0.7,0.1c0,4.4-0.8,8.8-2.2,13
				c-0.1,0.2,0.6,0.1,0.7-0.1c1.5-4.2,2.2-8.6,2.3-13.1c0-0.2-0.6,0-0.7,0.1c-1.4,1.4-2.6,3-3.6,4.8c0.2,0,0.5-0.1,0.7-0.1
				c0.3-2.9,0.7-5.8,1-8.6c0-0.2-0.6,0-0.7,0.1c-2.2,3.1-4.3,6.2-6.5,9.3c0.2,0,0.5-0.1,0.7-0.1c-0.1-2.5,0.3-5,1.1-7.4
				C473.1,453.3,472.4,453.4,472.3,453.6L472.3,453.6z"/>
		</g>
	</g>
	<g>
		<g>
			<path d="M314.5,782.6c0-1.4,0.8-2.5,2-3.1c-0.2-0.1-0.4-0.1-0.5-0.2c-0.5,5.2-1.4,10.4-2.8,15.4c-0.1,0.3,0.5,0.3,0.6,0.2
				c1.7-1.3,3.3-2.8,4.6-4.5c-0.2,0-0.4,0-0.7,0c0.1,0.8,0.1,1.7,0.2,2.5c0,0.2,0.4,0.2,0.5,0.1c1.1-0.5,2.2-1.1,3.3-1.6
				c-0.2,0-0.4-0.1-0.5-0.1c0.5,2.2,0.1,4.4-1.2,6.3c-0.3,0.4,0.4,0.5,0.6,0.2c1.3-2,1.8-4.4,1.3-6.8c0-0.2-0.4-0.2-0.5-0.1
				c-1.1,0.5-2.2,1.1-3.3,1.6c0.2,0,0.4,0.1,0.5,0.1c-0.1-0.8-0.1-1.7-0.2-2.5c0-0.3-0.6-0.2-0.7,0c-1.3,1.6-2.8,3.1-4.5,4.3
				c0.2,0.1,0.4,0.1,0.6,0.2c1.4-5.1,2.3-10.2,2.8-15.4c0-0.3-0.4-0.3-0.5-0.2c-1.4,0.7-2.4,2-2.4,3.6
				C313.7,783,314.5,782.9,314.5,782.6L314.5,782.6z"/>
		</g>
	</g>
	<g>
		<g>
			<path d="M623.5,785.3c0.6-2.3,1.9-4.2,3.8-5.6c-0.2,0-0.4,0-0.6,0.1c0.2,3,0.1,6-0.2,9.1c0,0.2,0.7,0.1,0.7-0.1
				c0.3-1.2,0.9-2.4,1.6-3.4c-0.2,0-0.5,0.1-0.7,0.1c0.7,1.3,1,2.7,1.1,4.1c0,0.2,0.6,0,0.7-0.1c0.6-0.8,0.5-1.7,0.8-2.6
				c0.2-0.6,0.7-1.6,1.5-1c0.4,0.3,0.5,0.8,0.6,1.2c0.5,2.4,1,4.7,1.5,7.1c0,0.2,0.8,0,0.7-0.2c-0.3-1.6-0.7-3.2-1-4.8
				c-0.2-0.8-0.3-1.6-0.5-2.4c-0.1-0.5-0.3-1-0.7-1.3c-0.7-0.4-1.6-0.1-2.1,0.4c-1,1-0.6,2.5-1.4,3.6c0.2,0,0.5-0.1,0.7-0.1
				c-0.1-1.4-0.5-2.8-1.1-4.1c-0.1-0.2-0.6,0-0.7,0.1c-0.8,1.1-1.3,2.2-1.7,3.5c0.2,0,0.5-0.1,0.7-0.1c0.3-3,0.3-6.1,0.2-9.1
				c0-0.2-0.6,0-0.6,0.1c-2,1.4-3.3,3.5-3.9,5.8C622.7,785.6,623.5,785.5,623.5,785.3L623.5,785.3z"/>
		</g>
	</g>
	<g>
		<g>
			<path d="M663.2,594.9c-0.6,1.8-0.7,3.6-0.3,5.4c0,0.2,0.7,0,0.7-0.2c0.7-1.8,2-3.4,3.7-4.3c-0.2,0-0.4,0-0.6,0
				c0.4,1.4,0.7,2.9,1.1,4.3c0.1,0.2,0.6,0,0.7-0.2c0.9-1.5,1.8-3,2.7-4.5c-0.2,0.1-0.5,0.1-0.7,0.2c0.8,2,1.2,4.1,1.2,6.2
				c0,0.2,0.7,0,0.7-0.2c0-2.1-0.4-4.2-1.2-6.2c-0.1-0.2-0.6,0-0.7,0.2c-0.9,1.5-1.8,3-2.7,4.5c0.2-0.1,0.5-0.1,0.7-0.2
				c-0.4-1.4-0.7-2.9-1.1-4.3c0-0.2-0.5,0-0.6,0c-1.8,1-3.2,2.6-4,4.6c0.2-0.1,0.5-0.1,0.7-0.2c-0.3-1.8-0.2-3.6,0.3-5.4
				C664,594.6,663.2,594.7,663.2,594.9L663.2,594.9z"/>
		</g>
	</g>
	<g>
		<g>
			<path d="M668,499.5c0.7,1,1.4,2,2.1,3c0.1,0.1,0.7,0,0.7-0.2c-0.2-2.4-0.9-4.8-2-6.9c-0.1,0.1-0.2,0.1-0.2,0.2
				c0.5-0.2,1-0.4,1.5-0.5c0.1,0,0.2-0.1,0.2-0.2c-0.2-1.3,0-2.6,0.5-3.9c-0.2,0.1-0.5,0.1-0.7,0.2c2.4,1.5,4.3,3.6,5.6,6.1
				c0.1,0.2,0.8-0.1,0.7-0.2c-1.3-2.5-3.2-4.6-5.6-6.1c-0.1-0.1-0.6,0-0.7,0.2c-0.5,1.3-0.6,2.6-0.5,4c0.1-0.1,0.2-0.1,0.2-0.2
				c-0.5,0.2-1,0.4-1.5,0.5c0,0-0.3,0.1-0.2,0.2c1.2,2.1,1.9,4.5,2,6.9c0.2-0.1,0.5-0.1,0.7-0.2c-0.7-1-1.4-2-2.1-3
				C668.6,499.1,667.9,499.4,668,499.5L668,499.5z"/>
		</g>
	</g>
	<g>
		<g>
			<path d="M418.2,537.9c1.2,1.1,2.3,2.3,3.1,3.7c0.2-0.1,0.5-0.2,0.7-0.2c-1.1-1.1-2-2.3-2.7-3.6c-0.2,0.1-0.5,0.2-0.7,0.2
				c0.5,0.3,1.1,0.3,1.7,0.2c0.1,0,0.4-0.1,0.4-0.2c0.2-0.6,0.4-1.3,0.6-1.9c-0.2,0.1-0.4,0.1-0.7,0.2c1.3,0.2,2.5,0.8,3.6,1.5
				c0.2,0.1,0.8-0.2,0.7-0.3c-1.1-0.8-2.4-1.3-3.7-1.6c-0.2,0-0.6,0-0.7,0.2c-0.2,0.6-0.4,1.3-0.6,1.9c0.1-0.1,0.3-0.1,0.4-0.2
				c-0.4,0.1-0.8,0-1.2-0.2c-0.1-0.1-0.8,0-0.7,0.2c0.8,1.3,1.7,2.6,2.8,3.7c0.1,0.1,0.8-0.1,0.7-0.2c-0.8-1.4-1.9-2.7-3.1-3.8
				C418.7,537.5,418,537.8,418.2,537.9L418.2,537.9z"/>
		</g>
	</g>
	<g>
		<g>
			<path d="M422,848c0.9,1.2,1.7,2.5,2.6,3.7c0.2-0.1,0.4-0.2,0.7-0.3c-1.1-0.9-2-2-2.6-3.4c-0.2,0.1-0.4,0.2-0.7,0.3
				c1.6,0.5,3.3,1.1,4.9,1.6c0.1,0,0.8,0,0.7-0.3c-0.9-1.6,1.2-2.9,2.6-2.6c1.7,0.3,3.2,1.4,4.9,1.4c0.3,0,0.8-0.4,0.3-0.4
				c-2.1-0.1-4-1.9-6.2-1.4c-1.3,0.3-3.2,1.6-2.3,3.2c0.2-0.1,0.4-0.2,0.7-0.3c-1.6-0.5-3.3-1.1-4.9-1.6c-0.1,0-0.8,0-0.7,0.3
				c0.6,1.4,1.5,2.5,2.6,3.5c0.2,0.1,0.8,0,0.7-0.3c-0.9-1.2-1.7-2.5-2.6-3.7C422.6,847.6,421.9,847.8,422,848L422,848z"/>
		</g>
	</g>
	<g>
		<g>
			<path d="M533.8,842c0.9-0.6,1.3-1.5,2-2.4c0.3-0.4,0.6-0.8,1-1c1.3-0.6,1.7,0.1,2.1,0.9c0.3,0.7,0.6,1.4,0.9,2
				c1.3,2.9,2.5,5.8,3.8,8.7c0.1,0.2,0.7,0.1,0.7-0.1c0.4-2,0.6-4,0.5-6c-0.2,0.1-0.5,0.2-0.7,0.2c1.7,2.2,3.6,4.3,5.5,6.3
				c0.1,0.1,0.7,0,0.7-0.2c0.3-1.8,0.4-3.6,0.5-5.4c-0.2,0.1-0.5,0.2-0.7,0.2c1.6,1.5,3.1,2.9,4.7,4.4c0.2,0.2,0.9-0.1,0.7-0.3
				c-1.6-1.5-3.1-2.9-4.7-4.4c-0.2-0.2-0.7,0-0.7,0.2c0,1.8-0.2,3.6-0.4,5.3c0.2-0.1,0.5-0.1,0.7-0.2c-2-2-3.8-4.1-5.5-6.3
				c-0.1-0.2-0.7,0-0.7,0.2c0.1,2-0.1,3.9-0.5,5.9c0.2,0,0.5-0.1,0.7-0.1c-0.9-2.1-1.8-4.1-2.7-6.2c-0.4-1-0.9-2.1-1.3-3.1
				c-0.3-0.7-0.6-1.6-1.1-2.2c-0.7-0.9-2-0.7-2.9-0.2c-1.4,0.8-1.8,2.5-3.1,3.4C532.9,842.1,533.6,842.1,533.8,842L533.8,842z"/>
		</g>
	</g>
</g>
<g>
	<g>
		<path d="M728.8,482.5c1.4,1.8,2.8,3.7,4.2,5.5c0.1,0.2,0.6,0,0.7-0.2c0.5-1.1,0.7-2.4,0.7-3.6c-0.2,0.1-0.5,0.1-0.7,0.2
			c0.6,1.7,1.5,3.1,2.8,4.3c0.1,0.1,0.7,0,0.7-0.2c0-1.8,0.5-3.5,1.3-5.1c-0.2,0.1-0.5,0.1-0.7,0.2c0.9,1.5,1.8,3,2.6,4.5
			c0.1,0.2,0.8,0,0.7-0.2c-0.9-1.5-1.8-3-2.6-4.5c-0.1-0.2-0.6,0-0.7,0.2c-0.8,1.6-1.3,3.4-1.3,5.2c0.2-0.1,0.5-0.2,0.7-0.2
			c-1.3-1.2-2.2-2.6-2.8-4.3c-0.1-0.2-0.7,0-0.7,0.2c0,1.2-0.2,2.4-0.7,3.5c0.2-0.1,0.5-0.1,0.7-0.2c-1.4-1.8-2.8-3.7-4.2-5.5
			C729.3,482.1,728.6,482.3,728.8,482.5L728.8,482.5z"/>
	</g>
</g>
<g>
	<g>
		<path d="M771.5,654c0.5-1,1.3-1.7,2.3-2.1c-0.2,0-0.3,0-0.5,0c-0.3,2.9-0.9,5.7-1.8,8.4c-0.1,0.2,0.6,0,0.7-0.1
			c0.8-1.5,1.7-3,2.5-4.6c-0.2,0.1-0.5,0.1-0.7,0.2c0.5,1.3,0.5,2.8-0.2,4c0.2,0,0.5-0.1,0.7-0.1c0.4-1.2,1.2-2.3,2.4-2.9
			c-0.2,0-0.4,0.1-0.6,0.1c0.6,1.7,0.4,3.6-0.4,5.2c-0.1,0.1,0.6,0.1,0.7-0.1c0.9-1.6,1-3.5,0.4-5.3c-0.1-0.2-0.5,0-0.6,0.1
			c-1.2,0.7-2.1,1.8-2.5,3.1c-0.1,0.2,0.6,0,0.7-0.1c0.7-1.3,0.7-2.8,0.2-4.1c-0.1-0.2-0.6,0-0.7,0.2c-0.8,1.5-1.7,3-2.5,4.6
			c0.2,0,0.5-0.1,0.7-0.1c0.9-2.8,1.5-5.6,1.8-8.5c0-0.1-0.5,0-0.5,0c-1.2,0.4-2.2,1.3-2.8,2.4C770.7,654.2,771.4,654.2,771.5,654
			L771.5,654z"/>
	</g>
</g>
<g>
	<g>
		<path d="M864.1,700.4c-0.6-1.4-1.2-2.9-1.7-4.3c-0.2,0.1-0.5,0.2-0.7,0.3c1.8,2.7,3.9,5.1,6.2,7.2c0.2,0.2,0.7,0.1,0.7-0.3
			c-0.3-1.8-0.6-3.7-0.9-5.5c-0.2,0.1-0.5,0.2-0.7,0.3c1,1.1,1.9,2.3,2.9,3.4c0.2,0.2,0.7,0.1,0.7-0.2c0.1-1.5-0.2-2.9-0.8-4.2
			c-0.2,0.1-0.5,0.2-0.7,0.3c1.4,1.2,3.1,2,5,2.2c0.2,0,0.4-0.1,0.5-0.2c0.4-1.1,0.6-2.2,0.5-3.4c-0.2,0.1-0.4,0.2-0.6,0.2
			c1.2,0.7,2.2,1.7,3.1,2.7c0.2,0.2,0.9,0,0.7-0.3c-0.9-1.1-2-2.1-3.2-2.8c-0.2-0.1-0.7,0-0.6,0.2c0.1,1.1-0.1,2.2-0.5,3.2
			c0.2-0.1,0.3-0.1,0.5-0.2c-1.7-0.2-3.3-0.9-4.6-2c-0.2-0.1-0.8-0.1-0.7,0.3c0.6,1.3,0.8,2.7,0.8,4.1c0.2-0.1,0.5-0.1,0.7-0.2
			c-1-1.1-1.9-2.3-2.9-3.4c-0.2-0.2-0.7-0.1-0.7,0.3c0.3,1.8,0.6,3.7,0.9,5.5c0.2-0.1,0.5-0.2,0.7-0.3c-2.4-2.2-4.4-4.6-6.2-7.2
			c-0.1-0.2-0.8,0-0.7,0.3c0.6,1.4,1.2,2.9,1.7,4.3C863.5,700.9,864.2,700.7,864.1,700.4L864.1,700.4z"/>
	</g>
</g>
<g>
	<g>
		<path d="M1034.7,567.1c1.1-5.9,1.3-12,0.4-18c-0.2,0.1-0.5,0.1-0.7,0.2c1.9,4.7,3.7,9.4,5.6,14c0.1,0.2,0.7,0.1,0.7-0.1
			c0.8-5,1.2-10,1.2-15c-0.2,0.1-0.5,0.1-0.7,0.2c1,3.4,2.1,6.7,3.1,10.1c0.1,0.2,0.7,0.1,0.7-0.1c0.4-2.8,0.4-5.7,0.1-8.5
			c-0.2,0.1-0.5,0.1-0.7,0.2c2.5,5.1,4.8,10.3,6.8,15.7c0.1-0.1,0.3-0.2,0.4-0.3c-0.3-0.1-0.3-0.3-0.2-0.5c0.1-0.2-0.6-0.1-0.7,0.1
			c-0.2,0.6,0.3,0.9,0.8,0.8c0.1,0,0.5-0.1,0.4-0.3c-2-5.3-4.3-10.6-6.8-15.7c-0.1-0.2-0.8-0.1-0.7,0.2c0.3,2.8,0.3,5.6-0.1,8.4
			c0.2,0,0.5-0.1,0.7-0.1c-1-3.4-2.1-6.7-3.1-10.1c-0.1-0.3-0.7,0-0.7,0.2c0,5-0.4,10-1.2,14.9c0.2,0,0.5-0.1,0.7-0.1
			c-1.9-4.7-3.7-9.4-5.6-14c-0.1-0.2-0.8-0.1-0.7,0.2c0.9,5.9,0.8,12-0.4,17.9C1033.9,567.5,1034.7,567.4,1034.7,567.1L1034.7,567.1
			z"/>
	</g>
</g>
<g>
	<g>
		<path d="M1044.1,748.9c-0.2-2.2-0.4-4.5-0.6-6.7c-0.2,0.1-0.5,0.1-0.7,0.2c1.9,3,3.6,6.1,5.3,9.3c0.1,0.2,0.8,0,0.7-0.2
			c-0.7-2.4-1.4-4.8-2.1-7.3c-0.2,0.1-0.5,0.2-0.7,0.2c1.1,1.4,2.3,2.9,3.4,4.3c0.1,0.1,0.7,0,0.7-0.2c-0.4-2.7-1.1-5.4-2.2-7.9
			c-0.2,0.1-0.5,0.2-0.7,0.2c2.3,1.5,4,3.7,5,6.2c0.1,0.2,0.8,0,0.7-0.2c-1-2.6-2.7-4.8-5-6.3c-0.1-0.1-0.8,0-0.7,0.2
			c1.1,2.5,1.8,5.2,2.2,7.9c0.2-0.1,0.5-0.2,0.7-0.2c-1.1-1.4-2.3-2.9-3.4-4.3c-0.1-0.1-0.8,0-0.7,0.2c0.7,2.4,1.4,4.8,2.1,7.3
			c0.2-0.1,0.5-0.1,0.7-0.2c-1.6-3.2-3.4-6.3-5.3-9.3c-0.1-0.2-0.7,0-0.7,0.2c0.2,2.2,0.4,4.5,0.6,6.7
			C1043.4,749.3,1044.1,749.1,1044.1,748.9L1044.1,748.9z"/>
	</g>
</g>
<g>
	<g>
		<path d="M910.7,800.2c1-2.1,2-4.3,3-6.4c-0.2,0.1-0.5,0.1-0.7,0.2c0,2.4-0.4,4.8-1.1,7.1c0.2-0.1,0.5-0.1,0.7-0.2
			c-0.6-1.5-0.4-3.2,0.5-4.5c-0.2,0-0.5,0.1-0.7,0.1c0.6,2.1,0.9,4.3,1,6.5c0,0.2,0.7,0,0.7-0.2c0.4-1.2,0.9-2.5,1.3-3.7
			c0.2-0.5,0.4-1,0.7-1.5c0.2-0.3,0.5-0.6,0.9-0.3c0.2,0.2,0.4,0.4,0.5,0.6c1.1,2.2,1.6,4.7,1.6,7.2c0,0.2,0.7,0,0.7-0.2
			c0-1.6-0.2-3.2-0.7-4.7c-0.2-0.7-0.5-1.5-0.8-2.2c-0.2-0.5-0.5-1-1.1-1.2c-1-0.2-1.7,0.6-2.1,1.4c-0.4,0.7-0.6,1.5-0.8,2.2
			c-0.3,0.8-0.6,1.6-0.9,2.5c0.2-0.1,0.5-0.1,0.7-0.2c-0.1-2.2-0.4-4.4-1-6.5c-0.1-0.2-0.6,0-0.7,0.1c-1,1.4-1.2,3.1-0.6,4.7
			c0.1,0.2,0.7,0,0.7-0.2c0.7-2.3,1.1-4.7,1.1-7.2c0-0.2-0.7,0-0.7,0.2c-1,2.1-2,4.3-3,6.4C909.9,800.5,910.6,800.4,910.7,800.2
			L910.7,800.2z"/>
	</g>
</g>
<g>
	<g>
		<path d="M925.1,489.6c-0.8,2.4-1.2,5-1.1,7.5c0,0.2,0.6,0,0.7-0.1c2.2-3.1,4.3-6.2,6.5-9.3c-0.2,0-0.5,0-0.7,0.1
			c-0.3,2.9-0.7,5.8-1,8.6c0,0.2,0.6,0,0.7-0.1c0.9-1.8,2.1-3.3,3.5-4.7c-0.2,0-0.5,0.1-0.7,0.1c0,4.4-0.8,8.8-2.2,13
			c-0.1,0.2,0.6,0.1,0.7-0.1c1.5-4.2,2.2-8.6,2.3-13.1c0-0.2-0.6,0-0.7,0.1c-1.4,1.4-2.6,3-3.6,4.8c0.2,0,0.5-0.1,0.7-0.1
			c0.3-2.9,0.7-5.8,1-8.6c0-0.2-0.6,0-0.7,0.1c-2.2,3.1-4.3,6.2-6.5,9.3c0.2,0,0.5-0.1,0.7-0.1c-0.1-2.5,0.3-5,1.1-7.4
			C925.9,489.3,925.2,489.4,925.1,489.6L925.1,489.6z"/>
	</g>
</g>
<g>
	<g>
		<path d="M767.3,818.5c0-1.4,0.8-2.5,2-3.1c-0.2-0.1-0.4-0.1-0.5-0.2c-0.5,5.2-1.4,10.4-2.8,15.4c-0.1,0.3,0.5,0.3,0.6,0.2
			c1.7-1.3,3.3-2.8,4.6-4.5c-0.2,0-0.4,0-0.7,0c0.1,0.8,0.1,1.7,0.2,2.5c0,0.2,0.4,0.2,0.5,0.1c1.1-0.5,2.2-1.1,3.3-1.6
			c-0.2,0-0.4-0.1-0.5-0.1c0.5,2.2,0.1,4.4-1.2,6.3c-0.3,0.4,0.4,0.5,0.6,0.2c1.3-2,1.8-4.4,1.3-6.8c0-0.2-0.4-0.2-0.5-0.1
			c-1.1,0.5-2.2,1.1-3.3,1.6c0.2,0,0.4,0.1,0.5,0.1c-0.1-0.8-0.1-1.7-0.2-2.5c0-0.3-0.6-0.2-0.7,0c-1.3,1.6-2.8,3.1-4.5,4.3
			c0.2,0.1,0.4,0.1,0.6,0.2c1.4-5.1,2.3-10.2,2.8-15.4c0-0.3-0.4-0.3-0.5-0.2c-1.4,0.7-2.4,2-2.4,3.6
			C766.5,819,767.3,818.9,767.3,818.5L767.3,818.5z"/>
	</g>
</g>
<g>
	<g>
		<path d="M1049,823.5c0.6-2.3,1.9-4.2,3.8-5.6c-0.2,0-0.4,0-0.6,0.1c0.2,3,0.1,6-0.2,9.1c0,0.2,0.7,0.1,0.7-0.1
			c0.3-1.2,0.9-2.4,1.6-3.4c-0.2,0-0.5,0.1-0.7,0.1c0.7,1.3,1,2.7,1.1,4.1c0,0.2,0.6,0,0.7-0.1c0.6-0.8,0.5-1.7,0.8-2.6
			c0.2-0.6,0.7-1.6,1.5-1c0.4,0.3,0.5,0.8,0.6,1.2c0.5,2.4,1,4.7,1.5,7.1c0,0.2,0.8,0,0.7-0.2c-0.3-1.6-0.7-3.2-1-4.8
			c-0.2-0.8-0.3-1.6-0.5-2.4c-0.1-0.5-0.3-1-0.7-1.3c-0.7-0.4-1.6-0.1-2.1,0.4c-1,1-0.6,2.5-1.4,3.6c0.2,0,0.5-0.1,0.7-0.1
			c-0.1-1.4-0.5-2.8-1.1-4.1c-0.1-0.2-0.6,0-0.7,0.1c-0.8,1.1-1.3,2.2-1.7,3.5c0.2,0,0.5-0.1,0.7-0.1c0.3-3,0.3-6.1,0.2-9.1
			c0-0.2-0.6,0-0.6,0.1c-2,1.4-3.3,3.5-3.9,5.8C1048.2,823.8,1048.9,823.7,1049,823.5L1049,823.5z"/>
	</g>
</g>
<g>
	<g>
		<path d="M962.6,994.9c0.7,1,1.4,2,2.1,3c0.1,0.1,0.7,0,0.7-0.2c-0.2-2.4-0.9-4.8-2-6.9c-0.1,0.1-0.2,0.1-0.2,0.2
			c0.5-0.2,1-0.4,1.5-0.5c0.1,0,0.2-0.1,0.2-0.2c-0.2-1.3,0-2.6,0.5-3.9c-0.2,0.1-0.5,0.1-0.7,0.2c2.4,1.5,4.3,3.6,5.6,6.1
			c0.1,0.2,0.8-0.1,0.7-0.2c-1.3-2.5-3.2-4.6-5.6-6.1c-0.1-0.1-0.6,0-0.7,0.2c-0.5,1.3-0.6,2.6-0.5,4c0.1-0.1,0.2-0.1,0.2-0.2
			c-0.5,0.2-1,0.4-1.5,0.5c0,0-0.3,0.1-0.2,0.2c1.2,2.1,1.9,4.5,2,6.9c0.2-0.1,0.5-0.1,0.7-0.2c-0.7-1-1.4-2-2.1-3
			C963.2,994.5,962.5,994.8,962.6,994.9L962.6,994.9z"/>
	</g>
</g>
<g>
	<g>
		<path d="M871,573.9c1.2,1.1,2.3,2.3,3.1,3.7c0.2-0.1,0.5-0.2,0.7-0.2c-1.1-1.1-2-2.3-2.7-3.6c-0.2,0.1-0.5,0.2-0.7,0.2
			c0.5,0.3,1.1,0.3,1.7,0.2c0.1,0,0.4-0.1,0.4-0.2c0.2-0.6,0.4-1.3,0.6-1.9c-0.2,0.1-0.4,0.1-0.7,0.2c1.3,0.2,2.5,0.8,3.6,1.5
			c0.2,0.1,0.8-0.2,0.7-0.3c-1.1-0.8-2.4-1.3-3.7-1.6c-0.2,0-0.6,0-0.7,0.2c-0.2,0.6-0.4,1.3-0.6,1.9c0.1-0.1,0.3-0.1,0.4-0.2
			c-0.4,0.1-0.8,0-1.2-0.2c-0.1-0.1-0.8,0-0.7,0.2c0.8,1.3,1.7,2.6,2.8,3.7c0.1,0.1,0.8-0.1,0.7-0.2c-0.8-1.4-1.9-2.7-3.1-3.8
			C871.5,573.5,870.8,573.8,871,573.9L871,573.9z"/>
	</g>
</g>
<g>
	<g>
		<path d="M874.8,884c0.9,1.2,1.7,2.5,2.6,3.7c0.2-0.1,0.4-0.2,0.7-0.3c-1.1-0.9-2-2-2.6-3.4c-0.2,0.1-0.4,0.2-0.7,0.3
			c1.6,0.5,3.3,1.1,4.9,1.6c0.1,0,0.8,0,0.7-0.3c-0.9-1.6,1.2-2.9,2.6-2.6c1.7,0.3,3.2,1.4,4.9,1.4c0.3,0,0.8-0.4,0.3-0.4
			c-2.1-0.1-4-1.9-6.2-1.4c-1.3,0.3-3.2,1.6-2.3,3.2c0.2-0.1,0.4-0.2,0.7-0.3c-1.6-0.5-3.3-1.1-4.9-1.6c-0.1,0-0.8,0-0.7,0.3
			c0.6,1.4,1.5,2.5,2.6,3.5c0.2,0.1,0.8,0,0.7-0.3c-0.9-1.2-1.7-2.5-2.6-3.7C875.4,883.5,874.7,883.8,874.8,884L874.8,884z"/>
	</g>
</g>
<g>
	<g>
		<path d="M986.6,877.9c0.9-0.6,1.3-1.5,2-2.4c0.3-0.4,0.6-0.8,1-1c1.3-0.6,1.7,0.1,2.1,0.9c0.3,0.7,0.6,1.4,0.9,2
			c1.3,2.9,2.5,5.8,3.8,8.7c0.1,0.2,0.7,0.1,0.7-0.1c0.4-2,0.6-4,0.5-6c-0.2,0.1-0.5,0.2-0.7,0.2c1.7,2.2,3.6,4.3,5.5,6.3
			c0.1,0.1,0.7,0,0.7-0.2c0.3-1.8,0.4-3.6,0.5-5.4c-0.2,0.1-0.5,0.2-0.7,0.2c1.6,1.5,3.1,2.9,4.7,4.4c0.2,0.2,0.9-0.1,0.7-0.3
			c-1.6-1.5-3.1-2.9-4.7-4.4c-0.2-0.2-0.7,0-0.7,0.2c0,1.8-0.2,3.6-0.4,5.3c0.2-0.1,0.5-0.1,0.7-0.2c-2-2-3.8-4.1-5.5-6.3
			c-0.1-0.2-0.7,0-0.7,0.2c0.1,2-0.1,3.9-0.5,5.9c0.2,0,0.5-0.1,0.7-0.1c-0.9-2.1-1.8-4.1-2.7-6.2c-0.4-1-0.9-2.1-1.3-3.1
			c-0.3-0.7-0.6-1.6-1.1-2.2c-0.7-0.9-2-0.7-2.9-0.2c-1.4,0.8-1.8,2.5-3.1,3.4C985.7,878,986.4,878.1,986.6,877.9L986.6,877.9z"/>
	</g>
</g>
<g>
	<g>
		<path d="M865.1,36.9c1.4,1.8,2.8,3.7,4.2,5.5c0.1,0.2,0.6,0,0.7-0.2c0.5-1.1,0.7-2.4,0.7-3.6c-0.2,0.1-0.5,0.1-0.7,0.2
			c0.6,1.7,1.5,3.1,2.8,4.3c0.1,0.1,0.7,0,0.7-0.2c0-1.8,0.5-3.5,1.3-5.1c-0.2,0.1-0.5,0.1-0.7,0.2c0.9,1.5,1.8,3,2.6,4.5
			c0.1,0.2,0.8,0,0.7-0.2c-0.9-1.5-1.8-3-2.6-4.5c-0.1-0.2-0.6,0-0.7,0.2c-0.8,1.6-1.3,3.4-1.3,5.2c0.2-0.1,0.5-0.2,0.7-0.2
			c-1.3-1.2-2.2-2.6-2.8-4.3c-0.1-0.2-0.7,0-0.7,0.2c0,1.2-0.2,2.4-0.7,3.5c0.2-0.1,0.5-0.1,0.7-0.2c-1.4-1.8-2.8-3.7-4.2-5.5
			C865.6,36.5,864.9,36.7,865.1,36.9L865.1,36.9z"/>
	</g>
</g>
<g>
	<g>
		<path d="M907.7,208.4c0.5-1,1.3-1.7,2.3-2.1c-0.2,0-0.3,0-0.5,0c-0.3,2.9-0.9,5.7-1.8,8.4c-0.1,0.2,0.6,0,0.7-0.1
			c0.8-1.5,1.7-3,2.5-4.6c-0.2,0.1-0.5,0.1-0.7,0.2c0.5,1.3,0.5,2.8-0.2,4c0.2,0,0.5-0.1,0.7-0.1c0.4-1.2,1.2-2.3,2.4-2.9
			c-0.2,0-0.4,0.1-0.6,0.1c0.6,1.7,0.4,3.6-0.4,5.2c-0.1,0.1,0.6,0.1,0.7-0.1c0.9-1.6,1-3.5,0.4-5.3c-0.1-0.2-0.5,0-0.6,0.1
			c-1.2,0.7-2.1,1.8-2.5,3.1c-0.1,0.2,0.6,0,0.7-0.1c0.7-1.3,0.7-2.8,0.2-4.1c-0.1-0.2-0.6,0-0.7,0.2c-0.8,1.5-1.7,3-2.5,4.6
			c0.2,0,0.5-0.1,0.7-0.1c0.9-2.8,1.5-5.6,1.8-8.5c0-0.1-0.5,0-0.5,0c-1.2,0.4-2.2,1.3-2.8,2.4C907,208.6,907.6,208.5,907.7,208.4
			L907.7,208.4z"/>
	</g>
</g>
<g>
	<g>
		<path d="M1000.4,254.7c-0.6-1.4-1.2-2.9-1.7-4.3c-0.2,0.1-0.5,0.2-0.7,0.3c1.8,2.7,3.9,5.1,6.2,7.2c0.2,0.2,0.7,0.1,0.7-0.3
			c-0.3-1.8-0.6-3.7-0.9-5.5c-0.2,0.1-0.5,0.2-0.7,0.3c1,1.1,1.9,2.3,2.9,3.4c0.2,0.2,0.7,0.1,0.7-0.2c0.1-1.5-0.2-2.9-0.8-4.2
			c-0.2,0.1-0.5,0.2-0.7,0.3c1.4,1.2,3.1,2,5,2.2c0.2,0,0.4-0.1,0.5-0.2c0.4-1.1,0.6-2.2,0.5-3.4c-0.2,0.1-0.4,0.2-0.6,0.2
			c1.2,0.7,2.2,1.7,3.1,2.7c0.2,0.2,0.9,0,0.7-0.3c-0.9-1.1-2-2.1-3.2-2.8c-0.2-0.1-0.7,0-0.6,0.2c0.1,1.1-0.1,2.2-0.5,3.2
			c0.2-0.1,0.3-0.1,0.5-0.2c-1.7-0.2-3.3-0.9-4.6-2c-0.2-0.1-0.8-0.1-0.7,0.3c0.6,1.3,0.8,2.7,0.8,4.1c0.2-0.1,0.5-0.1,0.7-0.2
			c-1-1.1-1.9-2.3-2.9-3.4c-0.2-0.2-0.7-0.1-0.7,0.3c0.3,1.8,0.6,3.7,0.9,5.5c0.2-0.1,0.5-0.2,0.7-0.3c-2.4-2.2-4.4-4.6-6.2-7.2
			c-0.1-0.2-0.8,0-0.7,0.3c0.6,1.4,1.2,2.9,1.7,4.3C999.8,255.2,1000.5,255,1000.4,254.7L1000.4,254.7z"/>
	</g>
</g>
<g>
	<g>
		<path d="M902.4,939.6c2.2,0.5,4.4,1,6.6,1.5c0.1-0.1,0.2-0.2,0.3-0.3c-3.4,0.8-6.9,1.5-10.4,2.1c-0.1,0-0.7,0.3-0.3,0.3
			c2.5,0.1,5,0.1,7.6,0.2c0-0.1,0.1-0.2,0.1-0.3c-1.7,0.6-3.4,1.3-5.1,1.9c-0.1,0.1-0.4,0.2-0.1,0.3c2.7,0.5,5.5,0.6,8.3,0.3
			c0-0.1-0.1-0.1-0.1-0.2c-2,1.6-4.5,2.6-7.1,2.7c-0.2,0-0.8,0.4-0.3,0.3c2.9-0.1,5.7-1.1,7.9-2.9c0.2-0.1,0-0.2-0.1-0.2
			c-2.7,0.3-5.5,0.1-8.2-0.3c0,0.1-0.1,0.2-0.1,0.3c1.7-0.6,3.4-1.3,5.1-1.9c0.1,0,0.4-0.3,0.1-0.3c-2.5-0.1-5-0.1-7.6-0.2
			c-0.1,0.1-0.2,0.2-0.3,0.3c3.6-0.6,7.1-1.3,10.6-2.2c0.1,0,0.5-0.2,0.3-0.3c-2.2-0.5-4.4-1-6.6-1.5c-0.2,0-0.4,0-0.5,0.1
			C902.4,939.4,902.2,939.5,902.4,939.6L902.4,939.6z"/>
	</g>
</g>
<g>
	<g>
		<path d="M1047,354.6c1-2.1,2-4.3,3-6.4c-0.2,0.1-0.5,0.1-0.7,0.2c0,2.4-0.4,4.8-1.1,7.1c0.2-0.1,0.5-0.1,0.7-0.2
			c-0.6-1.5-0.4-3.2,0.5-4.5c-0.2,0-0.5,0.1-0.7,0.1c0.6,2.1,0.9,4.3,1,6.5c0,0.2,0.7,0,0.7-0.2c0.4-1.2,0.9-2.5,1.3-3.7
			c0.2-0.5,0.4-1,0.7-1.5c0.2-0.3,0.5-0.6,0.9-0.3c0.2,0.2,0.4,0.4,0.5,0.6c1.1,2.2,1.6,4.7,1.6,7.2c0,0.2,0.7,0,0.7-0.2
			c0-1.6-0.2-3.2-0.7-4.7c-0.2-0.7-0.5-1.5-0.8-2.2c-0.2-0.5-0.5-1-1.1-1.2c-1-0.2-1.7,0.6-2.1,1.4c-0.4,0.7-0.6,1.5-0.8,2.2
			c-0.3,0.8-0.6,1.6-0.9,2.5c0.2-0.1,0.5-0.1,0.7-0.2c-0.1-2.2-0.4-4.4-1-6.5c-0.1-0.2-0.6,0-0.7,0.1c-1,1.4-1.2,3.1-0.6,4.7
			c0.1,0.2,0.7,0,0.7-0.2c0.7-2.3,1.1-4.7,1.1-7.2c0-0.2-0.7,0-0.7,0.2c-1,2.1-2,4.3-3,6.4C1046.2,354.9,1046.9,354.8,1047,354.6
			L1047,354.6z"/>
	</g>
</g>
<g>
	<g>
		<path d="M1061.4,44c-0.8,2.4-1.2,5-1.1,7.5c0,0.2,0.6,0,0.7-0.1c2.2-3.1,4.3-6.2,6.5-9.3c-0.2,0-0.5,0-0.7,0.1
			c-0.3,2.9-0.7,5.8-1,8.6c0,0.2,0.6,0,0.7-0.1c0.9-1.8,2.1-3.3,3.5-4.7c-0.2,0-0.5,0.1-0.7,0.1c0,4.4-0.8,8.8-2.2,13
			c-0.1,0.2,0.6,0.1,0.7-0.1c1.5-4.2,2.2-8.6,2.3-13.1c0-0.2-0.6,0-0.7,0.1c-1.4,1.4-2.6,3-3.6,4.8c0.2,0,0.5-0.1,0.7-0.1
			c0.3-2.9,0.7-5.8,1-8.6c0-0.2-0.6,0-0.7,0.1c-2.2,3.1-4.3,6.2-6.5,9.3c0.2,0,0.5-0.1,0.7-0.1c-0.1-2.5,0.3-5,1.1-7.4
			C1062.2,43.7,1061.5,43.8,1061.4,44L1061.4,44z"/>
	</g>
</g>
<g>
	<g>
		<path d="M903.6,372.9c0-1.4,0.8-2.5,2-3.1c-0.2-0.1-0.4-0.1-0.5-0.2c-0.5,5.2-1.4,10.4-2.8,15.4c-0.1,0.3,0.5,0.3,0.6,0.2
			c1.7-1.3,3.3-2.8,4.6-4.5c-0.2,0-0.4,0-0.7,0c0.1,0.8,0.1,1.7,0.2,2.5c0,0.2,0.4,0.2,0.5,0.1c1.1-0.5,2.2-1.1,3.3-1.6
			c-0.2,0-0.4-0.1-0.5-0.1c0.5,2.2,0.1,4.4-1.2,6.3c-0.3,0.4,0.4,0.5,0.6,0.2c1.3-2,1.8-4.4,1.3-6.8c0-0.2-0.4-0.2-0.5-0.1
			c-1.1,0.5-2.2,1.1-3.3,1.6c0.2,0,0.4,0.1,0.5,0.1c-0.1-0.8-0.1-1.7-0.2-2.5c0-0.3-0.6-0.2-0.7,0c-1.3,1.6-2.8,3.1-4.5,4.3
			c0.2,0.1,0.4,0.1,0.6,0.2c1.4-5.1,2.3-10.2,2.8-15.4c0-0.3-0.4-0.3-0.5-0.2c-1.4,0.7-2.4,2-2.4,3.6
			C902.8,373.3,903.6,373.2,903.6,372.9L903.6,372.9z"/>
	</g>
</g>
<g>
	<g>
		<path d="M823.7,947.8c2,1.3,3.5,3.2,4.2,5.4c0.2-0.1,0.4-0.2,0.7-0.3c-2.9-0.8-5.8-1.8-8.6-3c-0.2-0.1-0.8,0.2-0.6,0.3
			c1.1,0.7,2,1.6,2.8,2.6c0.1-0.1,0.3-0.2,0.4-0.3c-1.4,0.2-2.7,0.2-4-0.2c-0.1,0-0.8,0.1-0.6,0.3c0.6,0.8,1.5,1,2.2,1.5
			c0.9,0.6,1.6,2.4-0.2,2.3c-2.4-0.2-4.9-0.5-7.3-0.7c-0.2,0-0.8,0.3-0.5,0.3c1.7,0.2,3.5,0.4,5.2,0.5c1.1,0.1,2.6,0.5,3.7,0.1
			c0.9-0.4,1-1.3,0.5-2.1c-0.7-1-2.1-1.2-2.8-2.2c-0.2,0.1-0.4,0.2-0.6,0.3c1.5,0.4,3,0.4,4.5,0.2c0.1,0,0.5-0.1,0.4-0.3
			c-0.8-1-1.7-1.9-2.8-2.6c-0.2,0.1-0.4,0.2-0.6,0.3c2.8,1.2,5.7,2.2,8.6,3c0.1,0,0.7,0,0.7-0.3c-0.7-2.3-2.2-4.2-4.3-5.5
			C824.1,947.4,823.5,947.7,823.7,947.8L823.7,947.8z"/>
	</g>
</g>
<g>
	<g>
		<path d="M1035.7,1021.5c-0.6,1.8-0.7,3.6-0.3,5.4c0,0.2,0.7,0,0.7-0.2c0.7-1.8,2-3.4,3.7-4.3c-0.2,0-0.4,0-0.6,0
			c0.4,1.4,0.7,2.9,1.1,4.3c0.1,0.2,0.6,0,0.7-0.2c0.9-1.5,1.8-3,2.7-4.5c-0.2,0.1-0.5,0.1-0.7,0.2c0.8,2,1.2,4.1,1.2,6.2
			c0,0.2,0.7,0,0.7-0.2c0-2.1-0.4-4.2-1.2-6.2c-0.1-0.2-0.6,0-0.7,0.2c-0.9,1.5-1.8,3-2.7,4.5c0.2-0.1,0.5-0.1,0.7-0.2
			c-0.4-1.4-0.7-2.9-1.1-4.3c0-0.2-0.5,0-0.6,0c-1.8,1-3.2,2.6-4,4.6c0.2-0.1,0.5-0.1,0.7-0.2c-0.3-1.8-0.2-3.6,0.3-5.4
			C1036.5,1021.2,1035.8,1021.3,1035.7,1021.5L1035.7,1021.5z"/>
	</g>
</g>
<g>
	<g>
		<path d="M1040.5,926.1c0.7,1,1.4,2,2.1,3c0.1,0.1,0.7,0,0.7-0.2c-0.2-2.4-0.9-4.8-2-6.9c-0.1,0.1-0.2,0.1-0.2,0.2
			c0.5-0.2,1-0.4,1.5-0.5c0.1,0,0.2-0.1,0.2-0.2c-0.2-1.3,0-2.6,0.5-3.9c-0.2,0.1-0.5,0.1-0.7,0.2c2.4,1.5,4.3,3.6,5.6,6.1
			c0.1,0.2,0.8-0.1,0.7-0.2c-1.3-2.5-3.2-4.6-5.6-6.1c-0.1-0.1-0.6,0-0.7,0.2c-0.5,1.3-0.6,2.6-0.5,4c0.1-0.1,0.2-0.1,0.2-0.2
			c-0.5,0.2-1,0.4-1.5,0.5c0,0-0.3,0.1-0.2,0.2c1.2,2.1,1.9,4.5,2,6.9c0.2-0.1,0.5-0.1,0.7-0.2c-0.7-1-1.4-2-2.1-3
			C1041.1,925.7,1040.4,926,1040.5,926.1L1040.5,926.1z"/>
	</g>
</g>
<g>
	<g>
		<path d="M1007.3,128.2c1.2,1.1,2.3,2.3,3.1,3.7c0.2-0.1,0.5-0.2,0.7-0.2c-1.1-1.1-2-2.3-2.7-3.6c-0.2,0.1-0.5,0.2-0.7,0.2
			c0.5,0.3,1.1,0.3,1.7,0.2c0.1,0,0.4-0.1,0.4-0.2c0.2-0.6,0.4-1.3,0.6-1.9c-0.2,0.1-0.4,0.1-0.7,0.2c1.3,0.2,2.5,0.8,3.6,1.5
			c0.2,0.1,0.8-0.2,0.7-0.3c-1.1-0.8-2.4-1.3-3.7-1.6c-0.2,0-0.6,0-0.7,0.2c-0.2,0.6-0.4,1.3-0.6,1.9c0.1-0.1,0.3-0.1,0.4-0.2
			c-0.4,0.1-0.8,0-1.2-0.2c-0.1-0.1-0.8,0-0.7,0.2c0.8,1.3,1.7,2.6,2.8,3.7c0.1,0.1,0.8-0.1,0.7-0.2c-0.8-1.4-1.9-2.7-3.1-3.8
			C1007.8,127.8,1007.1,128.1,1007.3,128.2L1007.3,128.2z"/>
	</g>
</g>
<g>
	<g>
		<path d="M1011.1,438.3c0.9,1.2,1.7,2.5,2.6,3.7c0.2-0.1,0.4-0.2,0.7-0.3c-1.1-0.9-2-2-2.6-3.4c-0.2,0.1-0.4,0.2-0.7,0.3
			c1.6,0.5,3.3,1.1,4.9,1.6c0.1,0,0.8,0,0.7-0.3c-0.9-1.6,1.2-2.9,2.6-2.6c1.7,0.3,3.2,1.4,4.9,1.4c0.3,0,0.8-0.4,0.3-0.4
			c-2.1-0.1-4-1.9-6.2-1.4c-1.3,0.3-3.2,1.6-2.3,3.2c0.2-0.1,0.4-0.2,0.7-0.3c-1.6-0.5-3.3-1.1-4.9-1.6c-0.1,0-0.8,0-0.7,0.3
			c0.6,1.4,1.5,2.5,2.6,3.5c0.2,0.1,0.8,0,0.7-0.3c-0.9-1.2-1.7-2.5-2.6-3.7C1011.7,437.9,1011,438.1,1011.1,438.3L1011.1,438.3z"/>
	</g>
</g>
<g>
	<g>
		<path d="M868.7,1019c0.9-0.6,1.3-1.5,2-2.4c0.3-0.4,0.6-0.8,1-1c1.3-0.6,1.7,0.1,2.1,0.9c0.3,0.7,0.6,1.4,0.9,2
			c1.3,2.9,2.5,5.8,3.8,8.7c0.1,0.2,0.7,0.1,0.7-0.1c0.4-2,0.6-4,0.5-6c-0.2,0.1-0.5,0.2-0.7,0.2c1.7,2.2,3.6,4.3,5.5,6.3
			c0.1,0.1,0.7,0,0.7-0.2c0.3-1.8,0.4-3.6,0.5-5.4c-0.2,0.1-0.5,0.2-0.7,0.2c1.6,1.5,3.1,2.9,4.7,4.4c0.2,0.2,0.9-0.1,0.7-0.3
			c-1.6-1.5-3.1-2.9-4.7-4.4c-0.2-0.2-0.7,0-0.7,0.2c0,1.8-0.2,3.6-0.4,5.3c0.2-0.1,0.5-0.1,0.7-0.2c-2-2-3.8-4.1-5.5-6.3
			c-0.1-0.2-0.7,0-0.7,0.2c0.1,2-0.1,3.9-0.5,5.9c0.2,0,0.5-0.1,0.7-0.1c-0.9-2.1-1.8-4.1-2.7-6.2c-0.4-1-0.9-2.1-1.3-3.1
			c-0.3-0.7-0.6-1.6-1.1-2.2c-0.7-0.9-2-0.7-2.9-0.2c-1.4,0.8-1.8,2.5-3.1,3.4C867.8,1019.2,868.5,1019.2,868.7,1019L868.7,1019z"/>
	</g>
</g>
<g>
	<g>
		<path d="M378.5,926.6c1.8,1.4,3.7,2.8,5.5,4.2c0.1-0.1,0.1-0.2,0.2-0.2c-1,0.5-2.1,0.7-3.3,0.6c-0.1,0-0.7,0.2-0.4,0.3
			c1.6,0.6,3.1,1.5,4.3,2.8c0.2-0.1,0.3-0.2,0.5-0.3c-1.9,0.1-3.8,0.6-5.5,1.4c0,0-0.2,0.1-0.1,0.2c1.5,0.9,3,1.8,4.5,2.6
			c0.2,0.1,0.8-0.2,0.7-0.3c-1.5-0.9-3-1.8-4.5-2.6c0,0.1-0.1,0.1-0.1,0.2c1.5-0.8,3.1-1.2,4.8-1.2c0.1,0,0.6-0.1,0.5-0.3
			c-1.2-1.3-2.7-2.3-4.4-2.8c-0.1,0.1-0.3,0.2-0.4,0.3c1.3,0,2.6-0.2,3.8-0.8c0,0,0.3-0.2,0.2-0.2c-1.8-1.4-3.7-2.8-5.5-4.2
			C379,926.2,378.3,926.5,378.5,926.6L378.5,926.6z"/>
	</g>
</g>
<g>
	<g>
		<path d="M550.4,967.6c-1.1,0.6-2,1.5-2.4,2.7c0,0.1,0.2,0.1,0.2,0.1c3-0.3,5.9-0.9,8.7-1.9c-0.1,0-0.2-0.1-0.3-0.1
			c-1.5,0.8-3,1.7-4.5,2.5c-0.1,0-0.2,0.1-0.1,0.2c1.5,0.6,3.2,0.5,4.6-0.3c0.4-0.2-0.2-0.2-0.3-0.1c-1.4,0.5-2.5,1.4-3.2,2.6
			c0,0,0,0.1,0.1,0.1c1.9,0.6,4,0.4,5.8-0.5c0.4-0.2-0.2-0.2-0.4-0.1c-1.3,0.7-2.9,0.9-4.4,0.5c-0.1,0-0.2,0-0.3-0.2
			c0-0.1,0.3-0.4,0.3-0.5c0.2-0.2,0.4-0.5,0.6-0.7c0.5-0.5,1.1-0.8,1.8-1c-0.1,0-0.2-0.1-0.3-0.1c-1.1,0.6-2.4,0.6-3.5,0.1
			c0,0.1-0.1,0.1-0.1,0.2c1.5-0.8,3-1.7,4.5-2.5c0.4-0.2-0.2-0.2-0.3-0.1c-2.6,0.9-5.4,1.5-8.2,1.8c0.1,0,0.1,0.1,0.2,0.1
			c0.4-1,1.1-1.9,2.1-2.4C551.3,967.5,550.6,967.5,550.4,967.6L550.4,967.6z"/>
	</g>
</g>
<g>
	<g>
		<path d="M7.3,693.8c-0.6-1.4-1.2-2.9-1.7-4.3c-0.2,0.1-0.5,0.2-0.7,0.3c1.8,2.7,3.9,5.1,6.2,7.2c0.2,0.2,0.7,0.1,0.7-0.3
			c-0.3-1.8-0.6-3.7-0.9-5.5c-0.2,0.1-0.5,0.2-0.7,0.3c1,1.1,1.9,2.3,2.9,3.4c0.2,0.2,0.7,0.1,0.7-0.2c0.1-1.5-0.2-2.9-0.8-4.2
			c-0.2,0.1-0.5,0.2-0.7,0.3c1.4,1.2,3.1,2,5,2.2c0.2,0,0.4-0.1,0.5-0.2c0.4-1.1,0.6-2.2,0.5-3.4c-0.2,0.1-0.4,0.2-0.6,0.2
			c1.2,0.7,2.2,1.7,3.1,2.7c0.2,0.2,0.9,0,0.7-0.3c-0.9-1.1-2-2.1-3.2-2.8c-0.2-0.1-0.7,0-0.6,0.2c0.1,1.1-0.1,2.2-0.5,3.2
			c0.2-0.1,0.3-0.1,0.5-0.2c-1.7-0.2-3.3-0.9-4.6-2c-0.2-0.1-0.8-0.1-0.7,0.3c0.6,1.3,0.8,2.7,0.8,4.1c0.2-0.1,0.5-0.1,0.7-0.2
			c-1-1.1-1.9-2.3-2.9-3.4c-0.2-0.2-0.7-0.1-0.7,0.3c0.3,1.8,0.6,3.7,0.9,5.5c0.2-0.1,0.5-0.2,0.7-0.3c-2.4-2.2-4.4-4.6-6.2-7.2
			c-0.1-0.2-0.8,0-0.7,0.3c0.6,1.4,1.2,2.9,1.7,4.3C6.7,694.3,7.4,694.1,7.3,693.8L7.3,693.8z"/>
	</g>
</g>
<g>
	<g>
		<path d="M177.9,560.6c1.1-5.9,1.3-12,0.4-18c-0.2,0.1-0.5,0.1-0.7,0.2c1.9,4.7,3.7,9.4,5.6,14c0.1,0.2,0.7,0.1,0.7-0.1
			c0.8-5,1.2-10,1.2-15c-0.2,0.1-0.5,0.1-0.7,0.2c1,3.4,2.1,6.7,3.1,10.1c0.1,0.2,0.7,0.1,0.7-0.1c0.4-2.8,0.4-5.7,0.1-8.5
			c-0.2,0.1-0.5,0.1-0.7,0.2c2.5,5.1,4.8,10.3,6.8,15.7c0.1-0.1,0.3-0.2,0.4-0.3c-0.3-0.1-0.3-0.3-0.2-0.5c0.1-0.2-0.6-0.1-0.7,0.1
			c-0.2,0.6,0.3,0.9,0.8,0.8c0.1,0,0.5-0.1,0.4-0.3c-2-5.3-4.3-10.6-6.8-15.7c-0.1-0.2-0.8-0.1-0.7,0.2c0.3,2.8,0.3,5.6-0.1,8.4
			c0.2,0,0.5-0.1,0.7-0.1c-1-3.4-2.1-6.7-3.1-10.1c-0.1-0.3-0.7,0-0.7,0.2c0,5-0.4,10-1.2,14.9c0.2,0,0.5-0.1,0.7-0.1
			c-1.9-4.7-3.7-9.4-5.6-14c-0.1-0.2-0.8-0.1-0.7,0.2c0.9,5.9,0.8,12-0.4,17.9C177.1,561,177.8,560.8,177.9,560.6L177.9,560.6z"/>
	</g>
</g>
<g>
	<g>
		<path d="M187.3,742.4c-0.2-2.2-0.4-4.5-0.6-6.7c-0.2,0.1-0.5,0.1-0.7,0.2c1.9,3,3.6,6.1,5.3,9.3c0.1,0.2,0.8,0,0.7-0.2
			c-0.7-2.4-1.4-4.8-2.1-7.3c-0.2,0.1-0.5,0.2-0.7,0.2c1.1,1.4,2.3,2.9,3.4,4.3c0.1,0.1,0.7,0,0.7-0.2c-0.4-2.7-1.1-5.4-2.2-7.9
			c-0.2,0.1-0.5,0.2-0.7,0.2c2.3,1.5,4,3.7,5,6.2c0.1,0.2,0.8,0,0.7-0.2c-1-2.6-2.7-4.8-5-6.3c-0.1-0.1-0.8,0-0.7,0.2
			c1.1,2.5,1.8,5.2,2.2,7.9c0.2-0.1,0.5-0.2,0.7-0.2c-1.1-1.4-2.3-2.9-3.4-4.3c-0.1-0.1-0.8,0-0.7,0.2c0.7,2.4,1.4,4.8,2.1,7.3
			c0.2-0.1,0.5-0.1,0.7-0.2c-1.6-3.2-3.4-6.3-5.3-9.3c-0.1-0.2-0.7,0-0.7,0.2c0.2,2.2,0.4,4.5,0.6,6.7
			C186.6,742.7,187.3,742.6,187.3,742.4L187.3,742.4z"/>
	</g>
</g>
<g>
	<g>
		<path d="M53.9,793.7c1-2.1,2-4.3,3-6.4c-0.2,0.1-0.5,0.1-0.7,0.2c0,2.4-0.4,4.8-1.1,7.1c0.2-0.1,0.5-0.1,0.7-0.2
			c-0.6-1.5-0.4-3.2,0.5-4.5c-0.2,0-0.5,0.1-0.7,0.1c0.6,2.1,0.9,4.3,1,6.5c0,0.2,0.7,0,0.7-0.2c0.4-1.2,0.9-2.5,1.3-3.7
			c0.2-0.5,0.4-1,0.7-1.5c0.2-0.3,0.5-0.6,0.9-0.3c0.2,0.2,0.4,0.4,0.5,0.6c1.1,2.2,1.6,4.7,1.6,7.2c0,0.2,0.7,0,0.7-0.2
			c0-1.6-0.2-3.2-0.7-4.7c-0.2-0.7-0.5-1.5-0.8-2.2c-0.2-0.5-0.5-1-1.1-1.2c-1-0.2-1.7,0.6-2.1,1.4c-0.4,0.7-0.6,1.5-0.8,2.2
			c-0.3,0.8-0.6,1.6-0.9,2.5c0.2-0.1,0.5-0.1,0.7-0.2c-0.1-2.2-0.4-4.4-1-6.5c-0.1-0.2-0.6,0-0.7,0.1c-1,1.4-1.2,3.1-0.6,4.7
			c0.1,0.2,0.7,0,0.7-0.2c0.7-2.3,1.1-4.7,1.1-7.2c0-0.2-0.7,0-0.7,0.2c-1,2.1-2,4.3-3,6.4C53.1,793.9,53.8,793.9,53.9,793.7
			L53.9,793.7z"/>
	</g>
</g>
<g>
	<g>
		<path d="M68.3,483.1c-0.8,2.4-1.2,5-1.1,7.5c0,0.2,0.6,0,0.7-0.1c2.2-3.1,4.3-6.2,6.5-9.3c-0.2,0-0.5,0-0.7,0.1
			c-0.3,2.9-0.7,5.8-1,8.6c0,0.2,0.6,0,0.7-0.1c0.9-1.8,2.1-3.3,3.5-4.7c-0.2,0-0.5,0.1-0.7,0.1c0,4.4-0.8,8.8-2.2,13
			c-0.1,0.2,0.6,0.1,0.7-0.1c1.5-4.2,2.2-8.6,2.3-13.1c0-0.2-0.6,0-0.7,0.1c-1.4,1.4-2.6,3-3.6,4.8c0.2,0,0.5-0.1,0.7-0.1
			c0.3-2.9,0.7-5.8,1-8.6c0-0.2-0.6,0-0.7,0.1c-2.2,3.1-4.3,6.2-6.5,9.3c0.2,0,0.5-0.1,0.7-0.1c-0.1-2.5,0.3-5,1.1-7.4
			C69.1,482.8,68.4,482.8,68.3,483.1L68.3,483.1z"/>
	</g>
</g>
<g>
	<g>
		<path d="M715.2,962.5c-1.6,0.1-3.1,1-3.7,2.5c-0.1,0.2,0.1,0.3,0.3,0.3c5.2-0.5,10.4-1.5,15.5-2.8c-0.1-0.1-0.3-0.3-0.4-0.4
			c-1.2,1.7-2.7,3.2-4.3,4.5c-0.2,0.2-0.1,0.4,0.1,0.5c0.8,0.1,1.7,0.1,2.5,0.2c-0.1-0.1-0.2-0.2-0.2-0.3c-0.5,1.1-1,2.2-1.6,3.3
			c-0.1,0.2,0.1,0.3,0.2,0.3c2.4,0.5,4.9,0,6.9-1.3c0.4-0.3-0.2-0.6-0.5-0.4c-1.8,1.2-4,1.6-6.2,1.1c0.1,0.1,0.2,0.2,0.2,0.3
			c0.5-1.1,1-2.2,1.6-3.3c0.1-0.2-0.1-0.3-0.2-0.3c-0.8-0.1-1.7-0.1-2.5-0.2c0,0.2,0.1,0.3,0.1,0.5c1.7-1.4,3.2-2.9,4.4-4.6
			c0.2-0.3-0.1-0.4-0.4-0.4c-5,1.4-10.1,2.3-15.3,2.8c0.1,0.1,0.2,0.2,0.3,0.3c0.5-1.2,1.6-2,3-2C715.5,963,715.7,962.4,715.2,962.5
			L715.2,962.5z"/>
	</g>
</g>
<g>
	<g>
		<path d="M219.5,814.7c0.6-2.3,1.9-4.2,3.8-5.6c-0.2,0-0.4,0-0.6,0.1c0.2,3,0.1,6-0.2,9.1c0,0.2,0.7,0.1,0.7-0.1
			c0.3-1.2,0.9-2.4,1.6-3.4c-0.2,0-0.5,0.1-0.7,0.1c0.7,1.3,1,2.7,1.1,4.1c0,0.2,0.6,0,0.7-0.1c0.6-0.8,0.5-1.7,0.8-2.6
			c0.2-0.6,0.7-1.6,1.5-1c0.4,0.3,0.5,0.8,0.6,1.2c0.5,2.4,1,4.7,1.5,7.1c0,0.2,0.8,0,0.7-0.2c-0.3-1.6-0.7-3.2-1-4.8
			c-0.2-0.8-0.3-1.6-0.5-2.4c-0.1-0.5-0.3-1-0.7-1.3c-0.7-0.4-1.6-0.1-2.1,0.4c-1,1-0.6,2.5-1.4,3.6c0.2,0,0.5-0.1,0.7-0.1
			c-0.1-1.4-0.5-2.8-1.1-4.1c-0.1-0.2-0.6,0-0.7,0.1c-0.8,1.1-1.3,2.2-1.7,3.5c0.2,0,0.5-0.1,0.7-0.1c0.3-3,0.3-6.1,0.2-9.1
			c0-0.2-0.6,0-0.6,0.1c-2,1.4-3.3,3.5-3.9,5.8C218.7,815,219.4,814.9,219.5,814.7L219.5,814.7z"/>
	</g>
</g>
<g>
	<g>
		<path d="M259.2,624.4c-0.6,1.8-0.7,3.6-0.3,5.4c0,0.2,0.7,0,0.7-0.2c0.7-1.8,2-3.4,3.7-4.3c-0.2,0-0.4,0-0.6,0
			c0.4,1.4,0.7,2.9,1.1,4.3c0.1,0.2,0.6,0,0.7-0.2c0.9-1.5,1.8-3,2.7-4.5c-0.2,0.1-0.5,0.1-0.7,0.2c0.8,2,1.2,4.1,1.2,6.2
			c0,0.2,0.7,0,0.7-0.2c0-2.1-0.4-4.2-1.2-6.2c-0.1-0.2-0.6,0-0.7,0.2c-0.9,1.5-1.8,3-2.7,4.5c0.2-0.1,0.5-0.1,0.7-0.2
			c-0.4-1.4-0.7-2.9-1.1-4.3c0-0.2-0.5,0-0.6,0c-1.8,1-3.2,2.6-4,4.6c0.2-0.1,0.5-0.1,0.7-0.2c-0.3-1.8-0.2-3.6,0.3-5.4
			C259.9,624.1,259.2,624.1,259.2,624.4L259.2,624.4z"/>
	</g>
</g>
<g>
	<g>
		<path d="M263.9,528.9c0.7,1,1.4,2,2.1,3c0.1,0.1,0.7,0,0.7-0.2c-0.2-2.4-0.9-4.8-2-6.9c-0.1,0.1-0.2,0.1-0.2,0.2
			c0.5-0.2,1-0.4,1.5-0.5c0.1,0,0.2-0.1,0.2-0.2c-0.2-1.3,0-2.6,0.5-3.9c-0.2,0.1-0.5,0.1-0.7,0.2c2.4,1.5,4.3,3.6,5.6,6.1
			c0.1,0.2,0.8-0.1,0.7-0.2c-1.3-2.5-3.2-4.6-5.6-6.1c-0.1-0.1-0.6,0-0.7,0.2c-0.5,1.3-0.6,2.6-0.5,4c0.1-0.1,0.2-0.1,0.2-0.2
			c-0.5,0.2-1,0.4-1.5,0.5c0,0-0.3,0.1-0.2,0.2c1.2,2.1,1.9,4.5,2,6.9c0.2-0.1,0.5-0.1,0.7-0.2c-0.7-1-1.4-2-2.1-3
			C264.5,528.6,263.9,528.8,263.9,528.9L263.9,528.9z"/>
	</g>
</g>
<g>
	<g>
		<path d="M14.2,567.3c1.2,1.1,2.3,2.3,3.1,3.7c0.2-0.1,0.5-0.2,0.7-0.2c-1.1-1.1-2-2.3-2.7-3.6c-0.2,0.1-0.5,0.2-0.7,0.2
			c0.5,0.3,1.1,0.3,1.7,0.2c0.1,0,0.4-0.1,0.4-0.2c0.2-0.6,0.4-1.3,0.6-1.9c-0.2,0.1-0.4,0.1-0.7,0.2c1.3,0.2,2.5,0.8,3.6,1.5
			c0.2,0.1,0.8-0.2,0.7-0.3c-1.1-0.8-2.4-1.3-3.7-1.6c-0.2,0-0.6,0-0.7,0.2c-0.2,0.6-0.4,1.3-0.6,1.9c0.1-0.1,0.3-0.1,0.4-0.2
			c-0.4,0.1-0.8,0-1.2-0.2c-0.1-0.1-0.8,0-0.7,0.2c0.8,1.3,1.7,2.6,2.8,3.7c0.1,0.1,0.8-0.1,0.7-0.2c-0.8-1.4-1.9-2.7-3.1-3.8
			C14.7,566.9,14,567.2,14.2,567.3L14.2,567.3z"/>
	</g>
</g>
<g>
	<g>
		<path d="M18,877.4c0.9,1.2,1.7,2.5,2.6,3.7c0.2-0.1,0.4-0.2,0.7-0.3c-1.1-0.9-2-2-2.6-3.4c-0.2,0.1-0.4,0.2-0.7,0.3
			c1.6,0.5,3.3,1.1,4.9,1.6c0.1,0,0.8,0,0.7-0.3c-0.9-1.6,1.2-2.9,2.6-2.6c1.7,0.3,3.2,1.4,4.9,1.4c0.3,0,0.8-0.4,0.3-0.4
			c-2.1-0.1-4-1.9-6.2-1.4c-1.3,0.3-3.2,1.6-2.3,3.2c0.2-0.1,0.4-0.2,0.7-0.3c-1.6-0.5-3.3-1.1-4.9-1.6c-0.1,0-0.8,0-0.7,0.3
			c0.6,1.4,1.5,2.5,2.6,3.5c0.2,0.1,0.8,0,0.7-0.3c-0.9-1.2-1.7-2.5-2.6-3.7C18.6,877,17.9,877.2,18,877.4L18,877.4z"/>
	</g>
</g>
<g>
	<g>
		<path d="M129.7,871.4c0.9-0.6,1.3-1.5,2-2.4c0.3-0.4,0.6-0.8,1-1c1.3-0.6,1.7,0.1,2.1,0.9c0.3,0.7,0.6,1.4,0.9,2
			c1.3,2.9,2.5,5.8,3.8,8.7c0.1,0.2,0.7,0.1,0.7-0.1c0.4-2,0.6-4,0.5-6c-0.2,0.1-0.5,0.2-0.7,0.2c1.7,2.2,3.6,4.3,5.5,6.3
			c0.1,0.1,0.7,0,0.7-0.2c0.3-1.8,0.4-3.6,0.5-5.4c-0.2,0.1-0.5,0.2-0.7,0.2c1.6,1.5,3.1,2.9,4.7,4.4c0.2,0.2,0.9-0.1,0.7-0.3
			c-1.6-1.5-3.1-2.9-4.7-4.4c-0.2-0.2-0.7,0-0.7,0.2c0,1.8-0.2,3.6-0.4,5.3c0.2-0.1,0.5-0.1,0.7-0.2c-2-2-3.8-4.1-5.5-6.3
			c-0.1-0.2-0.7,0-0.7,0.2c0.1,2-0.1,3.9-0.5,5.9c0.2,0,0.5-0.1,0.7-0.1c-0.9-2.1-1.8-4.1-2.7-6.2c-0.4-1-0.9-2.1-1.3-3.1
			c-0.3-0.7-0.6-1.6-1.1-2.2c-0.7-0.9-2-0.7-2.9-0.2c-1.4,0.8-1.8,2.5-3.1,3.4C128.8,871.5,129.6,871.5,129.7,871.4L129.7,871.4z"/>
	</g>
</g>
<g>
	<g>
		<path d="M799.2,1022c-1.1,0.6-2,1.5-2.4,2.7c0,0.1,0.2,0.1,0.2,0.1c3-0.3,5.9-0.9,8.7-1.9c-0.1,0-0.2-0.1-0.3-0.1
			c-1.5,0.8-3,1.7-4.5,2.5c-0.1,0-0.2,0.1-0.1,0.2c1.5,0.6,3.2,0.5,4.6-0.3c0.4-0.2-0.2-0.2-0.3-0.1c-1.4,0.5-2.5,1.4-3.2,2.6
			c0,0,0,0.1,0.1,0.1c1.9,0.6,4,0.4,5.8-0.5c0.4-0.2-0.2-0.2-0.4-0.1c-1.3,0.7-2.9,0.9-4.4,0.5c-0.1,0-0.2,0-0.3-0.2
			c0-0.1,0.3-0.4,0.3-0.5c0.2-0.2,0.4-0.5,0.6-0.7c0.5-0.5,1.1-0.8,1.8-1c-0.1,0-0.2-0.1-0.3-0.1c-1.1,0.6-2.4,0.6-3.5,0.1
			c0,0.1-0.1,0.1-0.1,0.2c1.5-0.8,3-1.7,4.5-2.5c0.4-0.2-0.2-0.2-0.3-0.1c-2.6,0.9-5.4,1.5-8.2,1.8c0.1,0,0.1,0.1,0.2,0.1
			c0.4-1,1.1-1.9,2.1-2.4C800.1,1021.9,799.4,1021.9,799.2,1022L799.2,1022z"/>
	</g>
</g>
<g>
	<g>
		<path d="M62.8,942.3c-0.6-1.4-1.2-2.9-1.7-4.3c-0.2,0.1-0.5,0.2-0.7,0.3c1.8,2.7,3.9,5.1,6.2,7.2c0.2,0.2,0.7,0.1,0.7-0.3
			c-0.3-1.8-0.6-3.7-0.9-5.5c-0.2,0.1-0.5,0.2-0.7,0.3c1,1.1,1.9,2.3,2.9,3.4c0.2,0.2,0.7,0.1,0.7-0.2c0.1-1.5-0.2-2.9-0.8-4.2
			c-0.2,0.1-0.5,0.2-0.7,0.3c1.4,1.2,3.1,2,5,2.2c0.2,0,0.4-0.1,0.5-0.2c0.4-1.1,0.6-2.2,0.5-3.4c-0.2,0.1-0.4,0.2-0.6,0.2
			c1.2,0.7,2.2,1.7,3.1,2.7c0.2,0.2,0.9,0,0.7-0.3c-0.9-1.1-2-2.1-3.2-2.8c-0.2-0.1-0.7,0-0.6,0.2c0.1,1.1-0.1,2.2-0.5,3.2
			c0.2-0.1,0.3-0.1,0.5-0.2c-1.7-0.2-3.3-0.9-4.6-2c-0.2-0.1-0.8-0.1-0.7,0.3c0.6,1.3,0.8,2.7,0.8,4.1c0.2-0.1,0.5-0.1,0.7-0.2
			c-1-1.1-1.9-2.3-2.9-3.4c-0.2-0.2-0.7-0.1-0.7,0.3c0.3,1.8,0.6,3.7,0.9,5.5c0.2-0.1,0.5-0.2,0.7-0.3c-2.4-2.2-4.4-4.6-6.2-7.2
			c-0.1-0.2-0.8,0-0.7,0.3c0.6,1.4,1.2,2.9,1.7,4.3C62.2,942.8,62.9,942.6,62.8,942.3L62.8,942.3z"/>
	</g>
</g>
<g>
	<g>
		<path d="M252.3,934.9c-0.2-2.2-0.5-4.5-0.7-6.7c-0.2,0.1-0.5,0.1-0.7,0.2c2,3,3.9,6.1,5.7,9.3c0.1,0.2,0.8,0,0.7-0.2
			c-0.8-2.4-1.5-4.8-2.3-7.3c-0.2,0.1-0.5,0.2-0.7,0.2c1.2,1.4,2.4,2.9,3.7,4.3c0.1,0.1,0.7,0,0.7-0.2c-0.4-2.7-1.2-5.4-2.4-7.9
			c-0.2,0.1-0.5,0.2-0.7,0.2c2.4,1.4,4.3,3.6,5.4,6.2c0.1,0.2,0.8,0,0.7-0.2c-1.1-2.6-3-4.8-5.4-6.3c-0.1-0.1-0.8,0-0.7,0.2
			c1.2,2.5,2,5.2,2.4,7.9c0.2-0.1,0.5-0.2,0.7-0.2c-1.2-1.4-2.4-2.9-3.7-4.3c-0.1-0.1-0.8,0-0.7,0.2c0.8,2.4,1.5,4.8,2.3,7.3
			c0.2-0.1,0.5-0.1,0.7-0.2c-1.8-3.2-3.7-6.3-5.7-9.3c-0.1-0.2-0.7,0-0.7,0.2c0.2,2.2,0.5,4.5,0.7,6.7
			C251.6,935.3,252.3,935.2,252.3,934.9L252.3,934.9z"/>
	</g>
</g>
<g>
	<g>
		<path d="M109.4,1042.2c1-2.1,2-4.3,3-6.4c-0.2,0.1-0.5,0.1-0.7,0.2c0,2.4-0.4,4.8-1.1,7.1c0.2-0.1,0.5-0.1,0.7-0.2
			c-0.6-1.5-0.4-3.2,0.5-4.5c-0.2,0-0.5,0.1-0.7,0.1c0.6,2.1,0.9,4.3,1,6.5c0,0.2,0.7,0,0.7-0.2c0.4-1.2,0.9-2.5,1.3-3.7
			c0.2-0.5,0.4-1,0.7-1.5c0.2-0.3,0.5-0.6,0.9-0.3c0.2,0.2,0.4,0.4,0.5,0.6c1.1,2.2,1.6,4.7,1.6,7.2c0,0.2,0.7,0,0.7-0.2
			c0-1.6-0.2-3.2-0.7-4.7c-0.2-0.7-0.5-1.5-0.8-2.2c-0.2-0.5-0.5-1-1.1-1.2c-1-0.2-1.7,0.6-2.1,1.4c-0.4,0.7-0.6,1.5-0.8,2.2
			c-0.3,0.8-0.6,1.6-0.9,2.5c0.2-0.1,0.5-0.1,0.7-0.2c-0.1-2.2-0.4-4.4-1-6.5c-0.1-0.2-0.6,0-0.7,0.1c-1,1.4-1.2,3.1-0.6,4.7
			c0.1,0.2,0.7,0,0.7-0.2c0.7-2.3,1.1-4.7,1.1-7.2c0-0.2-0.7,0-0.7,0.2c-1,2.1-2,4.3-3,6.4C108.6,1042.5,109.3,1042.4,109.4,1042.2
			L109.4,1042.2z"/>
	</g>
</g>
<g>
	<g>
		<path d="M148.7,965.9c0-1.4,0.8-2.5,2-3.1c-0.2-0.1-0.4-0.1-0.5-0.2c-0.5,5.2-1.4,10.4-2.8,15.4c-0.1,0.3,0.5,0.3,0.6,0.2
			c1.7-1.3,3.3-2.8,4.6-4.5c-0.2,0-0.4,0-0.7,0c0.1,0.8,0.1,1.7,0.2,2.5c0,0.2,0.4,0.2,0.5,0.1c1.1-0.5,2.2-1.1,3.3-1.6
			c-0.2,0-0.4-0.1-0.5-0.1c0.5,2.2,0.1,4.4-1.2,6.3c-0.3,0.4,0.4,0.5,0.6,0.2c1.3-2,1.8-4.4,1.3-6.8c0-0.2-0.4-0.2-0.5-0.1
			c-1.1,0.5-2.2,1.1-3.3,1.6c0.2,0,0.4,0.1,0.5,0.1c-0.1-0.8-0.1-1.7-0.2-2.5c0-0.3-0.6-0.2-0.7,0c-1.3,1.6-2.8,3.1-4.5,4.3
			c0.2,0.1,0.4,0.1,0.6,0.2c1.4-5.1,2.3-10.2,2.8-15.4c0-0.3-0.4-0.3-0.5-0.2c-1.4,0.7-2.4,2-2.4,3.6
			C148,966.3,148.7,966.2,148.7,965.9L148.7,965.9z"/>
	</g>
</g>
<g>
	<g>
		<path d="M413.9,1036.5c0.6-2.3,1.9-4.2,3.8-5.6c-0.2,0-0.4,0-0.6,0.1c0.2,3,0.1,6-0.2,9.1c0,0.2,0.7,0.1,0.7-0.1
			c0.3-1.2,0.9-2.4,1.6-3.4c-0.2,0-0.5,0.1-0.7,0.1c0.7,1.3,1,2.7,1.1,4.1c0,0.2,0.6,0,0.7-0.1c0.6-0.8,0.5-1.7,0.8-2.6
			c0.2-0.6,0.7-1.6,1.5-1c0.4,0.3,0.5,0.8,0.6,1.2c0.5,2.4,1,4.7,1.5,7.1c0,0.2,0.8,0,0.7-0.2c-0.3-1.6-0.7-3.2-1-4.8
			c-0.2-0.8-0.3-1.6-0.5-2.4c-0.1-0.5-0.3-1-0.7-1.3c-0.7-0.4-1.6-0.1-2.1,0.4c-1,1-0.6,2.5-1.4,3.6c0.2,0,0.5-0.1,0.7-0.1
			c-0.1-1.4-0.5-2.8-1.1-4.1c-0.1-0.2-0.6,0-0.7,0.1c-0.8,1.1-1.3,2.2-1.7,3.5c0.2,0,0.5-0.1,0.7-0.1c0.3-3,0.3-6.1,0.2-9.1
			c0-0.2-0.6,0-0.6,0.1c-2,1.4-3.3,3.5-3.9,5.8C413.1,1036.8,413.8,1036.7,413.9,1036.5L413.9,1036.5z"/>
	</g>
</g>
<g>
	<g>
		<path d="M335.4,857.6c-0.6,1.8-0.7,3.6-0.3,5.4c0,0.2,0.7,0,0.7-0.2c0.7-1.8,2-3.4,3.7-4.3c-0.2,0-0.4,0-0.6,0
			c0.4,1.4,0.7,2.9,1.1,4.3c0.1,0.2,0.6,0,0.7-0.2c0.9-1.5,1.8-3,2.7-4.5c-0.2,0.1-0.5,0.1-0.7,0.2c0.8,2,1.2,4.1,1.2,6.2
			c0,0.2,0.7,0,0.7-0.2c0-2.1-0.4-4.2-1.2-6.2c-0.1-0.2-0.6,0-0.7,0.2c-0.9,1.5-1.8,3-2.7,4.5c0.2-0.1,0.5-0.1,0.7-0.2
			c-0.4-1.4-0.7-2.9-1.1-4.3c0-0.2-0.5,0-0.6,0c-1.8,1-3.2,2.6-4,4.6c0.2-0.1,0.5-0.1,0.7-0.2c-0.3-1.8-0.2-3.6,0.3-5.4
			C336.2,857.3,335.5,857.4,335.4,857.6L335.4,857.6z"/>
	</g>
</g>
<g>
	<g>
		<path d="M256.3,1031.3c0.9,1.2,1.7,2.5,2.6,3.7c0.2-0.1,0.4-0.2,0.7-0.3c-1.1-0.9-2-2-2.6-3.4c-0.2,0.1-0.4,0.2-0.7,0.3
			c1.6,0.5,3.3,1.1,4.9,1.6c0.1,0,0.8,0,0.7-0.3c-0.9-1.6,1.2-2.9,2.6-2.6c1.7,0.3,3.2,1.4,4.9,1.4c0.3,0,0.8-0.4,0.3-0.4
			c-2.1-0.1-4-1.9-6.2-1.4c-1.3,0.3-3.2,1.6-2.3,3.2c0.2-0.1,0.4-0.2,0.7-0.3c-1.6-0.5-3.3-1.1-4.9-1.6c-0.1,0-0.8,0-0.7,0.3
			c0.6,1.4,1.5,2.5,2.6,3.5c0.2,0.1,0.8,0,0.7-0.3c-0.9-1.2-1.7-2.5-2.6-3.7C256.8,1030.8,256.1,1031.1,256.3,1031.3L256.3,1031.3z"
			/>
	</g>
</g>
<g>
	<g>
		<path d="M328.4,993.1c0.9-0.6,1.3-1.5,2-2.4c0.3-0.4,0.6-0.8,1-1c1.3-0.6,1.7,0.1,2.1,0.9c0.3,0.7,0.6,1.4,0.9,2
			c1.3,2.9,2.5,5.8,3.8,8.7c0.1,0.2,0.7,0.1,0.7-0.1c0.4-2,0.6-4,0.5-6c-0.2,0.1-0.5,0.2-0.7,0.2c1.7,2.2,3.6,4.3,5.5,6.3
			c0.1,0.1,0.7,0,0.7-0.2c0.3-1.8,0.4-3.6,0.5-5.4c-0.2,0.1-0.5,0.2-0.7,0.2c1.6,1.5,3.1,2.9,4.7,4.4c0.2,0.2,0.9-0.1,0.7-0.3
			c-1.6-1.5-3.1-2.9-4.7-4.4c-0.2-0.2-0.7,0-0.7,0.2c0,1.8-0.2,3.6-0.4,5.3c0.2-0.1,0.5-0.1,0.7-0.2c-2-2-3.8-4.1-5.5-6.3
			c-0.1-0.2-0.7,0-0.7,0.2c0.1,2-0.1,3.9-0.5,5.9c0.2,0,0.5-0.1,0.7-0.1c-0.9-2.1-1.8-4.1-2.7-6.2c-0.4-1-0.9-2.1-1.3-3.1
			c-0.3-0.7-0.6-1.6-1.1-2.2c-0.7-0.9-2-0.7-2.9-0.2c-1.4,0.8-1.8,2.5-3.1,3.4C327.5,993.2,328.3,993.2,328.4,993.1L328.4,993.1z"/>
	</g>
</g>
</svg>
