<?xml version="1.0" encoding="utf-8"?>
<!-- Generator: Adobe Illustrator 25.2.3, SVG Export Plug-In . SVG Version: 6.00 Build 0)  -->
<svg version="1.1" id="Layer_1" xmlns="http://www.w3.org/2000/svg" xmlns:xlink="http://www.w3.org/1999/xlink" x="0px" y="0px"
	 viewBox="0 0 598.3 245.9" style="enable-background:new 0 0 598.3 245.9;" xml:space="preserve">
<style type="text/css">
	.st0{fill:#D1D3D4;}
	.st1{fill:#8B5E3C;}
	.st2{fill:#754C29;}
	.st3{fill:#FFFFFF;}
	.st4{fill:url(#SVGID_1_);}
	.st5{fill:#090E17;}
	.st6{stroke:#662D91;stroke-miterlimit:10;}
	.st7{font-family:'CenturySchoolbook';}
	.st8{font-size:72px;}
	.st9{fill:none;}
	.st10{font-size:53px;}
</style>
<g>
	<g>
		<g>
			<g>
				<path class="st0" d="M358.8,55.2L233.7,174.5c-3.3-4.8-7.5-9.9-12.2-14.9c-4.8-5-9.6-9.4-14.3-12.9L332.2,27.4l0.1,0.1L382.6,6
					l-23.9,49.2L358.8,55.2z"/>
				<g>
					<path d="M357,53.5c-1.1,1.1-2.2,2.1-3.4,3.2c-3,2.9-6,5.8-9.1,8.6c-4.5,4.3-9,8.6-13.5,12.9c-5.5,5.2-11,10.5-16.4,15.7
						c-6,5.7-12,11.4-17.9,17.1c-6.1,5.8-12.1,11.6-18.2,17.3c-5.6,5.4-11.3,10.7-16.9,16.1c-4.8,4.6-9.6,9.1-14.3,13.7
						c-3.4,3.3-6.9,6.6-10.3,9.8c-1.6,1.5-3.3,3-4.9,4.6c-0.1,0.1-0.1,0.1-0.2,0.2c1.3,0.2,2.6,0.3,3.9,0.5
						c-7.6-10.9-16.9-20.7-27.5-28.7c0.2,1.3,0.3,2.6,0.5,3.9c1.1-1.1,2.2-2.1,3.4-3.2c3-2.9,6-5.8,9.1-8.6c4.5-4.3,9-8.6,13.5-12.9
						c5.5-5.2,11-10.5,16.4-15.7c6-5.7,12-11.4,17.9-17.1c6.1-5.8,12.1-11.6,18.2-17.3c5.6-5.4,11.3-10.7,16.9-16.1
						c4.8-4.6,9.6-9.1,14.3-13.7c3.4-3.3,6.9-6.6,10.3-9.8c1.6-1.5,3.3-3,4.9-4.6c0.1-0.1,0.1-0.1,0.2-0.2c-1.2,0-2.4,0-3.5,0
						c0,0,0.1,0.1,0.1,0.1c0.8,0.9,2,0.8,3,0.4c5.7-2.4,11.3-4.9,17-7.3c9-3.9,18-7.7,27-11.6c2.1-0.9,4.2-1.8,6.2-2.7
						c-1.1-1.1-2.3-2.3-3.4-3.4c-2.7,5.5-5.4,11.1-8.1,16.6c-4.3,8.8-8.6,17.6-12.9,26.4c-1,2-2,4.1-3,6.1c-0.5,1-0.4,2.2,0.4,3
						c0,0,0.1,0.1,0.1,0.1c2.2,2.3,5.8-1.2,3.5-3.5c0,0-0.1-0.1-0.1-0.1c0.1,1,0.3,2,0.4,3c2.7-5.5,5.4-11.1,8.1-16.6
						c4.3-8.8,8.6-17.6,12.9-26.4c1-2,2-4.1,3-6.1c1.2-2.4-1.1-4.4-3.4-3.4c-5.7,2.4-11.3,4.9-17,7.3c-9,3.9-18,7.7-27,11.6
						c-2.1,0.9-4.2,1.8-6.2,2.7c1,0.1,2,0.3,3,0.4c0,0-0.1-0.1-0.1-0.1c-0.9-1-2.6-0.9-3.5,0c-1.1,1.1-2.2,2.1-3.4,3.2
						c-3,2.9-6,5.8-9.1,8.6c-4.5,4.3-9,8.6-13.5,12.9c-5.5,5.2-11,10.5-16.4,15.7c-6,5.7-12,11.4-17.9,17.1
						c-6.1,5.8-12.1,11.6-18.2,17.3c-5.6,5.4-11.3,10.7-16.9,16.1c-4.8,4.6-9.6,9.1-14.3,13.7c-3.4,3.3-6.9,6.6-10.3,9.8
						c-1.6,1.5-3.3,3-4.9,4.6c-0.1,0.1-0.1,0.1-0.2,0.2c-1.3,1.2-0.7,3,0.5,3.9c9.8,7.5,18.6,16.8,25.7,26.9
						c0.9,1.3,2.7,1.7,3.9,0.5c1.1-1.1,2.2-2.1,3.4-3.2c3-2.9,6-5.8,9.1-8.6c4.5-4.3,9-8.6,13.5-12.9c5.5-5.2,11-10.5,16.4-15.7
						c6-5.7,12-11.4,17.9-17.1c6.1-5.8,12.1-11.6,18.2-17.3c5.6-5.4,11.3-10.7,16.9-16.1c4.8-4.6,9.6-9.1,14.3-13.7
						c3.4-3.3,6.9-6.6,10.3-9.8c1.6-1.5,3.3-3,4.9-4.6c0.1-0.1,0.1-0.1,0.2-0.2C362.9,54.8,359.3,51.3,357,53.5z"/>
				</g>
			</g>
			<g>
				<path class="st1" d="M243.8,198.3c-3,2.8-18.8-8.9-35.4-26.3c-16.5-17.3-27.5-33.7-24.6-36.6c2.1-2,10.7,3.4,21.5,12.9
					c4.4,3.9,9.1,8.4,13.8,13.4c4.8,5,9.1,9.9,12.7,14.5C241,187.4,245.9,196.3,243.8,198.3z"/>
				<g>
					<path d="M242,196.5c0.1-0.1,0.4-0.3,0.5-0.3c-0.4,0.1,0.6,0-0.1,0c-0.4,0-0.2-0.1,0.1,0c-0.1,0-0.3,0-0.4-0.1
						c-0.3-0.1-0.7-0.2-1-0.3c-0.2-0.1-0.3-0.1-0.5-0.2c-0.1,0,0.3,0.2-0.1-0.1c-0.4-0.2-0.8-0.4-1.2-0.6c-1-0.5-1.9-1.1-2.8-1.7
						c-5.1-3.3-9.7-7.2-14.2-11.3c-6-5.4-11.7-11.2-17.1-17.2c-4.7-5.2-9.2-10.6-13.2-16.3c-1.5-2.1-2.9-4.3-4.2-6.6
						c-0.5-0.9-1-1.8-1.4-2.7c0.2,0.4,0,0-0.1-0.1c-0.1-0.2-0.1-0.4-0.2-0.5c-0.1-0.3-0.2-0.7-0.3-1c0-0.1,0-0.3-0.1-0.4
						c0-0.1,0,0.6,0,0.1c0-0.1,0-0.3,0-0.4c-0.1-0.5,0,0.2,0,0.2c0.1-0.6-0.3,0.5,0,0c-0.1,0.2-0.2,0.3-0.4,0.4
						c-0.3,0.3-0.2,0.1-0.1,0.1c0.3-0.2-0.3,0.1-0.3,0.1c0.5-0.1-0.6,0.1,0.2,0c0.5-0.1,0,0,0,0c0.2,0,0.4,0.1,0.6,0.1
						c0.4,0.1,0.7,0.2,1.1,0.4c0.4,0.2-0.2-0.1,0.2,0.1c0.3,0.1,0.5,0.2,0.8,0.4c5.7,2.9,10.7,7.2,15.5,11.4
						c5.9,5.2,11.5,10.8,16.9,16.6c5.2,5.6,10.2,11.5,14.7,17.7c1.8,2.5,3.5,5.1,5,7.8c0.3,0.5,0.5,1,0.8,1.5
						c0.1,0.2,0.2,0.5,0.3,0.7c0,0,0.2,0.4,0.1,0.2c-0.1-0.2,0.1,0.2,0.1,0.2c0.1,0.4,0.3,0.8,0.4,1.2c0,0.2,0.1,0.4,0.1,0.5
						c0.2,0.6,0.1-0.4,0,0.1c0,0.1,0,0.3,0,0.4c0,0.5,0-0.2,0-0.2c-0.1,0.4,0.2-0.3,0.1-0.2C241.7,197.1,242.3,196.3,242,196.5
						c-2.2,2.3,1.3,5.8,3.5,3.5c3.3-3.4-0.6-9.5-2.5-12.6c-4.1-6.8-9.2-13.1-14.4-19.1c-5.8-6.6-11.9-13-18.4-19
						c-5.6-5.1-11.4-10.3-17.9-14.2c-2.9-1.7-8.8-4.9-11-0.5c-0.8,1.6-0.5,3.6,0.1,5.2c0.7,2.2,1.8,4.2,3,6.2c3.6,6,8,11.6,12.5,17
						c5.7,6.7,11.8,13.2,18.2,19.3c5.3,5,10.8,9.8,16.7,14c1.9,1.4,3.9,2.7,6.1,3.7c1.5,0.7,3.2,1.4,4.9,1.2c1-0.1,1.9-0.4,2.7-1.1
						C248,197.9,244.4,194.4,242,196.5z"/>
				</g>
			</g>
			<g>
				<g>
					<path d="M223.2,161.4c1.2-1.1,2.4-2.3,3.6-3.4c3.3-3.1,6.6-6.3,9.8-9.4c4.9-4.6,9.7-9.3,14.6-13.9c5.9-5.6,11.8-11.2,17.7-16.9
						c6.5-6.2,13-12.4,19.4-18.5c6.5-6.2,13.1-12.5,19.6-18.7c6.1-5.8,12.2-11.6,18.3-17.5c5.2-4.9,10.3-9.8,15.5-14.8
						c3.7-3.5,7.4-7.1,11.1-10.6c1.7-1.7,3.6-3.3,5.3-5c0.1-0.1,0.2-0.1,0.2-0.2c2.3-2.2-1.2-5.8-3.5-3.5c-1.2,1.1-2.4,2.3-3.6,3.4
						c-3.3,3.1-6.6,6.3-9.8,9.4c-4.9,4.6-9.7,9.3-14.6,13.9c-5.9,5.6-11.8,11.2-17.7,16.9c-6.5,6.2-13,12.4-19.4,18.5
						c-6.5,6.2-13.1,12.5-19.6,18.7c-6.1,5.8-12.2,11.6-18.3,17.5c-5.2,4.9-10.3,9.8-15.5,14.8c-3.7,3.5-7.4,7.1-11.1,10.6
						c-1.7,1.7-3.6,3.3-5.3,5c-0.1,0.1-0.2,0.1-0.2,0.2C217.3,160.1,220.9,163.6,223.2,161.4c1.2-1.1,2.4-2.3,3.6-3.4
						c3.3-3.1,6.6-6.3,9.8-9.4c4.9-4.6,9.7-9.3,14.6-13.9c5.9-5.6,11.8-11.2,17.7-16.9c6.5-6.2,13-12.4,19.4-18.5
						c6.5-6.2,13.1-12.5,19.6-18.7c6.1-5.8,12.2-11.6,18.3-17.5c5.2-4.9,10.3-9.8,15.5-14.8c3.7-3.5,7.4-7.1,11.1-10.6
						c1.7-1.7,3.6-3.3,5.3-5c0.1-0.1,0.2-0.1,0.2-0.2c2.3-2.2-1.2-5.8-3.5-3.5c-1.2,1.1-2.4,2.3-3.6,3.4c-3.3,3.1-6.6,6.3-9.8,9.4
						c-4.9,4.6-9.7,9.3-14.6,13.9c-5.9,5.6-11.8,11.2-17.7,16.9c-6.5,6.2-13,12.4-19.4,18.5c-6.5,6.2-13.1,12.5-19.6,18.7
						c-6.1,5.8-12.2,11.6-18.3,17.5c-5.2,4.9-10.3,9.8-15.5,14.8c-3.7,3.5-7.4,7.1-11.1,10.6c-1.7,1.7-3.6,3.3-5.3,5
						c-0.1,0.1-0.2,0.1-0.2,0.2C217.3,160.1,220.9,163.6,223.2,161.4z"/>
				</g>
			</g>
		</g>
		<g>
			<circle class="st2" cx="152.9" cy="226.6" r="12.5"/>
			<g>
				<path d="M159.7,233.9c-1.6,1.5-3.3,2.3-5.6,2.7c0.4-0.1-0.3,0-0.4,0c-0.3,0-0.6,0-0.9,0c-0.2,0-0.5,0-0.7,0c-0.1,0-1-0.1-0.6,0
					c-0.6-0.1-1.1-0.2-1.7-0.4c-0.2-0.1-0.5-0.2-0.7-0.2c-0.5-0.2-0.2-0.1-0.1,0c-0.2-0.1-0.3-0.1-0.5-0.2c-0.5-0.3-1-0.6-1.5-0.9
					c-0.4-0.3-0.6-0.4-1.1-0.9c-0.2-0.2-0.4-0.4-0.6-0.7c-0.1-0.1-0.5-0.6-0.4-0.4c-0.4-0.5-0.7-1-1-1.5c-0.1-0.3-0.3-0.5-0.4-0.8
					c-0.2-0.4,0.1,0.3,0-0.1c0-0.1-0.1-0.2-0.1-0.4c-0.2-0.6-0.4-1.2-0.5-1.8c0-0.1,0-0.2-0.1-0.4c0,0.1,0,0.3,0,0.1
					c0-0.3-0.1-0.6-0.1-0.9c0-0.6,0-1.2,0.1-1.8c0-0.3,0,0,0,0.1c0-0.1,0-0.2,0.1-0.4c0.1-0.3,0.1-0.6,0.2-0.8
					c0.1-0.3,0.2-0.6,0.3-0.8c0-0.1,0.1-0.2,0.1-0.4c0-0.1,0.1-0.2,0.1-0.2c-0.1,0.2-0.1,0.2,0,0c0.2-0.5,0.5-1,0.8-1.4
					c0.4-0.7,0.5-0.8,0.9-1.2c0.9-1,1.4-1.4,2.5-2.1c0.3-0.1,0.5-0.3,0.8-0.4c0.1,0,0.7-0.3,0.3-0.2c0.6-0.2,1.2-0.4,1.8-0.5
					c0.3-0.1,0.6-0.1,0.9-0.2c-0.4,0.1,0.2,0,0.3,0c0.6,0,1.2,0,1.8,0c0.1,0,0.9,0.1,0.4,0c0.2,0,0.5,0.1,0.7,0.1
					c0.6,0.1,1.2,0.3,1.8,0.5c0.3,0.1,0,0,0,0c0.2,0.1,0.3,0.1,0.5,0.2c0.3,0.1,0.5,0.3,0.8,0.4c0.2,0.1,0.4,0.3,0.6,0.4
					c0.1,0.1,0.3,0.2,0.4,0.3c0.3,0.3-0.2-0.2,0.1,0.1c0.5,0.4,0.9,0.8,1.3,1.3c0.4,0.5,0.5,0.5,0.9,1.1c0.3,0.5,0.7,1.3,0.9,1.6
					c0.1,0.3,0.4,1.2,0.5,1.7c0.1,0.3,0.1,0.6,0.2,0.9c-0.1-0.4,0,0,0,0.1c0,0.2,0,0.3,0,0.5c0,0.7,0,1.3,0,2c0,0.1-0.1,0.5,0,0.1
					c0,0.2-0.1,0.3-0.1,0.5c-0.1,0.3-0.1,0.6-0.2,1c-0.1,0.3-0.2,0.6-0.3,0.9c0,0-0.2,0.4-0.1,0.2c0.1-0.2-0.2,0.4-0.2,0.4
					C161.3,232.3,160.7,232.9,159.7,233.9c-2.3,2.2,1.2,5.8,3.5,3.5c4.6-4.4,5.8-11.2,3.3-17c-2.4-5.6-8.5-9.3-14.6-8.8
					c-6.3,0.5-11.8,4.8-13.5,11c-1.7,6.2,0.8,12.7,5.9,16.3c5.8,4.1,13.8,3.3,19-1.5c1-0.9,0.9-2.6,0-3.5
					C162.3,232.9,160.7,233,159.7,233.9z"/>
			</g>
		</g>
		<g>
			<circle class="st3" cx="184.9" cy="196.2" r="39.8"/>
			<g>
				<path d="M210.6,223.3c-11.2,10.6-28.3,13.4-42.1,6.5c-14.2-7-22.5-22.4-20.7-38.1c1.8-15.6,13.8-28.5,29-31.9
					c15.2-3.4,31.3,3.3,39.6,16.5c8.3,13.1,7.5,30.4-1.9,42.7C213.4,220.5,212,221.9,210.6,223.3c-2.3,2.2,1.2,5.8,3.5,3.5
					c12.8-12.3,16.5-31.4,9.5-47.7c-7-16.2-24.2-26.5-41.7-25.2c-17.7,1.3-33.2,13.9-37.9,31.1c-4.6,17.2,2.2,35.7,16.8,45.9
					c14.2,9.9,33.9,9.9,48,0.1c1.9-1.3,3.6-2.7,5.3-4.3C216.5,224.6,212.9,221.1,210.6,223.3z"/>
			</g>
		</g>
	</g>
	<g>
		<g>
			<g>
				<path class="st1" d="M436.4,236.7l-0.1,0.1c-3.1,3.1-8,3.1-11.1,0L262.3,75.1c-3.1-3.1-3.1-8,0-11.1l0.1-0.1
					c3.1-3.1,8-3.1,11.1,0l162.9,161.8C439.5,228.6,439.5,233.6,436.4,236.7z"/>
				<g>
					<path d="M434.7,234.9c-2.4,2.4-5.8,2.1-8.1-0.2c-0.8-0.8-1.7-1.7-2.5-2.5c-3.7-3.7-7.5-7.4-11.2-11.1
						c-5.9-5.9-11.8-11.7-17.7-17.6c-7.4-7.3-14.7-14.6-22.1-21.9c-8.1-8.1-16.3-16.2-24.4-24.3c-8.3-8.2-16.5-16.4-24.8-24.6
						c-7.6-7.5-15.2-15.1-22.8-22.6c-6.4-6.3-12.7-12.6-19.1-18.9c-4.3-4.3-8.7-8.6-13-12.9c-1.7-1.7-3.4-3.3-5-5
						c-2.1-2.2-2.1-5.5,0-7.6c2.1-2.1,5.5-2.2,7.6-0.1c0.5,0.5,0.9,0.9,1.4,1.4c3.1,3.1,6.2,6.1,9.3,9.2
						c5.4,5.4,10.9,10.8,16.3,16.2c7.1,7,14.1,14,21.2,21.1c8,8,16,15.9,24,23.9c8.3,8.2,16.6,16.5,24.9,24.7
						c7.8,7.8,15.6,15.5,23.4,23.3c6.7,6.7,13.5,13.4,20.2,20.1c4.9,4.9,9.8,9.7,14.7,14.6c2.4,2.4,4.8,4.7,7.1,7.1
						C436.5,229.2,437,232.5,434.7,234.9c-2.2,2.3,1.3,5.9,3.5,3.5c4.1-4.3,3.9-10.7-0.3-14.9c-0.8-0.8-1.5-1.5-2.3-2.3
						c-3.7-3.6-7.3-7.3-11-10.9c-5.9-5.9-11.9-11.8-17.8-17.7c-7.5-7.4-15-14.9-22.4-22.3c-8.3-8.2-16.6-16.5-24.9-24.7
						c-8.4-8.3-16.7-16.6-25.1-24.9c-7.7-7.7-15.4-15.3-23.2-23c-6.3-6.3-12.7-12.6-19-18.9c-4.2-4.2-8.5-8.4-12.7-12.6
						c-2.1-2.1-4.5-5.1-7.2-6.3c-4.1-1.8-9-0.9-12.1,2.5c-3.1,3.5-3.7,8.9-1,12.8c0.7,1,1.5,1.8,2.4,2.7c3,3,6,6,9.1,9
						c5.4,5.4,10.9,10.8,16.3,16.2c7.2,7.1,14.3,14.2,21.5,21.4c8.2,8.1,16.3,16.2,24.5,24.3c8.4,8.4,16.8,16.7,25.2,25.1
						c7.9,7.9,15.9,15.8,23.8,23.7c6.8,6.7,13.5,13.4,20.3,20.1c4.8,4.8,9.7,9.6,14.5,14.4c2.2,2.2,4.3,4.3,6.5,6.5
						c4.2,4.1,10.8,4.2,14.9,0C440.5,236.2,436.9,232.6,434.7,234.9z"/>
				</g>
			</g>
			<g>
				
					<radialGradient id="SVGID_1_" cx="470.5986" cy="46.4163" r="33.7021" gradientTransform="matrix(0.7047 -0.7095 0.7095 0.7047 -122.1563 343.8272)" gradientUnits="userSpaceOnUse">
					<stop  offset="0" style="stop-color:#FFFFFF"/>
					<stop  offset="9.995031e-02" style="stop-color:#CCE8F6"/>
					<stop  offset="0.221" style="stop-color:#98D3EE"/>
					<stop  offset="0.3454" style="stop-color:#66C4E9"/>
					<stop  offset="0.4708" style="stop-color:#25B9E5"/>
					<stop  offset="0.5977" style="stop-color:#00B1E2"/>
					<stop  offset="0.7267" style="stop-color:#00ACE0"/>
					<stop  offset="0.8591" style="stop-color:#00A9DE"/>
					<stop  offset="1" style="stop-color:#00A8DE"/>
				</radialGradient>
				<circle class="st4" cx="242.4" cy="42.6" r="33.7"/>
				<g>
					<path class="st5" d="M264.4,20.5c9,9.1,11.9,23.2,6.5,35c-5.6,12.1-18.2,19.4-31.4,18.2c-13-1.1-24.1-10.9-27.3-23.5
						c-3.2-12.6,2.1-26.3,12.9-33.6c10.8-7.2,25.1-6.9,35.7,0.7C262,18.3,263.2,19.4,264.4,20.5c2.3,2.3,5.8-1.3,3.5-3.5
						C257.1,6.3,240.7,3.5,227,9.9c-13.6,6.3-22.1,21.2-20.6,36.1c1.5,15.2,12.6,28.2,27.5,31.8c14.7,3.5,30.3-2.6,38.7-15.2
						c8.3-12.3,7.9-29.4-1-41.3c-1.1-1.5-2.4-3-3.7-4.4C265.6,14.7,262.1,18.2,264.4,20.5z"/>
				</g>
			</g>
			<g>
				<g>
					<path d="M256.9,68.3c-5.5,1.6-11.7,3.1-16.8-0.3c-4.1-2.7-6.5-7.6-8.5-12c-4.3-9.4-7.7-22.6,1-30.8c4-3.8,10.5-4.7,15.8-4.5
						c2.5,0.1,4.8,0.8,6.6,2.7c1.5,1.7,2.4,4,3,6.1c1.6,5.2,3.3,11.8,0.9,17c-0.9,2-2.5,3.8-4.6,4.6c-2.5,0.9-5.5,0.2-7.8-1
						c-4.1-2-9.1-6.8-6.4-11.8c1.1-2,3.6-2.9,5.7-1.9c2.2,1,2.8,3.6,2.1,5.6c-0.4,1.3,0.5,2.7,1.7,3.1c1.4,0.4,2.6-0.5,3.1-1.7
						c1.1-3.2,0.3-6.8-1.9-9.3c-2.3-2.6-6-3.5-9.3-2.7c-7,1.8-8.7,10.4-5.4,16.1c3.4,5.9,11.4,10,18.2,8.8
						c7.1-1.3,10.7-8.9,10.8-15.5c0-3.9-0.9-7.9-1.9-11.6c-0.8-3.1-2-6.2-4-8.7c-4.7-5.9-13.1-5.3-19.8-3.9
						c-7,1.5-12.4,5.8-15.1,12.4c-2.7,6.6-2.3,14-0.2,20.7c1.1,3.6,2.6,7.2,4.2,10.6c1.4,3,3.1,5.8,5.3,8.3c2.1,2.5,4.8,4.4,7.9,5.5
						c3.7,1.3,7.7,1,11.4,0.3c1.9-0.4,3.7-0.8,5.5-1.4C261.3,72.3,260,67.4,256.9,68.3L256.9,68.3z"/>
				</g>
			</g>
		</g>
		<g>
			<circle class="st3" cx="394.1" cy="198.6" r="39.8"/>
			<g>
				<path d="M430.9,192.5c2.6,15.2-4.9,30.9-18.3,38.5c-13.5,7.7-31.1,6.1-42.9-4.1c-12-10.4-16.1-27.4-10.4-42.1
					c5.7-14.5,20.5-24,36-23.5c15.3,0.5,29.3,10.8,34.1,25.4C430.1,188.6,430.6,190.5,430.9,192.5c0.2,1.3,1.9,2.1,3.1,1.7
					c1.4-0.4,2-1.7,1.7-3.1c-3-17.1-16.9-31.2-34.1-34.2c-17.5-3.1-35.6,5.3-44.4,20.8c-8.8,15.5-6.7,35.3,5,48.7
					c11.5,13.3,30.9,18,47.3,11.6c16.3-6.5,27.3-22.6,26.9-40.2c0-2.2-0.3-4.4-0.7-6.6c-0.2-1.3-1.9-2.1-3.1-1.7
					C431.3,189.8,430.7,191.1,430.9,192.5z"/>
			</g>
		</g>
	</g>
	<text transform="matrix(1 0 0 1 347.5291 125.3292)" class="st6 st7 st8">Eldoria</text>
	<text transform="matrix(1 0 0 1 0.5 125.3296)" class="st6 st7 st8">Quests</text>
	<rect x="266.5" y="133.4" class="st9" width="60.5" height="39.1"/>
	<text transform="matrix(1 0 0 1 266.467 172.0891)" class="st6 st7 st10">of</text>
</g>
</svg>
