<?xml version="1.0" encoding="utf-8"?>
<!-- Generator: Adobe Illustrator 28.2.0, SVG Export Plug-In . SVG Version: 6.00 Build 0)  -->
<svg version="1.1" xmlns="http://www.w3.org/2000/svg" xmlns:xlink="http://www.w3.org/1999/xlink" x="0px" y="0px"
	 viewBox="0 0 612 612" style="enable-background:new 0 0 612 612;" xml:space="preserve">
<style type="text/css">
	.st0{fill:url(#SVGID_1_);}
	.st1{fill:#603913;}
	.st2{fill:#414042;}
	.st3{fill:#6D6E71;}
	.st4{fill:#FFFFFF;}
	.st5{fill:#A7A9AC;}
	.st6{fill:#BCBEC0;}
	.st7{fill:#8B5E3C;}
	.st8{fill:#58595B;}
	.st9{fill:#939598;}
	.st10{fill:#D1D3D4;}
	.st11{fill:#754C29;}
	.st12{fill:none;stroke:#000000;stroke-miterlimit:10;}
	.st13{fill:#8255A3;}
	.st14{fill:url(#SVGID_00000081637152407164893590000018045927474239433856_);}
	.st15{fill:#090E17;}
	.st16{fill:#9471B2;}
	.st17{fill:url(#SVGID_00000101061465836615150060000013606502195614274733_);}
	.st18{fill:url(#SVGID_00000096779181053136732790000002834843968726864049_);}
	.st19{fill:url(#SVGID_00000160166200538938351580000015671012299445299600_);}
	.st20{fill:url(#SVGID_00000153705693209045578680000013770392243624215445_);}
	.st21{fill:url(#SVGID_00000143575260082698623170000003004342070890514323_);}
	.st22{fill:url(#SVGID_00000086659430550558347110000010327503220768611241_);}
	.st23{fill:url(#SVGID_00000007414116352342609310000005547324473679369391_);}
	.st24{fill:url(#SVGID_00000154425578462839256770000001850886282715471282_);}
	.st25{fill:url(#SVGID_00000021831357366207878530000005532347446179140751_);}
	.st26{fill:#A97C50;}
	.st27{fill:#009444;}
	.st28{fill:#39B54A;}
	.st29{fill:#FBF398;}
	.st30{fill:url(#SVGID_00000044155783999363537520000006047486810351958427_);}
	.st31{fill:url(#SVGID_00000145775501884463052520000004449200855412899473_);}
	.st32{fill:url(#SVGID_00000183228811137169564520000009210613691964057268_);}
	.st33{fill:url(#SVGID_00000000901254002352687570000007710325802530212260_);}
	.st34{fill:url(#SVGID_00000072259057480177399410000011618763313741926331_);}
	.st35{fill:url(#SVGID_00000037678194717962861880000011309192180731398274_);}
	.st36{fill:url(#SVGID_00000013902430545659490420000016244576253000087727_);}
	.st37{fill:url(#SVGID_00000002342200889355096460000004470671037648246171_);}
	.st38{fill:url(#SVGID_00000045604475083868616290000004747523429852165028_);}
	.st39{fill:url(#SVGID_00000130620210014476600310000015195962736582683009_);}
	.st40{fill:url(#SVGID_00000169532544461768005590000017614853410984983484_);}
	.st41{fill:url(#SVGID_00000078019028494298052060000000196925189564909238_);}
	.st42{fill:url(#SVGID_00000092444909487987031130000013009202850401853829_);}
	.st43{fill:url(#SVGID_00000178926144295185621520000014867857367400718998_);}
	.st44{fill:url(#SVGID_00000080893680650726224270000001514494257226030257_);}
	.st45{fill:url(#SVGID_00000021812555339963761090000003781499337180549786_);}
	.st46{fill:url(#SVGID_00000035506327012714586860000005927825642561065144_);}
	.st47{fill:url(#SVGID_00000038403527523176758660000004207262827748260031_);}
	.st48{fill:url(#SVGID_00000064356311773351781540000003631111280653548729_);}
	.st49{fill:url(#SVGID_00000032616613058621456190000011961783592120643977_);}
	.st50{fill:url(#SVGID_00000059295805133239789380000010041966399385333650_);}
	.st51{fill:url(#SVGID_00000011726506896910021110000016423275808172073368_);}
	.st52{fill:url(#SVGID_00000172398373021487532510000014027383292897111209_);}
	.st53{fill:url(#SVGID_00000051373594542139210890000007461826904523198083_);}
	.st54{fill:url(#SVGID_00000127013740122906028300000011450125811576532903_);}
	.st55{fill:url(#SVGID_00000033352557545057478850000003625893312835612827_);}
	.st56{fill:url(#SVGID_00000054985373616117601050000008202137245067508898_);}
	.st57{fill:url(#SVGID_00000083806033904985724120000012533552152441785751_);}
	.st58{fill:url(#SVGID_00000178899398510628715810000000447735188481025163_);}
	.st59{fill:url(#SVGID_00000016068965559302036220000003986716404614845838_);}
	.st60{fill:url(#SVGID_00000003800474714185009250000004587589943871091075_);}
	.st61{fill:url(#SVGID_00000004532216151160673900000017574239117709392560_);}
	.st62{fill:url(#SVGID_00000088094143806991309280000014628842686154069906_);}
	.st63{fill:url(#SVGID_00000142147209329099111880000001237590491809221791_);}
	.st64{fill:url(#SVGID_00000105401685415813269170000002315111985806706107_);}
	.st65{fill:url(#SVGID_00000049185976995578164380000011227147461389238442_);}
	.st66{fill:url(#SVGID_00000096774125869456960690000008959220557150340487_);}
	.st67{fill:url(#SVGID_00000181061326491006434820000016040300394091274650_);}
	.st68{fill:url(#SVGID_00000163053626541322316480000011913003570637744540_);}
	.st69{fill:url(#SVGID_00000053517419877359910260000016205819047980302259_);}
	.st70{fill:url(#SVGID_00000035532897604113489180000015985908326191626625_);}
	.st71{fill:url(#SVGID_00000044146361374727213780000003188988244539525789_);}
	.st72{fill:url(#SVGID_00000016783826687296735670000001938946819352970918_);}
	.st73{fill:url(#SVGID_00000103953579304901726720000003681080731445756036_);}
	.st74{fill:url(#SVGID_00000179610481748895622950000004371498361523751348_);}
	.st75{fill:url(#SVGID_00000112612919582429177000000003399476280263866555_);}
	.st76{fill:url(#SVGID_00000024708454011305956160000003146229990001344405_);}
	.st77{fill:url(#SVGID_00000072250837781328684470000006661453005643404428_);}
	.st78{fill:url(#SVGID_00000081640226547144734360000006613816709190464942_);}
	.st79{fill:url(#SVGID_00000183930881865680194950000016300855605065564306_);}
	.st80{fill:url(#SVGID_00000072963945587270805830000017053713359745271733_);}
	.st81{fill:url(#SVGID_00000181050252752894554740000013891055337199171504_);}
	.st82{fill:url(#SVGID_00000149377313320131310750000016904713846353947828_);}
	.st83{fill:url(#SVGID_00000179623102638160340770000009431549630935591860_);}
	.st84{fill:url(#SVGID_00000132804610072563140540000013055726262866499513_);}
	.st85{fill:url(#SVGID_00000153669211725247739290000003369118440411185822_);}
	.st86{fill:url(#SVGID_00000166652624347338898090000003101756019605076891_);}
	.st87{fill:#006838;}
	.st88{fill:url(#SVGID_00000096034340410586966840000008824509976685235594_);}
	.st89{fill:url(#SVGID_00000182504191038923512390000011349315318972783495_);}
	.st90{fill:url(#SVGID_00000024693291038873878420000016156327281357266835_);}
	.st91{fill:url(#SVGID_00000049937685768486436800000008341493339104571283_);}
	.st92{fill:url(#SVGID_00000148652612214146097870000004173923321134664587_);}
	.st93{fill:url(#SVGID_00000032637654842751535470000009621917526269899957_);}
	.st94{fill:url(#SVGID_00000122683658902805429090000002689512544184055181_);}
	.st95{fill:url(#SVGID_00000109008402731440472940000002597250672523163300_);}
	.st96{fill:url(#SVGID_00000070828521063978065690000011439177513469599404_);}
	.st97{fill:url(#SVGID_00000057106479139866125980000007167794438355121847_);}
	.st98{fill:url(#SVGID_00000032631101004397783870000004796065507974549642_);}
	.st99{fill:url(#SVGID_00000003809471394398963560000016874739358284886695_);}
	.st100{fill:url(#SVGID_00000093162435400200959950000002598412070596137351_);}
	.st101{fill:url(#SVGID_00000112602907489518624000000008623737284152017557_);}
	.st102{fill:url(#SVGID_00000127733359943659916790000000184729328337863574_);}
	.st103{fill:url(#SVGID_00000156576282891019240020000017474629016401736118_);}
	.st104{fill:url(#SVGID_00000075847627057485762860000014283448720639919263_);}
	.st105{fill:url(#SVGID_00000070084726824928146990000008837523129705048710_);}
	.st106{fill:url(#SVGID_00000126282819101227017100000003532657359422465155_);}
	.st107{fill:url(#SVGID_00000023265015062826253550000004073758101854780841_);}
	.st108{fill:url(#SVGID_00000047057189287908663410000013195870805615614351_);}
	.st109{fill:url(#SVGID_00000119814396927569831060000006869444584727244217_);}
	.st110{fill:url(#SVGID_00000010990201152420277110000010716083743847213960_);}
	.st111{fill:url(#SVGID_00000154395675802489762050000008392836381446478782_);}
	.st112{fill:url(#SVGID_00000132074350065144129730000007137589678139829913_);}
	.st113{fill:url(#SVGID_00000045608611113901462800000004389838567432328885_);}
	.st114{fill:url(#SVGID_00000065050221718521998070000013695829191555723922_);}
	.st115{fill:url(#SVGID_00000136382030990805336090000007704256512986824375_);}
	.st116{fill:url(#SVGID_00000075861432880739988180000002528097553141008565_);}
	.st117{fill:url(#SVGID_00000045617471249529098620000015457159945706096569_);}
	.st118{fill:url(#SVGID_00000039092276492176307340000006072033816404514977_);}
	.st119{fill:url(#SVGID_00000074442809041105967010000014116738417658278304_);}
	.st120{fill:url(#SVGID_00000129913008293117272310000011446529470090619291_);}
	.st121{fill:url(#SVGID_00000160892533824094925020000001938392001249149111_);}
	.st122{fill:url(#SVGID_00000155132849521547620940000001975997679985104301_);}
	.st123{fill:url(#SVGID_00000167388460419430688700000001206741185450101153_);}
	.st124{fill:url(#SVGID_00000011724736356878568140000012379113701498152869_);}
	.st125{fill:url(#SVGID_00000095336522316619159630000003152691111711007368_);}
	.st126{fill:url(#SVGID_00000050663946320079053020000013404930258318384315_);}
	.st127{fill:url(#SVGID_00000147916056484359610790000018402512015192796327_);}
	.st128{fill:url(#SVGID_00000041260528736422426210000007107098855551035051_);}
	.st129{fill:url(#SVGID_00000006678320246031030240000013556221087414368155_);}
	.st130{fill:url(#SVGID_00000010309051794345728540000015290814363679468693_);}
	.st131{fill:url(#SVGID_00000014605378129154998670000016953168439817716122_);}
	.st132{fill:url(#SVGID_00000105428699940041171560000002293818664245838256_);}
	.st133{fill:url(#SVGID_00000048466154929049346060000002875613436717458587_);}
	.st134{fill:url(#SVGID_00000122683288571580907710000005819499659394659736_);}
	.st135{fill:url(#SVGID_00000008838885066498239640000016298831237355258514_);}
	.st136{fill:url(#SVGID_00000091702085385510045870000016404248906681727380_);}
	.st137{fill:url(#SVGID_00000104708030348144133200000009251838530123936174_);}
	.st138{fill:url(#SVGID_00000052810392377115844960000009340127587965058709_);}
	.st139{fill:url(#SVGID_00000020388208100362229200000006673374154199892362_);}
	.st140{fill:url(#SVGID_00000074424799505211416480000018130732568642625927_);}
	.st141{fill:url(#SVGID_00000178883627847267008460000006751202108874490279_);}
	.st142{fill:url(#SVGID_00000052825334895638675750000017244491250363704459_);}
	.st143{fill:url(#SVGID_00000114056240743560105040000012018573403011606436_);}
	.st144{fill:url(#SVGID_00000047042552279949544660000000077914279973411252_);}
	.st145{fill:url(#SVGID_00000074440283739004061650000010088224453059748518_);}
	.st146{fill:url(#SVGID_00000083068760953504455670000017520157736982235273_);}
	.st147{fill:url(#SVGID_00000079446380953071518970000001433825000451868322_);}
	.st148{fill:url(#SVGID_00000016777404030366715330000000894665030603764103_);}
	.st149{fill:url(#SVGID_00000153700367890665886140000006572158731904156589_);}
	.st150{fill:url(#SVGID_00000160151923305029515630000013364674373134382517_);}
	.st151{fill:url(#SVGID_00000078726874791461111110000015843316397979157384_);}
	.st152{fill:url(#SVGID_00000057117415864473946550000017542411676846966690_);}
	.st153{fill:url(#SVGID_00000037687927796893276400000001861188383445813383_);}
	.st154{fill:url(#SVGID_00000165224220099912498850000013453029656294942897_);}
	.st155{fill:url(#SVGID_00000152944306367394156960000013340422198940231821_);}
	.st156{fill:url(#SVGID_00000111187763388309960950000009790439481541957034_);}
	.st157{fill:url(#SVGID_00000043447139302494095700000012286047067804650114_);}
	.st158{fill:url(#SVGID_00000093164976867158981940000003382656767794405544_);}
	.st159{fill:url(#SVGID_00000043431437141458621620000004413819759369705866_);}
	.st160{fill:url(#SVGID_00000139975032824555014390000014745249172137483136_);}
	.st161{fill:url(#SVGID_00000068635862520272122260000015064099013744887999_);}
	.st162{fill:url(#SVGID_00000178188335299646309700000002753419295145039789_);}
	.st163{fill:url(#SVGID_00000127754029404554357390000012928789669873273987_);}
	.st164{fill:url(#SVGID_00000159447164827304505460000005040237770305055109_);}
	.st165{fill:url(#SVGID_00000129914815765829221710000010016522615018949302_);}
	.st166{fill:url(#SVGID_00000000926523510317862740000016560157458415609791_);}
	.st167{fill:url(#SVGID_00000060745278204647848020000014138659823293604756_);}
	.st168{fill:url(#SVGID_00000035502357570183982670000005021327863226011050_);}
	.st169{fill:url(#SVGID_00000021116470046360864990000013148914224758056370_);}
	.st170{fill:url(#SVGID_00000093141158605045069930000002517191443249377697_);}
	.st171{fill:url(#SVGID_00000088116181556309499300000008964792818325003394_);}
	.st172{fill:url(#SVGID_00000181806155883883256040000009077559053266249119_);}
	.st173{fill:url(#SVGID_00000104703884653724060680000006383774580706013837_);}
	.st174{fill:url(#SVGID_00000034791039355095900040000014353314309296991657_);}
	.st175{fill:url(#SVGID_00000078004990228788057250000010461604341852324769_);}
	.st176{fill:url(#SVGID_00000080888936043072929770000011758974466308550542_);}
	.st177{fill:url(#SVGID_00000056422482381625811820000009163321501212840578_);}
	.st178{fill:url(#SVGID_00000002381804669209419010000000017394941630908835_);}
	.st179{fill:url(#SVGID_00000018205218443135793180000015087888877691521164_);}
	.st180{fill:url(#SVGID_00000108994189369520786160000017551189388086962566_);}
	.st181{fill:url(#SVGID_00000067946638232953387100000016219613468707564956_);}
	.st182{fill:url(#SVGID_00000103256502779653246100000003021781081126662815_);}
	.st183{fill:url(#SVGID_00000031188055969000978220000007791839886717996477_);}
	.st184{fill:url(#SVGID_00000171692495219629274540000010920742672991746458_);}
	.st185{fill:url(#SVGID_00000111156591836351793610000005351101803781114753_);}
	.st186{fill:url(#SVGID_00000118369241684356798360000007962761828668469926_);}
	.st187{fill:url(#SVGID_00000181058918577507043690000007559128597736177810_);}
	.st188{fill:url(#SVGID_00000163042058320085180430000011392044717310426021_);}
	.st189{fill:url(#SVGID_00000129886418018343821300000009910093409669832858_);}
	.st190{fill:url(#SVGID_00000047050501903206301270000014648831205999182240_);}
	.st191{fill:url(#SVGID_00000098899820615419564890000008450924304415921839_);}
	.st192{fill:url(#SVGID_00000137839805901529839560000012159702207666384822_);}
	.st193{fill:url(#SVGID_00000000200105082250449000000017836563318197868707_);}
	.st194{fill:url(#SVGID_00000008860624929500938590000011612295254194170515_);}
	.st195{fill:url(#SVGID_00000075138104573654645010000013671203790284181942_);}
	.st196{fill:url(#SVGID_00000089574038751820457080000015516145353293783428_);}
	.st197{fill:url(#SVGID_00000008844764066182669060000005162046096525754246_);}
	.st198{fill:url(#SVGID_00000060717726458735513790000017571278516983506574_);}
	.st199{fill:url(#SVGID_00000168087033412491552090000008609004469876961180_);}
	.st200{fill:url(#SVGID_00000057133060551173394790000009775403501433603732_);}
	.st201{fill:url(#SVGID_00000097498224441975485840000014194410101131095738_);}
	.st202{fill:url(#SVGID_00000029018041521224338360000002716120330096723646_);}
	.st203{fill:url(#SVGID_00000160902190692843168450000014872917096176461227_);}
	.st204{fill:url(#SVGID_00000019668616588033422730000018156940542596373136_);}
	.st205{fill:url(#SVGID_00000094583145364721476680000006597723291240335534_);}
	.st206{fill:url(#SVGID_00000012445608483192257380000003228173826815706025_);}
	.st207{fill:url(#SVGID_00000028302508675140804080000007266723801465892526_);}
	.st208{fill:url(#SVGID_00000056387529543345186330000002669589502003723161_);}
	.st209{fill:url(#SVGID_00000164512870704977993620000006217847039655996810_);}
	.st210{fill:url(#SVGID_00000101060944050081028700000003105025784266962831_);}
	.st211{fill:url(#SVGID_00000145766369446710112630000002237028808015183246_);}
	.st212{fill:url(#SVGID_00000006699676613853361570000000781100471918224261_);}
	.st213{fill:url(#SVGID_00000050655965378075460620000018234696925227119789_);}
	.st214{fill:url(#SVGID_00000134928968155092287150000010415161537662338990_);}
	.st215{fill:url(#SVGID_00000152253106324098044480000003923100045087970719_);}
	.st216{fill:url(#SVGID_00000058549035172498194580000017968253093578431661_);}
	.st217{fill:url(#SVGID_00000162337661293520040310000016345280997305750153_);}
	.st218{fill:url(#SVGID_00000126285887960075516420000005782356505356017062_);}
	.st219{fill:url(#SVGID_00000100341007992302059940000011961364297793243556_);}
	.st220{fill:url(#SVGID_00000157277278407010380100000012812894350562546316_);}
	.st221{fill:url(#SVGID_00000067202811015612506930000016139057904190114710_);}
	.st222{fill:url(#SVGID_00000179634308778094101990000007019662565063368355_);}
	.st223{fill:url(#SVGID_00000023977744635705244550000001959732275363724460_);}
	.st224{fill:url(#SVGID_00000183953978369544451240000016621125110743276181_);}
	.st225{fill:url(#SVGID_00000093862281878597946080000009425614856648337588_);}
	.st226{fill:url(#SVGID_00000176031469011930588950000004368054555570075302_);}
	.st227{fill:url(#SVGID_00000030484424408299358630000003151900108768426916_);}
	.st228{fill:url(#SVGID_00000077300290353239401540000001922404873813924020_);}
	.st229{fill:url(#SVGID_00000134251123256288573960000000074684050416291735_);}
	.st230{fill:url(#SVGID_00000082348953977048306030000004829572241317707136_);}
	.st231{fill:url(#SVGID_00000041988084381895531830000017208919114527352749_);}
	.st232{fill:url(#SVGID_00000169557432555913553350000006337756268098964155_);}
	.st233{fill:url(#SVGID_00000129900095863933434410000018222571708986405291_);}
	.st234{fill:url(#SVGID_00000049209783290250274730000015817391502491185817_);}
	.st235{fill:url(#SVGID_00000116222835140903631810000004996500182187195525_);}
	.st236{fill:url(#SVGID_00000103978929528554796030000011347686718650263471_);}
	.st237{fill:url(#SVGID_00000114780289784940284840000007485824202920332726_);}
	.st238{fill:url(#SVGID_00000030485748741487101560000010194095544763972255_);}
	.st239{fill:url(#SVGID_00000108300184306033469740000006116898144174875820_);}
	.st240{fill:url(#SVGID_00000155134623409617884840000017059819808227373993_);}
	.st241{fill:url(#SVGID_00000018956979815390905980000002962615154818703256_);}
	.st242{fill:url(#SVGID_00000050624754740610345330000013303315870594320047_);}
	.st243{fill:url(#SVGID_00000171708161902113278380000005577195698214349189_);}
	.st244{fill:url(#SVGID_00000130616260486554600270000010137607244538419853_);}
	.st245{fill:url(#SVGID_00000149346024673903520730000008501895057514652830_);}
	.st246{fill:url(#SVGID_00000149354599050281348850000008686279893787602587_);}
	.st247{fill:url(#SVGID_00000164511088737808453650000003034166196780140934_);}
	.st248{fill:url(#SVGID_00000046320194149332228490000001051519092532894396_);}
	.st249{fill:url(#SVGID_00000040557473348300192620000002769705211212428451_);}
	.st250{fill:url(#SVGID_00000097462431243505504890000015996391426943447962_);}
</style>
<g id="Layer_1">
</g>
<g id="Layer_2">
	<g>
		<g>
			<path class="st4" d="M154.6,293.5c-18.6,51.3-3.3,106.9,40,140.4c5.6,4.3,11.4,8.2,17.8,11.1c22.3,10.4,46.4,11.6,70.5,10
				c29.3-2,59.3-5.2,86-18.3c22.1-10.8,41.3-27.6,54.6-48.4c14.7-22.9,18-52.3,16.9-78.9c-0.4-9.9-1.6-19.7-3.6-29.4"/>
			<g>
				<path d="M152.2,292.9c-5.3,14.7-8.1,30.4-7.9,46.1c0.2,15.2,3.2,30.3,8.8,44.4c5.8,14.3,14.2,27.5,24.7,38.7
					c12.1,12.9,26.7,23.4,43.4,29.2c18,6.3,37.4,7.4,56.3,6.5c18.8-0.9,37.8-2.7,56.2-6.6c17.9-3.9,35.1-10.3,50.5-20.3
					c14.4-9.3,27-21.1,37-34.9c10.3-14.1,16.5-30.4,19.4-47.6c3-17.7,3.1-36.1,0.9-54c-0.6-5-1.4-10.1-2.4-15
					c-0.6-3.2-5.5-1.8-4.8,1.3c3.6,17.8,4.6,36.3,3,54.4c-1.4,16.7-5.4,33.5-13.7,48.1c-8.1,14.2-19.6,26.7-32.5,36.7
					c-13.7,10.6-29.3,18.3-45.9,23.1c-17.5,5.1-35.7,7.3-53.9,8.7c-18.3,1.4-36.8,2.2-54.9-1.6c-9-1.9-18-4.8-26.2-9.1
					c-7.6-4-14.6-9.2-20.9-14.9c-11.2-10-20.4-21.9-27.2-35.2c-6.6-12.9-10.7-27.1-12.2-41.4c-1.5-14.9-0.2-30,3.7-44.5
					c1-3.7,2.1-7.3,3.4-10.8c0.5-1.3-0.5-2.7-1.7-3.1C153.9,290.7,152.6,291.6,152.2,292.9L152.2,292.9z"/>
			</g>
		</g>
		<g>
			<g>
				<path class="st13" d="M160.8,275.7c-7.9,8.7-13.8,19.2-17,30.5c48.1-1.2,95-14.2,141.8-25.4c42.6-10.2,85.5-19,128.7-26.6
					c0.6-0.1,1.4-0.3,1.6-0.9c0.2-0.4,0-0.9-0.1-1.3c-5.6-15.8-11.2-31.7-20.1-46c-3.2-5.2-7-10.5-6.9-16.6
					c4.5,1.4,8.9,2.9,13.2,4.6c2.1-6.4,2.1-13.4,0-19.8c-17.5,10.6-37,17.4-56.4,24.1c-10.1,3.5-20.2,7-30.4,10.5
					c-17.3,6-34.6,11.9-51.9,17.8c-32.9,11.1-67.2,22.4-92.1,46.3c-3.2,3-6.4,6.9-5.7,11.3c0.2-3.1-1.5-6.3-4.2-7.9"/>
				<g>
					<path class="st13" d="M159,273.9c-8.2,9.1-14.3,19.9-17.6,31.6c-0.4,1.5,0.8,3.2,2.4,3.2c23.1-0.6,46.1-3.9,68.7-8.4
						c22.7-4.5,45.1-10.2,67.6-15.7c22.9-5.6,45.9-10.7,68.9-15.5c11.6-2.4,23.1-4.7,34.7-6.9c5.8-1.1,11.6-2.2,17.4-3.2
						c2.8-0.5,5.6-1,8.4-1.5c1.4-0.3,2.8-0.5,4.2-0.7c1.3-0.2,2.6-0.4,3.6-1.5c2-2.1,0.1-5.4-0.7-7.7c-0.9-2.7-1.9-5.3-2.9-8
						c-1.9-5.2-3.9-10.3-6.1-15.4c-2.2-5-4.6-9.9-7.2-14.7c-2.5-4.5-5.8-8.7-7.9-13.5c-0.9-2.1-1.5-4.3-1.5-6.5
						c-1.1,0.8-2.1,1.6-3.2,2.4c4.5,1.4,8.9,2.9,13.2,4.6c1.3,0.5,2.7-0.6,3.1-1.7c2.2-6.8,2.2-14.3,0-21.1
						c-0.5-1.5-2.2-2.4-3.7-1.5c-15.3,9.3-32.1,15.6-48.9,21.4c-17.9,6.2-35.8,12.4-53.8,18.5c-17.2,5.9-34.5,11.6-51.7,17.6
						c-15.4,5.3-30.6,11.1-45,18.8c-7,3.7-13.8,7.9-20.1,12.7c-3.3,2.5-6.4,5-9.4,7.8c-2.9,2.7-6,5.5-7.7,9.2
						c-0.9,1.9-1.3,3.9-1.1,6c0.2,1.3,1,2.5,2.5,2.5c1.4,0,2.5-1.1,2.5-2.5c0.1-4.1-2-7.9-5.5-10.1c-2.7-1.7-5.2,2.6-2.5,4.3
						c2,1.3,3.1,3.4,3,5.8c1.7,0,3.3,0,5,0c-0.5-3.8,2.3-6.8,4.8-9.3c2.8-2.7,5.8-5.3,8.9-7.8c6.1-4.8,12.7-9.1,19.5-12.8
						c13.9-7.7,28.7-13.5,43.6-18.7c16.7-5.9,33.6-11.4,50.4-17.2c17.8-6.1,35.6-12.2,53.3-18.4c16.7-5.8,33.5-11.7,49-20.3
						c1.9-1,3.8-2.1,5.6-3.2c-1.2-0.5-2.4-1-3.7-1.5c1.9,6.1,1.9,12.4,0,18.4c1-0.6,2.1-1.2,3.1-1.7c-4.4-1.7-8.8-3.2-13.2-4.6
						c-1.6-0.5-3.2,0.8-3.2,2.4c0,9,6.7,16.4,10.8,23.9c4.4,8.1,8,16.6,11.3,25.3c0.9,2.5,1.8,5,2.7,7.5c0.4,1.2,0.8,2.3,1.3,3.5
						c0.4,1.3,1.1,2.6,1.3,3.9c0-0.4,0-0.9,0-1.3c0.1-0.4,1-0.4,0.6-0.5c-0.1,0-0.4,0.1-0.5,0.1c-0.5,0.1-1.1,0.2-1.6,0.3
						c-1.1,0.2-2.3,0.4-3.4,0.6c-2.3,0.4-4.6,0.8-6.9,1.2c-4.5,0.8-9,1.6-13.5,2.5c-9,1.7-17.9,3.4-26.9,5.2
						c-17.8,3.6-35.5,7.3-53.2,11.3c-17.6,4-35.1,8.3-52.6,12.6c-17.4,4.2-34.8,8.3-52.4,11.5c-17.5,3.2-35.1,5.6-52.8,6.4
						c-2.2,0.1-4.4,0.2-6.6,0.2c0.8,1.1,1.6,2.1,2.4,3.2c3.1-10.9,8.7-21,16.4-29.4C164.7,275.1,161.2,271.5,159,273.9L159,273.9z"
						/>
				</g>
			</g>
			<g>
				<g>
					<path class="st13" d="M140,308.3c60.7,5.4,122.1,2.6,183.1-1.9c41.3-3.1,82.7-7,123-16.7c10.6-2.6,21.3-5.6,31-10.6
						c2.9-1.5,6.2-4.8,4.3-7.5c-0.8-1.2-2.3-1.6-3.7-1.9c-18.9-4.9-37.7-9.8-56.6-14.6"/>
					<g>
						<path d="M140,310.8c27.9,2.5,56,3.2,84,2.9c28.1-0.3,56.2-1.8,84.2-3.7c27.5-1.9,55-4,82.3-7.7c13.6-1.8,27.2-4,40.6-6.8
							c13-2.7,26.2-5.5,38.5-10.4c3.1-1.2,6.2-2.5,9.1-4.1c2.2-1.3,4.5-3.2,5.3-5.7c0.9-2.6-0.1-5.3-2.4-6.8c-2.5-1.6-6-2-8.9-2.7
							c-13.6-3.5-27.2-7-40.8-10.5c-3.4-0.9-6.8-1.8-10.2-2.6c-3.1-0.8-4.4,4-1.3,4.8c13.2,3.4,26.3,6.8,39.5,10.2
							c3.3,0.9,6.6,1.7,9.9,2.6c1.6,0.4,3.3,0.9,4.9,1.3c1.3,0.3,2.8,0.5,4,1.1c0.9,0.4,0.9,0.7,0.4,1.5c-0.5,1-1.5,1.7-2.5,2.3
							c-2.6,1.6-5.5,2.7-8.3,3.9c-11.9,4.7-24.7,7.5-37.2,10.1c-13,2.7-26.1,4.9-39.3,6.7c-26.4,3.6-53,5.7-79.6,7.6
							c-27,1.9-54.1,3.4-81.1,3.9c-27,0.5-54.1,0-81-2c-3.4-0.2-6.7-0.5-10.1-0.8C136.8,305.5,136.8,310.5,140,310.8L140,310.8z"/>
					</g>
				</g>
				<g>
					<path class="st13" d="M164,285.1c2.5-20.8,5.7-43.9,16.7-62.1c6.1-10.1,14.4-18.5,22.7-26.8c17.3-17.4,35.1-35,57.1-45.8
						c26.3-12.8,56.5-14.8,85.7-15.4c36.2-0.7,72.4,0.4,108.5,3.2c1.9,0.1,3.8,0.3,5.5,1.1c3,1.4,4.9,4.5,6.8,7.2
						c8,11.8,19.9,21,33.4,25.7c-1.8-0.6-6.5,0.9-8.5,1.1c-3,0.3-6.1,0.5-9.2,0.5c-6.1,0.1-12.3-0.3-18.3-1.1
						c-11.9-1.6-22.5-5.4-33.4-10"/>
					<g>
						<path d="M166.5,285.1c1.6-13,3.4-26.1,7-38.8c1.8-6.2,4.1-12.2,7-17.9c3.1-6,7.1-11.4,11.5-16.5c4.6-5.3,9.5-10.2,14.4-15.1
							c4.8-4.8,9.5-9.5,14.4-14.2c9.8-9.2,20.2-18,31.8-25c24-14.4,51.8-18.4,79.3-19.6c30.4-1.3,61-0.8,91.4,0.8
							c7.7,0.4,15.4,0.9,23.1,1.4c3.6,0.3,7.5,0.2,11.1,1c3,0.6,4.8,2.9,6.4,5.3c7.1,10.4,16.1,19,27.4,24.7
							c2.7,1.4,5.6,2.6,8.5,3.6c0.4-1.6,0.9-3.2,1.3-4.8c-2.1-0.6-4.3,0-6.4,0.4c-2.5,0.5-4.7,0.8-7.3,0.9c-6.7,0.4-13.3,0.2-20-0.6
							c-12.4-1.4-24.2-5.5-35.7-10.2c-1.3-0.5-2.7,0.6-3.1,1.7c-0.4,1.4,0.5,2.6,1.7,3.1c11.5,4.8,23.3,8.7,35.7,10.3
							c6.5,0.8,13.1,1.1,19.6,0.8c2.8-0.1,5.7-0.2,8.4-0.8c1.7-0.3,4.1-1.3,5.6-0.8c3.1,0.9,4.3-3.8,1.3-4.8
							c-11.8-4.2-22.5-11.9-30.1-21.9c-1.9-2.5-3.5-5.3-5.5-7.6c-2.2-2.5-4.9-3.8-8.2-4.3c-7.7-1.1-15.6-1.2-23.3-1.7
							c-31.3-1.9-62.7-2.5-94-1.6c-28,0.8-56.9,3.5-82.3,16.3c-12.3,6.2-23.4,14.7-33.7,23.8c-10.4,9.2-20.3,19.1-29.9,29.2
							c-4.8,5.1-9.4,10.3-13.3,16.1c-3.8,5.7-6.8,11.8-9.3,18.2c-4.7,12.5-7,25.8-8.8,39c-0.4,3.2-0.8,6.5-1.2,9.7
							c-0.2,1.4,1.3,2.5,2.5,2.5C165.5,287.6,166.3,286.4,166.5,285.1L166.5,285.1z"/>
					</g>
				</g>
				<g>
					<path class="st13" d="M423.7,265.9c-2.2-5-4.2-10.1-6-15.2c-1.6-4.7-2.7-9.8-4.1-14.7c-3.1-10.4-6.1-20.8-9.2-31.3
						c-0.6-2.1-1.3-4.3-2.6-6c-1.2-1.6-3-2.7-4.7-3.8c-3.7-2.3-7.4-4.6-11.2-6.8"/>
					<g>
						<path d="M425.8,264.6c-2.4-5.4-4.6-11-6.4-16.7c-1.7-5.8-3.2-11.6-4.9-17.4c-1.7-5.8-3.4-11.7-5.1-17.5c-0.9-3-1.8-6-2.6-9
							c-0.8-2.7-1.7-5.3-3.5-7.4c-1.9-2.2-4.7-3.7-7.2-5.3c-3-1.8-5.9-3.6-8.9-5.4c-2.8-1.6-5.3,2.7-2.5,4.3
							c2.6,1.5,5.2,3.1,7.7,4.6c2.2,1.4,4.7,2.6,6.6,4.4c1.7,1.6,2.4,3.9,3,6.1c0.9,2.9,1.7,5.8,2.6,8.8c1.7,5.8,3.4,11.5,5.1,17.3
							c1.7,5.6,3.1,11.3,4.7,16.9c1.9,6.4,4.5,12.6,7.1,18.8c0.5,1.2,2.4,1.5,3.4,0.9C426.2,267.3,426.4,265.9,425.8,264.6
							L425.8,264.6z"/>
					</g>
				</g>
				<g>
					<path class="st13" d="M402.5,197.4c4.8-5.3,8.7-11.3,11.7-17.7c0.4-0.9,0.8-1.9,0.8-2.9c0-1.2-0.5-2.3-1-3.3
						c-2.3-4.4-5.8-8.1-10-10.8"/>
					<g>
						<path d="M404.3,199.2c2.7-3,5.1-6.1,7.3-9.5c2.1-3.3,4.3-6.9,5.6-10.6c1.4-4-1.2-7.9-3.6-11c-2.3-3-5.1-5.6-8.3-7.6
							c-2.7-1.7-5.2,2.6-2.5,4.3c2.6,1.6,4.9,3.7,6.7,6.1c0.9,1.2,1.7,2.5,2.4,3.8c0.8,1.5,0.7,2.5,0,4.1
							c-2.8,6.1-6.6,11.8-11.1,16.8C398.6,198,402.1,201.6,404.3,199.2L404.3,199.2z"/>
					</g>
				</g>
				<g>
					<path class="st13" d="M413.7,178.7c1.2-5,5.3-9,10.1-10.9c4.8-1.9,10.2-2,15.3-1.3c-0.2-0.7-0.8-1.4-1.5-1.7"/>
					<g>
						<path d="M416.1,179.4c2.4-9.7,13.9-11.6,22.3-10.5c1.7,0.2,3.8-1.1,3.1-3.1c-0.5-1.4-1.3-2.5-2.6-3.1
							c-1.2-0.6-2.7-0.4-3.4,0.9c-0.6,1.1-0.3,2.9,0.9,3.4c-0.3-0.2,0.3,0.1,0.4,0.2c1-1,2.1-2.1,3.1-3.1c-6.2-0.8-12.6-0.7-18.4,2
							c-4.8,2.3-8.8,6.7-10.1,11.9C410.5,181.1,415.3,182.5,416.1,179.4L416.1,179.4z"/>
					</g>
				</g>
				<g>
					<path class="st13" d="M141.5,308.4c-10.8-1.8-21.6-4.1-31.7-8.4c-3-1.3-6.5-4.4-4.8-7.2c0.7-1.2,2.2-1.7,3.5-2.2
						c18.5-6.1,37-12.3,55.5-18.4"/>
					<g>
						<path d="M142.1,305.9c-6.6-1.1-13.1-2.4-19.5-4.2c-3.2-0.9-6.4-2-9.6-3.2c-1.9-0.7-5.3-1.8-6-4.1c-0.1-0.2-0.1-0.3,0.1-0.5
							c0.1-0.2,0.4-0.4,0.7-0.5c1.3-0.7,2.9-1,4.2-1.5c3.3-1.1,6.6-2.2,10-3.3c6.6-2.2,13.3-4.4,19.9-6.6c7.6-2.5,15.2-5,22.8-7.6
							c3-1,1.7-5.8-1.3-4.8c-14.7,4.9-29.4,9.8-44.1,14.7c-3.6,1.2-7.3,2.4-10.9,3.6c-3,1-6.3,2.6-6.3,6.3c0,3.2,2.6,5.7,5.2,7.1
							c3,1.7,6.5,2.8,9.8,3.9c7.7,2.5,15.8,4.1,23.8,5.5c1.3,0.2,2.7-0.4,3.1-1.7C144.2,307.8,143.5,306.2,142.1,305.9L142.1,305.9z
							"/>
					</g>
				</g>
			</g>
		</g>
	</g>
	<g>
		<g>
			<path d="M93.5,448.6c-0.1,15.4-9.8,29.8-24.4,35c-14.9,5.4-31.7,0.8-41.8-11.4c-9.9-12-11.1-29.6-3-42.9
				c8-13.3,24-20.4,39.2-17.3c15.3,3.1,27.2,15.5,29.7,30.9C93.4,444.7,93.5,446.7,93.5,448.6c0,3.2,5,3.2,5,0
				c-0.1-17.7-11.3-33.7-27.9-39.8c-16.5-6-35.8-0.8-47,12.8c-11.3,13.7-12.9,33.6-3.7,48.9c9.2,15.3,27.4,23.1,44.8,19.6
				c16.9-3.4,30.6-17.6,33.2-34.7c0.3-2.2,0.5-4.5,0.5-6.7C98.5,445.4,93.5,445.4,93.5,448.6z"/>
		</g>
	</g>
	<g>
		<g>
			
				<rect x="484.6" y="445.6" transform="matrix(0.1302 -0.9915 0.9915 0.1302 29.4393 938.6423)" class="st7" width="130.2" height="13.8"/>
			<g>
				<path d="M548.1,515.5c-4.6-0.6-9.1-1.2-13.7-1.8c0.8,0.8,1.7,1.7,2.5,2.5c0.6-4.3,1.1-8.6,1.7-12.9c1.3-10.3,2.7-20.5,4-30.8
					c1.6-12.4,3.3-24.8,4.9-37.3c1.4-10.7,2.8-21.5,4.2-32.2c0.5-3.6,0.9-7.1,1.4-10.7c0.2-1.7,0.6-3.4,0.7-5c0-0.1,0-0.2,0-0.2
					c-0.8,0.8-1.7,1.7-2.5,2.5c4.6,0.6,9.1,1.2,13.7,1.8c-0.8-0.8-1.7-1.7-2.5-2.5c-0.6,4.3-1.1,8.6-1.7,12.9
					c-1.3,10.3-2.7,20.5-4,30.8c-1.6,12.4-3.3,24.8-4.9,37.3c-1.4,10.7-2.8,21.5-4.2,32.2c-0.5,3.6-0.9,7.1-1.4,10.7
					c-0.2,1.7-0.6,3.4-0.7,5c0,0.1,0,0.2,0,0.2c-0.2,1.3,1.3,2.5,2.5,2.5c1.5,0,2.3-1.2,2.5-2.5c0.6-4.3,1.1-8.6,1.7-12.9
					c1.3-10.3,2.7-20.5,4-30.8c1.6-12.4,3.3-24.8,4.9-37.3c1.4-10.7,2.8-21.5,4.2-32.2c0.5-3.6,0.9-7.1,1.4-10.7
					c0.2-1.7,0.6-3.4,0.7-5c0-0.1,0-0.2,0-0.2c0.2-1.5-1.3-2.3-2.5-2.5c-4.6-0.6-9.1-1.2-13.7-1.8c-1.5-0.2-2.3,1.3-2.5,2.5
					c-0.6,4.3-1.1,8.6-1.7,12.9c-1.3,10.3-2.7,20.5-4,30.8c-1.6,12.4-3.3,24.8-4.9,37.3c-1.4,10.7-2.8,21.5-4.2,32.2
					c-0.5,3.6-0.9,7.1-1.4,10.7c-0.2,1.7-0.6,3.4-0.7,5c0,0.1,0,0.2,0,0.2c-0.2,1.5,1.3,2.3,2.5,2.5c4.6,0.6,9.1,1.2,13.7,1.8
					c1.3,0.2,2.5-1.3,2.5-2.5C550.6,516.5,549.4,515.7,548.1,515.5z"/>
			</g>
		</g>
		<g>
			
				<radialGradient id="SVGID_1_" cx="542.1345" cy="359.1877" r="33.7021" gradientTransform="matrix(0.9915 0.1302 -0.1302 0.9915 71.237 -67.5958)" gradientUnits="userSpaceOnUse">
				<stop  offset="0" style="stop-color:#FFFFFF"/>
				<stop  offset="9.995031e-02" style="stop-color:#CCE8F6"/>
				<stop  offset="0.221" style="stop-color:#98D3EE"/>
				<stop  offset="0.3454" style="stop-color:#66C4E9"/>
				<stop  offset="0.4708" style="stop-color:#25B9E5"/>
				<stop  offset="0.5977" style="stop-color:#00B1E2"/>
				<stop  offset="0.7267" style="stop-color:#00ACE0"/>
				<stop  offset="0.8591" style="stop-color:#00A9DE"/>
				<stop  offset="1" style="stop-color:#00A8DE"/>
			</radialGradient>
			<circle class="st0" cx="562" cy="359.1" r="33.7"/>
			<g>
				<path class="st15" d="M593,362.9c-1.8,13-11.2,23.7-24.1,26.7c-12.7,2.9-26.3-2.7-33.3-13.7c-7-11-6.3-25.8,1.8-36
					c8.2-10.3,22.2-14.4,34.7-10.2c12.2,4.1,20.8,16,21,28.8c0,1.7-0.1,3.4-0.3,5.1c-0.2,1.3,1.3,2.5,2.5,2.5c1.5,0,2.3-1.2,2.5-2.5
					c1.9-14.7-5.9-29.6-19.1-36.5c-13.5-7-30.3-4.7-41.5,5.6c-11.2,10.4-14.5,27.1-8.5,41c5.9,13.7,20.4,22.6,35.4,21.6
					c14.9-1,28.1-11.3,32.4-25.6c0.5-1.8,0.9-3.6,1.2-5.5c0.2-1.3-0.3-2.7-1.7-3.1C594.9,360.8,593.2,361.5,593,362.9z"/>
			</g>
		</g>
		<g>
			<g>
				<path d="M550.1,386c-4.1-3-8.4-6.5-9.5-11.7c-1.2-5.7,1.9-11.6,4.6-16.4c2.7-4.8,5.8-9.6,10.3-13c3.9-3,9.2-5,14.2-4.2
					c5.3,0.9,9.7,5.1,12.9,9.3c1.6,2,2.8,4.4,2.4,7.1c-0.4,2.7-2.1,5.1-3.7,7.3c-3.1,4.1-7,8.9-12.3,10.2c-2.2,0.5-4.6,0.4-6.5-0.7
					c-2.1-1.3-3.2-3.6-3.8-5.9c-1.2-4.7-0.7-12.5,5.5-13.2c2.2-0.3,4.2,1.3,4.8,3.4c0.5,2.1-0.9,4.4-2.9,5c-3,1-1.7,5.8,1.3,4.8
					c3.1-1,5.7-3.6,6.5-6.9c0.7-3.3-0.4-6.8-3-9c-5.8-5.1-14-1.1-16.6,5.3c-1.4,3.4-1.3,7.2-0.6,10.8c0.7,3.2,2.1,6.5,4.7,8.7
					c5.4,4.7,13.4,3.3,18.8-0.7c2.9-2.2,5.2-4.9,7.4-7.7c2.2-2.8,4.5-5.9,5.3-9.5c1.7-7.4-3.9-13.8-9.2-18.2
					c-2.8-2.3-5.9-4.1-9.5-4.7c-3.3-0.6-6.7-0.4-9.9,0.6c-6.9,2-12.2,6.9-16.3,12.6c-2.3,3.2-4.3,6.6-6,10.2
					c-1.8,3.8-3.4,8-3.5,12.3c-0.2,8.5,5.9,14.2,12.2,18.8c1.1,0.8,2.8,0.2,3.4-0.9C551.7,388.2,551.1,386.8,550.1,386L550.1,386z"
					/>
			</g>
		</g>
	</g>
	<g>
		<circle class="st4" cx="549.1" cy="447.6" r="39.8"/>
		<g>
			<path d="M586.5,447.6c-0.1,15.4-9.8,29.8-24.4,35c-14.9,5.4-31.7,0.8-41.8-11.4c-9.9-12-11.1-29.6-3-42.9
				c8-13.3,24-20.4,39.2-17.3c15.3,3.1,27.2,15.5,29.7,30.9C586.4,443.7,586.5,445.7,586.5,447.6c0,3.2,5,3.2,5,0
				c-0.1-17.7-11.3-33.7-27.9-39.8c-16.5-6-35.8-0.8-47,12.8c-11.3,13.7-12.9,33.6-3.7,48.9c9.2,15.3,27.4,23.1,44.8,19.6
				c16.9-3.4,30.6-17.6,33.2-34.7c0.3-2.2,0.5-4.5,0.5-6.7C591.5,444.4,586.5,444.4,586.5,447.6z"/>
		</g>
	</g>
	<g>
		<g>
			<path class="st16" d="M149,284.9c0,0,0-1.2,0-1.2C149,283.7,149,284.9,149,284.9L149,284.9z"/>
		</g>
	</g>
	<g>
		<g>
			<path class="st16" d="M166.9,285.8c17.1,2.6,34.3,4.2,51.6,4.6c17.4,0.4,34.8-0.3,52.1-0.8c17.1-0.5,34.2-1.2,51.3-2.3
				c17-1.1,34.1-2.6,51-5c8.4-1.2,16.9-2.5,25.2-4.1c7.5-1.4,15.1-3,22.1-6.3c1.7-0.8,3.4-1.7,5-2.8c0.2-0.1-0.2-1.1,0-1.2
				c-6.4,4.2-13.8,6.3-21.2,7.9c-8.1,1.8-16.4,3.1-24.6,4.4c-16.9,2.5-33.9,4.2-50.9,5.4c-17.1,1.2-34.2,1.9-51.3,2.5
				c-17.3,0.6-34.7,1.3-52,1.2c-17.3-0.2-34.6-1.4-51.7-3.8c-2.2-0.3-4.4-0.6-6.5-0.9C166.9,284.6,166.8,285.8,166.9,285.8
				L166.9,285.8z"/>
		</g>
	</g>
	<g>
		<g>
			<path class="st16" d="M167.9,277c16.7,2.9,33.6,4.6,50.6,5.1c17.1,0.5,34.2-0.4,51.2-1c16.7-0.6,33.4-1.3,50.1-2.6
				c16.6-1.2,33.3-3,49.8-5.6c8.3-1.3,16.5-2.9,24.7-4.7c7.1-1.6,14.3-3.4,20.7-6.9c1.6-0.9,3.2-1.9,4.7-3c0.2-0.2-0.2-1.1,0-1.2
				c-6,4.4-13,6.9-20.1,8.7c-7.8,2-15.8,3.5-23.7,4.9c-16.5,2.9-33.2,4.8-49.9,6.2c-16.7,1.4-33.4,2.2-50.1,2.8
				c-16.9,0.6-33.9,1.5-50.9,1.3c-17-0.2-33.9-1.6-50.6-4.2c-2.1-0.3-4.2-0.7-6.4-1.1C168,275.8,167.8,277,167.9,277L167.9,277z"/>
		</g>
	</g>
	<g>
		<g>
			<path class="st16" d="M169.1,283c1.7-1.5,4.4-0.8,5.2,1.2c0-0.4,0-0.8,0-1.2c-0.6,0.1-0.6-0.2-0.9-0.5c0,0.5,0,0.6,0,0.2
				c0-0.1,0.1-0.3,0.2-0.4c0.1-0.2,0.3-0.4,0.5-0.4c1.5-0.6,2.7,1.5,3.3,2.6c0-0.4,0-0.8,0-1.2c-1,0-2-0.9-2.1-2
				c0,0.4,0.1-0.3,0.2-0.4c0.1-0.2,0.2-0.4,0.4-0.6c0.5-0.5,1.1-0.8,1.7-1c3.2-0.7,5.4,2.1,7.1,4.4c0-0.4,0-0.8,0-1.2
				c-1,0.6-2.2-0.2-2.4-1.3c0,0.4,0,0.8,0,1.2c0.1-1.1,2-0.8,2.7-0.5c1,0.5,1.7,1.4,1.8,2.5c0-0.4,0-0.8,0-1.2c0,0.5,0,1.1-0.5,0.8
				c-0.3-0.2-0.4-0.6-0.5-1c0,0.4,0,0.8,0,1.2c0.1-1.4,1.5-2.7,2.9-2.2c1.8,0.6,2.6,2.7,3.2,4.4c0-0.4,0-0.8,0-1.2
				c-1,1.1-2.4-0.2-2.6-1.3c0,0.3,0,0.5,0,0.8c0-0.1,0-0.2,0-0.3c0,0.2,0,0.3,0,0.5c0.4-1.8,2.4-2.4,4-2.6c1.9-0.3,4-0.2,5.7,0.9
				c1.2,0.8,2.5,2.4,2,3.9c-0.2,0.6-0.8,1.7-1.5,1.2c-0.6-0.4-0.8-1.1-0.8-1.8c0,0.3,0,0.6,0,0.9c0-0.1,0-0.2,0-0.3
				c0,0.1,0,0.2,0,0.3c0.3-3,4.2-2.3,4.2,0.4c0-0.4,0-0.8,0-1.2c0,0.1-0.1,0.8-0.3,0.8c-0.1,0-0.3-0.6-0.3-0.6
				c-0.2-0.6-0.2-0.6,0-1.1c0.3-1,1-1.9,2-2.3c2.3-1,4.6,1.1,4.8,3.4c0-0.1,0-0.2,0-0.3c0,0.1,0,0.2,0,0.3c0-0.3,0-0.6,0-0.9
				c0,0.2,0,0.4-0.1,0.6c0,0.3-0.1,0.4-0.2,0.2c-0.1-0.1-0.3-0.7-0.3-0.8c0-0.6,0.4-1.3,0.7-1.8c0.9-1.2,2.3-1.7,3.8-1.4
				c0.6,0.1,1.3,0.4,1.8,0.8c0.2,0.1,0.3,0.3,0.5,0.5c0.1-0.1,0.3-0.1,0.4-0.2c0.4,0,0.7-0.2,1.1-0.2c1.3,0,2.7,0.6,3.5,1.6
				c0.8,1.1,0.8,2.3,0,3.4c-0.2,0.3-0.4,0.5-0.6,0.7c-0.5,0.4-0.4,0.4-0.7,0c-0.4-0.5-0.2-1,0-1.6c1.3-2.9,5.5-2.1,6.1,0.9
				c-0.1-0.4,0-0.8,0-1.2c0-0.1,0-0.2,0-0.3c0,0.4,0,0.7,0,1.1c0-2.1,1.9-4.1,4-4.1c2.2,0,4,2,4.1,4.1c0-0.4,0-0.8,0-1.2
				c-1.1,0.5-2-0.4-2.2-1.4c0,0.3,0,0.6,0,0.9c0-0.1,0-0.2,0-0.3c0,0.1,0,0.2,0,0.3c0.5-2.3,3.4-3,5.4-2.8c2.2,0.2,4.2,1.4,5.4,3.3
				c0-0.4,0-0.8,0-1.2c-0.8,2.1-4.2,0.7-4.2-1.2c0,0.4,0,0.7,0,1.1c0.5-3.7,7-3.7,7.5,0c0-0.4,0-0.8,0-1.2c-0.1,1.1-1.1,2-2.2,1.4
				c0,0.4,0,0.8,0,1.2c1.7-3.4,7.4-3,8.6,0.6c0-0.4,0-0.8,0-1.2c-1.2,1.3-3-0.1-3.2-1.5c0,0.4,0,0.8,0,1.2c0.1-1.9,2.4-2.5,3.9-2.1
				c2,0.5,3.2,2.5,4.2,4.2c0-0.4,0-0.8,0-1.2c-0.8,0.3-1.7,0.6-2.5,0.9c-0.2,0.1-1,0.5-1.2,0.4c-0.2-0.1-0.2-0.7-0.3-0.9
				c0,0.4,0,0.7,0,1.1c0-3.1,3.7-3.6,5.9-2.8c2.1,0.7,5.6,2.2,6,4.7c0-0.4,0-0.8,0-1.2c0,0.8-0.5,1.7-1.3,2c-0.4,0.2-0.6,0-1,0.1
				c-0.2-0.2-0.3-0.1-0.4,0.2c0-0.2,0.1-0.3,0.1-0.5c0.3-1.3,1.2-2.4,2.3-3.1c2.3-1.6,5.5-1.8,7.5,0.3c0-0.4,0-0.8,0-1.2
				c-0.7-0.3-0.9-0.7-1-1.4c0,0.3,0,0.6,0,0.9c0-0.1,0-0.2,0-0.2c0,0.1,0,0.2,0,0.3c0.1-1.1,0.8-2.2,2-2.4c1.8-0.4,3.5,0.7,4.9,1.6
				c0-0.4,0-0.8,0-1.2c-1.4,0.8-3.1-0.2-3.3-1.8c0,0.4,0,0.8,0,1.2c0-1.3,2.3-1.5,3.3-1.4c1.3,0.1,2.4,0.7,3.3,1.7
				c0-0.4,0-0.8,0-1.2c-0.8,1.2-2.6,1.2-3.5,0.1c0,0.4,0,0.8,0,1.2c0.9-0.9,2-1.9,3.3-2c1.1-0.1,2.2,0.5,2.3,1.7c0-0.4,0-0.8,0-1.2
				c-0.1,1-1.2,1.9-2.1,1.1c0,0.4,0,0.8,0,1.2c1.4-2.1,5.1-0.6,5.2,1.8c0-0.4,0-0.8,0-1.2c-0.2,2-3,0.8-3.5-0.5c0,0.4,0,0.8,0,1.2
				c0.6-1.1,1.6-1.8,2.9-2.1c0.6-0.1,1.2-0.2,1.7,0c0.3,0.1,0.6,0.2,0.9,0.3c0.5,0.1,0.2,0.1,0.7-0.2c1.6-1.3,4.3-0.4,4.9,1.6
				c0-0.4,0-0.8,0-1.2c-0.7-0.1-1.1-0.6-1.1-1.3c0,0.4,0,0.7,0,1.1c0.3-2,3.3-2.2,4.9-2.3c2.3-0.1,4.5,0.4,6.5,1.5
				c0-0.4,0-0.8,0-1.2c-0.5,1.3-1.7,2-3,1.6c0,0.4,0,0.8,0,1.2c1-3.3,6-4.2,8-1.4c0-0.4,0-0.8,0-1.2c-0.5,1.2-2,1.6-3,0.7
				c0,0.4,0,0.8,0,1.2c2.9-2.3,7.4-1.4,9.3,1.7c0-0.4,0-0.8,0-1.2c-1,0.6-2.1,0.8-3.2,0.5c0,0.4,0,0.8,0,1.2
				c1.5-2.6,5.4-2.8,7.2-0.4c0-0.4,0-0.8,0-1.2c-1,0.1-1.5-0.7-1.6-1.6c0,0.4,0,0.8,0,1.2c0-2,2.8-2.8,4.4-3.1
				c1-0.2,1.9-0.2,2.9-0.1c0.6,0.1,1.1,0.2,1.6,0.3c0.4,0.1,1,0.5,1.4,0.5c0.4,0,0.4-0.3,0.7-0.6c0.3-0.3,0.6-0.5,0.9-0.7
				c0.6-0.3,1.2-0.5,1.9-0.6c1.5-0.1,2.9,0.4,3.8,1.6c0-0.4,0-0.8,0-1.2c-1,0.6-2.1-0.3-2.2-1.4c0,0.4,0,0.8,0,1.2
				c0.2-1,1.1-1.6,2.2-1.4c1.2,0.2,1.9,1.3,1.9,2.5c0-0.4,0-0.7,0-1.1c0,0.3-0.1,0.6-0.2,1c0,0.4,0,0.8,0,1.2
				c0.2-3.3,4.3-5.3,7.1-3.7c0-0.4,0-0.8,0-1.2c-0.4,1-1.3,1.6-2.4,1.6c0,0.4,0,0.8,0,1.2c2.7-2.3,7-1.9,9.2,0.9c0-0.4,0-0.8,0-1.2
				c-0.9,1.5-3.1,0.5-3.3-1c0,0.4,0,0.8,0,1.2c0-1.7,1.6-2.7,3.2-2.8c1,0,2,0.3,2.9,0.7c0.4,0.2,0.8,0.5,1.2,0.6
				c0.6,0.2,0.4,0.1,0.9-0.3c2.2-1.6,5.5-1.1,7,1.1c0-0.4,0-0.8,0-1.2c-1,0.6-2.1,0.5-2.9-0.2c0,0.4,0,0.8,0,1.2
				c1.9-3.5,7-4.2,9.8-1.4c0-0.4,0-0.8,0-1.2c-0.8,1.5-2.5,2-4,1.3c0,0.4,0,0.8,0,1.2c1.4-1.4,3.4-2.1,5.4-2c1,0,1.9,0.3,2.8,0.7
				c0.3,0.2,1,0.7,1.2,0.6c0.1-0.1,0.2-0.8,0.3-1c1.3-2.5,5.6-2.8,6.9-0.2c0-0.4,0-0.8,0-1.2c-1-0.2-1.7-0.8-2.2-1.7
				c0,0.4,0,0.8,0,1.2c0.6-1.8,2.5-2.7,4.3-2.6c0.9,0,1.8,0.3,2.5,0.8c0.4,0.3,0.7,0.7,1,1.1c0.1,0.2,0.1,0.4,0.3,0.3
				c0.1,0,0.3-0.6,0.3-0.7c2-3.2,7.8-2.8,9.1,0.8c0-0.4,0-0.8,0-1.2c-1.2,1.1-3-0.1-3.2-1.5c0,0.4,0,0.8,0,1.2
				c0-1.5,1.5-2.5,2.9-2.7c1.8-0.2,3.6,0.9,5,1.9c0-0.4,0-0.8,0-1.2c-0.7,1.2-2.1,0-2.3-0.9c0,0.2,0,0.4,0,0.6c0-0.1,0-0.2,0-0.2
				c0,0.2,0,0.4,0,0.6c0.4-1.9,2.9-2.2,4.5-2.5c1.9-0.3,4.1,0.2,4.2,2.5c0-0.4,0-0.8,0-1.2c0,0.4-0.7,1.9-0.8,1
				c-0.1-0.7,0.9-1.6,1.4-1.9c1.6-0.9,3.5,0,4.2,1.6c0-0.4,0-0.8,0-1.2c-0.4-0.6-0.6-1.1-0.3-1.8c0.3-0.8,0.8-1.4,1.5-1.8
				c1.4-0.8,3.2-0.4,4.3,0.8c0-0.4,0-0.8,0-1.2c-0.7,1.6-3.4,1.4-3.5-0.4c0,0.4,0,0.8,0,1.2c0.2-1.3,1.5-2.2,2.7-1.6
				c-0.2-0.1,0.2-1.1,0-1.2c-0.8-0.6-1.5-1.2-2.3-1.8c0,0.4,0,0.8,0,1.2c0.2-1.2,1.7-0.6,1.8,0.5c0-0.4,0-0.8,0-1.2
				c-0.6,3.5-5.8,3.1-7.7,0.9c0,0.4,0,0.8,0,1.2c1.2-0.8,2.9-0.1,3.2,1.4c0-0.4,0-0.8,0-1.2c-2,0.9-4.2,1.5-6.4,1.5
				c-0.3,0-0.6,0-0.9,0c-0.3-0.1-0.5-0.1-0.6,0.2c-0.3,0.3-0.4,0.7-0.7,0.9c-0.5,0.5-1.1,1-1.7,1.3c-2.6,1.4-6.1,1-8.1-1.2
				c0,0.4,0,0.8,0,1.2c1-0.3,1.7,0.3,2.1,1.1c0.4,0.8-0.6,1.6-1.4,2c-2.3,1.2-5.1,0.2-7.5,1c0,0.4,0,0.8,0,1.2
				c0.7-0.8,1.6,0.3,1.6,1c0-0.4,0-0.8,0-1.2c-0.2,1.2-1.6,1.3-2.6,1.1c-1.3-0.3-2.4-1.1-3.9-0.8c0,0,0,1.2,0,1.2
				c0.9,0.3,1.4,0.9,1.7,1.8c0-0.4,0-0.8,0-1.2c-4.2,2.1-9.1,2.4-13.5,0.6c0,0.4,0,0.8,0,1.2c0.4-1,1.9-1.2,2.5-0.2
				c0-0.4,0-0.8,0-1.2c-2.8,1.3-5.9,1.2-8.6-0.2c0,0.4,0,0.8,0,1.2c1.1-0.4,2.3,0.3,2.5,1.5c0-0.4,0-0.8,0-1.2
				c-3.2,0.8-6.5,0.5-9.5-0.9c0,0.4,0,0.8,0,1.2c2.1-0.1,4,0.9,5.1,2.6c0-0.4,0-0.8,0-1.2c-2,2.2-5.6,2.7-8.2,1.1
				c-0.3-0.2-0.5-0.4-0.8-0.6c-0.5-0.5-0.5-0.4-1.2-0.2c-0.9,0.3-1.9,0.4-2.8,0.5c-1.9,0-3.8-0.5-5.4-1.5c0,0.4,0,0.8,0,1.2
				c0.7-0.5,1.4,0.3,1.5,1c0-0.4,0-0.8,0-1.2c-0.3,3.1-6.8,0.4-8.1-0.3c0,0.4,0,0.8,0,1.2c1.3-0.9,3-0.4,3.7,1.1c0-0.4,0-0.8,0-1.2
				c-3.1,1.8-7.2,1.4-9.9-1.1c0,0.4,0,0.8,0,1.2c1.3-1.2,3.5-0.5,4,1.2c0-0.4,0-0.8,0-1.2c-4.6,0.6-9.2-0.1-13.3-2
				c0,0.4,0,0.8,0,1.2c1.7-0.8,3.8,0.4,3.9,2.3c0-0.4,0-0.8,0-1.2c-5,2.3-10.7,2.4-15.8,0.1c0,0.4,0,0.8,0,1.2c1.5-1.2,3.8,0,4,1.8
				c0-0.4,0-0.8,0-1.2c-0.1,0.9-3.4,0.6-4.1,0.5c-1.5-0.2-2.9-0.7-4.2-1.4c0,0.4,0,0.8,0,1.2c1.7-1.1,3.9-0.6,5,1.1
				c0-0.4,0-0.8,0-1.2c-4.2,1.1-8.7,0.3-12.3-2.3c0,0.4,0,0.8,0,1.2c1.4-1.5,4.1-1,4.9,0.9c0-0.4,0-0.8,0-1.2
				c-4.5,2.2-9.6,2.7-14.4,1.4c0,0.4,0,0.8,0,1.2c0.5-0.2,0.9,0.2,0.9,0.7c0-0.4,0-0.8,0-1.2c-0.4,1.7-3.9,1.1-5.1,0.8
				c-2-0.5-3.7-1.7-5-3.4c0,0.4,0,0.8,0,1.2c1.2-1.3,3.5-0.8,4,0.9c0-0.4,0-0.8,0-1.2c-3.7,1.5-7.7,1.5-11.4-0.1c0,0.4,0,0.8,0,1.2
				c0.5-0.3,0.9,0.2,0.9,0.6c0-0.4,0-0.8,0-1.2c-0.6,2.1-4.6-0.2-5.5-0.9c0,0.4,0,0.8,0,1.2c2-0.7,4.3,0.7,4.5,2.8
				c0-0.4,0-0.8,0-1.2c-3,1.3-6.5,0.7-8.9-1.6c0,0.4,0,0.8,0,1.2c1.3-1.1,3.3-1,4.3,0.4c0-0.4,0-0.8,0-1.2c-3.9,1.5-8.3,1.2-12-0.9
				c0,0.4,0,0.8,0,1.2c0.9-0.3,1.4,0.5,1.4,1.3c0-0.4,0-0.8,0-1.2c-0.3,1.6-2.4,1.6-3.7,1.5c-1.9-0.2-3.7-0.8-5.3-1.8
				c0,0.4,0,0.8,0,1.2c2.8-1.5,6.4-0.8,8.5,1.7c0-0.4,0-0.8,0-1.2c-3.8,1.5-8,1.3-11.7-0.6c0,0.4,0,0.8,0,1.2
				c0.3-0.4,0.7-0.1,0.9,0.3c0-0.4,0-0.8,0-1.2c-0.1,1.6-3.7,1-4.6,0.9c-1.8-0.3-3.4-1.1-4.9-2.1c0,0.4,0,0.8,0,1.2
				c0.4-0.4,0.7-0.1,0.9,0.3c0-0.1,0-0.2,0-0.3c0,0.1,0,0.2,0,0.3c0-0.3,0-0.6,0-0.9c-0.7,1.5-4,1.3-5.4,1.3
				c-2.1-0.1-4.2-0.6-6.1-1.5c0,0.4,0,0.8,0,1.2c1.2-0.1,2.4-0.3,3.6-0.4c0-0.4,0-0.8,0-1.2c-3.6,1.5-7.9,0.5-10.4-2.5
				c0,0.4,0,0.8,0,1.2c1.9-1.2,4.5-0.3,5.2,1.9c0-0.4,0-0.8,0-1.2c-6.7-0.8-13.4-1-20.1-0.6c0,0.4,0,0.8,0,1.2
				c0.1-1.1,1.6-0.1,1.7,0.5c0-0.4,0-0.8,0-1.2c-0.2,2.2-4.3,1-5.5,0.7c-2.8-0.6-5.6-1.2-8.3-1.9c0,0.4,0,0.8,0,1.2
				c0.6-1.3,2.7-1.2,3.1,0.1c0-0.4,0-0.8,0-1.2c-1.8,0.1-3.5,0-5.3-0.3c-0.8-0.1-1.7-0.3-2.5-0.6c-0.4-0.1-0.9-0.3-1.3-0.4
				c-0.3-0.1-0.8-0.4-1.1-0.4c-0.4,0-0.3,0.1-0.5,0.4c-0.2,0.2-0.4,0.4-0.6,0.5c-0.5,0.3-1,0.4-1.6,0.5c-1.2,0.1-2.4-0.2-3.4-0.7
				c-2.1-0.8-4.2-2.3-6.6-2c-0.5,0.1-1.1,0.3-1.5,0.6c-0.2,0.1-0.3,0.3-0.5,0.5c-0.4,0.4-0.1,0.3-0.6,0.3c-1.4-0.1-2.9-1.7-3.5-2.8
				c0,0.4,0,0.8,0,1.2c0.9-0.2,1.7,0.3,1.8,1.3c0-0.4,0-0.8,0-1.2c-0.2,0.9-1.1,1.4-2,1c0,0.4,0,0.8,0,1.2c0.4-1,2.2-1.1,2.2,0.2
				c0-0.4,0-0.8,0-1.2c-0.1,0.6-0.4,1-1,1.1c0,0.4,0,0.8,0,1.2c1.1-0.5,2.1,0.6,2.2,1.7c0-0.4,0-0.8,0-1.2c0,0.4-0.1,0.6-0.4,0.9
				c0,0.4,0,0.8,0,1.2c0.9-1.5,2.6-2.4,4.4-2.1c0.4,0.1,0.8,0.3,1.2,0.4c0.6,0.2,1.3,0.3,1.9,0.4c1.3,0.2,2.6,0.5,3.9,0.7
				c0,0,0-0.5,0-0.5c0-0.1,0-0.2,0-0.3c0,0.2,0,0.3,0,0.5c0.2-1.7,2-2.3,3.5-2.4c1.3-0.1,4.2-0.2,4.6,1.5c0-0.4,0-0.8,0-1.2
				c-0.1,0.7-1.1,1.5-1.5,0.6c0,0.4,0,0.8,0,1.2c1.4,0,2.6,0.8,3.1,2.2c0-0.4,0-0.8,0-1.2c-0.1-0.1-0.1-0.3-0.2-0.4
				c0,0.4,0,0.8,0,1.2c0.3-1.8,3.3-0.8,4.3-0.6c2.5,0.6,5,1.2,7.6,1.8c0-0.4,0-0.8,0-1.2c-3.1-0.3-6.2-0.6-9.3-0.9
				c0.1,0-0.1,1.2,0,1.2c4.3,1.4,8.8,2.2,13.4,2.3c0,0,0.1-1.2,0-1.2c-1.8-0.9-3.6-1.3-5.6-1.2c0,0-0.1,1.2,0,1.2
				c3.6,1.6,7.6,2.1,11.5,1.4c0,0,0-1.2,0-1.2c-3.9-1.6-8-2.1-12.2-1.5c0,0,0,1.2,0,1.2c4.6,0.9,9.3,0.8,13.8-0.2c0,0,0.1-1.2,0-1.2
				c-3.3-1.9-7-2.7-10.8-2.3c0,0,0,1.2,0,1.2c4.2,1.2,8.4,1.8,12.8,1.8c0,0,0-1.2,0-1.2c-3.5-0.7-7-1.3-10.4-2c0.1,0-0.1,1.2,0,1.2
				c3.4,1.5,7.1,2,10.7,1.4c0,0,0-1.2,0-1.2c-4.8-1-9.8-1.2-14.7-0.5c0,0-0.1,1.2,0,1.2c4.7,1.7,9.8,2.4,14.8,2c0,0,0-1.2,0-1.2
				c-3.5-0.5-7-0.6-10.4-0.1c0,0,0,1.2,0,1.2c5.6,1.1,11.3,1.2,16.8,0.1c0,0,0-1.2,0-1.2c-1.9-0.8-3.8-0.9-5.8-0.5
				c-0.1,0,0,1.2,0,1.2c11.1-0.2,22.3-1.3,33.2-3.3c0.1,0,0-1.2,0-1.2c-4.8,0.4-9.6,0.9-14.5,1.3c0,0-0.1,1.2,0,1.2
				c3.5,1.7,7.3,2.1,11.1,1.4c0,0,0-1.3,0-1.2c-1.4-0.1-2.7-0.1-4.1-0.2c0,0-0.1,1.2,0,1.2c4.5,0.9,9,1.2,13.6,1c0,0,0.1-1.2,0-1.2
				c-0.7-1-2-1.2-3-0.5c-0.1,0.1,0,1.3,0,1.2c3.6,0.4,7.2,0.1,10.7-1.1c0,0,0-1.2,0-1.2c-3.3-1.3-6.7-1.6-10.1-0.9c0,0,0,1.3,0,1.2
				c3.7,0.2,7.3,0,11-0.7c0,0,0-1.3,0-1.2c-2.9-0.3-5.7,0.2-8.4,1.3c-0.1,0,0,1.2,0,1.2c7.3,1.6,14.7,2.1,22.1,1.4c0,0,0-1.2,0-1.2
				c-2.6-0.2-5.1-0.4-7.7-0.7c0,0.4,0,0.8,0,1.2c6.5,0.4,13,0.2,19.4-0.4c0,0,0-1.2,0-1.2c-3.8-0.6-7.6-0.6-11.4,0c0,0,0,1.3,0,1.2
				c5.3,0.4,10.6-0.1,15.7-1.3c0,0,0-1.2,0-1.2c-3.7-1.1-7.5-1-11.2,0.4c-0.1,0,0,1.2,0,1.2c6.2-0.1,12.3-0.9,18.2-2.4
				c0,0,0-1.3,0-1.2c-2.5-0.3-4.9,0-7.2,0.9c-0.1,0,0,1.3,0,1.2c7.5,0.9,15,0.9,22.5-0.1c0,0,0-1.2,0-1.2c-1-0.3-2-0.7-3-1
				c0,0.4,0,0.8,0,1.2c3.1-0.3,6.2-0.7,9.3-1c0,0,0-1.2,0-1.2c-4.7-0.6-9.4-0.5-14.1,0.3c0,0,0,1.3,0,1.2c2.6,0.2,5.2,0,7.7-0.5
				c0,0,0-1.2,0-1.2c-2.6-0.5-5.1-0.1-7.5,1c-0.1,0,0,1.2,0,1.2c3.9,1.1,8,1,11.9-0.1c0,0,0-1.2,0-1.2c-1.2-0.2-2.3,0-3.3,0.6
				c-0.1,0,0,1.2,0,1.2c2.8,0.9,5.6,1.2,8.5,0.8c0-0.4,0-0.8,0-1.2c-1.5,0.2-3,0.4-4.5,0.7c0,0,0,1.2,0,1.2c2.7,0.7,5.5,0.7,8.2,0
				c0,0,0.1-1.2,0-1.2c-0.6-1-1.9-1.2-2.8-0.5c-0.1,0.1,0.1,1.2,0,1.2c6.8-1.5,13.7-3,20.5-4.5c0-0.4,0-0.8,0-1.2
				c-1.4,0.5-2.8,1-4.2,1.5c-0.1,0,0,1.3,0,1.2c3.2,0.1,6.4-0.4,9.5-1.3c0.1,0,0-1.3,0-1.2c-2.5-0.1-4.9,0.3-7.3,1
				c-0.1,0,0,1.2,0,1.2c4.7,0,9.4,0.2,14.1-0.5c0,0,0.1-1.2,0-1.2c-1.1-0.5-2.3,0-2.9,1c-0.1,0.1,0.1,1.2,0,1.2
				c5.6-0.6,11.1-1.6,16.6-3.2c0-0.4,0-0.8,0-1.2c-0.9,0.3-1.6,0.7-2.3,1.4c-0.1,0.1-0.1,1.2,0,1.2c1.3,0.9,1.6-1.6,1.4-2.4
				c-0.5-2.6-4.6,0.2-5.9,0.3c0,0,0,0,0,0c0,0.3-0.2,1.3,0.1,1.5c0.7,0.6,1.1-0.4,1.1-0.9c0-0.9-0.1-1.6-1.2-1.8
				c-1.7-0.3-3.5,0.7-4.7,1.8c-0.1,0.1-0.1,1.2,0,1.2c1.1,0.9,1.3-1.3,1.2-2c-0.5-2.3-5.1-0.5-6.3,0.1c-0.1,0.1,0.1,1.2,0,1.2
				c6.3,0,12.5-0.6,18.7-1.8c0,0,0-1.3,0-1.2c-5.6-0.2-11.2,0.3-16.7,1.5c0,0,0,1.3,0,1.2c6.1,0.5,12.2-0.5,17.8-2.9
				c0.1-0.1-0.1-1.2,0-1.2c-3.8,0.7-7.4,1.8-11,3.3c-0.1,0,0,1.3,0,1.2c5.3,0.1,10.6-0.6,15.7-2.1c0.1,0,0-1.2,0-1.2
				c-2,0.1-3.9,0.5-5.7,1.2c-0.1,0,0,1.3,0,1.2c4.5,0.3,8.9-0.4,13.1-2c0.1,0,0-1.2,0-1.2c-3.4,0-6.9,0.4-10.2,1.1c0,0,0,1.2,0,1.2
				c3.3,0.6,6.6,0.3,9.6-1c0.1-0.1-0.1-1.2,0-1.2c-1.2,0.3-2.4,0.6-3.7,0.8c0,0,0,1.2,0,1.2c2.8,0.4,5.5-0.3,7.7-2.1
				c0.1,0,0-1.2,0-1.2c-1-0.3-1.8-0.1-2.5,0.6c-0.1,0.1,0,1.1,0,1.2c0.2,0.8,1,0.1,1.1-0.4c0.1-0.5,0.1-1.3-0.2-1.6
				c-0.8-0.9-2.8-0.6-3.7-0.4c-1.6,0.3-3,1-4.3,1.9c-0.1,0.1,0,1.2,0,1.2c1.1,0.3,2.1,0.2,3.2-0.3c0,0,0.1-1.2,0-1.2
				c-0.6-0.6-1.4-0.9-2.3-0.7c-0.4,0.1-0.8,0.3-1.2,0.6c-0.1,0-0.3,0.5-0.4,0.5c0,0-0.4-0.5-0.5-0.5c-0.6-0.5-1.5-0.8-2.3-0.7
				c-1,0.1-1.5,0.6-2.2,1.1c-0.3,0.2-0.1,0.2-0.5,0.2c-0.2,0-0.5,0-0.8-0.1c-0.6,0-1.1,0-1.7,0c-1.1,0.1-2.1,0.3-3.2,0.7
				c-2.2,0.8-4.1,2.1-5.6,3.8c-0.1,0.1,0.1,1.2,0,1.2c8.8-0.8,17.3-3.2,25.2-7c0-0.4,0-0.8,0-1.2c-1.7,1-3.5,1.9-5.2,2.9
				c-0.1,0,0,1.3,0,1.2c4.7,0.8,9.6-0.1,13.6-2.8c0.2-0.1-0.2-1.2,0-1.2c-1.2,0.5-2.3,1-3.5,1.4c-0.1,0.1,0.1,1.2,0,1.2
				c2.4-0.8,4.9-1.6,7.3-2.4c0-0.4,0-0.8,0-1.2c-1.1,0.6-2.2,1.2-3.3,1.8c-0.1,0.1,0.1,1.2,0,1.2c1.4-0.4,2.8-0.7,4.1-1.1
				c0.1,0-0.1-1.2,0-1.2c-2,0.2-3.9,0.7-5.8,1.5c-0.1,0.1,0.1,1.2,0,1.2c1.6-0.5,3.2-0.9,4.8-1.4c0.1,0-0.1-1.2,0-1.2
				c-2.4,0.5-4.7,1.4-6.9,2.5c-0.1,0.1,0.1,1.2,0,1.2c2-0.4,3.8-1.1,5.6-2.1c0.1-0.1-0.1-1.2,0-1.2c-0.9,0.3-1.9,0.5-2.8,0.8
				c-0.1,0,0.1,1.2,0,1.2c5.6-1.4,10.9-3.6,15.9-6.6c0.2-0.1-0.2-1.1,0-1.2c-1.6,0.9-3.3,1.4-5.1,1.4c0,0-0.1,1.2,0,1.2
				c1.2,0.5,1.3-0.7,1.3-1.5c0-0.3,0.1-0.6-0.1-0.9c-0.3-0.5-1.1-0.4-1.5,0c-0.2,0.2,0.2,1.1,0,1.2c1.1-0.7,2.3-0.7,3.5-0.2
				c0-0.4,0-0.8,0-1.2c-1.1,1.3-2.6,1.9-4.3,1.7c0,0.4,0,0.8,0,1.2c1.2-1,2.9-0.7,3.7,0.6c0-0.4,0-0.8,0-1.2
				c-0.8,0.4-1.4-0.5-1.4-1.2c0,0.4,0,0.8,0,1.2c0.4-2.4,4.4-1.1,4.9-3.6c0-0.1-0.1-1.2,0-1.2c-5.5,2.1-11.1,4.1-16.6,6.2
				c-0.1,0.1,0.1,1.2,0,1.2c4.9-1.5,9.7-2.9,14.6-4.4c0-0.4,0-0.8,0-1.2c-4.1,2-8.2,4-12.2,5.9c-0.1,0.1,0.1,1.2,0,1.2
				c3.5-0.4,6.9-1.3,10.1-2.8c0.2-0.1-0.1-1.2,0-1.2c-2,0.8-3.9,1.6-5.9,2.4c0,0.4,0,0.8,0,1.2c2-0.9,4.1-1.8,6.1-2.7
				c0.2-0.1-0.1-1.2,0-1.2c-2,0.9-4.1,1.8-6.1,2.7c-0.2,0.1,0.1,1.2,0,1.2c2-0.8,3.9-1.6,5.9-2.4c0-0.4,0-0.8,0-1.2
				c-3.2,1.5-6.6,2.4-10.1,2.8c0,0.4,0,0.8,0,1.2c4.1-2,8.2-4,12.2-5.9c0.1-0.1-0.1-1.2,0-1.2c-4.9,1.5-9.7,2.9-14.6,4.4
				c0,0.4,0,0.8,0,1.2c5.5-2.1,11.1-4.1,16.6-6.2c0-0.4,0-0.8,0-1.2c-0.6,2.4-4.6,1.2-4.9,3.6c-0.1,0.9,0.1,3.1,1.4,2.4
				c0.1,0,0.1-1.2,0-1.2c-0.9-1.3-2.5-1.5-3.7-0.6c-0.1,0.1,0,1.3,0,1.2c1.7,0.2,3.2-0.4,4.3-1.7c0.1-0.1,0-1.2,0-1.2
				c-1.2-0.6-2.4-0.5-3.5,0.2c0,0.4,0,0.8,0,1.2c0.5-0.6,1.5-0.4,1.6,0.5c0-0.4,0-0.8,0-1.2c-0.2,0.6-0.7,0.9-1.3,0.6
				c0,0.4,0,0.8,0,1.2c1.8-0.1,3.5-0.5,5.1-1.4c0-0.4,0-0.8,0-1.2c-4.9,3-10.3,5.2-15.9,6.6c0,0.4,0,0.8,0,1.2
				c0.9-0.3,1.9-0.5,2.8-0.8c0-0.4,0-0.8,0-1.2c-1.7,1.1-3.6,1.8-5.6,2.1c0,0.4,0,0.8,0,1.2c2.2-1.2,4.5-2,6.9-2.5
				c0-0.4,0-0.8,0-1.2c-1.6,0.5-3.2,0.9-4.8,1.4c0,0.4,0,0.8,0,1.2c1.8-0.8,3.8-1.3,5.8-1.5c0-0.4,0-0.8,0-1.2
				c-1.4,0.4-2.8,0.7-4.1,1.1c0,0.4,0,0.8,0,1.2c1.1-0.6,2.2-1.2,3.3-1.8c0.2-0.1-0.1-1.2,0-1.2c-2.4,0.8-4.9,1.6-7.3,2.4
				c0,0.4,0,0.8,0,1.2c1.2-0.5,2.3-1,3.5-1.4c0-0.4,0-0.8,0-1.2c-4,2.6-8.8,3.6-13.6,2.8c0,0.4,0,0.8,0,1.2c1.7-1,3.5-1.9,5.2-2.9
				c0.2-0.1-0.2-1.2,0-1.2c-7.9,3.8-16.5,6.2-25.2,7c0,0.4,0,0.8,0,1.2c1.5-1.7,3.3-3,5.4-3.8c1-0.4,2.1-0.6,3.2-0.7
				c0.6-0.1,1.1-0.1,1.7-0.1c0.3,0,0.5,0,0.8,0c0.5,0,0.4,0.1,0.7-0.2c0.7-0.5,1.1-1,2.1-1.1c0.8-0.1,1.7,0.1,2.3,0.6
				c0.1,0.1,0.4,0.5,0.5,0.5c0.2,0.1,0.1,0,0.4-0.2c0.4-0.3,0.7-0.5,1.1-0.6c0.9-0.2,1.8,0,2.4,0.7c0-0.4,0-0.8,0-1.2
				c-1,0.4-2.1,0.5-3.2,0.3c0,0.4,0,0.8,0,1.2c1.3-1,2.8-1.7,4.5-2c0.9-0.2,3.7-0.6,3.7,1c0-0.4,0-0.8,0-1.2c-0.2,0.4-1,0.9-1.1,0.2
				c0,0.4,0,0.8,0,1.2c0.7-0.7,1.6-0.9,2.5-0.6c0-0.4,0-0.8,0-1.2c-2.2,1.7-4.9,2.5-7.7,2.1c0,0.4,0,0.8,0,1.2
				c1.2-0.3,2.4-0.6,3.7-0.8c0-0.4,0-0.8,0-1.2c-3.1,1.3-6.4,1.6-9.6,1c0,0.4,0,0.8,0,1.2c3.4-0.7,6.8-1.1,10.2-1.1
				c0-0.4,0-0.8,0-1.2c-4.2,1.7-8.6,2.3-13.1,2c0,0.4,0,0.8,0,1.2c1.8-0.7,3.7-1.1,5.7-1.2c0-0.4,0-0.8,0-1.2
				c-5.1,1.4-10.4,2.1-15.7,2.1c0,0.4,0,0.8,0,1.2c3.5-1.5,7.2-2.6,11-3.3c0-0.4,0-0.8,0-1.2c-5.6,2.4-11.7,3.3-17.8,2.9
				c0,0.4,0,0.8,0,1.2c5.5-1.2,11.1-1.7,16.7-1.5c0-0.4,0-0.8,0-1.2c-6.2,1.2-12.4,1.8-18.7,1.8c0,0.4,0,0.8,0,1.2
				c1.2-0.7,5.7-2.5,6.3-0.1c0-0.4,0-0.8,0-1.2c-0.1,0.6-0.6,1.2-1.2,0.7c0,0.4,0,0.8,0,1.2c0.9-0.8,2-1.5,3.2-1.7
				c0.6-0.1,2.6-0.4,2.6,0.8c0-0.4,0-0.7,0-1.1c-0.2,0.4-0.9,0.7-1.2,0.2c0,0.4,0,0.8,0,1.2c0-0.1,3.1-1.3,3.4-1.4
				c0.9-0.3,2.3-0.2,2.6,0.9c0-0.4,0-0.7,0-1.1c0,0.7-0.8,1.5-1.4,1c0,0.4,0,0.8,0,1.2c0.7-0.7,1.4-1.2,2.3-1.4c0.1,0-0.1-1.2,0-1.2
				c-5.4,1.6-10.9,2.7-16.6,3.2c0,0.4,0,0.8,0,1.2c0.6-1.1,1.8-1.5,2.9-1c0-0.4,0-0.8,0-1.2c-4.6,0.7-9.4,0.4-14.1,0.5
				c0,0.4,0,0.8,0,1.2c2.4-0.7,4.8-1,7.3-1c0-0.4,0-0.8,0-1.2c-3.1,0.9-6.3,1.3-9.5,1.3c0,0.4,0,0.8,0,1.2c1.4-0.5,2.8-1,4.2-1.5
				c0.1,0-0.1-1.2,0-1.2c-6.8,1.5-13.7,3-20.5,4.5c0,0.4,0,0.8,0,1.2c1-0.7,2.2-0.4,2.8,0.5c0-0.4,0-0.8,0-1.2
				c-2.7,0.7-5.5,0.7-8.2,0c0,0.4,0,0.8,0,1.2c1.5-0.2,3-0.4,4.5-0.7c0.1,0,0-1.2,0-1.2c-2.9,0.3-5.8,0.1-8.5-0.8c0,0.4,0,0.8,0,1.2
				c1-0.6,2.1-0.8,3.3-0.6c0-0.4,0-0.8,0-1.2c-3.9,1.2-8,1.2-11.9,0.1c0,0.4,0,0.8,0,1.2c2.3-1.2,4.9-1.5,7.5-1c0-0.4,0-0.8,0-1.2
				c-2.6,0.5-5.1,0.7-7.7,0.5c0,0.4,0,0.8,0,1.2c4.7-0.8,9.4-0.9,14.1-0.3c0-0.4,0-0.8,0-1.2c-3.1,0.3-6.2,0.7-9.3,1
				c0,0-0.1,1.2,0,1.2c1,0.3,2,0.7,3,1c0-0.4,0-0.8,0-1.2c-7.5,0.9-15,1-22.5,0.1c0,0.4,0,0.8,0,1.2c2.3-0.8,4.7-1.1,7.2-0.9
				c0-0.4,0-0.8,0-1.2c-6,1.5-12.1,2.3-18.2,2.4c0,0.4,0,0.8,0,1.2c3.6-1.3,7.5-1.4,11.2-0.4c0-0.4,0-0.8,0-1.2
				c-5.1,1.2-10.4,1.7-15.7,1.3c0,0.4,0,0.8,0,1.2c3.8-0.6,7.6-0.6,11.4,0c0-0.4,0-0.8,0-1.2c-6.5,0.7-13,0.8-19.4,0.4
				c0,0,0,1.2,0,1.2c2.6,0.2,5.1,0.4,7.7,0.7c0-0.4,0-0.8,0-1.2c-7.4,0.7-14.9,0.2-22.1-1.4c0,0.4,0,0.8,0,1.2
				c2.7-1.1,5.5-1.5,8.4-1.3c0-0.4,0-0.8,0-1.2c-3.6,0.7-7.3,0.9-11,0.7c0,0.4,0,0.8,0,1.2c3.4-0.6,6.9-0.3,10.1,0.9
				c0-0.4,0-0.8,0-1.2c-3.4,1.2-7,1.5-10.7,1.1c0,0.4,0,0.8,0,1.2c1-0.7,2.3-0.5,3,0.5c0-0.4,0-0.8,0-1.2c-4.5,0.2-9.1-0.1-13.6-1
				c0,0.4,0,0.8,0,1.2c1.4,0.1,2.7,0.1,4.1,0.2c0-0.4,0-0.8,0-1.2c-3.8,0.8-7.6,0.3-11.1-1.4c0,0.4,0,0.8,0,1.2
				c4.8-0.4,9.6-0.9,14.5-1.3c0-0.4,0-0.8,0-1.2c-11,2-22.1,3.1-33.2,3.3c0,0.4,0,0.8,0,1.2c2-0.5,3.9-0.3,5.8,0.5
				c0-0.4,0-0.8,0-1.2c-5.6,1-11.3,1-16.8-0.1c0,0.4,0,0.8,0,1.2c3.5-0.4,7-0.4,10.4,0.1c0-0.4,0-0.8,0-1.2c-5,0.4-10-0.3-14.8-2
				c0,0.4,0,0.8,0,1.2c4.9-0.7,9.8-0.5,14.7,0.5c0-0.4,0-0.8,0-1.2c-3.7,0.6-7.4,0.1-10.7-1.4c0,0.4,0,0.8,0,1.2
				c3.5,0.7,7,1.3,10.4,2c0-0.4,0-0.8,0-1.2c-4.3,0-8.6-0.6-12.8-1.8c0,0.4,0,0.8,0,1.2c3.8-0.4,7.5,0.4,10.8,2.3c0-0.4,0-0.8,0-1.2
				c-4.6,1-9.2,1.1-13.8,0.2c0,0.4,0,0.8,0,1.2c4.1-0.6,8.3-0.1,12.2,1.5c0-0.4,0-0.8,0-1.2c-3.9,0.7-7.8,0.2-11.5-1.4
				c0,0.4,0,0.8,0,1.2c2,0,3.8,0.4,5.6,1.2c0-0.4,0-0.8,0-1.2c-4.6-0.1-9-0.9-13.4-2.3c0,0.4,0,0.8,0,1.2c3.1,0.3,6.2,0.6,9.3,0.9
				c-0.1,0,0.1-1.2,0-1.2c-1.8-0.4-3.6-0.9-5.4-1.3c-1.5-0.4-3.3-1.2-4.9-1c-0.8,0.1-1.5,0.4-1.6,1.2c-0.1,0.5-0.1,1.1,0.2,1.5
				c-0.2-0.3,0.1-0.9,0-1.2c-0.4-1.4-1.6-2.2-3.1-2.2c0,0,0,1.2,0,1.2c0.3,0.6,1.1,0.3,1.4-0.2c0.2-0.3,0.1-0.7,0.1-1.1
				c0-1.3-0.8-1.9-2.1-2.1c-1.4-0.2-3.1-0.2-4.5,0.4c-1.2,0.6-1.5,1.4-1.5,2.6c0-0.2,0-0.3,0-0.5c-1.3-0.2-2.6-0.5-3.9-0.7
				c-0.6-0.1-1.3-0.2-1.9-0.4c-0.4-0.1-0.8-0.4-1.2-0.4c-1.7-0.3-3.5,0.5-4.4,2.1c-0.2,0.3,0.2,1,0,1.2c1.1-1.2,0.2-4.7-1.8-3.8
				c-0.1,0.1,0.1,1.2,0,1.2c1.1-0.2,1.1-1.3,1-2.2c0-0.4,0-0.8-0.4-1.1c-0.7-0.5-1.5,0-1.8,0.6c0,0.1-0.1,1.2,0,1.2
				c2.6,1.1,2.8-4.3,0.2-3.6c0,0-0.1,1.2,0,1.2c0.8,1.3,1.9,2.2,3.3,2.7c0.5,0.2,0.4,0.1,0.7-0.1c0.2-0.2,0.3-0.4,0.5-0.6
				c0.4-0.3,0.9-0.5,1.4-0.6c2.5-0.5,4.6,1.1,6.8,2c1.1,0.4,2.3,0.7,3.4,0.7c0.5,0,1-0.2,1.5-0.4c0.2-0.1,0.4-0.3,0.6-0.5
				c0.1-0.1,0.3-0.6,0.4-0.6c0.1,0,1.2,0.5,1.3,0.5c0.4,0.2,0.9,0.3,1.3,0.4c0.7,0.2,1.5,0.4,2.2,0.5c1.8,0.3,3.7,0.4,5.5,0.4
				c0,0,0-1.1,0-1.2c-0.4-1.4-2.5-1.5-3.1-0.1c0,0.1,0,1.2,0,1.2c2.5,0.6,5,1.2,7.6,1.8c1.5,0.3,4.3,1.4,5.7,0.3
				c0.6-0.4,0.6-1.4,0.5-2.1c-0.1-0.7-1.6-1.7-1.7-0.5c0,0.1,0,1.2,0,1.2c6.7-0.4,13.4-0.2,20.1,0.6c0,0,0-1.1,0-1.2
				c-0.7-2.1-3.3-3.1-5.2-1.9c-0.1,0-0.1,1.2,0,1.2c2.5,3,6.8,4,10.4,2.5c0.1,0-0.1-1.2,0-1.2c-1.2,0.1-2.4,0.3-3.6,0.4
				c0,0-0.1,1.2,0,1.2c3.1,1.5,6.7,2,10,1.2c1-0.2,1.5-0.6,1.5-1.6c0-0.4-0.1-2.1-0.9-1.2c-0.1,0.1-0.1,1.2,0,1.2
				c2.3,1.7,5.5,2.8,8.4,2.2c1-0.2,1.1-0.6,1.1-1.5c0-0.4-0.2-1.8-0.9-1c-0.1,0.1,0,1.2,0,1.2c3.6,1.9,7.9,2.1,11.7,0.6
				c0,0,0.1-1.2,0-1.2c-2-2.5-5.6-3.2-8.5-1.7c0,0,0,1.2,0,1.2c1.5,0.9,3.1,1.5,4.9,1.7c1.2,0.1,3.1,0.3,3.9-0.8
				c0.6-0.9,0.4-3.7-1.2-3.2c0,0,0,1.2,0,1.2c3.7,2,8,2.3,12,0.9c0,0,0.1-1.2,0-1.2c-1.1-1.4-3-1.5-4.3-0.4c-0.1,0.1-0.1,1.2,0,1.2
				c2.3,2.3,5.9,3,8.9,1.6c0.1,0,0-1.1,0-1.2c-0.2-2.1-2.5-3.5-4.5-2.8c0,0-0.1,1.2,0,1.2c0.9,0.7,4.9,3.1,5.5,0.9
				c0.1-0.5,0-2.5-0.9-1.9c-0.1,0,0,1.2,0,1.2c3.7,1.6,7.7,1.6,11.4,0.1c0.1,0,0-1.1,0-1.2c-0.6-1.7-2.8-2.1-4-0.9
				c-0.1,0.1-0.1,1.2,0,1.2c1.9,2.5,5.1,4,8.3,3.6c1-0.1,1.7-0.5,1.7-1.5c0-0.6,0-1.9-0.9-1.5c0,0,0,1.2,0,1.2
				c4.8,1.3,9.9,0.8,14.4-1.4c0.1,0,0-1.2,0-1.2c-0.8-1.9-3.5-2.4-4.9-0.9c-0.1,0.1-0.1,1.2,0,1.2c3.5,2.6,8,3.4,12.3,2.3
				c0,0,0.1-1.2,0-1.2c-1.1-1.7-3.3-2.2-5-1.1c-0.1,0,0,1.2,0,1.2c1.7,0.9,3.5,1.5,5.4,1.5c0.7,0,1.8,0.1,2.4-0.2
				c0.6-0.3,0.3,0,0.4-0.5c0-0.1,0-0.3,0-0.4c0-0.8,0-1.6-0.6-2.2c-0.9-0.9-2.3-1.2-3.4-0.4c-0.1,0,0,1.2,0,1.2
				c5,2.2,10.8,2.2,15.8-0.1c0.1,0,0-1.1,0-1.2c-0.1-1.9-2.2-3.2-3.9-2.3c0,0,0,1.2,0,1.2c4.2,2,8.8,2.6,13.3,2c0,0,0-1.1,0-1.2
				c-0.5-1.7-2.7-2.4-4-1.2c-0.1,0.1-0.1,1.2,0,1.2c2.7,2.5,6.7,2.9,9.9,1.1c0.1,0,0-1.1,0-1.2c-0.6-1.4-2.4-1.9-3.7-1.1
				c-0.1,0,0,1.2,0,1.2c1.4,0.8,2.9,1.3,4.5,1.6c1,0.2,3.1,0.4,3.6-0.8c0.3-0.8,0-3.6-1.4-2.6c-0.1,0,0,1.2,0,1.2
				c1.6,1,3.5,1.5,5.4,1.5c0.9,0,1.9-0.2,2.8-0.5c0.3-0.1,0.5-0.2,0.8-0.3c0.1,0.1,0.2,0.2,0.3,0.3c0.3,0.2,0.6,0.5,0.9,0.7
				c2.6,1.6,6.2,1.1,8.2-1.1c0.1-0.1,0.1-1.1,0-1.2c-1.1-1.8-3-2.7-5.1-2.6c0,0-0.1,1.2,0,1.2c3,1.4,6.3,1.7,9.5,0.9
				c0,0,0-1.1,0-1.2c-0.2-1.2-1.3-1.9-2.5-1.5c0,0,0,1.2,0,1.2c2.7,1.5,5.8,1.5,8.6,0.2c0.1,0,0.1-1.2,0-1.2c-0.6-1-2.1-0.8-2.5,0.2
				c0,0.1-0.1,1.2,0,1.2c4.4,1.7,9.3,1.5,13.5-0.6c0.1,0,0-1.1,0-1.2c-0.3-0.9-0.8-1.5-1.7-1.8c0,0.4,0,0.8,0,1.2
				c1.5-0.3,2.7,0.7,4.2,0.8c0.9,0.1,2.1-0.1,2.2-1.2c0.1-0.4,0-0.8,0-1.2c-0.1-0.7-0.9-1.8-1.6-1c-0.1,0.1,0.1,1.2,0,1.2
				c2.4-0.8,8.3,0.8,9.1-2.8c0.4-1.5-0.2-4.5-2.3-3.8c0,0-0.1,1.2,0,1.2c2,2.3,5.5,2.6,8.1,1.2c0.6-0.3,1.2-0.8,1.7-1.3
				c0.2-0.3,0.4-0.7,0.7-0.9c0.1-0.3,0.3-0.4,0.6-0.2c0.2,0,0.4,0,0.7,0c2.3,0,4.5-0.6,6.6-1.5c0.1,0,0-1.1,0-1.2
				c-0.2-1.5-1.9-2.2-3.2-1.4c-0.1,0-0.1,1.2,0,1.2c2.1,2.5,7.7,2.3,7.7-1.7c0-0.4,0.1-1-0.2-1.4c-0.5-0.5-1.4-0.3-1.6,0.3
				c-0.1,0.3-0.1,0.8,0,1c0.2,0.8,1.6,1.5,2.3,2c0-0.4,0-0.8,0-1.2c-1-0.5-2.2,0-2.6,1c-0.2,0.5-0.2,1.1-0.1,1.6
				c0.1,1.9,2.7,2.5,3.5,0.6c0.1-0.1,0.1-1.1,0-1.2c-1.7-1.8-4.9-1.5-5.8,1c-0.4,1.3-0.4,3.2,0.3,4.3c-0.2-0.3,0.1-0.9,0-1.2
				c-0.6-1.5-2.5-2.5-4.1-1.7c-1.2,0.6-1.6,1.9-1.6,3.1c0,0.4,0,0.7,0,1.1c0,0.4,0,0.7,0.4,0.5c0.2-0.1,0.4-0.5,0.4-0.6
				c0.2-0.6,0.2-1.4,0.1-2.1c-0.2-1.9-2.1-2.4-3.8-2.3c-1.4,0.1-3.6,0.4-4.5,1.7c-0.4,0.6-0.5,1.6-0.4,2.3c0.2,0.9,1.6,2.1,2.3,1
				c0.1-0.1,0.1-1.2,0-1.2c-1.6-1-3.4-2.2-5.4-1.8c-1.3,0.2-2.5,1.1-2.6,2.5c-0.1,0.6-0.1,1.4,0.1,2c0.5,1.2,2.1,1.9,3.1,0.9
				c0.1-0.1,0.1-1.1,0-1.2c-0.8-2.2-3.3-3.2-5.5-2.9c-1.1,0.1-2.3,0.6-3.1,1.4c-0.1,0.1-0.9,1.5-0.9,1.5c0,0-0.8-1.2-0.9-1.3
				c-1.6-1.5-4.5-1.4-6.2,0c-1.7,1.6-1.1,4,1.2,4.5c-0.1,0,0.1-1.1,0-1.2c-1.3-2.6-5.6-2.3-6.9,0.2c-0.1,0.2-0.1,0.7-0.3,0.9
				c-0.2,0.3,0,0.2-0.4-0.1c-0.2-0.1-0.4-0.2-0.6-0.3c-0.9-0.4-1.8-0.7-2.8-0.8c-2.1-0.1-4.1,0.6-5.6,2c-0.1,0.1,0,1.2,0,1.2
				c1.5,0.7,3.2,0.2,4-1.3c0.1-0.1,0.1-1.2,0-1.2c-2.8-2.8-7.9-2.1-9.8,1.4c-0.1,0.1-0.1,1.2,0,1.2c0.9,0.7,2,0.8,2.9,0.2
				c0.1,0,0.1-1.2,0-1.2c-1.2-1.8-3.5-2.5-5.6-1.9c-0.5,0.2-1,0.4-1.5,0.7c-0.1,0.1-0.4,0.5-0.6,0.5c-0.2,0-1-0.5-1.2-0.6
				c-1.3-0.6-2.7-1.2-4.2-0.8c-1.9,0.5-2.5,2.1-2.3,3.9c0.1,1.5,2.4,2.7,3.4,1.1c0.1-0.1,0.1-1.1,0-1.2c-2.2-2.8-6.5-3.2-9.2-0.9
				c-0.1,0.1,0.1,1.2,0,1.2c1.1-0.1,1.9-0.6,2.4-1.6c0-0.1,0.1-1.2,0-1.2c-2.8-1.7-6.8,0.4-7.1,3.7c0,0.4,0.1,0.9,0,1.2
				c0.6-1.8,0.2-5.7-2.7-4.8c-2.2,0.7-1.2,5.2,1,4c0.1,0,0.1-1.2,0-1.2c-1.2-1.6-3.4-2-5.2-1.3c-0.4,0.2-0.9,0.4-1.2,0.7
				c-0.2,0.2-0.4,0.5-0.6,0.6c-0.3,0.2-0.1,0.2-0.5,0.1c-1.5-0.4-2.7-0.9-4.3-0.8c-1.9,0-5.5,0.7-5.8,3c-0.2,1.2,0,3.2,1.6,3
				c0,0,0.1-1.2,0-1.2c-1.7-2.4-5.7-2.2-7.2,0.4c-0.1,0.1,0,1.2,0,1.2c1.2,0.3,2.2,0.1,3.2-0.5c0.1,0,0.1-1.2,0-1.2
				c-1.9-3.1-6.4-4-9.3-1.7c-0.1,0-0.1,1.2,0,1.2c1,0.9,2.8,0.5,3-0.9c0.2-1.1-0.3-1.7-1.2-2.2c-2.4-1.4-6-0.2-6.8,2.5
				c0,0.1,0,1.2,0,1.2c1.3,0.3,2.6-0.3,3-1.6c0-0.1,0.1-1.2,0-1.2c-2.9-1.5-7.3-2.3-10.3-0.6c-0.9,0.6-1.1,1.3-1.1,2.3
				c0,0.9,0.1,1.9,1.2,2c0,0,0-1.1,0-1.2c-0.4-1.3-1.6-2.1-2.9-2.2c-0.6,0-1.2,0.1-1.7,0.4c-0.1,0.1-0.3,0.2-0.4,0.3
				c-0.1,0.3-0.3,0.3-0.5,0.1c-0.3,0-0.6-0.2-0.9-0.3c-1.9-0.4-5.2,1-4.6,3.4c0.3,1.1,2.5,2.2,3.4,1.2c0.3-0.4,0.2-1.7,0.1-2.2
				c-0.3-2.2-3.8-3.6-5.1-1.6c-0.1,0.1-0.1,1.2,0,1.2c0.9,0.7,2-0.1,2.1-1.1c0.1-0.4,0-0.8,0-1.2c-0.1-1.1-1.1-1.7-2.2-1.7
				c-1.4,0-2.5,1.1-3.5,2c-0.1,0.1-0.1,1.2,0,1.2c0.9,1.1,2.7,1.1,3.5-0.1c0.1-0.1,0.1-1.2,0-1.2c-0.9-1.1-2.3-1.7-3.8-1.7
				c-0.7,0-1.4,0.2-2.1,0.5c-0.6,0.3-0.7,0.5-0.8,1.1c0,0.6-0.1,1.4,0.2,1.9c0.6,1.1,2,1.6,3.1,1c0,0,0-1.2,0-1.2
				c-1.9-1.2-6-3.1-6.8,0.3c-0.3,1.1-0.3,2.9,0.9,3.4c-0.1-0.1,0.1-1.1,0-1.2c-3.5-3.7-11-0.1-9.9,5.1c0.3,1.6,2.4,0,2.7-1
				c0.2-0.6,0.2-1.5,0-2.1c-0.4-1.9-2.6-2.9-4.1-3.6c-1.7-0.9-3.9-1.7-5.8-0.7c-1.4,0.7-1.9,2-1.9,3.5c0,0.4-0.1,1,0.1,1.3
				c0.3,0.4-0.1,0.3,0.6,0.1c0.3-0.1,0.6-0.2,0.9-0.3c0.8-0.3,1.5-0.5,2.3-0.8c0,0,0-1.2,0-1.2c-1-1.6-2.1-3.6-4.1-4.1
				c-1.4-0.4-3.3,0-3.9,1.4c-0.2,0.6-0.2,1.5-0.1,2.2c0.3,1.3,2.1,2.5,3.1,1.3c0.1-0.1,0.1-1.1,0-1.2c-1.2-3.6-6.9-4-8.6-0.6
				c-0.1,0.1-0.1,1.2,0,1.2c1.4,0.8,2.2-0.8,2.2-2c0-1.5-0.7-2.7-2.2-3.2c-1.5-0.5-3.4-0.3-4.5,0.9c-0.8,0.8-0.8,1.8-0.7,2.9
				c0.1,2,4,3.6,4.2,1c0.1-1.3-0.8-2.2-1.8-2.9c-1.5-1.1-3.5-1.6-5.4-1.3c-1.7,0.3-3.5,1.2-3.6,3.1c-0.1,1.3,0.4,3.5,2.2,2.7
				c0.1,0,0-1,0-1.2c0-2.9-3.1-5.3-5.9-3.8c-2,1.1-2.3,3.3-2.1,5.3c0-0.4,0-0.8,0-1.2c-0.4-2-2.6-3.4-4.6-2.5
				c-1.5,0.7-1.9,2.2-1.9,3.7c0,0.5,0,0.9,0.1,1.4c0,0.2,0.1,0.6,0.3,0.7c0.3,0.3-0.1,0.3,0.4,0.1c0.4-0.2,0.8-0.8,1-1.2
				c0.6-1,0.6-2.2,0.5-3.4c-0.1-2-1.5-3.5-3.4-3.9c-0.5-0.1-1-0.1-1.4,0c-0.2,0-0.4,0.2-0.6,0.2c-0.5,0-0.2,0-0.6-0.2
				c-0.9-0.6-1.7-1.1-2.8-1c-2,0.1-3.4,1.7-3.5,3.6c0,0.5,0,0.9,0,1.4c0,0.2,0,0.3,0,0.5c0,0.3,0.1,0.6,0.2,0.8
				c0.2,0.5,0.2,0.5,0.3,0c0.8-2.7-1.6-6.8-4.8-5.4c-1.4,0.6-2.2,2.2-2.2,3.7c0,0.4,0,0.9,0,1.3c0,0.3,0.1,0.7,0.2,1
				c0.1,0.1,0.1,0.4,0.3,0.5c0.2,0.1,0.3-0.3,0.3-0.6c0.2-1,0.1-2.2-0.6-3c-1.2-1.5-3.3-1-3.6,0.9c-0.1,0.8-0.2,2,0.2,2.7
				c0.1,0.3,0.5,0.8,0.8,0.9c0.4,0.1,0.6-0.2,0.9-0.5c0.5-0.6,0.6-1.3,0.6-2.1c0.1-1.5-0.1-3.1-1.1-4.3c-1.8-2-4.9-2.1-7.3-1.7
				c-1.9,0.4-3.5,1.2-3.5,3.3c0,0.6,0,1.1,0.3,1.6c0.5,0.8,1.6,1.4,2.3,0.6c0.1-0.1,0.1-1.1,0-1.2c-0.5-1.5-1.2-3.2-2.6-4.1
				c-1.2-0.7-2.4-0.4-3.2,0.8c-0.4,0.7-0.4,1.5-0.4,2.3c0,0.4,0,0.7,0.4,1c0.6,0.5,0.6-0.3,0.6-0.8c0-0.7,0.1-1.5-0.3-2.2
				c-0.6-1.1-1.9-2-3.2-1.8c-1.1,0.2-1.1,0.9-1.1,1.9c0.1,1.2,1.2,2.1,2.4,1.5c0.1,0,0.1-1.2,0-1.2c-1.2-1.6-2.5-3.5-4.5-4.2
				c-1.5-0.5-3.7-0.4-4.6,1.1c-1,1.6-0.4,5,1.8,5.1c0,0,0.1-1.1,0-1.2c-0.5-1-1.2-2.2-2.4-2.6c-1-0.3-1.6,0.3-1.7,1.2
				c-0.1,0.7-0.2,2.7,1,2.4c0,0,0-1.2,0-1.2c-0.8-2-3.6-2.7-5.2-1.2C168.9,282,169.3,282.8,169.1,283L169.1,283z"/>
		</g>
	</g>
	<g>
		<g>
			
				<radialGradient id="SVGID_00000124851296262248975810000010570465937542574492_" cx="288.9083" cy="283.2773" r="2.4578" gradientUnits="userSpaceOnUse">
				<stop  offset="0" style="stop-color:#FFFFFF"/>
				<stop  offset="5.325639e-02" style="stop-color:#FEF8E8"/>
				<stop  offset="0.1904" style="stop-color:#FDEDBD"/>
				<stop  offset="0.3293" style="stop-color:#FBE598"/>
				<stop  offset="0.4672" style="stop-color:#FADE7B"/>
				<stop  offset="0.6039" style="stop-color:#F9D960"/>
				<stop  offset="0.7389" style="stop-color:#F9D64B"/>
				<stop  offset="0.8718" style="stop-color:#F8D43C"/>
				<stop  offset="1" style="stop-color:#F8D437"/>
			</radialGradient>
			<path style="fill:url(#SVGID_00000124851296262248975810000010570465937542574492_);" d="M288.9,285.8c3.2,0,3.2-5,0-5
				C285.7,280.8,285.7,285.8,288.9,285.8L288.9,285.8z"/>
		</g>
	</g>
	<g>
		<g>
			
				<radialGradient id="SVGID_00000088125963346906201780000002182163121921028012_" cx="364.4828" cy="276.639" r="2.4578" gradientUnits="userSpaceOnUse">
				<stop  offset="0" style="stop-color:#FFFFFF"/>
				<stop  offset="5.325639e-02" style="stop-color:#FEF8E8"/>
				<stop  offset="0.1904" style="stop-color:#FDEDBD"/>
				<stop  offset="0.3293" style="stop-color:#FBE598"/>
				<stop  offset="0.4672" style="stop-color:#FADE7B"/>
				<stop  offset="0.6039" style="stop-color:#F9D960"/>
				<stop  offset="0.7389" style="stop-color:#F9D64B"/>
				<stop  offset="0.8718" style="stop-color:#F8D43C"/>
				<stop  offset="1" style="stop-color:#F8D437"/>
			</radialGradient>
			<path style="fill:url(#SVGID_00000088125963346906201780000002182163121921028012_);" d="M364.5,279.1c3.2,0,3.2-5,0-5
				C361.3,274.1,361.3,279.1,364.5,279.1L364.5,279.1z"/>
		</g>
	</g>
	<g>
		<g>
			
				<radialGradient id="SVGID_00000064333933161825802850000008757643285933230235_" cx="219.9721" cy="286.3411" r="2.4578" gradientUnits="userSpaceOnUse">
				<stop  offset="0" style="stop-color:#FFFFFF"/>
				<stop  offset="5.325639e-02" style="stop-color:#FEF8E8"/>
				<stop  offset="0.1904" style="stop-color:#FDEDBD"/>
				<stop  offset="0.3293" style="stop-color:#FBE598"/>
				<stop  offset="0.4672" style="stop-color:#FADE7B"/>
				<stop  offset="0.6039" style="stop-color:#F9D960"/>
				<stop  offset="0.7389" style="stop-color:#F9D64B"/>
				<stop  offset="0.8718" style="stop-color:#F8D43C"/>
				<stop  offset="1" style="stop-color:#F8D437"/>
			</radialGradient>
			<path style="fill:url(#SVGID_00000064333933161825802850000008757643285933230235_);" d="M220,288.8c3.2,0,3.2-5,0-5
				C216.8,283.8,216.7,288.8,220,288.8L220,288.8z"/>
		</g>
	</g>
	<g>
		<g>
			
				<radialGradient id="SVGID_00000060748546580905951990000003166819041733911989_" cx="414.0146" cy="266.9369" r="2.4578" gradientUnits="userSpaceOnUse">
				<stop  offset="0" style="stop-color:#FFFFFF"/>
				<stop  offset="5.325639e-02" style="stop-color:#FEF8E8"/>
				<stop  offset="0.1904" style="stop-color:#FDEDBD"/>
				<stop  offset="0.3293" style="stop-color:#FBE598"/>
				<stop  offset="0.4672" style="stop-color:#FADE7B"/>
				<stop  offset="0.6039" style="stop-color:#F9D960"/>
				<stop  offset="0.7389" style="stop-color:#F9D64B"/>
				<stop  offset="0.8718" style="stop-color:#F8D43C"/>
				<stop  offset="1" style="stop-color:#F8D437"/>
			</radialGradient>
			<path style="fill:url(#SVGID_00000060748546580905951990000003166819041733911989_);" d="M414,269.4c3.2,0,3.2-5,0-5
				C410.8,264.4,410.8,269.4,414,269.4L414,269.4z"/>
		</g>
	</g>
	<g>
		<g>
			
				<radialGradient id="SVGID_00000101789440213967493730000009518414254507356556_" cx="170.4402" cy="280.2135" r="2.4578" gradientUnits="userSpaceOnUse">
				<stop  offset="0" style="stop-color:#FFFFFF"/>
				<stop  offset="5.325639e-02" style="stop-color:#FEF8E8"/>
				<stop  offset="0.1904" style="stop-color:#FDEDBD"/>
				<stop  offset="0.3293" style="stop-color:#FBE598"/>
				<stop  offset="0.4672" style="stop-color:#FADE7B"/>
				<stop  offset="0.6039" style="stop-color:#F9D960"/>
				<stop  offset="0.7389" style="stop-color:#F9D64B"/>
				<stop  offset="0.8718" style="stop-color:#F8D43C"/>
				<stop  offset="1" style="stop-color:#F8D437"/>
			</radialGradient>
			<path style="fill:url(#SVGID_00000101789440213967493730000009518414254507356556_);" d="M170.4,282.7c3.2,0,3.2-5,0-5
				C167.2,277.7,167.2,282.7,170.4,282.7L170.4,282.7z"/>
		</g>
	</g>
	<g>
		<g>
			
				<radialGradient id="SVGID_00000160881562368378776780000003647410004291700924_" cx="191.3764" cy="284.2986" r="5.0021" gradientUnits="userSpaceOnUse">
				<stop  offset="0" style="stop-color:#FFFFFF"/>
				<stop  offset="5.325639e-02" style="stop-color:#FEF8E8"/>
				<stop  offset="0.1904" style="stop-color:#FDEDBD"/>
				<stop  offset="0.3293" style="stop-color:#FBE598"/>
				<stop  offset="0.4672" style="stop-color:#FADE7B"/>
				<stop  offset="0.6039" style="stop-color:#F9D960"/>
				<stop  offset="0.7389" style="stop-color:#F9D64B"/>
				<stop  offset="0.8718" style="stop-color:#F8D43C"/>
				<stop  offset="1" style="stop-color:#F8D437"/>
			</radialGradient>
			<path style="fill:url(#SVGID_00000160881562368378776780000003647410004291700924_);" d="M191.4,289.3c2.6,0,5.1-2.3,5-5
				c-0.1-2.7-2.2-5-5-5c-2.6,0-5.1,2.3-5,5C186.5,287,188.6,289.3,191.4,289.3L191.4,289.3z"/>
		</g>
	</g>
	<g>
		<g>
			
				<radialGradient id="SVGID_00000179617960815363372330000017681600277252751767_" cx="254.6955" cy="285.3199" r="5.0021" gradientUnits="userSpaceOnUse">
				<stop  offset="0" style="stop-color:#FFFFFF"/>
				<stop  offset="5.325639e-02" style="stop-color:#FEF8E8"/>
				<stop  offset="0.1904" style="stop-color:#FDEDBD"/>
				<stop  offset="0.3293" style="stop-color:#FBE598"/>
				<stop  offset="0.4672" style="stop-color:#FADE7B"/>
				<stop  offset="0.6039" style="stop-color:#F9D960"/>
				<stop  offset="0.7389" style="stop-color:#F9D64B"/>
				<stop  offset="0.8718" style="stop-color:#F8D43C"/>
				<stop  offset="1" style="stop-color:#F8D437"/>
			</radialGradient>
			<path style="fill:url(#SVGID_00000179617960815363372330000017681600277252751767_);" d="M254.7,290.3c2.6,0,5.1-2.3,5-5
				c-0.1-2.7-2.2-5-5-5c-2.6,0-5.1,2.3-5,5C249.8,288,251.9,290.3,254.7,290.3L254.7,290.3z"/>
		</g>
	</g>
	<g>
		<g>
			
				<radialGradient id="SVGID_00000035503605974557057920000014786118695940907185_" cx="329.2487" cy="281.7454" r="5.0021" gradientUnits="userSpaceOnUse">
				<stop  offset="0" style="stop-color:#FFFFFF"/>
				<stop  offset="5.325639e-02" style="stop-color:#FEF8E8"/>
				<stop  offset="0.1904" style="stop-color:#FDEDBD"/>
				<stop  offset="0.3293" style="stop-color:#FBE598"/>
				<stop  offset="0.4672" style="stop-color:#FADE7B"/>
				<stop  offset="0.6039" style="stop-color:#F9D960"/>
				<stop  offset="0.7389" style="stop-color:#F9D64B"/>
				<stop  offset="0.8718" style="stop-color:#F8D43C"/>
				<stop  offset="1" style="stop-color:#F8D437"/>
			</radialGradient>
			<path style="fill:url(#SVGID_00000035503605974557057920000014786118695940907185_);" d="M329.2,286.7c2.6,0,5.1-2.3,5-5
				c-0.1-2.7-2.2-5-5-5c-2.6,0-5.1,2.3-5,5C324.4,284.5,326.4,286.7,329.2,286.7L329.2,286.7z"/>
		</g>
	</g>
	<g>
		<g>
			
				<radialGradient id="SVGID_00000080911260060790175220000005288121467145685150_" cx="392.0572" cy="274.0858" r="5.0021" gradientUnits="userSpaceOnUse">
				<stop  offset="0" style="stop-color:#FFFFFF"/>
				<stop  offset="5.325639e-02" style="stop-color:#FEF8E8"/>
				<stop  offset="0.1904" style="stop-color:#FDEDBD"/>
				<stop  offset="0.3293" style="stop-color:#FBE598"/>
				<stop  offset="0.4672" style="stop-color:#FADE7B"/>
				<stop  offset="0.6039" style="stop-color:#F9D960"/>
				<stop  offset="0.7389" style="stop-color:#F9D64B"/>
				<stop  offset="0.8718" style="stop-color:#F8D43C"/>
				<stop  offset="1" style="stop-color:#F8D437"/>
			</radialGradient>
			<path style="fill:url(#SVGID_00000080911260060790175220000005288121467145685150_);" d="M392.1,279.1c2.6,0,5.1-2.3,5-5
				c-0.1-2.7-2.2-5-5-5c-2.6,0-5.1,2.3-5,5C387.2,276.8,389.3,279.1,392.1,279.1L392.1,279.1z"/>
		</g>
	</g>
</g>
</svg>
