<?xml version="1.0" encoding="utf-8"?>
<!-- Generator: Adobe Illustrator 28.2.0, SVG Export Plug-In . SVG Version: 6.00 Build 0)  -->
<svg version="1.1" xmlns="http://www.w3.org/2000/svg" xmlns:xlink="http://www.w3.org/1999/xlink" x="0px" y="0px"
	 viewBox="0 0 612 612" style="enable-background:new 0 0 612 612;" xml:space="preserve">
<style type="text/css">
	.st0{fill:#603913;}
	.st1{fill:#414042;}
	.st2{fill:#6D6E71;}
	.st3{fill:#FFFFFF;}
	.st4{fill:#A7A9AC;}
	.st5{fill:#BCBEC0;}
	.st6{fill:#8B5E3C;}
	.st7{fill:#58595B;}
	.st8{fill:#939598;}
	.st9{fill:#D1D3D4;}
	.st10{fill:#754C29;}
	.st11{fill:none;stroke:#000000;stroke-miterlimit:10;}
	.st12{fill:#8255A3;}
	.st13{fill:url(#SVGID_1_);}
	.st14{fill:#090E17;}
	.st15{fill:#9471B2;}
	.st16{fill:url(#SVGID_00000159470742400044664120000012510279709764709296_);}
	.st17{fill:url(#SVGID_00000087371364673932882970000010236567948287052451_);}
	.st18{fill:url(#SVGID_00000072998553481026361180000006891341154188257170_);}
	.st19{fill:url(#SVGID_00000110459044664945541620000009608101485033442176_);}
	.st20{fill:url(#SVGID_00000038381214614579490850000003504355166194827932_);}
	.st21{fill:url(#SVGID_00000176759193762770607950000008080726728599760285_);}
	.st22{fill:url(#SVGID_00000124163844041299601990000009067747750852314001_);}
	.st23{fill:url(#SVGID_00000121970892707883988950000015681158836690400141_);}
	.st24{fill:url(#SVGID_00000145775777577601628860000018267493913529389193_);}
	.st25{fill:#A97C50;}
	.st26{fill:#009444;}
	.st27{fill:#39B54A;}
	.st28{fill:#FBF398;}
	.st29{fill:url(#SVGID_00000122002277270713720360000003438846321788273294_);}
	.st30{fill:url(#SVGID_00000001627572407836351860000002740058894207913607_);}
	.st31{fill:url(#SVGID_00000101793211994461931490000004359564751937599107_);}
	.st32{fill:url(#SVGID_00000096026911665535748770000003287540683741022336_);}
	.st33{fill:url(#SVGID_00000163768879783820079260000012921075188971897505_);}
	.st34{fill:url(#SVGID_00000140014959181381218020000000601167062473307566_);}
	.st35{fill:url(#SVGID_00000102536098600616962870000006147328038706862236_);}
	.st36{fill:url(#SVGID_00000155104026496284278080000012809323028019163278_);}
	.st37{fill:url(#SVGID_00000018197041872208705940000001291685754077543853_);}
	.st38{fill:url(#SVGID_00000026871008708844163670000004076807432250348217_);}
	.st39{fill:url(#SVGID_00000106851661610520924130000002963846029779009710_);}
	.st40{fill:url(#SVGID_00000154424065642874405330000010041104597312494507_);}
	.st41{fill:url(#SVGID_00000065767985398539501850000015011222929739747502_);}
	.st42{fill:url(#SVGID_00000018931223963406142530000008817227522090731922_);}
	.st43{fill:url(#SVGID_00000163067059914247137610000015257483775543266188_);}
	.st44{fill:url(#SVGID_00000129891801069228763090000005772462336090633623_);}
	.st45{fill:url(#SVGID_00000083802361114841259610000006772013500685120679_);}
	.st46{fill:url(#SVGID_00000107589606548169113970000015497086957641942912_);}
	.st47{fill:url(#SVGID_00000122706705823876892360000007210029288154019968_);}
	.st48{fill:url(#SVGID_00000075841910028111693280000015778586656006944942_);}
	.st49{fill:url(#SVGID_00000070114221081876568480000011270325406108988593_);}
	.st50{fill:url(#SVGID_00000146482327688529266230000011262935944629344657_);}
	.st51{fill:url(#SVGID_00000036953726556534682070000006514248912668505010_);}
	.st52{fill:url(#SVGID_00000023988875831310738250000014047871193318372245_);}
	.st53{fill:url(#SVGID_00000160887253394839594190000015288852365795057553_);}
	.st54{fill:url(#SVGID_00000151545424093638825700000007997077371862547072_);}
	.st55{fill:url(#SVGID_00000005256847114531064570000002406380643103957932_);}
	.st56{fill:url(#SVGID_00000091710383555775060180000018190273976989465771_);}
	.st57{fill:url(#SVGID_00000067944079122703252750000009305811792935911572_);}
	.st58{fill:url(#SVGID_00000141446514682827258020000003247856183034249663_);}
	.st59{fill:url(#SVGID_00000019640639480493567530000015056670831878578843_);}
	.st60{fill:url(#SVGID_00000078042348189488210870000001728413134411141278_);}
	.st61{fill:url(#SVGID_00000145748847534218210880000002334772423414094764_);}
	.st62{fill:url(#SVGID_00000023246232541585735280000015918047469162810789_);}
	.st63{fill:url(#SVGID_00000093149871751830707090000018329880349660031652_);}
	.st64{fill:url(#SVGID_00000020360273426537359580000008467330488425572741_);}
	.st65{fill:url(#SVGID_00000026850502903013327860000000467891432810175416_);}
	.st66{fill:url(#SVGID_00000177482899487726705470000017926890236258084799_);}
	.st67{fill:url(#SVGID_00000175311098100978168520000006668757492233684627_);}
	.st68{fill:url(#SVGID_00000006701382090845407060000011191773205385486240_);}
	.st69{fill:url(#SVGID_00000103253537309764776350000013932403330323752838_);}
	.st70{fill:url(#SVGID_00000172441065244318150690000002772688287510326182_);}
	.st71{fill:url(#SVGID_00000034801330827610515600000008954529081003297188_);}
	.st72{fill:url(#SVGID_00000097497854428371365810000018439875163535163539_);}
	.st73{fill:url(#SVGID_00000132059489725848323220000014384059070597237632_);}
	.st74{fill:url(#SVGID_00000035498117042539145170000016948259947688613005_);}
	.st75{fill:url(#SVGID_00000178915837132411737430000013388102364093451904_);}
	.st76{fill:url(#SVGID_00000098215969539721323600000015432733386919743114_);}
	.st77{fill:url(#SVGID_00000154425947946497712330000017901532666127489464_);}
	.st78{fill:url(#SVGID_00000110450769174500464520000014010560490984283798_);}
	.st79{fill:url(#SVGID_00000070106961895138657160000011133920220200101310_);}
	.st80{fill:url(#SVGID_00000178172131544866650690000002959923779603931009_);}
	.st81{fill:url(#SVGID_00000025426818741906541960000012357740454606357399_);}
	.st82{fill:url(#SVGID_00000106863407329414620280000002627598383715860156_);}
	.st83{fill:url(#SVGID_00000162319827099883391980000005834503742178951582_);}
	.st84{fill:url(#SVGID_00000160167994912458120600000012764411973974482596_);}
	.st85{fill:url(#SVGID_00000075123041261289884000000011060396096967255943_);}
	.st86{fill:#006838;}
	.st87{fill:url(#SVGID_00000155142925895008738180000001779797816721585342_);}
	.st88{fill:url(#SVGID_00000083060646025566195190000007371212715397060483_);}
	.st89{fill:url(#SVGID_00000067917274473352265160000012811445723953982393_);}
	.st90{fill:url(#SVGID_00000181057772833439513230000002264192135642861469_);}
	.st91{fill:url(#SVGID_00000177458670430436914420000004338631632727340222_);}
	.st92{fill:url(#SVGID_00000116919267942943860560000001651041934578069938_);}
	.st93{fill:url(#SVGID_00000007427765193601627070000017657000808072133276_);}
	.st94{fill:url(#SVGID_00000109021271250832478540000013152656486001260941_);}
	.st95{fill:url(#SVGID_00000070817922608327387660000011099778916237015465_);}
	.st96{fill:url(#SVGID_00000057834031504826952650000000680110375683489170_);}
	.st97{fill:url(#SVGID_00000129910941264644107780000002194588424673049509_);}
	.st98{fill:url(#SVGID_00000093161338697068333080000017881248447504419496_);}
	.st99{fill:url(#SVGID_00000039091315535947516870000016342888944876736418_);}
	.st100{fill:url(#SVGID_00000000944783925163292400000009238325496875897258_);}
	.st101{fill:url(#SVGID_00000011024072005921999280000013467055872272654747_);}
	.st102{fill:url(#SVGID_00000135687842808657987790000006211338443429009838_);}
	.st103{fill:url(#SVGID_00000044866073898545426060000000466509190688646784_);}
	.st104{fill:url(#SVGID_00000158023639020458953390000005913808219272158383_);}
	.st105{fill:url(#SVGID_00000012454778442612809440000009579966481613302937_);}
	.st106{fill:url(#SVGID_00000107563812869017631730000002322526403336271752_);}
	.st107{fill:url(#SVGID_00000078734771549057612060000015280508338966444929_);}
	.st108{fill:url(#SVGID_00000098189007802127270790000008881435049376164007_);}
	.st109{fill:url(#SVGID_00000091010586920235514020000008634600442338221458_);}
	.st110{fill:url(#SVGID_00000086676996133967713810000009905698547373184654_);}
	.st111{fill:url(#SVGID_00000165934841101872574610000012338259400876373695_);}
	.st112{fill:url(#SVGID_00000147926026448997941070000000891404959473657748_);}
	.st113{fill:url(#SVGID_00000050650755005591723450000008904860217976601478_);}
	.st114{fill:url(#SVGID_00000139994553498419491300000010272361006558523572_);}
	.st115{fill:url(#SVGID_00000054966052378887892140000005508873426181147540_);}
	.st116{fill:url(#SVGID_00000086678213372994013010000008367863924607004581_);}
	.st117{fill:url(#SVGID_00000170275849287906983000000006897306850944345007_);}
	.st118{fill:url(#SVGID_00000178911735787301519400000009133074777625981854_);}
	.st119{fill:url(#SVGID_00000096053799072301396560000004460312016439375021_);}
	.st120{fill:url(#SVGID_00000052106535673341805020000018063405460281510045_);}
	.st121{fill:url(#SVGID_00000063625561516775662750000013841092578140387243_);}
	.st122{fill:url(#SVGID_00000173852808457876334730000015011351258741587842_);}
	.st123{fill:url(#SVGID_00000023240108682436792580000004722176442463928471_);}
	.st124{fill:url(#SVGID_00000145769633762776934110000011451866662731682453_);}
	.st125{fill:url(#SVGID_00000057127681555719881520000014826598086405944756_);}
	.st126{fill:url(#SVGID_00000039842485404872621680000016055856970489132935_);}
	.st127{fill:url(#SVGID_00000155835678449002135920000006878346429064670604_);}
	.st128{fill:url(#SVGID_00000144326116491676654760000005017309040809315202_);}
	.st129{fill:url(#SVGID_00000154410692944102102860000013140944183854723729_);}
	.st130{fill:url(#SVGID_00000023970795527234426440000017125076244360606896_);}
	.st131{fill:url(#SVGID_00000017509840257311396590000015536037577810426542_);}
	.st132{fill:url(#SVGID_00000100355255361295284060000017533016362139138708_);}
	.st133{fill:url(#SVGID_00000122699807508763967390000018014763954863475128_);}
	.st134{fill:url(#SVGID_00000090979660626242890120000006654803324507427756_);}
	.st135{fill:url(#SVGID_00000150818401820426760290000015316543772526876339_);}
	.st136{fill:url(#SVGID_00000143593807542867588130000005639963064253433505_);}
	.st137{fill:url(#SVGID_00000165227058517403389430000015150022310612151937_);}
	.st138{fill:url(#SVGID_00000143597039447470359690000015862296113162547088_);}
	.st139{fill:url(#SVGID_00000021823747510008314800000009070674642051391632_);}
	.st140{fill:url(#SVGID_00000132050705974690390690000015708484004451689918_);}
	.st141{fill:url(#SVGID_00000157269691784854457440000007549230839257619119_);}
	.st142{fill:url(#SVGID_00000143602473558655486300000005437022037662941829_);}
	.st143{fill:url(#SVGID_00000015334509516077532050000013398642357066687677_);}
	.st144{fill:url(#SVGID_00000038384389243415194840000011548786343913215894_);}
	.st145{fill:url(#SVGID_00000101800235553332104580000011293480637338524294_);}
	.st146{fill:url(#SVGID_00000145766676868539807580000005009578039379143103_);}
	.st147{fill:url(#SVGID_00000034767941068675256790000012560904650247089855_);}
	.st148{fill:url(#SVGID_00000051378361419673346150000010630898289954465725_);}
	.st149{fill:url(#SVGID_00000127745006061025849920000010816381583105191102_);}
	.st150{fill:url(#SVGID_00000103261636882062366050000002069741019329040260_);}
	.st151{fill:url(#SVGID_00000036943421244007028900000008317430298494608549_);}
	.st152{fill:url(#SVGID_00000132805528619911184420000017884997079916052608_);}
	.st153{fill:url(#SVGID_00000018953810040446576920000011476930996614029960_);}
	.st154{fill:url(#SVGID_00000152233713785181504470000003928700550155510456_);}
	.st155{fill:url(#SVGID_00000117677492723190406400000014204040894301387167_);}
	.st156{fill:url(#SVGID_00000172424525684577263290000008903867269394516398_);}
	.st157{fill:url(#SVGID_00000088840391099719995840000009717807986926108309_);}
	.st158{fill:url(#SVGID_00000159462425420863251070000017428215359938079137_);}
	.st159{fill:url(#SVGID_00000029047826377412358650000004891418638135234189_);}
	.st160{fill:url(#SVGID_00000167369391825042647580000007626316458756401573_);}
	.st161{fill:url(#SVGID_00000114771906581825649180000015321488303045312150_);}
	.st162{fill:url(#SVGID_00000072981615819131164300000011838369045816190134_);}
	.st163{fill:url(#SVGID_00000173844899376104557440000008070216499085408418_);}
	.st164{fill:url(#SVGID_00000053545588116291035850000014803638292372034719_);}
	.st165{fill:url(#SVGID_00000121277103905743583100000008248741319311767711_);}
	.st166{fill:url(#SVGID_00000176751044447574861690000013284878568067687833_);}
	.st167{fill:url(#SVGID_00000160876914212882472530000008129781175553093041_);}
	.st168{fill:url(#SVGID_00000093172378148827116700000009135466778872279739_);}
	.st169{fill:url(#SVGID_00000072238611525500206600000002935970915351794315_);}
	.st170{fill:url(#SVGID_00000139983678118956018560000002895732471380287906_);}
	.st171{fill:url(#SVGID_00000132769018683529865330000004451071623529769372_);}
	.st172{fill:url(#SVGID_00000050626678080937619710000014511596216436494234_);}
	.st173{fill:url(#SVGID_00000173872276233807450220000009995011266319970707_);}
	.st174{fill:url(#SVGID_00000182503806655968356970000002864808378048678537_);}
	.st175{fill:url(#SVGID_00000143602152791115563650000011093555899034495923_);}
	.st176{fill:url(#SVGID_00000041258005759201410780000003889250000822150804_);}
	.st177{fill:url(#SVGID_00000052074199161910763770000002176139727874971062_);}
	.st178{fill:url(#SVGID_00000168811682586428502610000004230535740634951837_);}
	.st179{fill:url(#SVGID_00000161611114427600896880000014118250576793319051_);}
	.st180{fill:url(#SVGID_00000032633740010934531190000008677310748495599251_);}
	.st181{fill:url(#SVGID_00000072967515469108046940000006725779349435555505_);}
	.st182{fill:url(#SVGID_00000101799013534612415020000002483160989408109222_);}
	.st183{fill:url(#SVGID_00000078027356716896969100000004059674636243495827_);}
	.st184{fill:url(#SVGID_00000013895859294992617860000009141677872371186067_);}
	.st185{fill:url(#SVGID_00000115500402429529275270000011667726150046483605_);}
	.st186{fill:url(#SVGID_00000111170852050218946090000004003326190813232024_);}
	.st187{fill:url(#SVGID_00000126310201189651540530000014964364547456588181_);}
	.st188{fill:url(#SVGID_00000003099075109131340310000017262891395246811044_);}
	.st189{fill:url(#SVGID_00000130612456197900500420000017733447420136460939_);}
	.st190{fill:url(#SVGID_00000045608078561709688250000009622394102079921064_);}
	.st191{fill:url(#SVGID_00000043441423864554695670000015100118582913491607_);}
	.st192{fill:url(#SVGID_00000140712849566168129140000005552342783498159025_);}
	.st193{fill:url(#SVGID_00000173137191185705419610000002783416527901172629_);}
	.st194{fill:url(#SVGID_00000004523663263429799000000005857112870365181087_);}
	.st195{fill:url(#SVGID_00000096773099561153030810000012453834954094458790_);}
	.st196{fill:url(#SVGID_00000016791730017169713680000007035252086857150377_);}
	.st197{fill:url(#SVGID_00000042733744771686336040000013753576470555662010_);}
	.st198{fill:url(#SVGID_00000158750172588001700620000012976530457018091698_);}
	.st199{fill:url(#SVGID_00000011009799951456565240000002282257285001631679_);}
	.st200{fill:url(#SVGID_00000173851633434975442920000007594554235400943511_);}
	.st201{fill:url(#SVGID_00000156571179121317014940000008697139526841093798_);}
	.st202{fill:url(#SVGID_00000157281848498145578630000015694816218948244608_);}
	.st203{fill:url(#SVGID_00000005969061178967814110000011681586772076324790_);}
	.st204{fill:url(#SVGID_00000173153586571844236170000010298920885468791683_);}
	.st205{fill:url(#SVGID_00000098920325435802577800000008195897729023903106_);}
	.st206{fill:url(#SVGID_00000009559837537493025270000011206903573864875441_);}
	.st207{fill:url(#SVGID_00000160871788851965381430000013856736683139084685_);}
	.st208{fill:url(#SVGID_00000146492404512582004940000015834644151111603591_);}
	.st209{fill:url(#SVGID_00000129885290200062166410000007141801435850875288_);}
	.st210{fill:url(#SVGID_00000003088171124546524870000016662695998905770170_);}
	.st211{fill:url(#SVGID_00000159440942212016388810000001137368720975724179_);}
	.st212{fill:url(#SVGID_00000013151129842735755810000005751729457477174922_);}
	.st213{fill:url(#SVGID_00000000945526132619588440000006814717212825841817_);}
	.st214{fill:url(#SVGID_00000152258194095442800150000017579284176743491211_);}
	.st215{fill:url(#SVGID_00000093161658053874405170000005522821835415255452_);}
	.st216{fill:url(#SVGID_00000096768748040785634840000011291190781934020504_);}
	.st217{fill:url(#SVGID_00000167384645620709528590000000958855904907685762_);}
	.st218{fill:url(#SVGID_00000131329198171746003090000004896237566303033499_);}
	.st219{fill:url(#SVGID_00000181778600504287761130000001068320190373417393_);}
	.st220{fill:url(#SVGID_00000069357711270938061640000002622718366426763157_);}
	.st221{fill:url(#SVGID_00000121243681538338162970000004337213455728425393_);}
	.st222{fill:url(#SVGID_00000074430821625847968470000012059404565901126571_);}
	.st223{fill:url(#SVGID_00000084528814738014644390000015246585793967335813_);}
	.st224{fill:url(#SVGID_00000031200093727521251710000005241527246764006795_);}
	.st225{fill:url(#SVGID_00000156549335909890406910000009411303679899350422_);}
	.st226{fill:url(#SVGID_00000007427356161797662910000017995894991231360941_);}
	.st227{fill:url(#SVGID_00000121244387308054889580000008555001495058092179_);}
	.st228{fill:url(#SVGID_00000153667339891487449960000013630424976807060658_);}
	.st229{fill:url(#SVGID_00000032627770615834147140000013686932217464282005_);}
	.st230{fill:url(#SVGID_00000021812846329511147170000000047932616019176870_);}
	.st231{fill:url(#SVGID_00000072996547783668124200000015199224355285035140_);}
	.st232{fill:url(#SVGID_00000039133340994625574380000011831590673282723758_);}
	.st233{fill:url(#SVGID_00000122702849897877990050000013899137721247669681_);}
	.st234{fill:url(#SVGID_00000157267725675469313620000006179365015493109932_);}
	.st235{fill:url(#SVGID_00000003087238080300973610000014844326298134915205_);}
	.st236{fill:url(#SVGID_00000094596209451538904150000014742275118818605968_);}
	.st237{fill:url(#SVGID_00000006685143336716105510000001846526780661188015_);}
	.st238{fill:url(#SVGID_00000129901187164722974270000010613805118868565933_);}
	.st239{fill:url(#SVGID_00000139254232087950170470000010494084334452831673_);}
	.st240{fill:url(#SVGID_00000123401123258644259410000010556719564121522597_);}
	.st241{fill:url(#SVGID_00000008112403869442682620000007366264083883092638_);}
	.st242{fill:url(#SVGID_00000168805525456931266130000007277794190650924197_);}
	.st243{fill:url(#SVGID_00000013186600673631750480000015473704729668787885_);}
	.st244{fill:url(#SVGID_00000075137964165188023520000011083473761345688722_);}
	.st245{fill:url(#SVGID_00000155837299721713149130000006477840541980014989_);}
	.st246{fill:url(#SVGID_00000090268284216574588520000006199953550219755199_);}
	.st247{fill:url(#SVGID_00000000209464412942320570000003794553426532189600_);}
	.st248{fill:url(#SVGID_00000104702597562385294150000011672272240154998148_);}
	.st249{fill:url(#SVGID_00000013169754177376132990000007601733758230359457_);}
</style>
<g id="Layer_1">
</g>
<g id="Layer_2">
	<g>
		<g>
			<path class="st3" d="M154.6,293.5c-18.6,51.3-3.3,106.9,40,140.4c5.6,4.3,11.4,8.2,17.8,11.1c22.3,10.4,46.4,11.6,70.5,10
				c29.3-2,59.3-5.2,86-18.3c22.1-10.8,41.3-27.6,54.6-48.4c14.7-22.9,18-52.3,16.9-78.9c-0.4-9.9-1.6-19.7-3.6-29.4"/>
			<g>
				<path d="M152.2,292.9c-5.3,14.7-8.1,30.4-7.9,46.1c0.2,15.2,3.2,30.3,8.8,44.4c5.8,14.3,14.2,27.5,24.7,38.7
					c12.1,12.9,26.7,23.4,43.4,29.2c18,6.3,37.4,7.4,56.3,6.5c18.8-0.9,37.8-2.7,56.2-6.6c17.9-3.9,35.1-10.3,50.5-20.3
					c14.4-9.3,27-21.1,37-34.9c10.3-14.1,16.5-30.4,19.4-47.6c3-17.7,3.1-36.1,0.9-54c-0.6-5-1.4-10.1-2.4-15
					c-0.6-3.2-5.5-1.8-4.8,1.3c3.6,17.8,4.6,36.3,3,54.4c-1.4,16.7-5.4,33.5-13.7,48.1c-8.1,14.2-19.6,26.7-32.5,36.7
					c-13.7,10.6-29.3,18.3-45.9,23.1c-17.5,5.1-35.7,7.3-53.9,8.7c-18.3,1.4-36.8,2.2-54.9-1.6c-9-1.9-18-4.8-26.2-9.1
					c-7.6-4-14.6-9.2-20.9-14.9c-11.2-10-20.4-21.9-27.2-35.2c-6.6-12.9-10.7-27.1-12.2-41.4c-1.5-14.9-0.2-30,3.7-44.5
					c1-3.7,2.1-7.3,3.4-10.8c0.5-1.3-0.5-2.7-1.7-3.1C153.9,290.7,152.6,291.6,152.2,292.9L152.2,292.9z"/>
			</g>
		</g>
		<g>
			<g>
				<path class="st12" d="M160.8,275.7c-7.9,8.7-13.8,19.2-17,30.5c48.1-1.2,95-14.2,141.8-25.4c42.6-10.2,85.5-19,128.7-26.6
					c0.6-0.1,1.4-0.3,1.6-0.9c0.2-0.4,0-0.9-0.1-1.3c-5.6-15.8-11.2-31.7-20.1-46c-3.2-5.2-7-10.5-6.9-16.6
					c4.5,1.4,8.9,2.9,13.2,4.6c2.1-6.4,2.1-13.4,0-19.8c-17.5,10.6-37,17.4-56.4,24.1c-10.1,3.5-20.2,7-30.4,10.5
					c-17.3,6-34.6,11.9-51.9,17.8c-32.9,11.1-67.2,22.4-92.1,46.3c-3.2,3-6.4,6.9-5.7,11.3c0.2-3.1-1.5-6.3-4.2-7.9"/>
				<g>
					<path class="st12" d="M159,273.9c-8.2,9.1-14.3,19.9-17.6,31.6c-0.4,1.5,0.8,3.2,2.4,3.2c23.1-0.6,46.1-3.9,68.7-8.4
						c22.7-4.5,45.1-10.2,67.6-15.7c22.9-5.6,45.9-10.7,68.9-15.5c11.6-2.4,23.1-4.7,34.7-6.9c5.8-1.1,11.6-2.2,17.4-3.2
						c2.8-0.5,5.6-1,8.4-1.5c1.4-0.3,2.8-0.5,4.2-0.7c1.3-0.2,2.6-0.4,3.6-1.5c2-2.1,0.1-5.4-0.7-7.7c-0.9-2.7-1.9-5.3-2.9-8
						c-1.9-5.2-3.9-10.3-6.1-15.4c-2.2-5-4.6-9.9-7.2-14.7c-2.5-4.5-5.8-8.7-7.9-13.5c-0.9-2.1-1.5-4.3-1.5-6.5
						c-1.1,0.8-2.1,1.6-3.2,2.4c4.5,1.4,8.9,2.9,13.2,4.6c1.3,0.5,2.7-0.6,3.1-1.7c2.2-6.8,2.2-14.3,0-21.1
						c-0.5-1.5-2.2-2.4-3.7-1.5c-15.3,9.3-32.1,15.6-48.9,21.4c-17.9,6.2-35.8,12.4-53.8,18.5c-17.2,5.9-34.5,11.6-51.7,17.6
						c-15.4,5.3-30.6,11.1-45,18.8c-7,3.7-13.8,7.9-20.1,12.7c-3.3,2.5-6.4,5-9.4,7.8c-2.9,2.7-6,5.5-7.7,9.2
						c-0.9,1.9-1.3,3.9-1.1,6c0.2,1.3,1,2.5,2.5,2.5c1.4,0,2.5-1.1,2.5-2.5c0.1-4.1-2-7.9-5.5-10.1c-2.7-1.7-5.2,2.6-2.5,4.3
						c2,1.3,3.1,3.4,3,5.8c1.7,0,3.3,0,5,0c-0.5-3.8,2.3-6.8,4.8-9.3c2.8-2.7,5.8-5.3,8.9-7.8c6.1-4.8,12.7-9.1,19.5-12.8
						c13.9-7.7,28.7-13.5,43.6-18.7c16.7-5.9,33.6-11.4,50.4-17.2c17.8-6.1,35.6-12.2,53.3-18.4c16.7-5.8,33.5-11.7,49-20.3
						c1.9-1,3.8-2.1,5.6-3.2c-1.2-0.5-2.4-1-3.7-1.5c1.9,6.1,1.9,12.4,0,18.4c1-0.6,2.1-1.2,3.1-1.7c-4.4-1.7-8.8-3.2-13.2-4.6
						c-1.6-0.5-3.2,0.8-3.2,2.4c0,9,6.7,16.4,10.8,23.9c4.4,8.1,8,16.6,11.3,25.3c0.9,2.5,1.8,5,2.7,7.5c0.4,1.2,0.8,2.3,1.3,3.5
						c0.4,1.3,1.1,2.6,1.3,3.9c0-0.4,0-0.9,0-1.3c0.1-0.4,1-0.4,0.6-0.5c-0.1,0-0.4,0.1-0.5,0.1c-0.5,0.1-1.1,0.2-1.6,0.3
						c-1.1,0.2-2.3,0.4-3.4,0.6c-2.3,0.4-4.6,0.8-6.9,1.2c-4.5,0.8-9,1.6-13.5,2.5c-9,1.7-17.9,3.4-26.9,5.2
						c-17.8,3.6-35.5,7.3-53.2,11.3c-17.6,4-35.1,8.3-52.6,12.6c-17.4,4.2-34.8,8.3-52.4,11.5c-17.5,3.2-35.1,5.6-52.8,6.4
						c-2.2,0.1-4.4,0.2-6.6,0.2c0.8,1.1,1.6,2.1,2.4,3.2c3.1-10.9,8.7-21,16.4-29.4C164.7,275.1,161.2,271.5,159,273.9L159,273.9z"
						/>
				</g>
			</g>
			<g>
				<g>
					<path class="st12" d="M140,308.3c60.7,5.4,122.1,2.6,183.1-1.9c41.3-3.1,82.7-7,123-16.7c10.6-2.6,21.3-5.6,31-10.6
						c2.9-1.5,6.2-4.8,4.3-7.5c-0.8-1.2-2.3-1.6-3.7-1.9c-18.9-4.9-37.7-9.8-56.6-14.6"/>
					<g>
						<path d="M140,310.8c27.9,2.5,56,3.2,84,2.9c28.1-0.3,56.2-1.8,84.2-3.7c27.5-1.9,55-4,82.3-7.7c13.6-1.8,27.2-4,40.6-6.8
							c13-2.7,26.2-5.5,38.5-10.4c3.1-1.2,6.2-2.5,9.1-4.1c2.2-1.3,4.5-3.2,5.3-5.7c0.9-2.6-0.1-5.3-2.4-6.8c-2.5-1.6-6-2-8.9-2.7
							c-13.6-3.5-27.2-7-40.8-10.5c-3.4-0.9-6.8-1.8-10.2-2.6c-3.1-0.8-4.4,4-1.3,4.8c13.2,3.4,26.3,6.8,39.5,10.2
							c3.3,0.9,6.6,1.7,9.9,2.6c1.6,0.4,3.3,0.9,4.9,1.3c1.3,0.3,2.8,0.5,4,1.1c0.9,0.4,0.9,0.7,0.4,1.5c-0.5,1-1.5,1.7-2.5,2.3
							c-2.6,1.6-5.5,2.7-8.3,3.9c-11.9,4.7-24.7,7.5-37.2,10.1c-13,2.7-26.1,4.9-39.3,6.7c-26.4,3.6-53,5.7-79.6,7.6
							c-27,1.9-54.1,3.4-81.1,3.9c-27,0.5-54.1,0-81-2c-3.4-0.2-6.7-0.5-10.1-0.8C136.8,305.5,136.8,310.5,140,310.8L140,310.8z"/>
					</g>
				</g>
				<g>
					<path class="st12" d="M164,285.1c2.5-20.8,5.7-43.9,16.7-62.1c6.1-10.1,14.4-18.5,22.7-26.8c17.3-17.4,35.1-35,57.1-45.8
						c26.3-12.8,56.5-14.8,85.7-15.4c36.2-0.7,72.4,0.4,108.5,3.2c1.9,0.1,3.8,0.3,5.5,1.1c3,1.4,4.9,4.5,6.8,7.2
						c8,11.8,19.9,21,33.4,25.7c-1.8-0.6-6.5,0.9-8.5,1.1c-3,0.3-6.1,0.5-9.2,0.5c-6.1,0.1-12.3-0.3-18.3-1.1
						c-11.9-1.6-22.5-5.4-33.4-10"/>
					<g>
						<path d="M166.5,285.1c1.6-13,3.4-26.1,7-38.8c1.8-6.2,4.1-12.2,7-17.9c3.1-6,7.1-11.4,11.5-16.5c4.6-5.3,9.5-10.2,14.4-15.1
							c4.8-4.8,9.5-9.5,14.4-14.2c9.8-9.2,20.2-18,31.8-25c24-14.4,51.8-18.4,79.3-19.6c30.4-1.3,61-0.8,91.4,0.8
							c7.7,0.4,15.4,0.9,23.1,1.4c3.6,0.3,7.5,0.2,11.1,1c3,0.6,4.8,2.9,6.4,5.3c7.1,10.4,16.1,19,27.4,24.7
							c2.7,1.4,5.6,2.6,8.5,3.6c0.4-1.6,0.9-3.2,1.3-4.8c-2.1-0.6-4.3,0-6.4,0.4c-2.5,0.5-4.7,0.8-7.3,0.9c-6.7,0.4-13.3,0.2-20-0.6
							c-12.4-1.4-24.2-5.5-35.7-10.2c-1.3-0.5-2.7,0.6-3.1,1.7c-0.4,1.4,0.5,2.6,1.7,3.1c11.5,4.8,23.3,8.7,35.7,10.3
							c6.5,0.8,13.1,1.1,19.6,0.8c2.8-0.1,5.7-0.2,8.4-0.8c1.7-0.3,4.1-1.3,5.6-0.8c3.1,0.9,4.3-3.8,1.3-4.8
							c-11.8-4.2-22.5-11.9-30.1-21.9c-1.9-2.5-3.5-5.3-5.5-7.6c-2.2-2.5-4.9-3.8-8.2-4.3c-7.7-1.1-15.6-1.2-23.3-1.7
							c-31.3-1.9-62.7-2.5-94-1.6c-28,0.8-56.9,3.5-82.3,16.3c-12.3,6.2-23.4,14.7-33.7,23.8c-10.4,9.2-20.3,19.1-29.9,29.2
							c-4.8,5.1-9.4,10.3-13.3,16.1c-3.8,5.7-6.8,11.8-9.3,18.2c-4.7,12.5-7,25.8-8.8,39c-0.4,3.2-0.8,6.5-1.2,9.7
							c-0.2,1.4,1.3,2.5,2.5,2.5C165.5,287.6,166.3,286.4,166.5,285.1L166.5,285.1z"/>
					</g>
				</g>
				<g>
					<path class="st12" d="M423.7,265.9c-2.2-5-4.2-10.1-6-15.2c-1.6-4.7-2.7-9.8-4.1-14.7c-3.1-10.4-6.1-20.8-9.2-31.3
						c-0.6-2.1-1.3-4.3-2.6-6c-1.2-1.6-3-2.7-4.7-3.8c-3.7-2.3-7.4-4.6-11.2-6.8"/>
					<g>
						<path d="M425.8,264.6c-2.4-5.4-4.6-11-6.4-16.7c-1.7-5.8-3.2-11.6-4.9-17.4c-1.7-5.8-3.4-11.7-5.1-17.5c-0.9-3-1.8-6-2.6-9
							c-0.8-2.7-1.7-5.3-3.5-7.4c-1.9-2.2-4.7-3.7-7.2-5.3c-3-1.8-5.9-3.6-8.9-5.4c-2.8-1.6-5.3,2.7-2.5,4.3
							c2.6,1.5,5.2,3.1,7.7,4.6c2.2,1.4,4.7,2.6,6.6,4.4c1.7,1.6,2.4,3.9,3,6.1c0.9,2.9,1.7,5.8,2.6,8.8c1.7,5.8,3.4,11.5,5.1,17.3
							c1.7,5.6,3.1,11.3,4.7,16.9c1.9,6.4,4.5,12.6,7.1,18.8c0.5,1.2,2.4,1.5,3.4,0.9C426.2,267.3,426.4,265.9,425.8,264.6
							L425.8,264.6z"/>
					</g>
				</g>
				<g>
					<path class="st12" d="M402.5,197.4c4.8-5.3,8.7-11.3,11.7-17.7c0.4-0.9,0.8-1.9,0.8-2.9c0-1.2-0.5-2.3-1-3.3
						c-2.3-4.4-5.8-8.1-10-10.8"/>
					<g>
						<path d="M404.3,199.2c2.7-3,5.1-6.1,7.3-9.5c2.1-3.3,4.3-6.9,5.6-10.6c1.4-4-1.2-7.9-3.6-11c-2.3-3-5.1-5.6-8.3-7.6
							c-2.7-1.7-5.2,2.6-2.5,4.3c2.6,1.6,4.9,3.7,6.7,6.1c0.9,1.2,1.7,2.5,2.4,3.8c0.8,1.5,0.7,2.5,0,4.1
							c-2.8,6.1-6.6,11.8-11.1,16.8C398.6,198,402.1,201.6,404.3,199.2L404.3,199.2z"/>
					</g>
				</g>
				<g>
					<path class="st12" d="M413.7,178.7c1.2-5,5.3-9,10.1-10.9c4.8-1.9,10.2-2,15.3-1.3c-0.2-0.7-0.8-1.4-1.5-1.7"/>
					<g>
						<path d="M416.1,179.4c2.4-9.7,13.9-11.6,22.3-10.5c1.7,0.2,3.8-1.1,3.1-3.1c-0.5-1.4-1.3-2.5-2.6-3.1
							c-1.2-0.6-2.7-0.4-3.4,0.9c-0.6,1.1-0.3,2.9,0.9,3.4c-0.3-0.2,0.3,0.1,0.4,0.2c1-1,2.1-2.1,3.1-3.1c-6.2-0.8-12.6-0.7-18.4,2
							c-4.8,2.3-8.8,6.7-10.1,11.9C410.5,181.1,415.3,182.5,416.1,179.4L416.1,179.4z"/>
					</g>
				</g>
				<g>
					<path class="st12" d="M141.5,308.4c-10.8-1.8-21.6-4.1-31.7-8.4c-3-1.3-6.5-4.4-4.8-7.2c0.7-1.2,2.2-1.7,3.5-2.2
						c18.5-6.1,37-12.3,55.5-18.4"/>
					<g>
						<path d="M142.1,305.9c-6.6-1.1-13.1-2.4-19.5-4.2c-3.2-0.9-6.4-2-9.6-3.2c-1.9-0.7-5.3-1.8-6-4.1c-0.1-0.2-0.1-0.3,0.1-0.5
							c0.1-0.2,0.4-0.4,0.7-0.5c1.3-0.7,2.9-1,4.2-1.5c3.3-1.1,6.6-2.2,10-3.3c6.6-2.2,13.3-4.4,19.9-6.6c7.6-2.5,15.2-5,22.8-7.6
							c3-1,1.7-5.8-1.3-4.8c-14.7,4.9-29.4,9.8-44.1,14.7c-3.6,1.2-7.3,2.4-10.9,3.6c-3,1-6.3,2.6-6.3,6.3c0,3.2,2.6,5.7,5.2,7.1
							c3,1.7,6.5,2.8,9.8,3.9c7.7,2.5,15.8,4.1,23.8,5.5c1.3,0.2,2.7-0.4,3.1-1.7C144.2,307.8,143.5,306.2,142.1,305.9L142.1,305.9z
							"/>
					</g>
				</g>
			</g>
		</g>
	</g>
	<g>
		<circle class="st3" cx="56.1" cy="448.6" r="39.8"/>
		<g>
			<path d="M93.5,448.6c-0.1,15.4-9.8,29.8-24.4,35c-14.9,5.4-31.7,0.8-41.8-11.4c-9.9-12-11.1-29.6-3-42.9
				c8-13.3,24-20.4,39.2-17.3c15.3,3.1,27.2,15.5,29.7,30.9C93.4,444.7,93.5,446.7,93.5,448.6c0,3.2,5,3.2,5,0
				c-0.1-17.7-11.3-33.7-27.9-39.8c-16.5-6-35.8-0.8-47,12.8c-11.3,13.7-12.9,33.6-3.7,48.9c9.2,15.3,27.4,23.1,44.8,19.6
				c16.9-3.4,30.6-17.6,33.2-34.7c0.3-2.2,0.5-4.5,0.5-6.7C98.5,445.4,93.5,445.4,93.5,448.6z"/>
		</g>
	</g>
	<g>
		<g>
			
				<rect x="484.6" y="445.6" transform="matrix(0.1302 -0.9915 0.9915 0.1302 29.4393 938.6423)" class="st6" width="130.2" height="13.8"/>
			<g>
				<path d="M548.1,515.5c-4.6-0.6-9.1-1.2-13.7-1.8c0.8,0.8,1.7,1.7,2.5,2.5c0.6-4.3,1.1-8.6,1.7-12.9c1.3-10.3,2.7-20.5,4-30.8
					c1.6-12.4,3.3-24.8,4.9-37.3c1.4-10.7,2.8-21.5,4.2-32.2c0.5-3.6,0.9-7.1,1.4-10.7c0.2-1.7,0.6-3.4,0.7-5c0-0.1,0-0.2,0-0.2
					c-0.8,0.8-1.7,1.7-2.5,2.5c4.6,0.6,9.1,1.2,13.7,1.8c-0.8-0.8-1.7-1.7-2.5-2.5c-0.6,4.3-1.1,8.6-1.7,12.9
					c-1.3,10.3-2.7,20.5-4,30.8c-1.6,12.4-3.3,24.8-4.9,37.3c-1.4,10.7-2.8,21.5-4.2,32.2c-0.5,3.6-0.9,7.1-1.4,10.7
					c-0.2,1.7-0.6,3.4-0.7,5c0,0.1,0,0.2,0,0.2c-0.2,1.3,1.3,2.5,2.5,2.5c1.5,0,2.3-1.2,2.5-2.5c0.6-4.3,1.1-8.6,1.7-12.9
					c1.3-10.3,2.7-20.5,4-30.8c1.6-12.4,3.3-24.8,4.9-37.3c1.4-10.7,2.8-21.5,4.2-32.2c0.5-3.6,0.9-7.1,1.4-10.7
					c0.2-1.7,0.6-3.4,0.7-5c0-0.1,0-0.2,0-0.2c0.2-1.5-1.3-2.3-2.5-2.5c-4.6-0.6-9.1-1.2-13.7-1.8c-1.5-0.2-2.3,1.3-2.5,2.5
					c-0.6,4.3-1.1,8.6-1.7,12.9c-1.3,10.3-2.7,20.5-4,30.8c-1.6,12.4-3.3,24.8-4.9,37.3c-1.4,10.7-2.8,21.5-4.2,32.2
					c-0.5,3.6-0.9,7.1-1.4,10.7c-0.2,1.7-0.6,3.4-0.7,5c0,0.1,0,0.2,0,0.2c-0.2,1.5,1.3,2.3,2.5,2.5c4.6,0.6,9.1,1.2,13.7,1.8
					c1.3,0.2,2.5-1.3,2.5-2.5C550.6,516.5,549.4,515.7,548.1,515.5z"/>
			</g>
		</g>
		<g>
			
				<radialGradient id="SVGID_1_" cx="542.1345" cy="359.1877" r="33.7021" gradientTransform="matrix(0.9915 0.1302 -0.1302 0.9915 71.237 -67.5958)" gradientUnits="userSpaceOnUse">
				<stop  offset="0" style="stop-color:#FFFFFF"/>
				<stop  offset="9.995031e-02" style="stop-color:#CCE8F6"/>
				<stop  offset="0.221" style="stop-color:#98D3EE"/>
				<stop  offset="0.3454" style="stop-color:#66C4E9"/>
				<stop  offset="0.4708" style="stop-color:#25B9E5"/>
				<stop  offset="0.5977" style="stop-color:#00B1E2"/>
				<stop  offset="0.7267" style="stop-color:#00ACE0"/>
				<stop  offset="0.8591" style="stop-color:#00A9DE"/>
				<stop  offset="1" style="stop-color:#00A8DE"/>
			</radialGradient>
			<circle class="st13" cx="562" cy="359.1" r="33.7"/>
			<g>
				<path class="st14" d="M593,362.9c-1.8,13-11.2,23.7-24.1,26.7c-12.7,2.9-26.3-2.7-33.3-13.7c-7-11-6.3-25.8,1.8-36
					c8.2-10.3,22.2-14.4,34.7-10.2c12.2,4.1,20.8,16,21,28.8c0,1.7-0.1,3.4-0.3,5.1c-0.2,1.3,1.3,2.5,2.5,2.5c1.5,0,2.3-1.2,2.5-2.5
					c1.9-14.7-5.9-29.6-19.1-36.5c-13.5-7-30.3-4.7-41.5,5.6c-11.2,10.4-14.5,27.1-8.5,41c5.9,13.7,20.4,22.6,35.4,21.6
					c14.9-1,28.1-11.3,32.4-25.6c0.5-1.8,0.9-3.6,1.2-5.5c0.2-1.3-0.3-2.7-1.7-3.1C594.9,360.8,593.2,361.5,593,362.9z"/>
			</g>
		</g>
		<g>
			<g>
				<path d="M550.1,386c-4.1-3-8.4-6.5-9.5-11.7c-1.2-5.7,1.9-11.6,4.6-16.4c2.7-4.8,5.8-9.6,10.3-13c3.9-3,9.2-5,14.2-4.2
					c5.3,0.9,9.7,5.1,12.9,9.3c1.6,2,2.8,4.4,2.4,7.1c-0.4,2.7-2.1,5.1-3.7,7.3c-3.1,4.1-7,8.9-12.3,10.2c-2.2,0.5-4.6,0.4-6.5-0.7
					c-2.1-1.3-3.2-3.6-3.8-5.9c-1.2-4.7-0.7-12.5,5.5-13.2c2.2-0.3,4.2,1.3,4.8,3.4c0.5,2.1-0.9,4.4-2.9,5c-3,1-1.7,5.8,1.3,4.8
					c3.1-1,5.7-3.6,6.5-6.9c0.7-3.3-0.4-6.8-3-9c-5.8-5.1-14-1.1-16.6,5.3c-1.4,3.4-1.3,7.2-0.6,10.8c0.7,3.2,2.1,6.5,4.7,8.7
					c5.4,4.7,13.4,3.3,18.8-0.7c2.9-2.2,5.2-4.9,7.4-7.7c2.2-2.8,4.5-5.9,5.3-9.5c1.7-7.4-3.9-13.8-9.2-18.2
					c-2.8-2.3-5.9-4.1-9.5-4.7c-3.3-0.6-6.7-0.4-9.9,0.6c-6.9,2-12.2,6.9-16.3,12.6c-2.3,3.2-4.3,6.6-6,10.2
					c-1.8,3.8-3.4,8-3.5,12.3c-0.2,8.5,5.9,14.2,12.2,18.8c1.1,0.8,2.8,0.2,3.4-0.9C551.7,388.2,551.1,386.8,550.1,386L550.1,386z"
					/>
			</g>
		</g>
	</g>
	<g>
		<circle class="st3" cx="549.1" cy="447.6" r="39.8"/>
		<g>
			<path d="M586.5,447.6c-0.1,15.4-9.8,29.8-24.4,35c-14.9,5.4-31.7,0.8-41.8-11.4c-9.9-12-11.1-29.6-3-42.9
				c8-13.3,24-20.4,39.2-17.3c15.3,3.1,27.2,15.5,29.7,30.9C586.4,443.7,586.5,445.7,586.5,447.6c0,3.2,5,3.2,5,0
				c-0.1-17.7-11.3-33.7-27.9-39.8c-16.5-6-35.8-0.8-47,12.8c-11.3,13.7-12.9,33.6-3.7,48.9c9.2,15.3,27.4,23.1,44.8,19.6
				c16.9-3.4,30.6-17.6,33.2-34.7c0.3-2.2,0.5-4.5,0.5-6.7C591.5,444.4,586.5,444.4,586.5,447.6z"/>
		</g>
	</g>
	<g>
		<g>
			<path class="st15" d="M149,284.9c0,0,0-1.2,0-1.2C149,283.7,149,284.9,149,284.9L149,284.9z"/>
		</g>
	</g>
	<g>
		<g>
			<path class="st15" d="M166.9,285.8c17.1,2.6,34.3,4.2,51.6,4.6c17.4,0.4,34.8-0.3,52.1-0.8c17.1-0.5,34.2-1.2,51.3-2.3
				c17-1.1,34.1-2.6,51-5c8.4-1.2,16.9-2.5,25.2-4.1c7.5-1.4,15.1-3,22.1-6.3c1.7-0.8,3.4-1.7,5-2.8c0.2-0.1-0.2-1.1,0-1.2
				c-6.4,4.2-13.8,6.3-21.2,7.9c-8.1,1.8-16.4,3.1-24.6,4.4c-16.9,2.5-33.9,4.2-50.9,5.4c-17.1,1.2-34.2,1.9-51.3,2.5
				c-17.3,0.6-34.7,1.3-52,1.2c-17.3-0.2-34.6-1.4-51.7-3.8c-2.2-0.3-4.4-0.6-6.5-0.9C166.9,284.6,166.8,285.8,166.9,285.8
				L166.9,285.8z"/>
		</g>
	</g>
	<g>
		<g>
			<path class="st15" d="M167.9,277c16.7,2.9,33.6,4.6,50.6,5.1c17.1,0.5,34.2-0.4,51.2-1c16.7-0.6,33.4-1.3,50.1-2.6
				c16.6-1.2,33.3-3,49.8-5.6c8.3-1.3,16.5-2.9,24.7-4.7c7.1-1.6,14.3-3.4,20.7-6.9c1.6-0.9,3.2-1.9,4.7-3c0.2-0.2-0.2-1.1,0-1.2
				c-6,4.4-13,6.9-20.1,8.7c-7.8,2-15.8,3.5-23.7,4.9c-16.5,2.9-33.2,4.8-49.9,6.2c-16.7,1.4-33.4,2.2-50.1,2.8
				c-16.9,0.6-33.9,1.5-50.9,1.3c-17-0.2-33.9-1.6-50.6-4.2c-2.1-0.3-4.2-0.7-6.4-1.1C168,275.8,167.8,277,167.9,277L167.9,277z"/>
		</g>
	</g>
	<g>
		<g>
			<path class="st15" d="M169.1,283c1.7-1.5,4.4-0.8,5.2,1.2c0-0.4,0-0.8,0-1.2c-0.6,0.1-0.6-0.2-0.9-0.5c0,0.5,0,0.6,0,0.2
				c0-0.1,0.1-0.3,0.2-0.4c0.1-0.2,0.3-0.4,0.5-0.4c1.5-0.6,2.7,1.5,3.3,2.6c0-0.4,0-0.8,0-1.2c-1,0-2-0.9-2.1-2
				c0,0.4,0.1-0.3,0.2-0.4c0.1-0.2,0.2-0.4,0.4-0.6c0.5-0.5,1.1-0.8,1.7-1c3.2-0.7,5.4,2.1,7.1,4.4c0-0.4,0-0.8,0-1.2
				c-1,0.6-2.2-0.2-2.4-1.3c0,0.4,0,0.8,0,1.2c0.1-1.1,2-0.8,2.7-0.5c1,0.5,1.7,1.4,1.8,2.5c0-0.4,0-0.8,0-1.2c0,0.5,0,1.1-0.5,0.8
				c-0.3-0.2-0.4-0.6-0.5-1c0,0.4,0,0.8,0,1.2c0.1-1.4,1.5-2.7,2.9-2.2c1.8,0.6,2.6,2.7,3.2,4.4c0-0.4,0-0.8,0-1.2
				c-1,1.1-2.4-0.2-2.6-1.3c0,0.3,0,0.5,0,0.8c0-0.1,0-0.2,0-0.3c0,0.2,0,0.3,0,0.5c0.4-1.8,2.4-2.4,4-2.6c1.9-0.3,4-0.2,5.7,0.9
				c1.2,0.8,2.5,2.4,2,3.9c-0.2,0.6-0.8,1.7-1.5,1.2c-0.6-0.4-0.8-1.1-0.8-1.8c0,0.3,0,0.6,0,0.9c0-0.1,0-0.2,0-0.3
				c0,0.1,0,0.2,0,0.3c0.3-3,4.2-2.3,4.2,0.4c0-0.4,0-0.8,0-1.2c0,0.1-0.1,0.8-0.3,0.8c-0.1,0-0.3-0.6-0.3-0.6
				c-0.2-0.6-0.2-0.6,0-1.1c0.3-1,1-1.9,2-2.3c2.3-1,4.6,1.1,4.8,3.4c0-0.1,0-0.2,0-0.3c0,0.1,0,0.2,0,0.3c0-0.3,0-0.6,0-0.9
				c0,0.2,0,0.4-0.1,0.6c0,0.3-0.1,0.4-0.2,0.2c-0.1-0.1-0.3-0.7-0.3-0.8c0-0.6,0.4-1.3,0.7-1.8c0.9-1.2,2.3-1.7,3.8-1.4
				c0.6,0.1,1.3,0.4,1.8,0.8c0.2,0.1,0.3,0.3,0.5,0.5c0.1-0.1,0.3-0.1,0.4-0.2c0.4,0,0.7-0.2,1.1-0.2c1.3,0,2.7,0.6,3.5,1.6
				c0.8,1.1,0.8,2.3,0,3.4c-0.2,0.3-0.4,0.5-0.6,0.7c-0.5,0.4-0.4,0.4-0.7,0c-0.4-0.5-0.2-1,0-1.6c1.3-2.9,5.5-2.1,6.1,0.9
				c-0.1-0.4,0-0.8,0-1.2c0-0.1,0-0.2,0-0.3c0,0.4,0,0.7,0,1.1c0-2.1,1.9-4.1,4-4.1c2.2,0,4,2,4.1,4.1c0-0.4,0-0.8,0-1.2
				c-1.1,0.5-2-0.4-2.2-1.4c0,0.3,0,0.6,0,0.9c0-0.1,0-0.2,0-0.3c0,0.1,0,0.2,0,0.3c0.5-2.3,3.4-3,5.4-2.8c2.2,0.2,4.2,1.4,5.4,3.3
				c0-0.4,0-0.8,0-1.2c-0.8,2.1-4.2,0.7-4.2-1.2c0,0.4,0,0.7,0,1.1c0.5-3.7,7-3.7,7.5,0c0-0.4,0-0.8,0-1.2c-0.1,1.1-1.1,2-2.2,1.4
				c0,0.4,0,0.8,0,1.2c1.7-3.4,7.4-3,8.6,0.6c0-0.4,0-0.8,0-1.2c-1.2,1.3-3-0.1-3.2-1.5c0,0.4,0,0.8,0,1.2c0.1-1.9,2.4-2.5,3.9-2.1
				c2,0.5,3.2,2.5,4.2,4.2c0-0.4,0-0.8,0-1.2c-0.8,0.3-1.7,0.6-2.5,0.9c-0.2,0.1-1,0.5-1.2,0.4c-0.2-0.1-0.2-0.7-0.3-0.9
				c0,0.4,0,0.7,0,1.1c0-3.1,3.7-3.6,5.9-2.8c2.1,0.7,5.6,2.2,6,4.7c0-0.4,0-0.8,0-1.2c0,0.8-0.5,1.7-1.3,2c-0.4,0.2-0.6,0-1,0.1
				c-0.2-0.2-0.3-0.1-0.4,0.2c0-0.2,0.1-0.3,0.1-0.5c0.3-1.3,1.2-2.4,2.3-3.1c2.3-1.6,5.5-1.8,7.5,0.3c0-0.4,0-0.8,0-1.2
				c-0.7-0.3-0.9-0.7-1-1.4c0,0.3,0,0.6,0,0.9c0-0.1,0-0.2,0-0.2c0,0.1,0,0.2,0,0.3c0.1-1.1,0.8-2.2,2-2.4c1.8-0.4,3.5,0.7,4.9,1.6
				c0-0.4,0-0.8,0-1.2c-1.4,0.8-3.1-0.2-3.3-1.8c0,0.4,0,0.8,0,1.2c0-1.3,2.3-1.5,3.3-1.4c1.3,0.1,2.4,0.7,3.3,1.7
				c0-0.4,0-0.8,0-1.2c-0.8,1.2-2.6,1.2-3.5,0.1c0,0.4,0,0.8,0,1.2c0.9-0.9,2-1.9,3.3-2c1.1-0.1,2.2,0.5,2.3,1.7c0-0.4,0-0.8,0-1.2
				c-0.1,1-1.2,1.9-2.1,1.1c0,0.4,0,0.8,0,1.2c1.4-2.1,5.1-0.6,5.2,1.8c0-0.4,0-0.8,0-1.2c-0.2,2-3,0.8-3.5-0.5c0,0.4,0,0.8,0,1.2
				c0.6-1.1,1.6-1.8,2.9-2.1c0.6-0.1,1.2-0.2,1.7,0c0.3,0.1,0.6,0.2,0.9,0.3c0.5,0.1,0.2,0.1,0.7-0.2c1.6-1.3,4.3-0.4,4.9,1.6
				c0-0.4,0-0.8,0-1.2c-0.7-0.1-1.1-0.6-1.1-1.3c0,0.4,0,0.7,0,1.1c0.3-2,3.3-2.2,4.9-2.3c2.3-0.1,4.5,0.4,6.5,1.5
				c0-0.4,0-0.8,0-1.2c-0.5,1.3-1.7,2-3,1.6c0,0.4,0,0.8,0,1.2c1-3.3,6-4.2,8-1.4c0-0.4,0-0.8,0-1.2c-0.5,1.2-2,1.6-3,0.7
				c0,0.4,0,0.8,0,1.2c2.9-2.3,7.4-1.4,9.3,1.7c0-0.4,0-0.8,0-1.2c-1,0.6-2.1,0.8-3.2,0.5c0,0.4,0,0.8,0,1.2
				c1.5-2.6,5.4-2.8,7.2-0.4c0-0.4,0-0.8,0-1.2c-1,0.1-1.5-0.7-1.6-1.6c0,0.4,0,0.8,0,1.2c0-2,2.8-2.8,4.4-3.1
				c1-0.2,1.9-0.2,2.9-0.1c0.6,0.1,1.1,0.2,1.6,0.3c0.4,0.1,1,0.5,1.4,0.5c0.4,0,0.4-0.3,0.7-0.6c0.3-0.3,0.6-0.5,0.9-0.7
				c0.6-0.3,1.2-0.5,1.9-0.6c1.5-0.1,2.9,0.4,3.8,1.6c0-0.4,0-0.8,0-1.2c-1,0.6-2.1-0.3-2.2-1.4c0,0.4,0,0.8,0,1.2
				c0.2-1,1.1-1.6,2.2-1.4c1.2,0.2,1.9,1.3,1.9,2.5c0-0.4,0-0.7,0-1.1c0,0.3-0.1,0.6-0.2,1c0,0.4,0,0.8,0,1.2
				c0.2-3.3,4.3-5.3,7.1-3.7c0-0.4,0-0.8,0-1.2c-0.4,1-1.3,1.6-2.4,1.6c0,0.4,0,0.8,0,1.2c2.7-2.3,7-1.9,9.2,0.9c0-0.4,0-0.8,0-1.2
				c-0.9,1.5-3.1,0.5-3.3-1c0,0.4,0,0.8,0,1.2c0-1.7,1.6-2.7,3.2-2.8c1,0,2,0.3,2.9,0.7c0.4,0.2,0.8,0.5,1.2,0.6
				c0.6,0.2,0.4,0.1,0.9-0.3c2.2-1.6,5.5-1.1,7,1.1c0-0.4,0-0.8,0-1.2c-1,0.6-2.1,0.5-2.9-0.2c0,0.4,0,0.8,0,1.2
				c1.9-3.5,7-4.2,9.8-1.4c0-0.4,0-0.8,0-1.2c-0.8,1.5-2.5,2-4,1.3c0,0.4,0,0.8,0,1.2c1.4-1.4,3.4-2.1,5.4-2c1,0,1.9,0.3,2.8,0.7
				c0.3,0.2,1,0.7,1.2,0.6c0.1-0.1,0.2-0.8,0.3-1c1.3-2.5,5.6-2.8,6.9-0.2c0-0.4,0-0.8,0-1.2c-1-0.2-1.7-0.8-2.2-1.7
				c0,0.4,0,0.8,0,1.2c0.6-1.8,2.5-2.7,4.3-2.6c0.9,0,1.8,0.3,2.5,0.8c0.4,0.3,0.7,0.7,1,1.1c0.1,0.2,0.1,0.4,0.3,0.3
				c0.1,0,0.3-0.6,0.3-0.7c2-3.2,7.8-2.8,9.1,0.8c0-0.4,0-0.8,0-1.2c-1.2,1.1-3-0.1-3.2-1.5c0,0.4,0,0.8,0,1.2
				c0-1.5,1.5-2.5,2.9-2.7c1.8-0.2,3.6,0.9,5,1.9c0-0.4,0-0.8,0-1.2c-0.7,1.2-2.1,0-2.3-0.9c0,0.2,0,0.4,0,0.6c0-0.1,0-0.2,0-0.2
				c0,0.2,0,0.4,0,0.6c0.4-1.9,2.9-2.2,4.5-2.5c1.9-0.3,4.1,0.2,4.2,2.5c0-0.4,0-0.8,0-1.2c0,0.4-0.7,1.9-0.8,1
				c-0.1-0.7,0.9-1.6,1.4-1.9c1.6-0.9,3.5,0,4.2,1.6c0-0.4,0-0.8,0-1.2c-0.4-0.6-0.6-1.1-0.3-1.8c0.3-0.8,0.8-1.4,1.5-1.8
				c1.4-0.8,3.2-0.4,4.3,0.8c0-0.4,0-0.8,0-1.2c-0.7,1.6-3.4,1.4-3.5-0.4c0,0.4,0,0.8,0,1.2c0.2-1.3,1.5-2.2,2.7-1.6
				c-0.2-0.1,0.2-1.1,0-1.2c-0.8-0.6-1.5-1.2-2.3-1.8c0,0.4,0,0.8,0,1.2c0.2-1.2,1.7-0.6,1.8,0.5c0-0.4,0-0.8,0-1.2
				c-0.6,3.5-5.8,3.1-7.7,0.9c0,0.4,0,0.8,0,1.2c1.2-0.8,2.9-0.1,3.2,1.4c0-0.4,0-0.8,0-1.2c-2,0.9-4.2,1.5-6.4,1.5
				c-0.3,0-0.6,0-0.9,0c-0.3-0.1-0.5-0.1-0.6,0.2c-0.3,0.3-0.4,0.7-0.7,0.9c-0.5,0.5-1.1,1-1.7,1.3c-2.6,1.4-6.1,1-8.1-1.2
				c0,0.4,0,0.8,0,1.2c1-0.3,1.7,0.3,2.1,1.1c0.4,0.8-0.6,1.6-1.4,2c-2.3,1.2-5.1,0.2-7.5,1c0,0.4,0,0.8,0,1.2
				c0.7-0.8,1.6,0.3,1.6,1c0-0.4,0-0.8,0-1.2c-0.2,1.2-1.6,1.3-2.6,1.1c-1.3-0.3-2.4-1.1-3.9-0.8c0,0,0,1.2,0,1.2
				c0.9,0.3,1.4,0.9,1.7,1.8c0-0.4,0-0.8,0-1.2c-4.2,2.1-9.1,2.4-13.5,0.6c0,0.4,0,0.8,0,1.2c0.4-1,1.9-1.2,2.5-0.2
				c0-0.4,0-0.8,0-1.2c-2.8,1.3-5.9,1.2-8.6-0.2c0,0.4,0,0.8,0,1.2c1.1-0.4,2.3,0.3,2.5,1.5c0-0.4,0-0.8,0-1.2
				c-3.2,0.8-6.5,0.5-9.5-0.9c0,0.4,0,0.8,0,1.2c2.1-0.1,4,0.9,5.1,2.6c0-0.4,0-0.8,0-1.2c-2,2.2-5.6,2.7-8.2,1.1
				c-0.3-0.2-0.5-0.4-0.8-0.6c-0.5-0.5-0.5-0.4-1.2-0.2c-0.9,0.3-1.9,0.4-2.8,0.5c-1.9,0-3.8-0.5-5.4-1.5c0,0.4,0,0.8,0,1.2
				c0.7-0.5,1.4,0.3,1.5,1c0-0.4,0-0.8,0-1.2c-0.3,3.1-6.8,0.4-8.1-0.3c0,0.4,0,0.8,0,1.2c1.3-0.9,3-0.4,3.7,1.1c0-0.4,0-0.8,0-1.2
				c-3.1,1.8-7.2,1.4-9.9-1.1c0,0.4,0,0.8,0,1.2c1.3-1.2,3.5-0.5,4,1.2c0-0.4,0-0.8,0-1.2c-4.6,0.6-9.2-0.1-13.3-2
				c0,0.4,0,0.8,0,1.2c1.7-0.8,3.8,0.4,3.9,2.3c0-0.4,0-0.8,0-1.2c-5,2.3-10.7,2.4-15.8,0.1c0,0.4,0,0.8,0,1.2c1.5-1.2,3.8,0,4,1.8
				c0-0.4,0-0.8,0-1.2c-0.1,0.9-3.4,0.6-4.1,0.5c-1.5-0.2-2.9-0.7-4.2-1.4c0,0.4,0,0.8,0,1.2c1.7-1.1,3.9-0.6,5,1.1
				c0-0.4,0-0.8,0-1.2c-4.2,1.1-8.7,0.3-12.3-2.3c0,0.4,0,0.8,0,1.2c1.4-1.5,4.1-1,4.9,0.9c0-0.4,0-0.8,0-1.2
				c-4.5,2.2-9.6,2.7-14.4,1.4c0,0.4,0,0.8,0,1.2c0.5-0.2,0.9,0.2,0.9,0.7c0-0.4,0-0.8,0-1.2c-0.4,1.7-3.9,1.1-5.1,0.8
				c-2-0.5-3.7-1.7-5-3.4c0,0.4,0,0.8,0,1.2c1.2-1.3,3.5-0.8,4,0.9c0-0.4,0-0.8,0-1.2c-3.7,1.5-7.7,1.5-11.4-0.1c0,0.4,0,0.8,0,1.2
				c0.5-0.3,0.9,0.2,0.9,0.6c0-0.4,0-0.8,0-1.2c-0.6,2.1-4.6-0.2-5.5-0.9c0,0.4,0,0.8,0,1.2c2-0.7,4.3,0.7,4.5,2.8
				c0-0.4,0-0.8,0-1.2c-3,1.3-6.5,0.7-8.9-1.6c0,0.4,0,0.8,0,1.2c1.3-1.1,3.3-1,4.3,0.4c0-0.4,0-0.8,0-1.2c-3.9,1.5-8.3,1.2-12-0.9
				c0,0.4,0,0.8,0,1.2c0.9-0.3,1.4,0.5,1.4,1.3c0-0.4,0-0.8,0-1.2c-0.3,1.6-2.4,1.6-3.7,1.5c-1.9-0.2-3.7-0.8-5.3-1.8
				c0,0.4,0,0.8,0,1.2c2.8-1.5,6.4-0.8,8.5,1.7c0-0.4,0-0.8,0-1.2c-3.8,1.5-8,1.3-11.7-0.6c0,0.4,0,0.8,0,1.2
				c0.3-0.4,0.7-0.1,0.9,0.3c0-0.4,0-0.8,0-1.2c-0.1,1.6-3.7,1-4.6,0.9c-1.8-0.3-3.4-1.1-4.9-2.1c0,0.4,0,0.8,0,1.2
				c0.4-0.4,0.7-0.1,0.9,0.3c0-0.1,0-0.2,0-0.3c0,0.1,0,0.2,0,0.3c0-0.3,0-0.6,0-0.9c-0.7,1.5-4,1.3-5.4,1.3
				c-2.1-0.1-4.2-0.6-6.1-1.5c0,0.4,0,0.8,0,1.2c1.2-0.1,2.4-0.3,3.6-0.4c0-0.4,0-0.8,0-1.2c-3.6,1.5-7.9,0.5-10.4-2.5
				c0,0.4,0,0.8,0,1.2c1.9-1.2,4.5-0.3,5.2,1.9c0-0.4,0-0.8,0-1.2c-6.7-0.8-13.4-1-20.1-0.6c0,0.4,0,0.8,0,1.2
				c0.1-1.1,1.6-0.1,1.7,0.5c0-0.4,0-0.8,0-1.2c-0.2,2.2-4.3,1-5.5,0.7c-2.8-0.6-5.6-1.2-8.3-1.9c0,0.4,0,0.8,0,1.2
				c0.6-1.3,2.7-1.2,3.1,0.1c0-0.4,0-0.8,0-1.2c-1.8,0.1-3.5,0-5.3-0.3c-0.8-0.1-1.7-0.3-2.5-0.6c-0.4-0.1-0.9-0.3-1.3-0.4
				c-0.3-0.1-0.8-0.4-1.1-0.4c-0.4,0-0.3,0.1-0.5,0.4c-0.2,0.2-0.4,0.4-0.6,0.5c-0.5,0.3-1,0.4-1.6,0.5c-1.2,0.1-2.4-0.2-3.4-0.7
				c-2.1-0.8-4.2-2.3-6.6-2c-0.5,0.1-1.1,0.3-1.5,0.6c-0.2,0.1-0.3,0.3-0.5,0.5c-0.4,0.4-0.1,0.3-0.6,0.3c-1.4-0.1-2.9-1.7-3.5-2.8
				c0,0.4,0,0.8,0,1.2c0.9-0.2,1.7,0.3,1.8,1.3c0-0.4,0-0.8,0-1.2c-0.2,0.9-1.1,1.4-2,1c0,0.4,0,0.8,0,1.2c0.4-1,2.2-1.1,2.2,0.2
				c0-0.4,0-0.8,0-1.2c-0.1,0.6-0.4,1-1,1.1c0,0.4,0,0.8,0,1.2c1.1-0.5,2.1,0.6,2.2,1.7c0-0.4,0-0.8,0-1.2c0,0.4-0.1,0.6-0.4,0.9
				c0,0.4,0,0.8,0,1.2c0.9-1.5,2.6-2.4,4.4-2.1c0.4,0.1,0.8,0.3,1.2,0.4c0.6,0.2,1.3,0.3,1.9,0.4c1.3,0.2,2.6,0.5,3.9,0.7
				c0,0,0-0.5,0-0.5c0-0.1,0-0.2,0-0.3c0,0.2,0,0.3,0,0.5c0.2-1.7,2-2.3,3.5-2.4c1.3-0.1,4.2-0.2,4.6,1.5c0-0.4,0-0.8,0-1.2
				c-0.1,0.7-1.1,1.5-1.5,0.6c0,0.4,0,0.8,0,1.2c1.4,0,2.6,0.8,3.1,2.2c0-0.4,0-0.8,0-1.2c-0.1-0.1-0.1-0.3-0.2-0.4
				c0,0.4,0,0.8,0,1.2c0.3-1.8,3.3-0.8,4.3-0.6c2.5,0.6,5,1.2,7.6,1.8c0-0.4,0-0.8,0-1.2c-3.1-0.3-6.2-0.6-9.3-0.9
				c0.1,0-0.1,1.2,0,1.2c4.3,1.4,8.8,2.2,13.4,2.3c0,0,0.1-1.2,0-1.2c-1.8-0.9-3.6-1.3-5.6-1.2c0,0-0.1,1.2,0,1.2
				c3.6,1.6,7.6,2.1,11.5,1.4c0,0,0-1.2,0-1.2c-3.9-1.6-8-2.1-12.2-1.5c0,0,0,1.2,0,1.2c4.6,0.9,9.3,0.8,13.8-0.2c0,0,0.1-1.2,0-1.2
				c-3.3-1.9-7-2.7-10.8-2.3c0,0,0,1.2,0,1.2c4.2,1.2,8.4,1.8,12.8,1.8c0,0,0-1.2,0-1.2c-3.5-0.7-7-1.3-10.4-2c0.1,0-0.1,1.2,0,1.2
				c3.4,1.5,7.1,2,10.7,1.4c0,0,0-1.2,0-1.2c-4.8-1-9.8-1.2-14.7-0.5c0,0-0.1,1.2,0,1.2c4.7,1.7,9.8,2.4,14.8,2c0,0,0-1.2,0-1.2
				c-3.5-0.5-7-0.6-10.4-0.1c0,0,0,1.2,0,1.2c5.6,1.1,11.3,1.2,16.8,0.1c0,0,0-1.2,0-1.2c-1.9-0.8-3.8-0.9-5.8-0.5
				c-0.1,0,0,1.2,0,1.2c11.1-0.2,22.3-1.3,33.2-3.3c0.1,0,0-1.2,0-1.2c-4.8,0.4-9.6,0.9-14.5,1.3c0,0-0.1,1.2,0,1.2
				c3.5,1.7,7.3,2.1,11.1,1.4c0,0,0-1.3,0-1.2c-1.4-0.1-2.7-0.1-4.1-0.2c0,0-0.1,1.2,0,1.2c4.5,0.9,9,1.2,13.6,1c0,0,0.1-1.2,0-1.2
				c-0.7-1-2-1.2-3-0.5c-0.1,0.1,0,1.3,0,1.2c3.6,0.4,7.2,0.1,10.7-1.1c0,0,0-1.2,0-1.2c-3.3-1.3-6.7-1.6-10.1-0.9c0,0,0,1.3,0,1.2
				c3.7,0.2,7.3,0,11-0.7c0,0,0-1.3,0-1.2c-2.9-0.3-5.7,0.2-8.4,1.3c-0.1,0,0,1.2,0,1.2c7.3,1.6,14.7,2.1,22.1,1.4c0,0,0-1.2,0-1.2
				c-2.6-0.2-5.1-0.4-7.7-0.7c0,0.4,0,0.8,0,1.2c6.5,0.4,13,0.2,19.4-0.4c0,0,0-1.2,0-1.2c-3.8-0.6-7.6-0.6-11.4,0c0,0,0,1.3,0,1.2
				c5.3,0.4,10.6-0.1,15.7-1.3c0,0,0-1.2,0-1.2c-3.7-1.1-7.5-1-11.2,0.4c-0.1,0,0,1.2,0,1.2c6.2-0.1,12.3-0.9,18.2-2.4
				c0,0,0-1.3,0-1.2c-2.5-0.3-4.9,0-7.2,0.9c-0.1,0,0,1.3,0,1.2c7.5,0.9,15,0.9,22.5-0.1c0,0,0-1.2,0-1.2c-1-0.3-2-0.7-3-1
				c0,0.4,0,0.8,0,1.2c3.1-0.3,6.2-0.7,9.3-1c0,0,0-1.2,0-1.2c-4.7-0.6-9.4-0.5-14.1,0.3c0,0,0,1.3,0,1.2c2.6,0.2,5.2,0,7.7-0.5
				c0,0,0-1.2,0-1.2c-2.6-0.5-5.1-0.1-7.5,1c-0.1,0,0,1.2,0,1.2c3.9,1.1,8,1,11.9-0.1c0,0,0-1.2,0-1.2c-1.2-0.2-2.3,0-3.3,0.6
				c-0.1,0,0,1.2,0,1.2c2.8,0.9,5.6,1.2,8.5,0.8c0-0.4,0-0.8,0-1.2c-1.5,0.2-3,0.4-4.5,0.7c0,0,0,1.2,0,1.2c2.7,0.7,5.5,0.7,8.2,0
				c0,0,0.1-1.2,0-1.2c-0.6-1-1.9-1.2-2.8-0.5c-0.1,0.1,0.1,1.2,0,1.2c6.8-1.5,13.7-3,20.5-4.5c0-0.4,0-0.8,0-1.2
				c-1.4,0.5-2.8,1-4.2,1.5c-0.1,0,0,1.3,0,1.2c3.2,0.1,6.4-0.4,9.5-1.3c0.1,0,0-1.3,0-1.2c-2.5-0.1-4.9,0.3-7.3,1
				c-0.1,0,0,1.2,0,1.2c4.7,0,9.4,0.2,14.1-0.5c0,0,0.1-1.2,0-1.2c-1.1-0.5-2.3,0-2.9,1c-0.1,0.1,0.1,1.2,0,1.2
				c5.6-0.6,11.1-1.6,16.6-3.2c0-0.4,0-0.8,0-1.2c-0.9,0.3-1.6,0.7-2.3,1.4c-0.1,0.1-0.1,1.2,0,1.2c1.3,0.9,1.6-1.6,1.4-2.4
				c-0.5-2.6-4.6,0.2-5.9,0.3c0,0,0,0,0,0c0,0.3-0.2,1.3,0.1,1.5c0.7,0.6,1.1-0.4,1.1-0.9c0-0.9-0.1-1.6-1.2-1.8
				c-1.7-0.3-3.5,0.7-4.7,1.8c-0.1,0.1-0.1,1.2,0,1.2c1.1,0.9,1.3-1.3,1.2-2c-0.5-2.3-5.1-0.5-6.3,0.1c-0.1,0.1,0.1,1.2,0,1.2
				c6.3,0,12.5-0.6,18.7-1.8c0,0,0-1.3,0-1.2c-5.6-0.2-11.2,0.3-16.7,1.5c0,0,0,1.3,0,1.2c6.1,0.5,12.2-0.5,17.8-2.9
				c0.1-0.1-0.1-1.2,0-1.2c-3.8,0.7-7.4,1.8-11,3.3c-0.1,0,0,1.3,0,1.2c5.3,0.1,10.6-0.6,15.7-2.1c0.1,0,0-1.2,0-1.2
				c-2,0.1-3.9,0.5-5.7,1.2c-0.1,0,0,1.3,0,1.2c4.5,0.3,8.9-0.4,13.1-2c0.1,0,0-1.2,0-1.2c-3.4,0-6.9,0.4-10.2,1.1c0,0,0,1.2,0,1.2
				c3.3,0.6,6.6,0.3,9.6-1c0.1-0.1-0.1-1.2,0-1.2c-1.2,0.3-2.4,0.6-3.7,0.8c0,0,0,1.2,0,1.2c2.8,0.4,5.5-0.3,7.7-2.1
				c0.1,0,0-1.2,0-1.2c-1-0.3-1.8-0.1-2.5,0.6c-0.1,0.1,0,1.1,0,1.2c0.2,0.8,1,0.1,1.1-0.4c0.1-0.5,0.1-1.3-0.2-1.6
				c-0.8-0.9-2.8-0.6-3.7-0.4c-1.6,0.3-3,1-4.3,1.9c-0.1,0.1,0,1.2,0,1.2c1.1,0.3,2.1,0.2,3.2-0.3c0,0,0.1-1.2,0-1.2
				c-0.6-0.6-1.4-0.9-2.3-0.7c-0.4,0.1-0.8,0.3-1.2,0.6c-0.1,0-0.3,0.5-0.4,0.5c0,0-0.4-0.5-0.5-0.5c-0.6-0.5-1.5-0.8-2.3-0.7
				c-1,0.1-1.5,0.6-2.2,1.1c-0.3,0.2-0.1,0.2-0.5,0.2c-0.2,0-0.5,0-0.8-0.1c-0.6,0-1.1,0-1.7,0c-1.1,0.1-2.1,0.3-3.2,0.7
				c-2.2,0.8-4.1,2.1-5.6,3.8c-0.1,0.1,0.1,1.2,0,1.2c8.8-0.8,17.3-3.2,25.2-7c0-0.4,0-0.8,0-1.2c-1.7,1-3.5,1.9-5.2,2.9
				c-0.1,0,0,1.3,0,1.2c4.7,0.8,9.6-0.1,13.6-2.8c0.2-0.1-0.2-1.2,0-1.2c-1.2,0.5-2.3,1-3.5,1.4c-0.1,0.1,0.1,1.2,0,1.2
				c2.4-0.8,4.9-1.6,7.3-2.4c0-0.4,0-0.8,0-1.2c-1.1,0.6-2.2,1.2-3.3,1.8c-0.1,0.1,0.1,1.2,0,1.2c1.4-0.4,2.8-0.7,4.1-1.1
				c0.1,0-0.1-1.2,0-1.2c-2,0.2-3.9,0.7-5.8,1.5c-0.1,0.1,0.1,1.2,0,1.2c1.6-0.5,3.2-0.9,4.8-1.4c0.1,0-0.1-1.2,0-1.2
				c-2.4,0.5-4.7,1.4-6.9,2.5c-0.1,0.1,0.1,1.2,0,1.2c2-0.4,3.8-1.1,5.6-2.1c0.1-0.1-0.1-1.2,0-1.2c-0.9,0.3-1.9,0.5-2.8,0.8
				c-0.1,0,0.1,1.2,0,1.2c5.6-1.4,10.9-3.6,15.9-6.6c0.2-0.1-0.2-1.1,0-1.2c-1.6,0.9-3.3,1.4-5.1,1.4c0,0-0.1,1.2,0,1.2
				c1.2,0.5,1.3-0.7,1.3-1.5c0-0.3,0.1-0.6-0.1-0.9c-0.3-0.5-1.1-0.4-1.5,0c-0.2,0.2,0.2,1.1,0,1.2c1.1-0.7,2.3-0.7,3.5-0.2
				c0-0.4,0-0.8,0-1.2c-1.1,1.3-2.6,1.9-4.3,1.7c0,0.4,0,0.8,0,1.2c1.2-1,2.9-0.7,3.7,0.6c0-0.4,0-0.8,0-1.2
				c-0.8,0.4-1.4-0.5-1.4-1.2c0,0.4,0,0.8,0,1.2c0.4-2.4,4.4-1.1,4.9-3.6c0-0.1-0.1-1.2,0-1.2c-5.5,2.1-11.1,4.1-16.6,6.2
				c-0.1,0.1,0.1,1.2,0,1.2c4.9-1.5,9.7-2.9,14.6-4.4c0-0.4,0-0.8,0-1.2c-4.1,2-8.2,4-12.2,5.9c-0.1,0.1,0.1,1.2,0,1.2
				c3.5-0.4,6.9-1.3,10.1-2.8c0.2-0.1-0.1-1.2,0-1.2c-2,0.8-3.9,1.6-5.9,2.4c0,0.4,0,0.8,0,1.2c2-0.9,4.1-1.8,6.1-2.7
				c0.2-0.1-0.1-1.2,0-1.2c-2,0.9-4.1,1.8-6.1,2.7c-0.2,0.1,0.1,1.2,0,1.2c2-0.8,3.9-1.6,5.9-2.4c0-0.4,0-0.8,0-1.2
				c-3.2,1.5-6.6,2.4-10.1,2.8c0,0.4,0,0.8,0,1.2c4.1-2,8.2-4,12.2-5.9c0.1-0.1-0.1-1.2,0-1.2c-4.9,1.5-9.7,2.9-14.6,4.4
				c0,0.4,0,0.8,0,1.2c5.5-2.1,11.1-4.1,16.6-6.2c0-0.4,0-0.8,0-1.2c-0.6,2.4-4.6,1.2-4.9,3.6c-0.1,0.9,0.1,3.1,1.4,2.4
				c0.1,0,0.1-1.2,0-1.2c-0.9-1.3-2.5-1.5-3.7-0.6c-0.1,0.1,0,1.3,0,1.2c1.7,0.2,3.2-0.4,4.3-1.7c0.1-0.1,0-1.2,0-1.2
				c-1.2-0.6-2.4-0.5-3.5,0.2c0,0.4,0,0.8,0,1.2c0.5-0.6,1.5-0.4,1.6,0.5c0-0.4,0-0.8,0-1.2c-0.2,0.6-0.7,0.9-1.3,0.6
				c0,0.4,0,0.8,0,1.2c1.8-0.1,3.5-0.5,5.1-1.4c0-0.4,0-0.8,0-1.2c-4.9,3-10.3,5.2-15.9,6.6c0,0.4,0,0.8,0,1.2
				c0.9-0.3,1.9-0.5,2.8-0.8c0-0.4,0-0.8,0-1.2c-1.7,1.1-3.6,1.8-5.6,2.1c0,0.4,0,0.8,0,1.2c2.2-1.2,4.5-2,6.9-2.5
				c0-0.4,0-0.8,0-1.2c-1.6,0.5-3.2,0.9-4.8,1.4c0,0.4,0,0.8,0,1.2c1.8-0.8,3.8-1.3,5.8-1.5c0-0.4,0-0.8,0-1.2
				c-1.4,0.4-2.8,0.7-4.1,1.1c0,0.4,0,0.8,0,1.2c1.1-0.6,2.2-1.2,3.3-1.8c0.2-0.1-0.1-1.2,0-1.2c-2.4,0.8-4.9,1.6-7.3,2.4
				c0,0.4,0,0.8,0,1.2c1.2-0.5,2.3-1,3.5-1.4c0-0.4,0-0.8,0-1.2c-4,2.6-8.8,3.6-13.6,2.8c0,0.4,0,0.8,0,1.2c1.7-1,3.5-1.9,5.2-2.9
				c0.2-0.1-0.2-1.2,0-1.2c-7.9,3.8-16.5,6.2-25.2,7c0,0.4,0,0.8,0,1.2c1.5-1.7,3.3-3,5.4-3.8c1-0.4,2.1-0.6,3.2-0.7
				c0.6-0.1,1.1-0.1,1.7-0.1c0.3,0,0.5,0,0.8,0c0.5,0,0.4,0.1,0.7-0.2c0.7-0.5,1.1-1,2.1-1.1c0.8-0.1,1.7,0.1,2.3,0.6
				c0.1,0.1,0.4,0.5,0.5,0.5c0.2,0.1,0.1,0,0.4-0.2c0.4-0.3,0.7-0.5,1.1-0.6c0.9-0.2,1.8,0,2.4,0.7c0-0.4,0-0.8,0-1.2
				c-1,0.4-2.1,0.5-3.2,0.3c0,0.4,0,0.8,0,1.2c1.3-1,2.8-1.7,4.5-2c0.9-0.2,3.7-0.6,3.7,1c0-0.4,0-0.8,0-1.2c-0.2,0.4-1,0.9-1.1,0.2
				c0,0.4,0,0.8,0,1.2c0.7-0.7,1.6-0.9,2.5-0.6c0-0.4,0-0.8,0-1.2c-2.2,1.7-4.9,2.5-7.7,2.1c0,0.4,0,0.8,0,1.2
				c1.2-0.3,2.4-0.6,3.7-0.8c0-0.4,0-0.8,0-1.2c-3.1,1.3-6.4,1.6-9.6,1c0,0.4,0,0.8,0,1.2c3.4-0.7,6.8-1.1,10.2-1.1
				c0-0.4,0-0.8,0-1.2c-4.2,1.7-8.6,2.3-13.1,2c0,0.4,0,0.8,0,1.2c1.8-0.7,3.7-1.1,5.7-1.2c0-0.4,0-0.8,0-1.2
				c-5.1,1.4-10.4,2.1-15.7,2.1c0,0.4,0,0.8,0,1.2c3.5-1.5,7.2-2.6,11-3.3c0-0.4,0-0.8,0-1.2c-5.6,2.4-11.7,3.3-17.8,2.9
				c0,0.4,0,0.8,0,1.2c5.5-1.2,11.1-1.7,16.7-1.5c0-0.4,0-0.8,0-1.2c-6.2,1.2-12.4,1.8-18.7,1.8c0,0.4,0,0.8,0,1.2
				c1.2-0.7,5.7-2.5,6.3-0.1c0-0.4,0-0.8,0-1.2c-0.1,0.6-0.6,1.2-1.2,0.7c0,0.4,0,0.8,0,1.2c0.9-0.8,2-1.5,3.2-1.7
				c0.6-0.1,2.6-0.4,2.6,0.8c0-0.4,0-0.7,0-1.1c-0.2,0.4-0.9,0.7-1.2,0.2c0,0.4,0,0.8,0,1.2c0-0.1,3.1-1.3,3.4-1.4
				c0.9-0.3,2.3-0.2,2.6,0.9c0-0.4,0-0.7,0-1.1c0,0.7-0.8,1.5-1.4,1c0,0.4,0,0.8,0,1.2c0.7-0.7,1.4-1.2,2.3-1.4c0.1,0-0.1-1.2,0-1.2
				c-5.4,1.6-10.9,2.7-16.6,3.2c0,0.4,0,0.8,0,1.2c0.6-1.1,1.8-1.5,2.9-1c0-0.4,0-0.8,0-1.2c-4.6,0.7-9.4,0.4-14.1,0.5
				c0,0.4,0,0.8,0,1.2c2.4-0.7,4.8-1,7.3-1c0-0.4,0-0.8,0-1.2c-3.1,0.9-6.3,1.3-9.5,1.3c0,0.4,0,0.8,0,1.2c1.4-0.5,2.8-1,4.2-1.5
				c0.1,0-0.1-1.2,0-1.2c-6.8,1.5-13.7,3-20.5,4.5c0,0.4,0,0.8,0,1.2c1-0.7,2.2-0.4,2.8,0.5c0-0.4,0-0.8,0-1.2
				c-2.7,0.7-5.5,0.7-8.2,0c0,0.4,0,0.8,0,1.2c1.5-0.2,3-0.4,4.5-0.7c0.1,0,0-1.2,0-1.2c-2.9,0.3-5.8,0.1-8.5-0.8c0,0.4,0,0.8,0,1.2
				c1-0.6,2.1-0.8,3.3-0.6c0-0.4,0-0.8,0-1.2c-3.9,1.2-8,1.2-11.9,0.1c0,0.4,0,0.8,0,1.2c2.3-1.2,4.9-1.5,7.5-1c0-0.4,0-0.8,0-1.2
				c-2.6,0.5-5.1,0.7-7.7,0.5c0,0.4,0,0.8,0,1.2c4.7-0.8,9.4-0.9,14.1-0.3c0-0.4,0-0.8,0-1.2c-3.1,0.3-6.2,0.7-9.3,1
				c0,0-0.1,1.2,0,1.2c1,0.3,2,0.7,3,1c0-0.4,0-0.8,0-1.2c-7.5,0.9-15,1-22.5,0.1c0,0.4,0,0.8,0,1.2c2.3-0.8,4.7-1.1,7.2-0.9
				c0-0.4,0-0.8,0-1.2c-6,1.5-12.1,2.3-18.2,2.4c0,0.4,0,0.8,0,1.2c3.6-1.3,7.5-1.4,11.2-0.4c0-0.4,0-0.8,0-1.2
				c-5.1,1.2-10.4,1.7-15.7,1.3c0,0.4,0,0.8,0,1.2c3.8-0.6,7.6-0.6,11.4,0c0-0.4,0-0.8,0-1.2c-6.5,0.7-13,0.8-19.4,0.4
				c0,0,0,1.2,0,1.2c2.6,0.2,5.1,0.4,7.7,0.7c0-0.4,0-0.8,0-1.2c-7.4,0.7-14.9,0.2-22.1-1.4c0,0.4,0,0.8,0,1.2
				c2.7-1.1,5.5-1.5,8.4-1.3c0-0.4,0-0.8,0-1.2c-3.6,0.7-7.3,0.9-11,0.7c0,0.4,0,0.8,0,1.2c3.4-0.6,6.9-0.3,10.1,0.9
				c0-0.4,0-0.8,0-1.2c-3.4,1.2-7,1.5-10.7,1.1c0,0.4,0,0.8,0,1.2c1-0.7,2.3-0.5,3,0.5c0-0.4,0-0.8,0-1.2c-4.5,0.2-9.1-0.1-13.6-1
				c0,0.4,0,0.8,0,1.2c1.4,0.1,2.7,0.1,4.1,0.2c0-0.4,0-0.8,0-1.2c-3.8,0.8-7.6,0.3-11.1-1.4c0,0.4,0,0.8,0,1.2
				c4.8-0.4,9.6-0.9,14.5-1.3c0-0.4,0-0.8,0-1.2c-11,2-22.1,3.1-33.2,3.3c0,0.4,0,0.8,0,1.2c2-0.5,3.9-0.3,5.8,0.5
				c0-0.4,0-0.8,0-1.2c-5.6,1-11.3,1-16.8-0.1c0,0.4,0,0.8,0,1.2c3.5-0.4,7-0.4,10.4,0.1c0-0.4,0-0.8,0-1.2c-5,0.4-10-0.3-14.8-2
				c0,0.4,0,0.8,0,1.2c4.9-0.7,9.8-0.5,14.7,0.5c0-0.4,0-0.8,0-1.2c-3.7,0.6-7.4,0.1-10.7-1.4c0,0.4,0,0.8,0,1.2
				c3.5,0.7,7,1.3,10.4,2c0-0.4,0-0.8,0-1.2c-4.3,0-8.6-0.6-12.8-1.8c0,0.4,0,0.8,0,1.2c3.8-0.4,7.5,0.4,10.8,2.3c0-0.4,0-0.8,0-1.2
				c-4.6,1-9.2,1.1-13.8,0.2c0,0.4,0,0.8,0,1.2c4.1-0.6,8.3-0.1,12.2,1.5c0-0.4,0-0.8,0-1.2c-3.9,0.7-7.8,0.2-11.5-1.4
				c0,0.4,0,0.8,0,1.2c2,0,3.8,0.4,5.6,1.2c0-0.4,0-0.8,0-1.2c-4.6-0.1-9-0.9-13.4-2.3c0,0.4,0,0.8,0,1.2c3.1,0.3,6.2,0.6,9.3,0.9
				c-0.1,0,0.1-1.2,0-1.2c-1.8-0.4-3.6-0.9-5.4-1.3c-1.5-0.4-3.3-1.2-4.9-1c-0.8,0.1-1.5,0.4-1.6,1.2c-0.1,0.5-0.1,1.1,0.2,1.5
				c-0.2-0.3,0.1-0.9,0-1.2c-0.4-1.4-1.6-2.2-3.1-2.2c0,0,0,1.2,0,1.2c0.3,0.6,1.1,0.3,1.4-0.2c0.2-0.3,0.1-0.7,0.1-1.1
				c0-1.3-0.8-1.9-2.1-2.1c-1.4-0.2-3.1-0.2-4.5,0.4c-1.2,0.6-1.5,1.4-1.5,2.6c0-0.2,0-0.3,0-0.5c-1.3-0.2-2.6-0.5-3.9-0.7
				c-0.6-0.1-1.3-0.2-1.9-0.4c-0.4-0.1-0.8-0.4-1.2-0.4c-1.7-0.3-3.5,0.5-4.4,2.1c-0.2,0.3,0.2,1,0,1.2c1.1-1.2,0.2-4.7-1.8-3.8
				c-0.1,0.1,0.1,1.2,0,1.2c1.1-0.2,1.1-1.3,1-2.2c0-0.4,0-0.8-0.4-1.1c-0.7-0.5-1.5,0-1.8,0.6c0,0.1-0.1,1.2,0,1.2
				c2.6,1.1,2.8-4.3,0.2-3.6c0,0-0.1,1.2,0,1.2c0.8,1.3,1.9,2.2,3.3,2.7c0.5,0.2,0.4,0.1,0.7-0.1c0.2-0.2,0.3-0.4,0.5-0.6
				c0.4-0.3,0.9-0.5,1.4-0.6c2.5-0.5,4.6,1.1,6.8,2c1.1,0.4,2.3,0.7,3.4,0.7c0.5,0,1-0.2,1.5-0.4c0.2-0.1,0.4-0.3,0.6-0.5
				c0.1-0.1,0.3-0.6,0.4-0.6c0.1,0,1.2,0.5,1.3,0.5c0.4,0.2,0.9,0.3,1.3,0.4c0.7,0.2,1.5,0.4,2.2,0.5c1.8,0.3,3.7,0.4,5.5,0.4
				c0,0,0-1.1,0-1.2c-0.4-1.4-2.5-1.5-3.1-0.1c0,0.1,0,1.2,0,1.2c2.5,0.6,5,1.2,7.6,1.8c1.5,0.3,4.3,1.4,5.7,0.3
				c0.6-0.4,0.6-1.4,0.5-2.1c-0.1-0.7-1.6-1.7-1.7-0.5c0,0.1,0,1.2,0,1.2c6.7-0.4,13.4-0.2,20.1,0.6c0,0,0-1.1,0-1.2
				c-0.7-2.1-3.3-3.1-5.2-1.9c-0.1,0-0.1,1.2,0,1.2c2.5,3,6.8,4,10.4,2.5c0.1,0-0.1-1.2,0-1.2c-1.2,0.1-2.4,0.3-3.6,0.4
				c0,0-0.1,1.2,0,1.2c3.1,1.5,6.7,2,10,1.2c1-0.2,1.5-0.6,1.5-1.6c0-0.4-0.1-2.1-0.9-1.2c-0.1,0.1-0.1,1.2,0,1.2
				c2.3,1.7,5.5,2.8,8.4,2.2c1-0.2,1.1-0.6,1.1-1.5c0-0.4-0.2-1.8-0.9-1c-0.1,0.1,0,1.2,0,1.2c3.6,1.9,7.9,2.1,11.7,0.6
				c0,0,0.1-1.2,0-1.2c-2-2.5-5.6-3.2-8.5-1.7c0,0,0,1.2,0,1.2c1.5,0.9,3.1,1.5,4.9,1.7c1.2,0.1,3.1,0.3,3.9-0.8
				c0.6-0.9,0.4-3.7-1.2-3.2c0,0,0,1.2,0,1.2c3.7,2,8,2.3,12,0.9c0,0,0.1-1.2,0-1.2c-1.1-1.4-3-1.5-4.3-0.4c-0.1,0.1-0.1,1.2,0,1.2
				c2.3,2.3,5.9,3,8.9,1.6c0.1,0,0-1.1,0-1.2c-0.2-2.1-2.5-3.5-4.5-2.8c0,0-0.1,1.2,0,1.2c0.9,0.7,4.9,3.1,5.5,0.9
				c0.1-0.5,0-2.5-0.9-1.9c-0.1,0,0,1.2,0,1.2c3.7,1.6,7.7,1.6,11.4,0.1c0.1,0,0-1.1,0-1.2c-0.6-1.7-2.8-2.1-4-0.9
				c-0.1,0.1-0.1,1.2,0,1.2c1.9,2.5,5.1,4,8.3,3.6c1-0.1,1.7-0.5,1.7-1.5c0-0.6,0-1.9-0.9-1.5c0,0,0,1.2,0,1.2
				c4.8,1.3,9.9,0.8,14.4-1.4c0.1,0,0-1.2,0-1.2c-0.8-1.9-3.5-2.4-4.9-0.9c-0.1,0.1-0.1,1.2,0,1.2c3.5,2.6,8,3.4,12.3,2.3
				c0,0,0.1-1.2,0-1.2c-1.1-1.7-3.3-2.2-5-1.1c-0.1,0,0,1.2,0,1.2c1.7,0.9,3.5,1.5,5.4,1.5c0.7,0,1.8,0.1,2.4-0.2
				c0.6-0.3,0.3,0,0.4-0.5c0-0.1,0-0.3,0-0.4c0-0.8,0-1.6-0.6-2.2c-0.9-0.9-2.3-1.2-3.4-0.4c-0.1,0,0,1.2,0,1.2
				c5,2.2,10.8,2.2,15.8-0.1c0.1,0,0-1.1,0-1.2c-0.1-1.9-2.2-3.2-3.9-2.3c0,0,0,1.2,0,1.2c4.2,2,8.8,2.6,13.3,2c0,0,0-1.1,0-1.2
				c-0.5-1.7-2.7-2.4-4-1.2c-0.1,0.1-0.1,1.2,0,1.2c2.7,2.5,6.7,2.9,9.9,1.1c0.1,0,0-1.1,0-1.2c-0.6-1.4-2.4-1.9-3.7-1.1
				c-0.1,0,0,1.2,0,1.2c1.4,0.8,2.9,1.3,4.5,1.6c1,0.2,3.1,0.4,3.6-0.8c0.3-0.8,0-3.6-1.4-2.6c-0.1,0,0,1.2,0,1.2
				c1.6,1,3.5,1.5,5.4,1.5c0.9,0,1.9-0.2,2.8-0.5c0.3-0.1,0.5-0.2,0.8-0.3c0.1,0.1,0.2,0.2,0.3,0.3c0.3,0.2,0.6,0.5,0.9,0.7
				c2.6,1.6,6.2,1.1,8.2-1.1c0.1-0.1,0.1-1.1,0-1.2c-1.1-1.8-3-2.7-5.1-2.6c0,0-0.1,1.2,0,1.2c3,1.4,6.3,1.7,9.5,0.9
				c0,0,0-1.1,0-1.2c-0.2-1.2-1.3-1.9-2.5-1.5c0,0,0,1.2,0,1.2c2.7,1.5,5.8,1.5,8.6,0.2c0.1,0,0.1-1.2,0-1.2c-0.6-1-2.1-0.8-2.5,0.2
				c0,0.1-0.1,1.2,0,1.2c4.4,1.7,9.3,1.5,13.5-0.6c0.1,0,0-1.1,0-1.2c-0.3-0.9-0.8-1.5-1.7-1.8c0,0.4,0,0.8,0,1.2
				c1.5-0.3,2.7,0.7,4.2,0.8c0.9,0.1,2.1-0.1,2.2-1.2c0.1-0.4,0-0.8,0-1.2c-0.1-0.7-0.9-1.8-1.6-1c-0.1,0.1,0.1,1.2,0,1.2
				c2.4-0.8,8.3,0.8,9.1-2.8c0.4-1.5-0.2-4.5-2.3-3.8c0,0-0.1,1.2,0,1.2c2,2.3,5.5,2.6,8.1,1.2c0.6-0.3,1.2-0.8,1.7-1.3
				c0.2-0.3,0.4-0.7,0.7-0.9c0.1-0.3,0.3-0.4,0.6-0.2c0.2,0,0.4,0,0.7,0c2.3,0,4.5-0.6,6.6-1.5c0.1,0,0-1.1,0-1.2
				c-0.2-1.5-1.9-2.2-3.2-1.4c-0.1,0-0.1,1.2,0,1.2c2.1,2.5,7.7,2.3,7.7-1.7c0-0.4,0.1-1-0.2-1.4c-0.5-0.5-1.4-0.3-1.6,0.3
				c-0.1,0.3-0.1,0.8,0,1c0.2,0.8,1.6,1.5,2.3,2c0-0.4,0-0.8,0-1.2c-1-0.5-2.2,0-2.6,1c-0.2,0.5-0.2,1.1-0.1,1.6
				c0.1,1.9,2.7,2.5,3.5,0.6c0.1-0.1,0.1-1.1,0-1.2c-1.7-1.8-4.9-1.5-5.8,1c-0.4,1.3-0.4,3.2,0.3,4.3c-0.2-0.3,0.1-0.9,0-1.2
				c-0.6-1.5-2.5-2.5-4.1-1.7c-1.2,0.6-1.6,1.9-1.6,3.1c0,0.4,0,0.7,0,1.1c0,0.4,0,0.7,0.4,0.5c0.2-0.1,0.4-0.5,0.4-0.6
				c0.2-0.6,0.2-1.4,0.1-2.1c-0.2-1.9-2.1-2.4-3.8-2.3c-1.4,0.1-3.6,0.4-4.5,1.7c-0.4,0.6-0.5,1.6-0.4,2.3c0.2,0.9,1.6,2.1,2.3,1
				c0.1-0.1,0.1-1.2,0-1.2c-1.6-1-3.4-2.2-5.4-1.8c-1.3,0.2-2.5,1.1-2.6,2.5c-0.1,0.6-0.1,1.4,0.1,2c0.5,1.2,2.1,1.9,3.1,0.9
				c0.1-0.1,0.1-1.1,0-1.2c-0.8-2.2-3.3-3.2-5.5-2.9c-1.1,0.1-2.3,0.6-3.1,1.4c-0.1,0.1-0.9,1.5-0.9,1.5c0,0-0.8-1.2-0.9-1.3
				c-1.6-1.5-4.5-1.4-6.2,0c-1.7,1.6-1.1,4,1.2,4.5c-0.1,0,0.1-1.1,0-1.2c-1.3-2.6-5.6-2.3-6.9,0.2c-0.1,0.2-0.1,0.7-0.3,0.9
				c-0.2,0.3,0,0.2-0.4-0.1c-0.2-0.1-0.4-0.2-0.6-0.3c-0.9-0.4-1.8-0.7-2.8-0.8c-2.1-0.1-4.1,0.6-5.6,2c-0.1,0.1,0,1.2,0,1.2
				c1.5,0.7,3.2,0.2,4-1.3c0.1-0.1,0.1-1.2,0-1.2c-2.8-2.8-7.9-2.1-9.8,1.4c-0.1,0.1-0.1,1.2,0,1.2c0.9,0.7,2,0.8,2.9,0.2
				c0.1,0,0.1-1.2,0-1.2c-1.2-1.8-3.5-2.5-5.6-1.9c-0.5,0.2-1,0.4-1.5,0.7c-0.1,0.1-0.4,0.5-0.6,0.5c-0.2,0-1-0.5-1.2-0.6
				c-1.3-0.6-2.7-1.2-4.2-0.8c-1.9,0.5-2.5,2.1-2.3,3.9c0.1,1.5,2.4,2.7,3.4,1.1c0.1-0.1,0.1-1.1,0-1.2c-2.2-2.8-6.5-3.2-9.2-0.9
				c-0.1,0.1,0.1,1.2,0,1.2c1.1-0.1,1.9-0.6,2.4-1.6c0-0.1,0.1-1.2,0-1.2c-2.8-1.7-6.8,0.4-7.1,3.7c0,0.4,0.1,0.9,0,1.2
				c0.6-1.8,0.2-5.7-2.7-4.8c-2.2,0.7-1.2,5.2,1,4c0.1,0,0.1-1.2,0-1.2c-1.2-1.6-3.4-2-5.2-1.3c-0.4,0.2-0.9,0.4-1.2,0.7
				c-0.2,0.2-0.4,0.5-0.6,0.6c-0.3,0.2-0.1,0.2-0.5,0.1c-1.5-0.4-2.7-0.9-4.3-0.8c-1.9,0-5.5,0.7-5.8,3c-0.2,1.2,0,3.2,1.6,3
				c0,0,0.1-1.2,0-1.2c-1.7-2.4-5.7-2.2-7.2,0.4c-0.1,0.1,0,1.2,0,1.2c1.2,0.3,2.2,0.1,3.2-0.5c0.1,0,0.1-1.2,0-1.2
				c-1.9-3.1-6.4-4-9.3-1.7c-0.1,0-0.1,1.2,0,1.2c1,0.9,2.8,0.5,3-0.9c0.2-1.1-0.3-1.7-1.2-2.2c-2.4-1.4-6-0.2-6.8,2.5
				c0,0.1,0,1.2,0,1.2c1.3,0.3,2.6-0.3,3-1.6c0-0.1,0.1-1.2,0-1.2c-2.9-1.5-7.3-2.3-10.3-0.6c-0.9,0.6-1.1,1.3-1.1,2.3
				c0,0.9,0.1,1.9,1.2,2c0,0,0-1.1,0-1.2c-0.4-1.3-1.6-2.1-2.9-2.2c-0.6,0-1.2,0.1-1.7,0.4c-0.1,0.1-0.3,0.2-0.4,0.3
				c-0.1,0.3-0.3,0.3-0.5,0.1c-0.3,0-0.6-0.2-0.9-0.3c-1.9-0.4-5.2,1-4.6,3.4c0.3,1.1,2.5,2.2,3.4,1.2c0.3-0.4,0.2-1.7,0.1-2.2
				c-0.3-2.2-3.8-3.6-5.1-1.6c-0.1,0.1-0.1,1.2,0,1.2c0.9,0.7,2-0.1,2.1-1.1c0.1-0.4,0-0.8,0-1.2c-0.1-1.1-1.1-1.7-2.2-1.7
				c-1.4,0-2.5,1.1-3.5,2c-0.1,0.1-0.1,1.2,0,1.2c0.9,1.1,2.7,1.1,3.5-0.1c0.1-0.1,0.1-1.2,0-1.2c-0.9-1.1-2.3-1.7-3.8-1.7
				c-0.7,0-1.4,0.2-2.1,0.5c-0.6,0.3-0.7,0.5-0.8,1.1c0,0.6-0.1,1.4,0.2,1.9c0.6,1.1,2,1.6,3.1,1c0,0,0-1.2,0-1.2
				c-1.9-1.2-6-3.1-6.8,0.3c-0.3,1.1-0.3,2.9,0.9,3.4c-0.1-0.1,0.1-1.1,0-1.2c-3.5-3.7-11-0.1-9.9,5.1c0.3,1.6,2.4,0,2.7-1
				c0.2-0.6,0.2-1.5,0-2.1c-0.4-1.9-2.6-2.9-4.1-3.6c-1.7-0.9-3.9-1.7-5.8-0.7c-1.4,0.7-1.9,2-1.9,3.5c0,0.4-0.1,1,0.1,1.3
				c0.3,0.4-0.1,0.3,0.6,0.1c0.3-0.1,0.6-0.2,0.9-0.3c0.8-0.3,1.5-0.5,2.3-0.8c0,0,0-1.2,0-1.2c-1-1.6-2.1-3.6-4.1-4.1
				c-1.4-0.4-3.3,0-3.9,1.4c-0.2,0.6-0.2,1.5-0.1,2.2c0.3,1.3,2.1,2.5,3.1,1.3c0.1-0.1,0.1-1.1,0-1.2c-1.2-3.6-6.9-4-8.6-0.6
				c-0.1,0.1-0.1,1.2,0,1.2c1.4,0.8,2.2-0.8,2.2-2c0-1.5-0.7-2.7-2.2-3.2c-1.5-0.5-3.4-0.3-4.5,0.9c-0.8,0.8-0.8,1.8-0.7,2.9
				c0.1,2,4,3.6,4.2,1c0.1-1.3-0.8-2.2-1.8-2.9c-1.5-1.1-3.5-1.6-5.4-1.3c-1.7,0.3-3.5,1.2-3.6,3.1c-0.1,1.3,0.4,3.5,2.2,2.7
				c0.1,0,0-1,0-1.2c0-2.9-3.1-5.3-5.9-3.8c-2,1.1-2.3,3.3-2.1,5.3c0-0.4,0-0.8,0-1.2c-0.4-2-2.6-3.4-4.6-2.5
				c-1.5,0.7-1.9,2.2-1.9,3.7c0,0.5,0,0.9,0.1,1.4c0,0.2,0.1,0.6,0.3,0.7c0.3,0.3-0.1,0.3,0.4,0.1c0.4-0.2,0.8-0.8,1-1.2
				c0.6-1,0.6-2.2,0.5-3.4c-0.1-2-1.5-3.5-3.4-3.9c-0.5-0.1-1-0.1-1.4,0c-0.2,0-0.4,0.2-0.6,0.2c-0.5,0-0.2,0-0.6-0.2
				c-0.9-0.6-1.7-1.1-2.8-1c-2,0.1-3.4,1.7-3.5,3.6c0,0.5,0,0.9,0,1.4c0,0.2,0,0.3,0,0.5c0,0.3,0.1,0.6,0.2,0.8
				c0.2,0.5,0.2,0.5,0.3,0c0.8-2.7-1.6-6.8-4.8-5.4c-1.4,0.6-2.2,2.2-2.2,3.7c0,0.4,0,0.9,0,1.3c0,0.3,0.1,0.7,0.2,1
				c0.1,0.1,0.1,0.4,0.3,0.5c0.2,0.1,0.3-0.3,0.3-0.6c0.2-1,0.1-2.2-0.6-3c-1.2-1.5-3.3-1-3.6,0.9c-0.1,0.8-0.2,2,0.2,2.7
				c0.1,0.3,0.5,0.8,0.8,0.9c0.4,0.1,0.6-0.2,0.9-0.5c0.5-0.6,0.6-1.3,0.6-2.1c0.1-1.5-0.1-3.1-1.1-4.3c-1.8-2-4.9-2.1-7.3-1.7
				c-1.9,0.4-3.5,1.2-3.5,3.3c0,0.6,0,1.1,0.3,1.6c0.5,0.8,1.6,1.4,2.3,0.6c0.1-0.1,0.1-1.1,0-1.2c-0.5-1.5-1.2-3.2-2.6-4.1
				c-1.2-0.7-2.4-0.4-3.2,0.8c-0.4,0.7-0.4,1.5-0.4,2.3c0,0.4,0,0.7,0.4,1c0.6,0.5,0.6-0.3,0.6-0.8c0-0.7,0.1-1.5-0.3-2.2
				c-0.6-1.1-1.9-2-3.2-1.8c-1.1,0.2-1.1,0.9-1.1,1.9c0.1,1.2,1.2,2.1,2.4,1.5c0.1,0,0.1-1.2,0-1.2c-1.2-1.6-2.5-3.5-4.5-4.2
				c-1.5-0.5-3.7-0.4-4.6,1.1c-1,1.6-0.4,5,1.8,5.1c0,0,0.1-1.1,0-1.2c-0.5-1-1.2-2.2-2.4-2.6c-1-0.3-1.6,0.3-1.7,1.2
				c-0.1,0.7-0.2,2.7,1,2.4c0,0,0-1.2,0-1.2c-0.8-2-3.6-2.7-5.2-1.2C168.9,282,169.3,282.8,169.1,283L169.1,283z"/>
		</g>
	</g>
	<g>
		<g>
			
				<radialGradient id="SVGID_00000068659014321669275340000006522070440333567930_" cx="288.9083" cy="283.2773" r="2.4578" gradientUnits="userSpaceOnUse">
				<stop  offset="0" style="stop-color:#FFFFFF"/>
				<stop  offset="5.325639e-02" style="stop-color:#FEF8E8"/>
				<stop  offset="0.1904" style="stop-color:#FDEDBD"/>
				<stop  offset="0.3293" style="stop-color:#FBE598"/>
				<stop  offset="0.4672" style="stop-color:#FADE7B"/>
				<stop  offset="0.6039" style="stop-color:#F9D960"/>
				<stop  offset="0.7389" style="stop-color:#F9D64B"/>
				<stop  offset="0.8718" style="stop-color:#F8D43C"/>
				<stop  offset="1" style="stop-color:#F8D437"/>
			</radialGradient>
			<path style="fill:url(#SVGID_00000068659014321669275340000006522070440333567930_);" d="M288.9,285.8c3.2,0,3.2-5,0-5
				C285.7,280.8,285.7,285.8,288.9,285.8L288.9,285.8z"/>
		</g>
	</g>
	<g>
		<g>
			
				<radialGradient id="SVGID_00000155865729748564958560000010550031186054322600_" cx="364.4828" cy="276.639" r="2.4578" gradientUnits="userSpaceOnUse">
				<stop  offset="0" style="stop-color:#FFFFFF"/>
				<stop  offset="5.325639e-02" style="stop-color:#FEF8E8"/>
				<stop  offset="0.1904" style="stop-color:#FDEDBD"/>
				<stop  offset="0.3293" style="stop-color:#FBE598"/>
				<stop  offset="0.4672" style="stop-color:#FADE7B"/>
				<stop  offset="0.6039" style="stop-color:#F9D960"/>
				<stop  offset="0.7389" style="stop-color:#F9D64B"/>
				<stop  offset="0.8718" style="stop-color:#F8D43C"/>
				<stop  offset="1" style="stop-color:#F8D437"/>
			</radialGradient>
			<path style="fill:url(#SVGID_00000155865729748564958560000010550031186054322600_);" d="M364.5,279.1c3.2,0,3.2-5,0-5
				C361.3,274.1,361.3,279.1,364.5,279.1L364.5,279.1z"/>
		</g>
	</g>
	<g>
		<g>
			
				<radialGradient id="SVGID_00000162342044902534709790000013438653613090538392_" cx="219.9721" cy="286.3411" r="2.4578" gradientUnits="userSpaceOnUse">
				<stop  offset="0" style="stop-color:#FFFFFF"/>
				<stop  offset="5.325639e-02" style="stop-color:#FEF8E8"/>
				<stop  offset="0.1904" style="stop-color:#FDEDBD"/>
				<stop  offset="0.3293" style="stop-color:#FBE598"/>
				<stop  offset="0.4672" style="stop-color:#FADE7B"/>
				<stop  offset="0.6039" style="stop-color:#F9D960"/>
				<stop  offset="0.7389" style="stop-color:#F9D64B"/>
				<stop  offset="0.8718" style="stop-color:#F8D43C"/>
				<stop  offset="1" style="stop-color:#F8D437"/>
			</radialGradient>
			<path style="fill:url(#SVGID_00000162342044902534709790000013438653613090538392_);" d="M220,288.8c3.2,0,3.2-5,0-5
				C216.8,283.8,216.7,288.8,220,288.8L220,288.8z"/>
		</g>
	</g>
	<g>
		<g>
			
				<radialGradient id="SVGID_00000175293416796074470850000014860416452116502454_" cx="414.0146" cy="266.9369" r="2.4578" gradientUnits="userSpaceOnUse">
				<stop  offset="0" style="stop-color:#FFFFFF"/>
				<stop  offset="5.325639e-02" style="stop-color:#FEF8E8"/>
				<stop  offset="0.1904" style="stop-color:#FDEDBD"/>
				<stop  offset="0.3293" style="stop-color:#FBE598"/>
				<stop  offset="0.4672" style="stop-color:#FADE7B"/>
				<stop  offset="0.6039" style="stop-color:#F9D960"/>
				<stop  offset="0.7389" style="stop-color:#F9D64B"/>
				<stop  offset="0.8718" style="stop-color:#F8D43C"/>
				<stop  offset="1" style="stop-color:#F8D437"/>
			</radialGradient>
			<path style="fill:url(#SVGID_00000175293416796074470850000014860416452116502454_);" d="M414,269.4c3.2,0,3.2-5,0-5
				C410.8,264.4,410.8,269.4,414,269.4L414,269.4z"/>
		</g>
	</g>
	<g>
		<g>
			
				<radialGradient id="SVGID_00000141446681877251774870000016178379408551920291_" cx="170.4402" cy="280.2135" r="2.4578" gradientUnits="userSpaceOnUse">
				<stop  offset="0" style="stop-color:#FFFFFF"/>
				<stop  offset="5.325639e-02" style="stop-color:#FEF8E8"/>
				<stop  offset="0.1904" style="stop-color:#FDEDBD"/>
				<stop  offset="0.3293" style="stop-color:#FBE598"/>
				<stop  offset="0.4672" style="stop-color:#FADE7B"/>
				<stop  offset="0.6039" style="stop-color:#F9D960"/>
				<stop  offset="0.7389" style="stop-color:#F9D64B"/>
				<stop  offset="0.8718" style="stop-color:#F8D43C"/>
				<stop  offset="1" style="stop-color:#F8D437"/>
			</radialGradient>
			<path style="fill:url(#SVGID_00000141446681877251774870000016178379408551920291_);" d="M170.4,282.7c3.2,0,3.2-5,0-5
				C167.2,277.7,167.2,282.7,170.4,282.7L170.4,282.7z"/>
		</g>
	</g>
	<g>
		<g>
			
				<radialGradient id="SVGID_00000058573123596940421000000001814712448445584820_" cx="191.3764" cy="284.2986" r="5.0021" gradientUnits="userSpaceOnUse">
				<stop  offset="0" style="stop-color:#FFFFFF"/>
				<stop  offset="5.325639e-02" style="stop-color:#FEF8E8"/>
				<stop  offset="0.1904" style="stop-color:#FDEDBD"/>
				<stop  offset="0.3293" style="stop-color:#FBE598"/>
				<stop  offset="0.4672" style="stop-color:#FADE7B"/>
				<stop  offset="0.6039" style="stop-color:#F9D960"/>
				<stop  offset="0.7389" style="stop-color:#F9D64B"/>
				<stop  offset="0.8718" style="stop-color:#F8D43C"/>
				<stop  offset="1" style="stop-color:#F8D437"/>
			</radialGradient>
			<path style="fill:url(#SVGID_00000058573123596940421000000001814712448445584820_);" d="M191.4,289.3c2.6,0,5.1-2.3,5-5
				c-0.1-2.7-2.2-5-5-5c-2.6,0-5.1,2.3-5,5C186.5,287,188.6,289.3,191.4,289.3L191.4,289.3z"/>
		</g>
	</g>
	<g>
		<g>
			
				<radialGradient id="SVGID_00000081612082926648715900000009836656513194058638_" cx="254.6955" cy="285.3199" r="5.0021" gradientUnits="userSpaceOnUse">
				<stop  offset="0" style="stop-color:#FFFFFF"/>
				<stop  offset="5.325639e-02" style="stop-color:#FEF8E8"/>
				<stop  offset="0.1904" style="stop-color:#FDEDBD"/>
				<stop  offset="0.3293" style="stop-color:#FBE598"/>
				<stop  offset="0.4672" style="stop-color:#FADE7B"/>
				<stop  offset="0.6039" style="stop-color:#F9D960"/>
				<stop  offset="0.7389" style="stop-color:#F9D64B"/>
				<stop  offset="0.8718" style="stop-color:#F8D43C"/>
				<stop  offset="1" style="stop-color:#F8D437"/>
			</radialGradient>
			<path style="fill:url(#SVGID_00000081612082926648715900000009836656513194058638_);" d="M254.7,290.3c2.6,0,5.1-2.3,5-5
				c-0.1-2.7-2.2-5-5-5c-2.6,0-5.1,2.3-5,5C249.8,288,251.9,290.3,254.7,290.3L254.7,290.3z"/>
		</g>
	</g>
	<g>
		<g>
			
				<radialGradient id="SVGID_00000167376864169702608240000004794923399353363105_" cx="329.2487" cy="281.7454" r="5.0021" gradientUnits="userSpaceOnUse">
				<stop  offset="0" style="stop-color:#FFFFFF"/>
				<stop  offset="5.325639e-02" style="stop-color:#FEF8E8"/>
				<stop  offset="0.1904" style="stop-color:#FDEDBD"/>
				<stop  offset="0.3293" style="stop-color:#FBE598"/>
				<stop  offset="0.4672" style="stop-color:#FADE7B"/>
				<stop  offset="0.6039" style="stop-color:#F9D960"/>
				<stop  offset="0.7389" style="stop-color:#F9D64B"/>
				<stop  offset="0.8718" style="stop-color:#F8D43C"/>
				<stop  offset="1" style="stop-color:#F8D437"/>
			</radialGradient>
			<path style="fill:url(#SVGID_00000167376864169702608240000004794923399353363105_);" d="M329.2,286.7c2.6,0,5.1-2.3,5-5
				c-0.1-2.7-2.2-5-5-5c-2.6,0-5.1,2.3-5,5C324.4,284.5,326.4,286.7,329.2,286.7L329.2,286.7z"/>
		</g>
	</g>
	<g>
		<g>
			
				<radialGradient id="SVGID_00000134931282710874432430000007747364165604143033_" cx="392.0572" cy="274.0858" r="5.0021" gradientUnits="userSpaceOnUse">
				<stop  offset="0" style="stop-color:#FFFFFF"/>
				<stop  offset="5.325639e-02" style="stop-color:#FEF8E8"/>
				<stop  offset="0.1904" style="stop-color:#FDEDBD"/>
				<stop  offset="0.3293" style="stop-color:#FBE598"/>
				<stop  offset="0.4672" style="stop-color:#FADE7B"/>
				<stop  offset="0.6039" style="stop-color:#F9D960"/>
				<stop  offset="0.7389" style="stop-color:#F9D64B"/>
				<stop  offset="0.8718" style="stop-color:#F8D43C"/>
				<stop  offset="1" style="stop-color:#F8D437"/>
			</radialGradient>
			<path style="fill:url(#SVGID_00000134931282710874432430000007747364165604143033_);" d="M392.1,279.1c2.6,0,5.1-2.3,5-5
				c-0.1-2.7-2.2-5-5-5c-2.6,0-5.1,2.3-5,5C387.2,276.8,389.3,279.1,392.1,279.1L392.1,279.1z"/>
		</g>
	</g>
</g>
</svg>
