<?xml version="1.0" encoding="utf-8"?>
<!-- Generator: Adobe Illustrator 25.2.3, SVG Export Plug-In . SVG Version: 6.00 Build 0)  -->
<svg version="1.1" id="Layer_1" xmlns="http://www.w3.org/2000/svg" xmlns:xlink="http://www.w3.org/1999/xlink" x="0px" y="0px"
	 viewBox="0 0 612 612" style="enable-background:new 0 0 612 612;" xml:space="preserve">
<g>
	<path d="M603.1,306.9c0,51.7-42.3,94.1-94.1,94.1H399.9v109.1c0,51.7-42.3,94.1-94.1,94.1c-51.7,0-94.1-42.3-94.1-94.1V401H102.7
		C51,401,8.6,358.7,8.6,306.9c0-25.9,10.6-49.4,27.6-66.4s40.6-27.6,66.4-27.6h109.1V103.7c0-51.7,42.3-94.1,94.1-94.1
		c25.9,0,49.4,10.6,66.4,27.6c17.1,17.1,27.6,40.6,27.6,66.4v109.1H509C560.8,212.9,603.1,255.2,603.1,306.9z"/>
	<g>
		<path d="M600.6,306.9c-0.1,24.1-9.7,47.3-26.6,64.4c-16.9,17-40.1,26.9-64.1,27.2c-25.8,0.2-51.6,0-77.4,0c-10.9,0-21.7,0-32.6,0
			c-1.4,0-2.5,1.1-2.5,2.5c0,25.9,0,51.7,0,77.6c0,10.4,0,20.8,0,31.2c-0.1,21.6-7.6,42.7-21.6,59.3c-15.3,18-37.3,29.9-60.8,32.2
			c-24,2.4-48.5-5-67.1-20.4c-18.3-15.1-30.5-37.1-33-60.8c-1.1-10.1-0.5-20.5-0.5-30.7c0-28.8,0-57.6,0-86.4c0-0.7,0-1.3,0-2
			c0-1.4-1.1-2.5-2.5-2.5c-25,0-49.9,0-74.9,0c-11,0-22,0-33.1,0c-19.2,0-37.7-5.5-53.5-16.5c-18.7-13-32.2-33.1-37.1-55.4
			c-5.8-25.8,0.3-53.3,16.2-74.5c16.3-21.8,42.2-35.6,69.4-36.7c9.1-0.4,18.2-0.1,27.3-0.1c28,0,55.9,0,83.9,0c0.6,0,1.2,0,1.8,0
			c1.4,0,2.5-1.1,2.5-2.5c0-25,0-49.9,0-74.9c0-11,0-22,0-33.1c0-19.2,5.5-37.7,16.5-53.5c13.1-18.7,33.1-32.2,55.4-37.1
			c25.8-5.8,53.3,0.3,74.5,16.2c21.8,16.3,35.6,42.2,36.7,69.3c0.4,9.1,0.1,18.2,0.1,27.3c0,28,0,55.9,0,83.9c0,0.6,0,1.2,0,1.8
			c0,1.4,1.1,2.5,2.5,2.5c25.9,0,51.7,0,77.6,0c10.4,0,20.7,0,31.1,0c21.5,0,42.5,7.5,59,21.3C588.4,254.1,600.5,279.9,600.6,306.9
			c0,3.2,5,3.2,5,0c-0.1-24.3-9.4-47.9-25.9-65.7c-16.5-17.8-39.4-28.8-63.6-30.6c-10.1-0.8-20.4-0.3-30.5-0.3
			c-17.2,0-34.5,0-51.7,0c-11.3,0-22.6,0-34,0c0.8,0.8,1.7,1.7,2.5,2.5c0-25.7,0-51.4,0-77.1c0-10.5,0-21.1,0-31.6
			c0-24.4-9.2-48.1-25.8-66c-18.7-20.2-45.7-31.7-73.3-31c-23.4,0.6-46,10-63.2,25.9c-17.2,16-28.2,38.1-30.5,61.5
			c-1,9.9-0.4,20-0.4,29.9c0,28.8,0,57.6,0,86.4c0,0.7,0,1.3,0,2c0.8-0.8,1.7-1.7,2.5-2.5c-25.7,0-51.4,0-77.1,0
			c-10.5,0-21.1,0-31.6,0c-24.4,0-48.1,9.2-66,25.8c-20.2,18.7-31.7,45.7-31,73.3c0.6,23.4,10,46,25.9,63.2
			c16,17.2,38.1,28.2,61.5,30.5c9.9,1,20,0.4,29.9,0.4c28.8,0,57.6,0,86.4,0c0.7,0,1.3,0,2,0c-0.8-0.8-1.7-1.7-2.5-2.5
			c0,26.8,0,53.5,0,80.3c0,9.6,0,19.2,0,28.8c0.1,23.8,9,46.8,24.9,64.5c16.1,17.9,38.6,29.3,62.6,31.6c24.3,2.4,49-4.9,68.2-19.9
			c18.9-14.7,32.1-36.3,36.1-59.9c1.9-11.3,1.4-22.8,1.4-34.2c0-29.7,0-59.5,0-89.2c0-0.7,0-1.3,0-2c-0.8,0.8-1.7,1.7-2.5,2.5
			c26.7,0,53.3,0,80,0c9.7,0,19.4,0,29.1,0c23.7-0.1,46.6-8.9,64.3-24.6c20.4-18.2,32.2-44.6,32.3-72
			C605.6,303.7,600.6,303.7,600.6,306.9z"/>
	</g>
</g>
</svg>
