<?xml version="1.0" encoding="utf-8"?>
<!-- Generator: Adobe Illustrator 28.2.0, SVG Export Plug-In . SVG Version: 6.00 Build 0)  -->
<svg version="1.1" xmlns="http://www.w3.org/2000/svg" xmlns:xlink="http://www.w3.org/1999/xlink" x="0px" y="0px"
	 viewBox="0 0 612 612" style="enable-background:new 0 0 612 612;" xml:space="preserve">
<style type="text/css">
	.st0{fill:#603913;}
	.st1{fill:#414042;}
	.st2{fill:#6D6E71;}
	.st3{fill:#FFFFFF;}
	.st4{fill:#A7A9AC;}
	.st5{fill:#BCBEC0;}
	.st6{fill:#8B5E3C;}
	.st7{fill:#58595B;}
	.st8{fill:#939598;}
	.st9{fill:#D1D3D4;}
	.st10{fill:#754C29;}
	.st11{fill:none;stroke:#000000;stroke-miterlimit:10;}
	.st12{fill:#8255A3;}
	.st13{fill:url(#SVGID_1_);}
	.st14{fill:#090E17;}
	.st15{fill:#9471B2;}
	.st16{fill:url(#SVGID_00000173133853982626463500000008099680888884784830_);}
	.st17{fill:url(#SVGID_00000010998997764254587240000016696474376828710035_);}
	.st18{fill:url(#SVGID_00000082366117454753045190000014757322544000398993_);}
	.st19{fill:url(#SVGID_00000178904486137405178500000009833501006761406848_);}
	.st20{fill:url(#SVGID_00000062909541037880820210000011166496275054471861_);}
	.st21{fill:url(#SVGID_00000101798355955687209230000013638805088725423498_);}
	.st22{fill:url(#SVGID_00000075130260240364161290000016282484130784151457_);}
	.st23{fill:url(#SVGID_00000151510709521815605470000016646296615521241768_);}
	.st24{fill:url(#SVGID_00000129204277545805014020000014045541366686345872_);}
	.st25{fill:#A97C50;}
	.st26{fill:#009444;}
	.st27{fill:#39B54A;}
	.st28{fill:#FBF398;}
	.st29{fill:url(#SVGID_00000147220775836845270550000016983748706597913269_);}
	.st30{fill:url(#SVGID_00000112590055511978738360000000248357380565699495_);}
	.st31{fill:url(#SVGID_00000012471275943785708600000014243143986940169148_);}
	.st32{fill:url(#SVGID_00000093886872715319090790000004864156053759690144_);}
	.st33{fill:url(#SVGID_00000183956551568704183320000001844532841275640244_);}
	.st34{fill:url(#SVGID_00000010993769153655816470000009473655549071759290_);}
	.st35{fill:url(#SVGID_00000162310698307166490150000006588722999108300216_);}
	.st36{fill:url(#SVGID_00000075134233642478461510000011118725901348412091_);}
	.st37{fill:url(#SVGID_00000142892257305307059810000017393044858252322470_);}
	.st38{fill:url(#SVGID_00000155145207993793672130000006658064852613639091_);}
	.st39{fill:url(#SVGID_00000083054428807198119300000005481159417104417704_);}
	.st40{fill:url(#SVGID_00000021098408317570493230000013706603612006091656_);}
	.st41{fill:url(#SVGID_00000093160370772980531350000012688087713761598882_);}
	.st42{fill:url(#SVGID_00000022554201566551538460000015810229717609370775_);}
	.st43{fill:url(#SVGID_00000027579954261982358380000017230161866579363774_);}
	.st44{fill:url(#SVGID_00000050664762252781089390000003521025042509407408_);}
	.st45{fill:url(#SVGID_00000026162652831294131940000014313781101753554050_);}
	.st46{fill:url(#SVGID_00000135661230774721310450000007148840291159924143_);}
	.st47{fill:url(#SVGID_00000147909499438244570090000000879716746121373355_);}
	.st48{fill:url(#SVGID_00000032648040009737472400000003900342025893552781_);}
	.st49{fill:url(#SVGID_00000049195722731318719010000004494193296362525859_);}
	.st50{fill:url(#SVGID_00000138553966599872412220000004331575351021560244_);}
	.st51{fill:url(#SVGID_00000156553936302655974290000013199310568028792764_);}
	.st52{fill:url(#SVGID_00000068677955378311788060000001941661542322579887_);}
	.st53{fill:url(#SVGID_00000103954206787411697380000010101103543680905634_);}
	.st54{fill:url(#SVGID_00000129891692117570797290000013209049056332877206_);}
	.st55{fill:url(#SVGID_00000055686171878784224570000001959814740010178700_);}
	.st56{fill:url(#SVGID_00000104706753274551650650000015762615850150110655_);}
	.st57{fill:url(#SVGID_00000158012175043491139810000012627505376654733459_);}
	.st58{fill:url(#SVGID_00000000934968898767378370000001221776631935895206_);}
	.st59{fill:url(#SVGID_00000174571863848470093050000006467979801816643746_);}
	.st60{fill:url(#SVGID_00000014598504056306994390000011341041033588168613_);}
	.st61{fill:url(#SVGID_00000074417715910381835420000015256592255913646233_);}
	.st62{fill:url(#SVGID_00000053526013133169877080000013089656208214016900_);}
	.st63{fill:url(#SVGID_00000023264563674205167090000006789900350875158438_);}
	.st64{fill:url(#SVGID_00000042002784083255664130000010020159681466833540_);}
	.st65{fill:url(#SVGID_00000126304114801006705790000005850651408586458021_);}
	.st66{fill:url(#SVGID_00000076586424741787704190000009481463500762086825_);}
	.st67{fill:url(#SVGID_00000066511217663701715340000017272128024636979380_);}
	.st68{fill:url(#SVGID_00000025431309794835211710000005154352616592390549_);}
	.st69{fill:url(#SVGID_00000049210469480412536180000008020908237838063524_);}
	.st70{fill:url(#SVGID_00000085964337112817169320000012647160348680682920_);}
	.st71{fill:url(#SVGID_00000180340357568603082840000005165657620154614683_);}
	.st72{fill:url(#SVGID_00000101062771894882876940000010598267290731152313_);}
	.st73{fill:url(#SVGID_00000095335523965869471010000001531367582811306401_);}
	.st74{fill:url(#SVGID_00000029019349156144466320000016349814852038452136_);}
	.st75{fill:url(#SVGID_00000101821294391807777710000000224435317941781162_);}
	.st76{fill:url(#SVGID_00000048478831461650686600000011806302680245161381_);}
	.st77{fill:url(#SVGID_00000025429906712679355930000004014391168695801489_);}
	.st78{fill:url(#SVGID_00000052104267029057510690000003074482065071826066_);}
	.st79{fill:url(#SVGID_00000136406104256509215100000010403879112763348657_);}
	.st80{fill:url(#SVGID_00000148646044714714275530000006165435254812897163_);}
	.st81{fill:url(#SVGID_00000142160347371866873710000013333049019798762166_);}
	.st82{fill:url(#SVGID_00000106838251941612713910000013071044869781519512_);}
	.st83{fill:url(#SVGID_00000133526020009604284100000016864781174400277394_);}
	.st84{fill:url(#SVGID_00000127744297360539828890000012564637014704821380_);}
	.st85{fill:url(#SVGID_00000183933288531799484240000001392662670949762455_);}
	.st86{fill:#006838;}
	.st87{fill:url(#SVGID_00000039094712146299224060000016359527714827847351_);}
	.st88{fill:url(#SVGID_00000156579558222136826880000000813150243424867979_);}
	.st89{fill:url(#SVGID_00000111876782427078210830000007968301580680111287_);}
	.st90{fill:url(#SVGID_00000166660129217378869150000010037999018225243816_);}
	.st91{fill:url(#SVGID_00000110433939214750567190000006772647106637576072_);}
	.st92{fill:url(#SVGID_00000049190789042273929150000000981781705383418261_);}
	.st93{fill:url(#SVGID_00000114785438793760666640000010317372942629271729_);}
	.st94{fill:url(#SVGID_00000160165984770684681200000009168368134780778130_);}
	.st95{fill:url(#SVGID_00000013189173824653566440000003182027291069479046_);}
	.st96{fill:url(#SVGID_00000155848621595732487570000010754504933837770643_);}
	.st97{fill:url(#SVGID_00000147901933221653357070000005814056352719479217_);}
	.st98{fill:url(#SVGID_00000095328280118989007580000016184713428681609345_);}
	.st99{fill:url(#SVGID_00000070101623428119668200000016757780635257739699_);}
	.st100{fill:url(#SVGID_00000074422924724861646880000011446074848277988012_);}
	.st101{fill:url(#SVGID_00000052067747760592968030000016398288004800016808_);}
	.st102{fill:url(#SVGID_00000147919076318235771800000017940526181269937032_);}
	.st103{fill:url(#SVGID_00000036218684532127864780000009558054949864820895_);}
	.st104{fill:url(#SVGID_00000009582737190761525940000009893874954678015387_);}
	.st105{fill:url(#SVGID_00000147913459340252836880000002946302921548651144_);}
	.st106{fill:url(#SVGID_00000093137545767512942060000010789479278030165681_);}
	.st107{fill:url(#SVGID_00000085941985345543213720000002020756913488249500_);}
	.st108{fill:url(#SVGID_00000138541951003088669920000012340499084828166279_);}
	.st109{fill:url(#SVGID_00000171685608112265695900000012128237467479403706_);}
	.st110{fill:url(#SVGID_00000089563431955908243520000002032093324349228432_);}
	.st111{fill:url(#SVGID_00000173143049375069067200000013826629777641032331_);}
	.st112{fill:url(#SVGID_00000058590963718933591920000009099098227790465675_);}
	.st113{fill:url(#SVGID_00000027572193311897466020000008780590293194138034_);}
	.st114{fill:url(#SVGID_00000058589147211896910520000013596276484817887925_);}
	.st115{fill:url(#SVGID_00000175284486411146225750000018051162984664446634_);}
	.st116{fill:url(#SVGID_00000044878271509816362940000010516860676954336897_);}
	.st117{fill:url(#SVGID_00000156579244809067002520000001397033794457364367_);}
	.st118{fill:url(#SVGID_00000060018677202358211660000001296482971627650489_);}
	.st119{fill:url(#SVGID_00000083063596536353487450000017874107781633339045_);}
	.st120{fill:url(#SVGID_00000044880164619887219410000013220369323086349745_);}
	.st121{fill:url(#SVGID_00000047752323786904646240000017788354307995563666_);}
	.st122{fill:url(#SVGID_00000152957300103652639580000004715622233358956205_);}
	.st123{fill:url(#SVGID_00000145760941483507502020000016789495393083528580_);}
	.st124{fill:url(#SVGID_00000134223153165753097030000008313941376896250037_);}
	.st125{fill:url(#SVGID_00000095322568242952976940000006743345431619978173_);}
	.st126{fill:url(#SVGID_00000076578328484401653980000012803697968326682539_);}
	.st127{fill:url(#SVGID_00000150075282115107489550000004550870439453520258_);}
	.st128{fill:url(#SVGID_00000176746248425062352560000014658262918308532140_);}
	.st129{fill:url(#SVGID_00000103259455745630376860000005893735898966640829_);}
	.st130{fill:url(#SVGID_00000104701956526556735050000010758188387656336316_);}
	.st131{fill:url(#SVGID_00000132805876842929726830000015116593434196764554_);}
	.st132{fill:url(#SVGID_00000013901120968716460670000013644911077115332759_);}
	.st133{fill:url(#SVGID_00000144306946570400171690000015918212219809137285_);}
	.st134{fill:url(#SVGID_00000059999680663927412500000001525204588331402416_);}
	.st135{fill:url(#SVGID_00000035530903638089008090000009810234346982114719_);}
	.st136{fill:url(#SVGID_00000109711206257156645370000008536051308369301144_);}
	.st137{fill:url(#SVGID_00000140016658482121705990000004686063635241472916_);}
	.st138{fill:url(#SVGID_00000171695351391979500450000011846353089244381333_);}
	.st139{fill:url(#SVGID_00000130636355814787760510000018191230928094305192_);}
	.st140{fill:url(#SVGID_00000035496125926240150620000006216095427498610350_);}
	.st141{fill:url(#SVGID_00000166636944734357260110000002596068687486673028_);}
	.st142{fill:url(#SVGID_00000011029208138811478810000006311865064604810654_);}
	.st143{fill:url(#SVGID_00000129170754891281345400000001200407201060562353_);}
	.st144{fill:url(#SVGID_00000123419546129403956140000014427023532166316223_);}
	.st145{fill:url(#SVGID_00000059292053107275175520000006825851439296040579_);}
	.st146{fill:url(#SVGID_00000029758052416767284120000003860715716424021137_);}
	.st147{fill:url(#SVGID_00000063633196717643035850000001801607555742370736_);}
	.st148{fill:url(#SVGID_00000144332568371550938640000002208524885356620192_);}
	.st149{fill:url(#SVGID_00000155144462878483119200000004539101346855750308_);}
	.st150{fill:url(#SVGID_00000160878400470186025210000015405438405300123033_);}
	.st151{fill:url(#SVGID_00000059267930650817215920000015875154351349602749_);}
	.st152{fill:url(#SVGID_00000002359240603268565100000009584862187931812540_);}
	.st153{fill:url(#SVGID_00000118382628834239890900000004167066614382592187_);}
	.st154{fill:url(#SVGID_00000010303212331848683190000002851260156224620976_);}
	.st155{fill:url(#SVGID_00000160875460118103683450000011338780685627124923_);}
	.st156{fill:url(#SVGID_00000000216371823326505670000007455009964517570196_);}
	.st157{fill:url(#SVGID_00000038401747837240623050000016583888390022361505_);}
	.st158{fill:url(#SVGID_00000060002701021342888670000008879905789841810080_);}
	.st159{fill:url(#SVGID_00000110445347108067091960000001591525801165424286_);}
	.st160{fill:url(#SVGID_00000086654120331752684970000013640560402966496688_);}
	.st161{fill:url(#SVGID_00000166661158386126683670000017569698556613582496_);}
	.st162{fill:url(#SVGID_00000092436079986637677470000012211255344540374692_);}
	.st163{fill:url(#SVGID_00000068647224154903751230000009179494562598418845_);}
	.st164{fill:url(#SVGID_00000109021632240737171680000012830011403314749067_);}
	.st165{fill:url(#SVGID_00000069398396807165879320000005391171672441014685_);}
	.st166{fill:url(#SVGID_00000062893704037181215610000006541914002367308940_);}
	.st167{fill:url(#SVGID_00000073716604544986134250000011485524079036347820_);}
	.st168{fill:url(#SVGID_00000119099926092740153790000013712473149196581526_);}
	.st169{fill:url(#SVGID_00000127755052996755146350000010781770661927219072_);}
	.st170{fill:url(#SVGID_00000123417862987230960790000013894183915001395846_);}
	.st171{fill:url(#SVGID_00000022562534082227500020000000514428212172755887_);}
	.st172{fill:url(#SVGID_00000034071317191321580350000000733504242451529385_);}
	.st173{fill:url(#SVGID_00000039109244180729643420000004265619160696411525_);}
	.st174{fill:url(#SVGID_00000101100597551710127020000014713629715433264273_);}
	.st175{fill:url(#SVGID_00000147923756717949376470000003128123873128705444_);}
	.st176{fill:url(#SVGID_00000044875643468231953720000014602737383158379928_);}
	.st177{fill:url(#SVGID_00000096044590343871074000000001657484668231651224_);}
	.st178{fill:url(#SVGID_00000127035466867322624680000001392861692278378129_);}
	.st179{fill:url(#SVGID_00000036968771864545538030000011775171729062778809_);}
	.st180{fill:url(#SVGID_00000132061844991152192270000003137925401848313478_);}
	.st181{fill:url(#SVGID_00000003827160940039537520000005575795121440611469_);}
	.st182{fill:url(#SVGID_00000159448561497779898300000018327838238241836953_);}
	.st183{fill:url(#SVGID_00000109741742906273284520000002215078041472890019_);}
	.st184{fill:url(#SVGID_00000098903606025874392050000018168919591257390267_);}
	.st185{fill:url(#SVGID_00000058558163976302624340000000633273913117302163_);}
	.st186{fill:url(#SVGID_00000106146991482485368790000014528408233898959495_);}
	.st187{fill:url(#SVGID_00000013885673797356596670000006907669810503467426_);}
	.st188{fill:url(#SVGID_00000022552693821029716900000015557164218597743495_);}
	.st189{fill:url(#SVGID_00000151542672595464411080000009630764654006420660_);}
	.st190{fill:url(#SVGID_00000163057282067359511860000014344820603825110921_);}
	.st191{fill:url(#SVGID_00000103249073325833349340000006026551269549386658_);}
	.st192{fill:url(#SVGID_00000179619179357118575060000009310422494880501426_);}
	.st193{fill:url(#SVGID_00000126305085428571856740000011179762794597585067_);}
	.st194{fill:url(#SVGID_00000047768440985215426730000008425411037005474222_);}
	.st195{fill:url(#SVGID_00000098911611728568462680000011235977224980042934_);}
	.st196{fill:url(#SVGID_00000119083286719932787360000000605493598364224930_);}
	.st197{fill:url(#SVGID_00000124853176064636364420000001432691157959470727_);}
	.st198{fill:url(#SVGID_00000165934480880344563560000003128186567447483272_);}
	.st199{fill:url(#SVGID_00000065772375282999832670000004683883720759666094_);}
	.st200{fill:url(#SVGID_00000101820419503666453370000011887876550976460447_);}
	.st201{fill:url(#SVGID_00000091697889559258736420000013017644278621799614_);}
	.st202{fill:url(#SVGID_00000135656067974634205310000016279521914697585850_);}
	.st203{fill:url(#SVGID_00000041265935676245786480000002965950457913975427_);}
	.st204{fill:url(#SVGID_00000162341975084233593760000010043536261632892333_);}
	.st205{fill:url(#SVGID_00000178168369550309073890000009052143519947365035_);}
	.st206{fill:url(#SVGID_00000152230188221929060220000000471346191622318233_);}
	.st207{fill:url(#SVGID_00000052085589743611327450000008692092532920941485_);}
	.st208{fill:url(#SVGID_00000083064063446416112590000017703783329530937272_);}
	.st209{fill:url(#SVGID_00000096763271326166427120000000456178653975041411_);}
	.st210{fill:url(#SVGID_00000034796656520198017750000012646291375387455384_);}
	.st211{fill:url(#SVGID_00000168836783297930170960000012575540119012951213_);}
	.st212{fill:url(#SVGID_00000137813930666214716370000010616165202784478645_);}
	.st213{fill:url(#SVGID_00000126282631741669890080000006570606254434103697_);}
	.st214{fill:url(#SVGID_00000158015517978820002220000006627184015666572727_);}
	.st215{fill:url(#SVGID_00000168094100098605913400000016043486576913284792_);}
	.st216{fill:url(#SVGID_00000076601759286409594330000014165922603726528172_);}
	.st217{fill:url(#SVGID_00000013901382301759692730000001685111140128646308_);}
	.st218{fill:url(#SVGID_00000132806653170290865540000007242082319328853163_);}
	.st219{fill:url(#SVGID_00000163785425698925003030000010325965956506392991_);}
	.st220{fill:url(#SVGID_00000089572578951045879560000012312586930651918000_);}
	.st221{fill:url(#SVGID_00000033339077101448070460000007080366077136354946_);}
	.st222{fill:url(#SVGID_00000010991894322483120540000000965999860180186270_);}
	.st223{fill:url(#SVGID_00000003082572051861872270000018092784068354348201_);}
	.st224{fill:url(#SVGID_00000080918927690789896570000003232253445507725707_);}
	.st225{fill:url(#SVGID_00000065074253423250403010000009642014091450746240_);}
	.st226{fill:url(#SVGID_00000170982413040853158420000010040468470412176271_);}
	.st227{fill:url(#SVGID_00000039839392498742386820000012068175609115937964_);}
	.st228{fill:url(#SVGID_00000116202736925129428200000014608721304681607083_);}
	.st229{fill:url(#SVGID_00000129192610071054971610000012908016319559294086_);}
	.st230{fill:url(#SVGID_00000176024946745355192770000009232001312160663995_);}
	.st231{fill:url(#SVGID_00000049216426319867765080000005648239331727579268_);}
	.st232{fill:url(#SVGID_00000030447846884639720740000015494208322311438217_);}
	.st233{fill:url(#SVGID_00000057129566016420591870000018093767541689463729_);}
	.st234{fill:url(#SVGID_00000108995826417044204440000016674697431422646710_);}
	.st235{fill:url(#SVGID_00000134207380459831591470000007949064281971535267_);}
	.st236{fill:url(#SVGID_00000018949952791287245600000016108186682344236968_);}
	.st237{fill:url(#SVGID_00000077303012501462509650000008095783864466298496_);}
	.st238{fill:url(#SVGID_00000034794883435295490720000003004749274399691192_);}
	.st239{fill:url(#SVGID_00000138534976492962463450000014206568961233397399_);}
	.st240{fill:url(#SVGID_00000098935617250997056360000004657314098870780860_);}
	.st241{fill:url(#SVGID_00000068650012761185247200000017978016503746537623_);}
	.st242{fill:url(#SVGID_00000103976393836722229380000015742926776391609779_);}
	.st243{fill:url(#SVGID_00000114052840015534746420000006610751229733586049_);}
	.st244{fill:url(#SVGID_00000085218711693987408520000015947412024004180911_);}
	.st245{fill:url(#SVGID_00000038396209987246111730000013291168459124510365_);}
	.st246{fill:url(#SVGID_00000013156353848755372440000008999157398395304625_);}
	.st247{fill:url(#SVGID_00000096756278442923876360000007043281108937157296_);}
	.st248{fill:url(#SVGID_00000139993309302417461080000016522034885428951707_);}
	.st249{fill:url(#SVGID_00000074421384495203996590000012047709349288484284_);}
</style>
<g id="Layer_1">
</g>
<g id="Layer_2">
	<g>
		<g>
			<path class="st3" d="M330.1,164c-263.8-0.2-213.5,334.8,38.6,263.7c180-40.3,93.8-301.1-67-260.3"/>
			<g>
				<path d="M330.1,161.5c-10.8,0-21.5,0.5-32.2,1.8c-9.8,1.1-19.5,2.8-29.1,5.1c-8.7,2.1-17.2,4.8-25.5,8.1
					c-7.8,3.1-15.3,6.7-22.6,10.9c-6.7,3.9-13.2,8.3-19.2,13.2c-5.7,4.5-10.9,9.5-15.8,14.9c-4.7,5.3-9.1,10.9-12.9,16.9
					c-3.7,5.7-6.9,11.6-9.6,17.8c-2.7,6.2-5,12.5-6.7,19c-1.7,6.5-2.9,13.1-3.7,19.7c-0.7,6.5-0.9,13-0.7,19.4
					c0.3,6.6,1,13.2,2.2,19.7c1.2,6.4,2.9,12.7,5,18.8c2.2,6.3,4.8,12.5,7.9,18.4c3,5.8,6.5,11.5,10.4,16.8
					c4.1,5.6,8.5,10.8,13.4,15.7c5,5,10.4,9.6,16.1,13.7c5.7,4.2,11.8,8,18.2,11.2c6.8,3.5,13.9,6.5,21.1,8.9
					c7.6,2.5,15.3,4.5,23.2,5.8c8.6,1.5,17.3,2.4,26,2.6c9.3,0.3,18.6-0.1,27.8-1c10.3-1,20.5-2.7,30.6-5c5.3-1.2,10.6-2.8,15.9-4
					c5-1.2,10-2.5,14.9-4.1c9-2.9,17.8-6.6,26.1-11.2c7.6-4.2,14.7-9.1,21.3-14.8c6.1-5.3,11.6-11.3,16.5-17.8
					c4.6-6.1,8.5-12.7,11.7-19.6c3.2-7,5.8-14.3,7.6-21.8c1.8-7.5,3-15.2,3.5-23c0.5-7.6,0.3-15.3-0.5-22.9
					c-0.8-7.9-2.2-15.7-4.2-23.4c-2-7.7-4.6-15.3-7.7-22.7c-3.1-7.3-6.6-14.3-10.7-21c-4.1-6.8-8.8-13.3-13.9-19.4
					c-5-6-10.6-11.6-16.5-16.7c-6-5.2-12.5-9.9-19.4-13.9c-6.9-4.1-14.2-7.5-21.7-10.2c-7.6-2.7-15.5-4.7-23.5-5.8
					c-8.6-1.2-17.2-1.6-25.8-1.1c-8.9,0.5-17.8,2-26.4,4.2c-3.1,0.8-1.8,5.6,1.3,4.8c8.9-2.3,17.2-3.6,26.2-4.1
					c4.3-0.2,8.5-0.2,12.8,0c2.1,0.1,4.1,0.3,6.2,0.5c1,0.1,2.1,0.2,3.1,0.3c0.2,0,0.5,0.1,0.7,0.1c0.3,0,0,0-0.1,0
					c0.1,0,0.2,0,0.4,0c0.5,0.1,1.1,0.2,1.6,0.2c7.9,1.2,15.6,3.2,23.1,5.9c0.9,0.3,1.8,0.7,2.7,1c0.5,0.2,0.9,0.4,1.4,0.6
					c0.2,0.1,0.4,0.2,0.6,0.3c0.1,0,0.2,0.1,0.3,0.1c0.4,0.2-0.3-0.1,0,0c1.8,0.8,3.5,1.6,5.3,2.4c3.5,1.7,6.9,3.5,10.3,5.5
					c3.3,2,6.6,4.2,9.7,6.4c0.8,0.6,1.5,1.1,2.3,1.7c0.1,0.1,0.5,0.4,0.4,0.3c-0.2-0.1,0.4,0.3,0.5,0.4c0.4,0.3,0.8,0.6,1.1,0.9
					c1.5,1.2,3,2.4,4.4,3.7c5.8,5.1,11.3,10.7,16.2,16.7c0.6,0.7,1.2,1.5,1.8,2.2c0.3,0.4,0.6,0.8,0.9,1.2c0.1,0.1,0.4,0.5,0.2,0.2
					c0.2,0.2,0.3,0.4,0.5,0.6c1.2,1.5,2.3,3.1,3.4,4.7c2.2,3.2,4.4,6.5,6.4,9.8c2,3.3,3.8,6.7,5.6,10.2c0.9,1.8,1.7,3.5,2.6,5.3
					c0.4,0.9,0.8,1.7,1.2,2.6c0.2,0.5,0.4,0.9,0.6,1.4c0,0.1,0.1,0.2,0.1,0.3c0,0-0.1-0.3,0-0.1c0.1,0.2,0.2,0.5,0.3,0.7
					c3,7.1,5.4,14.5,7.3,22c0.9,3.7,1.7,7.5,2.4,11.3c0.2,1,0.3,1.9,0.5,2.9c0.1,0.4,0.1,0.9,0.2,1.3c0,0.2,0.1,0.4,0.1,0.7
					c0,0.1,0,0.2,0,0.3c0.1,0.4-0.1-0.4,0,0c0.2,1.9,0.5,3.8,0.6,5.7c0.7,7.6,0.8,15.2,0.3,22.8c-0.1,1.9-0.3,3.7-0.5,5.6
					c0,0.4-0.1,0.9-0.2,1.3c0,0.3-0.1,0.5-0.1,0.8c0,0.1,0,0.2,0,0.3c-0.1,0.4,0.1-0.4,0,0c-0.1,0.9-0.3,1.8-0.4,2.7
					c-0.6,3.7-1.3,7.4-2.3,11c-0.9,3.6-2,7.2-3.3,10.7c-0.6,1.7-1.3,3.5-2,5.2c0,0.1-0.3,0.6-0.2,0.4c0.1-0.2-0.1,0.3-0.2,0.4
					c-0.2,0.5-0.4,0.9-0.6,1.4c-0.4,0.8-0.8,1.7-1.1,2.5c-3.3,6.9-7.3,13.4-11.9,19.4c-0.3,0.4,0.1-0.2-0.2,0.2
					c-0.1,0.2-0.3,0.4-0.4,0.5c-0.3,0.4-0.6,0.8-0.9,1.1c-0.6,0.8-1.2,1.5-1.9,2.3c-1.3,1.5-2.6,2.9-3.9,4.3
					c-2.8,2.9-5.7,5.6-8.8,8.2c-3.2,2.7-5.9,4.8-9.5,7.2c-3.6,2.4-7.3,4.7-11.1,6.7c-8.3,4.4-16.5,7.8-25.5,10.5
					c-4.9,1.5-10,2.6-15,4c-5.2,1.4-10.4,2.7-15.6,3.9c-9.9,2.1-19.5,3.7-29.4,4.6c-9.1,0.8-18.3,1.1-27.4,0.8
					c-4.3-0.2-8.6-0.5-12.9-0.9c-1-0.1-2-0.2-3-0.4c-0.2,0-0.5-0.1-0.7-0.1c-0.5-0.1,0,0-0.4-0.1c-0.5-0.1-1-0.1-1.6-0.2
					c-2-0.3-4-0.6-6-1c-7.7-1.4-15.4-3.4-22.8-5.9c-1.8-0.6-3.5-1.2-5.3-1.9c-0.8-0.3-1.7-0.7-2.5-1c-0.4-0.2-0.9-0.4-1.3-0.5
					c-0.4-0.2-0.1,0-0.2-0.1c-0.2-0.1-0.5-0.2-0.7-0.3c-3.4-1.4-6.7-3-9.9-4.7c-6.2-3.3-12.2-7-17.9-11.2c-0.3-0.2-0.6-0.5-1-0.7
					c-0.2-0.1-0.3-0.2-0.5-0.4c-0.1-0.1-0.2-0.2-0.3-0.2c0.2,0.1,0.2,0.2,0,0c-0.7-0.5-1.3-1-2-1.6c-1.3-1.1-2.7-2.2-4-3.3
					c-2.5-2.2-5-4.5-7.3-6.9c-2.3-2.4-4.6-4.9-6.7-7.4c-1.1-1.3-2.1-2.5-3.1-3.8c-0.3-0.4,0,0-0.1-0.1c-0.1-0.2-0.3-0.4-0.4-0.5
					c-0.3-0.3-0.5-0.7-0.8-1c-0.5-0.6-1-1.3-1.4-1.9c-3.8-5.3-7.2-10.9-10.2-16.8c-0.7-1.4-1.4-2.9-2.1-4.3c-0.3-0.7-0.7-1.5-1-2.2
					c-0.2-0.3-0.3-0.7-0.5-1c-0.1-0.2-0.1-0.3-0.2-0.5c-0.1-0.2-0.3-0.7-0.1-0.2c-1.2-3-2.4-6-3.4-9.1c-2-6.1-3.6-12.3-4.8-18.6
					c-0.3-1.6-0.5-3.2-0.8-4.8c0-0.2-0.2-1.3-0.1-0.6c-0.1-0.4-0.1-0.8-0.2-1.2c-0.1-0.8-0.2-1.6-0.3-2.4c-0.3-3.2-0.5-6.3-0.6-9.5
					c-0.2-6.4,0.1-12.9,0.8-19.3c0-0.4,0.1-0.7,0.1-1.1c0-0.2,0-0.4,0.1-0.6c0.1-0.6,0,0.3,0-0.2c0.1-0.8,0.2-1.6,0.4-2.4
					c0.2-1.6,0.5-3.2,0.8-4.7c0.6-3.2,1.4-6.3,2.2-9.5c0.9-3.1,1.8-6.3,3-9.3c0.5-1.5,1.1-3,1.7-4.6c0.1-0.4,0.3-0.7,0.4-1.1
					c0.1-0.2,0.1-0.4,0.2-0.5c-0.2,0.5,0-0.1,0.1-0.3c0.3-0.7,0.6-1.5,1-2.2c2.7-6.1,5.9-11.9,9.6-17.5c0.9-1.4,1.9-2.9,2.9-4.2
					c0.5-0.7,1-1.3,1.5-2c0.3-0.3,0.5-0.7,0.8-1c0.1-0.2,0.2-0.3,0.4-0.5c0.3-0.3-0.2,0.2,0.2-0.2c2.1-2.7,4.4-5.4,6.7-8
					c4.8-5.3,10.1-10.2,15.7-14.6c0.3-0.3,0.7-0.5,1-0.8c0.1-0.1,0.5-0.4,0.3-0.3c-0.1,0.1,0.4-0.3,0.5-0.4c0.7-0.5,1.4-1.1,2.2-1.6
					c1.5-1.1,3.1-2.2,4.7-3.3c3.2-2.1,6.4-4.2,9.8-6.1c3.5-2,7-3.8,10.7-5.6c1.8-0.9,3.7-1.7,5.6-2.5c1.1-0.5,1.4-0.6,2.5-1.1
					c0.9-0.4,1.9-0.8,2.9-1.1c8.3-3.2,16.8-5.8,25.4-7.9c9.4-2.2,18.8-3.8,28.2-4.8c10.2-1.1,20.5-1.6,30.7-1.6
					C333.4,166.5,333.4,161.5,330.1,161.5L330.1,161.5z"/>
			</g>
		</g>
		<g>
			<path class="st5" d="M471,290.1v0.1c-1.6-0.2-3.2-0.5-4.8-0.7c-45.2-6.6-97.7-11.3-156.1-11.3c-58.3-0.1-110.8,4.6-156.1,11.1
				c-0.1,0-0.2,0-0.4,0c0.2-28.8,11.8-55.3,31.2-76.8c10.9-12,24.2-22.5,39.4-30.8l24.2-10.3l59.4-25.3l47.8,19.2
				c15.4,3.6,34.3,9.6,50.2,19.6c0.8,0.5,1.6,1,2.4,1.6c8.4,5.6,15.7,12.1,22.1,19.1C460.9,239,469.9,284.1,471,290.1z"/>
			<g>
				<path d="M468.5,290.1c0,0,0,0.1,0,0.1c1.1-0.8,2.1-1.6,3.2-2.4c-19.2-2.8-38.5-5.3-57.8-7.1c-21-2-42.1-3.4-63.1-4.2
					c-22.7-0.9-45.4-1-68.1-0.5c-21.5,0.5-42.9,1.7-64.3,3.5c-19.4,1.6-38.7,3.8-58,6.4c-2.2,0.3-4.4,0.6-6.6,0.9
					c0.8,0.8,1.7,1.7,2.5,2.5c0.2-22.9,8-44.9,21.2-63.5c6.8-9.6,15.1-18.2,24.2-25.7c4.7-3.9,9.7-7.5,14.8-10.8
					c3.2-2,6.5-4.3,10-5.8c8.1-3.4,16.2-6.9,24.3-10.3c9.9-4.2,19.8-8.4,29.6-12.7c9.4-4,19-7.8,28.3-12.1c0.2-0.1,0.3-0.1,0.5-0.2
					c-0.6,0.1-1.3,0.2-1.9,0.3c8.6,3.4,17.1,6.9,25.7,10.3c5.5,2.2,11,4.4,16.6,6.6c1.6,0.6,3.1,1.3,4.7,1.9
					c2.1,0.8,4.4,1.2,6.5,1.8c22.8,5.9,44.6,15.4,61.8,31.9c15.2,14.5,26.4,32.8,34.5,52.1c4.9,11.6,8.8,23.8,11.3,36.2
					c0.1,0.5,0.2,1,0.3,1.6c0.6,3.2,5.4,1.8,4.8-1.3c-2.2-11.4-5.7-22.7-9.9-33.5c-7.8-19.9-18.6-38.9-33.5-54.4
					c-8.6-9.1-18.7-16.8-29.7-22.8c-10.6-5.7-22-9.9-33.5-13.2c-3.5-1-7.3-1.6-10.8-2.8c-1.3-0.5-2.6-1-3.9-1.6
					c-5.5-2.2-11-4.4-16.5-6.6c-6.1-2.4-12.2-4.9-18.3-7.3c-2.1-0.8-4.2-1.7-6.3-2.5c-0.8-0.3-1.7-0.8-2.5-1
					c-1.1-0.3-2.4,0.5-3.5,0.9c-1.7,0.7-3.3,1.4-5,2.1c-5.4,2.3-10.8,4.6-16.2,6.9c-11.1,4.7-22.2,9.5-33.3,14.2
					c-7.5,3.2-15,6.4-22.5,9.6c-1.6,0.7-3.3,1.3-4.9,2.1c-5,2.4-9.8,5.7-14.3,8.8c-9.8,6.8-18.8,14.7-26.7,23.6
					c-15.1,17-25.9,37.9-29.4,60.5c-0.9,5.6-1.4,11.2-1.4,16.9c0,1.2,1.2,2.7,2.5,2.5c18.9-2.5,37.8-4.9,56.9-6.7
					c21-1.9,42.1-3.2,63.3-3.9c22.6-0.7,45.3-0.8,67.9-0.1c21.3,0.6,42.5,1.9,63.7,3.8c19.2,1.7,38.4,3.9,57.5,6.6
					c2.5,0.4,5,0.7,7.5,1.1c1.6,0.2,3.2-0.6,3.2-2.4c0,0,0-0.1,0-0.1C473.5,286.9,468.5,286.9,468.5,290.1z"/>
			</g>
		</g>
		<g>
			<circle class="st7" cx="272.1" cy="266.4" r="7.5"/>
			<g>
				<path d="M277.1,266.4c0,0.2,0,0.4,0,0.6c0,0.5,0,0,0-0.1c-0.1,0.3-0.1,0.7-0.2,1c-0.1,0.2-0.1,0.4-0.2,0.6c0-0.1,0.2-0.5,0-0.1
					c-0.2,0.3-0.4,0.7-0.6,1c-0.3,0.5,0.2-0.2,0,0c-0.1,0.1-0.2,0.3-0.3,0.4c-0.1,0.1-0.9,0.7-0.4,0.4c-0.3,0.2-0.5,0.4-0.8,0.5
					c-0.1,0.1-0.2,0.1-0.3,0.2c-0.4,0.2,0.4-0.1-0.2,0.1c-0.3,0.1-0.6,0.2-1,0.3c-0.1,0-0.6,0.1,0,0c-0.2,0-0.3,0-0.5,0
					c-0.4,0-0.7,0-1,0c-0.4,0,0.6,0.1,0,0c-0.2,0-0.4-0.1-0.6-0.1c-0.2-0.1-0.4-0.1-0.6-0.2c-0.1,0-0.4-0.2,0,0
					c-0.3-0.2-0.6-0.3-0.9-0.5c-0.1-0.1-0.3-0.2-0.4-0.3c-0.3-0.2,0.4,0.4,0,0c-0.3-0.3-0.5-0.6-0.8-0.8c0.3,0.3,0.1,0.2,0,0
					c-0.1-0.2-0.2-0.3-0.3-0.5c-0.1-0.1-0.5-1-0.3-0.5c-0.1-0.3-0.2-0.6-0.3-1c0-0.1-0.1-0.3-0.1-0.4c-0.1-0.5,0,0.4,0-0.3
					c0-0.3,0-0.6,0-0.9c0-0.1,0.1-0.8,0-0.2c0-0.1,0-0.3,0.1-0.4c0.1-0.3,0.2-0.6,0.3-1c0.2-0.6-0.3,0.4,0.1-0.1
					c0.1-0.2,0.2-0.3,0.3-0.5c0.1-0.1,0.2-0.3,0.3-0.4c0.1-0.1,0.4-0.4,0,0c0.2-0.2,0.4-0.5,0.7-0.7c0,0,0.5-0.4,0.2-0.2
					c-0.3,0.2,0.2-0.1,0.2-0.2c0.3-0.2,0.7-0.4,1-0.6c-0.1,0-0.5,0.2,0,0c0.2-0.1,0.4-0.1,0.6-0.2c0.1,0,0.3-0.1,0.4-0.1
					c0,0,0.7-0.1,0.3-0.1c-0.4,0.1,0.3,0,0.3,0c0.2,0,0.3,0,0.5,0c0.2,0,0.3,0,0.5,0c0.6,0-0.4-0.1,0.1,0c0.4,0.1,0.8,0.2,1.2,0.3
					c0.6,0.2-0.2-0.2,0,0c0.2,0.1,0.4,0.2,0.6,0.3c0.1,0.1,0.2,0.1,0.3,0.2c0.1,0.1,0.2,0.1,0.3,0.2c-0.2-0.2-0.3-0.2-0.1,0
					c0.2,0.2,0.5,0.5,0.7,0.7c0.4,0.4-0.3-0.4,0.1,0.1c0.1,0.2,0.2,0.3,0.3,0.5c0.1,0.2,0.2,0.3,0.3,0.5c0.3,0.4-0.1-0.4,0.1,0.1
					c0.1,0.4,0.2,0.8,0.3,1.2c0,0.1,0,0.5,0-0.1C277.1,265.8,277.1,266.1,277.1,266.4c0,1.3,1.1,2.6,2.5,2.5
					c1.3-0.1,2.5-1.1,2.5-2.5c-0.1-4.3-2.7-7.9-6.7-9.4c-3.8-1.4-8.4-0.2-11,2.9c-2.7,3.3-3.2,7.9-1,11.6c2.2,3.7,6.4,5.4,10.6,4.7
					c4.7-0.8,7.9-5.2,8-9.8c0-1.3-1.2-2.6-2.5-2.5C278.3,263.9,277.2,265,277.1,266.4z"/>
			</g>
		</g>
		<g>
			<circle class="st7" cx="453.6" cy="275.2" r="7.5"/>
			<g>
				<path d="M458.6,275.2c0,0.2,0,0.4,0,0.6c0,0.5,0,0,0-0.1c-0.1,0.3-0.1,0.7-0.2,1c-0.1,0.2-0.1,0.4-0.2,0.6c0-0.1,0.2-0.5,0-0.1
					c-0.2,0.3-0.4,0.7-0.6,1c-0.3,0.5,0.2-0.2,0,0c-0.1,0.1-0.2,0.3-0.3,0.4c-0.1,0.1-0.9,0.7-0.4,0.4c-0.3,0.2-0.5,0.4-0.8,0.5
					c-0.1,0.1-0.2,0.1-0.3,0.2c-0.4,0.2,0.4-0.1-0.2,0.1c-0.3,0.1-0.6,0.2-1,0.3c-0.1,0-0.6,0.1,0,0c-0.2,0-0.3,0-0.5,0
					c-0.4,0-0.7,0-1,0c-0.4,0,0.6,0.1,0,0c-0.2,0-0.4-0.1-0.6-0.1c-0.2-0.1-0.4-0.1-0.6-0.2c-0.1,0-0.4-0.2,0,0
					c-0.3-0.2-0.6-0.3-0.9-0.5c-0.1-0.1-0.3-0.2-0.4-0.3c-0.3-0.2,0.4,0.4,0,0c-0.3-0.3-0.5-0.6-0.8-0.8c0.3,0.3,0.1,0.2,0,0
					c-0.1-0.2-0.2-0.3-0.3-0.5c-0.1-0.1-0.5-1-0.3-0.5c-0.1-0.3-0.2-0.6-0.3-1c0-0.1-0.1-0.3-0.1-0.4c-0.1-0.5,0,0.4,0-0.3
					c0-0.3,0-0.6,0-0.9c0-0.1,0.1-0.8,0-0.2c0-0.1,0-0.3,0.1-0.4c0.1-0.3,0.2-0.6,0.3-1c0.2-0.6-0.3,0.4,0.1-0.1
					c0.1-0.2,0.2-0.3,0.3-0.5c0.1-0.1,0.2-0.3,0.3-0.4c0.1-0.1,0.4-0.4,0,0c0.2-0.2,0.4-0.5,0.7-0.7c0,0,0.5-0.4,0.2-0.2
					c-0.3,0.2,0.2-0.1,0.2-0.2c0.3-0.2,0.7-0.4,1-0.6c-0.1,0-0.5,0.2,0,0c0.2-0.1,0.4-0.1,0.6-0.2c0.1,0,0.3-0.1,0.4-0.1
					c0,0,0.7-0.1,0.3-0.1c-0.4,0.1,0.3,0,0.3,0c0.2,0,0.3,0,0.5,0c0.2,0,0.3,0,0.5,0c0.6,0-0.4-0.1,0.1,0c0.4,0.1,0.8,0.2,1.2,0.3
					c0.6,0.2-0.2-0.2,0,0c0.2,0.1,0.4,0.2,0.6,0.3c0.1,0.1,0.2,0.1,0.3,0.2c0.1,0.1,0.2,0.1,0.3,0.2c-0.2-0.2-0.3-0.2-0.1,0
					c0.2,0.2,0.5,0.5,0.7,0.7c0.4,0.4-0.3-0.4,0.1,0.1c0.1,0.2,0.2,0.3,0.3,0.5c0.1,0.2,0.2,0.3,0.3,0.5c0.3,0.4-0.1-0.4,0.1,0.1
					c0.1,0.4,0.2,0.8,0.3,1.2c0,0.1,0,0.5,0-0.1C458.6,274.6,458.6,274.9,458.6,275.2c0,1.3,1.1,2.6,2.5,2.5
					c1.3-0.1,2.5-1.1,2.5-2.5c-0.1-4.3-2.7-7.9-6.7-9.4c-3.8-1.4-8.4-0.2-11,2.9c-2.7,3.3-3.2,7.9-1,11.6c2.2,3.7,6.4,5.4,10.6,4.7
					c4.7-0.8,7.9-5.2,8-9.8c0-1.3-1.2-2.6-2.5-2.5C459.7,272.8,458.6,273.8,458.6,275.2z"/>
			</g>
		</g>
		<g>
			<circle class="st7" cx="404.2" cy="270.2" r="7.5"/>
			<g>
				<path d="M409.3,270.2c0,0.2,0,0.4,0,0.6c0,0.5,0,0,0-0.1c-0.1,0.3-0.1,0.7-0.2,1c-0.1,0.2-0.1,0.4-0.2,0.6c0-0.1,0.2-0.5,0-0.1
					c-0.2,0.3-0.4,0.7-0.6,1c-0.3,0.5,0.2-0.2,0,0c-0.1,0.1-0.2,0.3-0.3,0.4c-0.1,0.1-0.9,0.7-0.4,0.4c-0.3,0.2-0.5,0.4-0.8,0.5
					c-0.1,0.1-0.2,0.1-0.3,0.2c-0.4,0.2,0.4-0.1-0.2,0.1c-0.3,0.1-0.6,0.2-1,0.3c-0.1,0-0.6,0.1,0,0c-0.2,0-0.3,0-0.5,0
					c-0.4,0-0.7,0-1,0c-0.4,0,0.6,0.1,0,0c-0.2,0-0.4-0.1-0.6-0.1c-0.2-0.1-0.4-0.1-0.6-0.2c-0.1,0-0.4-0.2,0,0
					c-0.3-0.2-0.6-0.3-0.9-0.5c-0.1-0.1-0.3-0.2-0.4-0.3c-0.3-0.2,0.4,0.4,0,0c-0.3-0.3-0.5-0.6-0.8-0.8c0.3,0.3,0.1,0.2,0,0
					c-0.1-0.2-0.2-0.3-0.3-0.5c-0.1-0.1-0.5-1-0.3-0.5c-0.1-0.3-0.2-0.6-0.3-1c0-0.1-0.1-0.3-0.1-0.4c-0.1-0.5,0,0.4,0-0.3
					c0-0.3,0-0.6,0-0.9c0-0.1,0.1-0.8,0-0.2c0-0.1,0-0.3,0.1-0.4c0.1-0.3,0.2-0.6,0.3-1c0.2-0.6-0.3,0.4,0.1-0.1
					c0.1-0.2,0.2-0.3,0.3-0.5c0.1-0.1,0.2-0.3,0.3-0.4c0.1-0.1,0.4-0.4,0,0c0.2-0.2,0.4-0.5,0.7-0.7c0,0,0.5-0.4,0.2-0.2
					c-0.3,0.2,0.2-0.1,0.2-0.2c0.3-0.2,0.7-0.4,1-0.6c-0.1,0-0.5,0.2,0,0c0.2-0.1,0.4-0.1,0.6-0.2c0.1,0,0.3-0.1,0.4-0.1
					c0,0,0.7-0.1,0.3-0.1c-0.4,0.1,0.3,0,0.3,0c0.2,0,0.3,0,0.5,0c0.2,0,0.3,0,0.5,0c0.6,0-0.4-0.1,0.1,0c0.4,0.1,0.8,0.2,1.2,0.3
					c0.6,0.2-0.2-0.2,0,0c0.2,0.1,0.4,0.2,0.6,0.3c0.1,0.1,0.2,0.1,0.3,0.2c0.1,0.1,0.2,0.1,0.3,0.2c-0.2-0.2-0.3-0.2-0.1,0
					c0.2,0.2,0.5,0.5,0.7,0.7c0.4,0.4-0.3-0.4,0.1,0.1c0.1,0.2,0.2,0.3,0.3,0.5c0.1,0.2,0.2,0.3,0.3,0.5c0.3,0.4-0.1-0.4,0.1,0.1
					c0.1,0.4,0.2,0.8,0.3,1.2c0,0.1,0,0.5,0-0.1C409.2,269.6,409.3,269.9,409.3,270.2c0,1.3,1.1,2.6,2.5,2.5
					c1.3-0.1,2.5-1.1,2.5-2.5c-0.1-4.3-2.7-7.9-6.7-9.4c-3.8-1.4-8.4-0.2-11,2.9c-2.7,3.3-3.2,7.9-1,11.6c2.2,3.7,6.4,5.4,10.6,4.7
					c4.7-0.8,7.9-5.2,8-9.8c0-1.3-1.2-2.6-2.5-2.5C410.4,267.7,409.3,268.8,409.3,270.2z"/>
			</g>
		</g>
		<g>
			<circle class="st7" cx="345.3" cy="266.2" r="7.5"/>
			<g>
				<path d="M350.4,266.2c0,0.2,0,0.4,0,0.6c0,0.5,0,0,0-0.1c-0.1,0.3-0.1,0.7-0.2,1c-0.1,0.2-0.1,0.4-0.2,0.6c0-0.1,0.2-0.5,0-0.1
					c-0.2,0.3-0.4,0.7-0.6,1c-0.3,0.5,0.2-0.2,0,0c-0.1,0.1-0.2,0.3-0.3,0.4c-0.1,0.1-0.9,0.7-0.4,0.4c-0.3,0.2-0.5,0.4-0.8,0.5
					c-0.1,0.1-0.2,0.1-0.3,0.2c-0.4,0.2,0.4-0.1-0.2,0.1c-0.3,0.1-0.6,0.2-1,0.3c-0.1,0-0.6,0.1,0,0c-0.2,0-0.3,0-0.5,0
					c-0.4,0-0.7,0-1,0c-0.4,0,0.6,0.1,0,0c-0.2,0-0.4-0.1-0.6-0.1c-0.2-0.1-0.4-0.1-0.6-0.2c-0.1,0-0.4-0.2,0,0
					c-0.3-0.2-0.6-0.3-0.9-0.5c-0.1-0.1-0.3-0.2-0.4-0.3c-0.3-0.2,0.4,0.4,0,0c-0.3-0.3-0.5-0.6-0.8-0.8c0.3,0.3,0.1,0.2,0,0
					c-0.1-0.2-0.2-0.3-0.3-0.5c-0.1-0.1-0.5-1-0.3-0.5c-0.1-0.3-0.2-0.6-0.3-1c0-0.1-0.1-0.3-0.1-0.4c-0.1-0.5,0,0.4,0-0.3
					c0-0.3,0-0.6,0-0.9c0-0.1,0.1-0.8,0-0.2c0-0.1,0-0.3,0.1-0.4c0.1-0.3,0.2-0.6,0.3-1c0.2-0.6-0.3,0.4,0.1-0.1
					c0.1-0.2,0.2-0.3,0.3-0.5c0.1-0.1,0.2-0.3,0.3-0.4c0.1-0.1,0.4-0.4,0,0c0.2-0.2,0.4-0.5,0.7-0.7c0,0,0.5-0.4,0.2-0.2
					c-0.3,0.2,0.2-0.1,0.2-0.2c0.3-0.2,0.7-0.4,1-0.6c-0.1,0-0.5,0.2,0,0c0.2-0.1,0.4-0.1,0.6-0.2c0.1,0,0.3-0.1,0.4-0.1
					c0,0,0.7-0.1,0.3-0.1c-0.4,0.1,0.3,0,0.3,0c0.2,0,0.3,0,0.5,0c0.2,0,0.3,0,0.5,0c0.6,0-0.4-0.1,0.1,0c0.4,0.1,0.8,0.2,1.2,0.3
					c0.6,0.2-0.2-0.2,0,0c0.2,0.1,0.4,0.2,0.6,0.3c0.1,0.1,0.2,0.1,0.3,0.2c0.1,0.1,0.2,0.1,0.3,0.2c-0.2-0.2-0.3-0.2-0.1,0
					c0.2,0.2,0.5,0.5,0.7,0.7c0.4,0.4-0.3-0.4,0.1,0.1c0.1,0.2,0.2,0.3,0.3,0.5c0.1,0.2,0.2,0.3,0.3,0.5c0.3,0.4-0.1-0.4,0.1,0.1
					c0.1,0.4,0.2,0.8,0.3,1.2c0,0.1,0,0.5,0-0.1C350.3,265.6,350.4,265.9,350.4,266.2c0,1.3,1.1,2.6,2.5,2.5
					c1.3-0.1,2.5-1.1,2.5-2.5c-0.1-4.3-2.7-7.9-6.7-9.4c-3.8-1.4-8.4-0.2-11,2.9c-2.7,3.3-3.2,7.9-1,11.6c2.2,3.7,6.4,5.4,10.6,4.7
					c4.7-0.8,7.9-5.2,8-9.8c0-1.3-1.2-2.6-2.5-2.5C351.5,263.7,350.4,264.8,350.4,266.2z"/>
			</g>
		</g>
		<g>
			<circle class="st7" cx="169.4" cy="275.8" r="7.5"/>
			<g>
				<path d="M174.4,275.8c0,0.2,0,0.4,0,0.6c0,0.5,0,0,0-0.1c-0.1,0.3-0.1,0.7-0.2,1c-0.1,0.2-0.1,0.4-0.2,0.6c0-0.1,0.2-0.5,0-0.1
					c-0.2,0.3-0.4,0.7-0.6,1c-0.3,0.5,0.2-0.2,0,0c-0.1,0.1-0.2,0.3-0.3,0.4c-0.1,0.1-0.9,0.7-0.4,0.4c-0.3,0.2-0.5,0.4-0.8,0.5
					c-0.1,0.1-0.2,0.1-0.3,0.2c-0.4,0.2,0.4-0.1-0.2,0.1c-0.3,0.1-0.6,0.2-1,0.3c-0.1,0-0.6,0.1,0,0c-0.2,0-0.3,0-0.5,0
					c-0.4,0-0.7,0-1,0c-0.4,0,0.6,0.1,0,0c-0.2,0-0.4-0.1-0.6-0.1c-0.2-0.1-0.4-0.1-0.6-0.2c-0.1,0-0.4-0.2,0,0
					c-0.3-0.2-0.6-0.3-0.9-0.5c-0.1-0.1-0.3-0.2-0.4-0.3c-0.3-0.2,0.4,0.4,0,0c-0.3-0.3-0.5-0.6-0.8-0.8c0.3,0.3,0.1,0.2,0,0
					c-0.1-0.2-0.2-0.3-0.3-0.5c-0.1-0.1-0.5-1-0.3-0.5c-0.1-0.3-0.2-0.6-0.3-1c0-0.1-0.1-0.3-0.1-0.4c-0.1-0.5,0,0.4,0-0.3
					c0-0.3,0-0.6,0-0.9c0-0.1,0.1-0.8,0-0.2c0-0.1,0-0.3,0.1-0.4c0.1-0.3,0.2-0.6,0.3-1c0.2-0.6-0.3,0.4,0.1-0.1
					c0.1-0.2,0.2-0.3,0.3-0.5c0.1-0.1,0.2-0.3,0.3-0.4c0.1-0.1,0.4-0.4,0,0c0.2-0.2,0.4-0.5,0.7-0.7c0,0,0.5-0.4,0.2-0.2
					c-0.3,0.2,0.2-0.1,0.2-0.2c0.3-0.2,0.7-0.4,1-0.6c-0.1,0-0.5,0.2,0,0c0.2-0.1,0.4-0.1,0.6-0.2c0.1,0,0.3-0.1,0.4-0.1
					c0,0,0.7-0.1,0.3-0.1c-0.4,0.1,0.3,0,0.3,0c0.2,0,0.3,0,0.5,0c0.2,0,0.3,0,0.5,0c0.6,0-0.4-0.1,0.1,0c0.4,0.1,0.8,0.2,1.2,0.3
					c0.6,0.2-0.2-0.2,0,0c0.2,0.1,0.4,0.2,0.6,0.3c0.1,0.1,0.2,0.1,0.3,0.2c0.1,0.1,0.2,0.1,0.3,0.2c-0.2-0.2-0.3-0.2-0.1,0
					c0.2,0.2,0.5,0.5,0.7,0.7c0.4,0.4-0.3-0.4,0.1,0.1c0.1,0.2,0.2,0.3,0.3,0.5c0.1,0.2,0.2,0.3,0.3,0.5c0.3,0.4-0.1-0.4,0.1,0.1
					c0.1,0.4,0.2,0.8,0.3,1.2c0,0.1,0,0.5,0-0.1C174.3,275.2,174.4,275.5,174.4,275.8c0,1.3,1.1,2.6,2.5,2.5
					c1.3-0.1,2.5-1.1,2.5-2.5c-0.1-4.3-2.7-7.9-6.7-9.4c-3.8-1.4-8.4-0.2-11,2.9c-2.7,3.3-3.2,7.9-1,11.6c2.2,3.7,6.4,5.4,10.6,4.7
					c4.7-0.8,7.9-5.2,8-9.8c0-1.3-1.2-2.6-2.5-2.5C175.5,273.3,174.4,274.4,174.4,275.8z"/>
			</g>
		</g>
		<g>
			<circle class="st7" cx="214.9" cy="269.9" r="7.5"/>
			<g>
				<path d="M219.9,269.9c0,0.2,0,0.4,0,0.6c0,0.5,0,0,0-0.1c-0.1,0.3-0.1,0.7-0.2,1c-0.1,0.2-0.1,0.4-0.2,0.6c0-0.1,0.2-0.5,0-0.1
					c-0.2,0.3-0.4,0.7-0.6,1c-0.3,0.5,0.2-0.2,0,0c-0.1,0.1-0.2,0.3-0.3,0.4c-0.1,0.1-0.9,0.7-0.4,0.4c-0.3,0.2-0.5,0.4-0.8,0.5
					c-0.1,0.1-0.2,0.1-0.3,0.2c-0.4,0.2,0.4-0.1-0.2,0.1c-0.3,0.1-0.6,0.2-1,0.3c-0.1,0-0.6,0.1,0,0c-0.2,0-0.3,0-0.5,0
					c-0.4,0-0.7,0-1,0c-0.4,0,0.6,0.1,0,0c-0.2,0-0.4-0.1-0.6-0.1c-0.2-0.1-0.4-0.1-0.6-0.2c-0.1,0-0.4-0.2,0,0
					c-0.3-0.2-0.6-0.3-0.9-0.5c-0.1-0.1-0.3-0.2-0.4-0.3c-0.3-0.2,0.4,0.4,0,0c-0.3-0.3-0.5-0.6-0.8-0.8c0.3,0.3,0.1,0.2,0,0
					c-0.1-0.2-0.2-0.3-0.3-0.5c-0.1-0.1-0.5-1-0.3-0.5c-0.1-0.3-0.2-0.6-0.3-1c0-0.1-0.1-0.3-0.1-0.4c-0.1-0.5,0,0.4,0-0.3
					c0-0.3,0-0.6,0-0.9c0-0.1,0.1-0.8,0-0.2c0-0.1,0-0.3,0.1-0.4c0.1-0.3,0.2-0.6,0.3-1c0.2-0.6-0.3,0.4,0.1-0.1
					c0.1-0.2,0.2-0.3,0.3-0.5c0.1-0.1,0.2-0.3,0.3-0.4c0.1-0.1,0.4-0.4,0,0c0.2-0.2,0.4-0.5,0.7-0.7c0,0,0.5-0.4,0.2-0.2
					c-0.3,0.2,0.2-0.1,0.2-0.2c0.3-0.2,0.7-0.4,1-0.6c-0.1,0-0.5,0.2,0,0c0.2-0.1,0.4-0.1,0.6-0.2c0.1,0,0.3-0.1,0.4-0.1
					c0,0,0.7-0.1,0.3-0.1c-0.4,0.1,0.3,0,0.3,0c0.2,0,0.3,0,0.5,0c0.2,0,0.3,0,0.5,0c0.6,0-0.4-0.1,0.1,0c0.4,0.1,0.8,0.2,1.2,0.3
					c0.6,0.2-0.2-0.2,0,0c0.2,0.1,0.4,0.2,0.6,0.3c0.1,0.1,0.2,0.1,0.3,0.2c0.1,0.1,0.2,0.1,0.3,0.2c-0.2-0.2-0.3-0.2-0.1,0
					c0.2,0.2,0.5,0.5,0.7,0.7c0.4,0.4-0.3-0.4,0.1,0.1c0.1,0.2,0.2,0.3,0.3,0.5c0.1,0.2,0.2,0.3,0.3,0.5c0.3,0.4-0.1-0.4,0.1,0.1
					c0.1,0.4,0.2,0.8,0.3,1.2c0,0.1,0,0.5,0-0.1C219.9,269.3,219.9,269.6,219.9,269.9c0,1.3,1.1,2.6,2.5,2.5
					c1.3-0.1,2.5-1.1,2.5-2.5c-0.1-4.3-2.7-7.9-6.7-9.4c-3.8-1.4-8.4-0.2-11,2.9c-2.7,3.3-3.2,7.9-1,11.6c2.2,3.7,6.4,5.4,10.6,4.7
					c4.7-0.8,7.9-5.2,8-9.8c0-1.3-1.2-2.6-2.5-2.5C221.1,267.4,220,268.5,219.9,269.9z"/>
			</g>
		</g>
		<g>
			<polygon class="st8" points="322.6,362.3 308.8,375.3 307.3,375.3 293,363.3 293.4,362.2 293.4,152.9 300.8,149.7 308.6,146.4 
				316.8,149.7 322,151.8 322,362.2 			"/>
			<g>
				<path d="M320.9,360.5c-4.6,4.4-9.2,8.7-13.8,13.1c0.6-0.2,1.2-0.5,1.8-0.7c-0.5,0-1,0-1.5,0c0.6,0.2,1.2,0.5,1.8,0.7
					c-4.8-4-9.5-8-14.3-12c0.2,0.8,0.4,1.6,0.6,2.4c0.8-2.1,0.5-4.4,0.5-6.7c0-4.9,0-9.9,0-14.8c0-7.4,0-14.9,0-22.3
					c0-9.2,0-18.3,0-27.5c0-10.1,0-20.2,0-30.3c0-10.2,0-20.4,0-30.6c0-9.5,0-19.1,0-28.6c0-8.1,0-16.1,0-24.2c0-5.8,0-11.6,0-17.4
					c0-2.7,0.1-5.5,0-8.3c0-0.1,0-0.2,0-0.4c-0.4,0.7-0.8,1.4-1.2,2.2c5-2.2,10.1-4.3,15.1-6.5c-0.6,0.1-1.3,0.2-1.9,0.3
					c4.5,1.8,8.9,3.6,13.4,5.4c-0.6-0.8-1.2-1.6-1.8-2.4c0,1.9,0,3.8,0,5.6c0,5.1,0,10.2,0,15.3c0,7.6,0,15.1,0,22.7
					c0,9.2,0,18.4,0,27.5c0,10.1,0,20.2,0,30.3c0,10.2,0,20.4,0,30.6c0,9.5,0,18.9,0,28.4c0,8,0,16.1,0,24.1c0,5.8,0,11.5,0,17.3
					c0,2.7-0.1,5.5,0,8.2c0,0.1,0,0.2,0,0.4c0,1,0.8,2.3,1.8,2.4c0.2,0,0.5,0.1,0.7,0.1c1.3,0.2,2.7-0.3,3.1-1.7
					c0.3-1.2-0.4-2.9-1.7-3.1c-0.2,0-0.5-0.1-0.7-0.1c0.6,0.8,1.2,1.6,1.8,2.4c0-1.9,0-3.8,0-5.6c0-5.1,0-10.2,0-15.3
					c0-7.6,0-15.1,0-22.7c0-9.2,0-18.4,0-27.5c0-10.1,0-20.2,0-30.3c0-10.2,0-20.4,0-30.6c0-9.5,0-18.9,0-28.4c0-8,0-16.1,0-24.1
					c0-5.8,0-11.5,0-17.3c0-2.7,0.1-5.5,0-8.2c0-0.1,0-0.2,0-0.4c0-1.2-0.8-2-1.8-2.4c-4-1.6-8.1-3.2-12.1-4.9
					c-1.2-0.5-1.9-0.8-3.3-0.3c-0.9,0.4-1.9,0.8-2.8,1.2c-1.8,0.8-3.5,1.5-5.3,2.3c-2.3,1-4.6,2-7,3c-0.8,0.3-1.2,1.4-1.2,2.2
					c0,1.9,0,3.8,0,5.7c0,5.1,0,10.2,0,15.3c0,7.6,0,15.2,0,22.8c0,9.2,0,18.4,0,27.6c0,10.1,0,20.2,0,30.3c0,10.2,0,20.4,0,30.6
					c0,9.4,0,18.9,0,28.3c0,8,0,15.9,0,23.9c0,5.6,0,11.3,0,16.9c0,2.5-0.2,5.1,0,7.7c0,0.1,0,0.1,0,0.2c0,0,0,0,0,0
					c-0.4-0.6,0.2-0.8,0-0.5c-0.1,0.1-0.1,0.3-0.1,0.4c-0.1,0.2-0.1,0.4-0.2,0.6c-0.3,0.8,0,1.9,0.6,2.4c4.4,3.7,8.9,7.5,13.3,11.2
					c1,0.8,1.7,1.5,3.1,1.6c1.1,0,2.1,0,3-0.7c0.2-0.2,0.4-0.4,0.6-0.5c2.3-2.2,4.6-4.4,7-6.6c2.1-2,4.2-4,6.3-5.9
					C326.8,361.8,323.2,358.3,320.9,360.5z"/>
			</g>
		</g>
	</g>
	<g>
		<circle class="st3" cx="63.3" cy="446.1" r="39.8"/>
		<g>
			<path d="M100.6,446.1c-0.1,15.4-9.8,29.8-24.4,35c-14.9,5.4-31.7,0.8-41.8-11.4c-9.9-12-11.1-29.6-3-42.9
				c8-13.3,24-20.4,39.2-17.3c15.3,3.1,27.2,15.5,29.7,30.9C100.5,442.3,100.6,444.2,100.6,446.1c0,3.2,5,3.2,5,0
				c-0.1-17.7-11.3-33.7-27.9-39.8c-16.5-6-35.8-0.8-47,12.8c-11.3,13.7-12.9,33.6-3.7,48.9c9.2,15.3,27.4,23.1,44.8,19.6
				c16.9-3.4,30.6-17.6,33.2-34.7c0.3-2.2,0.5-4.5,0.5-6.7C105.6,442.9,100.6,442.9,100.6,446.1z"/>
		</g>
	</g>
	<g>
		<path class="st9" d="M576.3,225.8v172.8c-5.8-0.9-12.3-1.4-19.2-1.4c-6.9,0-13.4,0.5-19.2,1.4V225.8h0.2l19.1-51.2l19.1,51.2
			H576.3z"/>
		<g>
			<path d="M573.8,225.8c0,1.5,0,3.1,0,4.6c0,4.2,0,8.4,0,12.5c0,6.2,0,12.4,0,18.6c0,7.6,0,15.2,0,22.7c0,8.3,0,16.5,0,24.8
				c0,8.4,0,16.8,0,25.1c0,7.8,0,15.5,0,23.3c0,6.6,0,13.2,0,19.8c0,4.7,0,9.5,0,14.2c0,2.2-0.1,4.5,0,6.7c0,0.1,0,0.2,0,0.3
				c1.1-0.8,2.1-1.6,3.2-2.4c-13.1-2.1-26.7-2.1-39.8,0c1.1,0.8,2.1,1.6,3.2,2.4c0-1.5,0-3.1,0-4.6c0-4.2,0-8.4,0-12.5
				c0-6.2,0-12.4,0-18.6c0-7.6,0-15.2,0-22.7c0-8.3,0-16.5,0-24.8c0-8.4,0-16.8,0-25.1c0-7.8,0-15.5,0-23.3c0-6.6,0-13.2,0-19.8
				c0-4.7,0-9.5,0-14.2c0-2.2,0.1-4.5,0-6.7c0-0.1,0-0.2,0-0.3c-0.8,0.8-1.7,1.7-2.5,2.5c0.1,0,0.1,0,0.2,0c1.2,0,2-0.8,2.4-1.8
				c2.2-5.8,4.3-11.6,6.5-17.3c3.4-9.2,6.8-18.4,10.3-27.5c0.8-2.1,1.6-4.2,2.4-6.4c-1.6,0-3.2,0-4.8,0c2.2,5.8,4.3,11.6,6.5,17.3
				c3.4,9.2,6.8,18.4,10.2,27.5c0.8,2.1,1.6,4.2,2.4,6.4c0.4,1,1.2,1.8,2.4,1.8c0.1,0,0.1,0,0.2,0c3.2,0,3.2-5,0-5
				c-0.1,0-0.1,0-0.2,0c0.8,0.6,1.6,1.2,2.4,1.8c-2.2-5.8-4.3-11.6-6.5-17.3c-3.4-9.2-6.8-18.4-10.2-27.5c-0.8-2.1-1.6-4.2-2.4-6.4
				c-0.9-2.4-3.9-2.4-4.8,0c-2.2,5.8-4.3,11.6-6.5,17.3c-3.4,9.2-6.8,18.4-10.3,27.5c-0.8,2.1-1.6,4.2-2.4,6.4
				c0.8-0.6,1.6-1.2,2.4-1.8c-0.1,0-0.1,0-0.2,0c-1.4,0-2.5,1.1-2.5,2.5c0,1.5,0,3.1,0,4.6c0,4.2,0,8.4,0,12.5c0,6.2,0,12.4,0,18.6
				c0,7.6,0,15.2,0,22.7c0,8.3,0,16.5,0,24.8c0,8.4,0,16.8,0,25.1c0,7.8,0,15.5,0,23.3c0,6.6,0,13.2,0,19.8c0,4.7,0,9.5,0,14.2
				c0,2.2-0.1,4.5,0,6.7c0,0.1,0,0.2,0,0.3c0,1.8,1.6,2.7,3.2,2.4c12.2-1.9,25-1.9,37.1,0c1.6,0.2,3.2-0.6,3.2-2.4
				c0-1.5,0-3.1,0-4.6c0-4.2,0-8.4,0-12.5c0-6.2,0-12.4,0-18.6c0-7.6,0-15.2,0-22.7c0-8.3,0-16.5,0-24.8c0-8.4,0-16.8,0-25.1
				c0-7.8,0-15.5,0-23.3c0-6.6,0-13.2,0-19.8c0-4.7,0-9.5,0-14.2c0-2.2,0.1-4.5,0-6.7c0-0.1,0-0.2,0-0.3
				C578.8,222.6,573.8,222.6,573.8,225.8z"/>
		</g>
	</g>
	<g>
		<path class="st6" d="M600.5,407.7c0,4.1-19.4,7.5-43.4,7.5c-24,0-43.4-3.3-43.4-7.5c0-2.9,9.8-5.5,24.2-6.7
			c5.8-0.5,12.3-0.8,19.2-0.8c6.9,0,13.4,0.3,19.2,0.8C590.7,402.3,600.5,404.8,600.5,407.7z"/>
		<g>
			<path d="M598,407.7c0,0.4,0.1-0.7,0-0.3c-0.1,0.4,0.1-0.1,0.1-0.3c-0.2,0.5,0.4-0.3-0.1,0.1c-0.5,0.5,0.3-0.1-0.2,0.2
				c-0.3,0.2-0.6,0.4-0.9,0.5c-0.2,0.1-0.3,0.1-0.5,0.2c-0.4,0.2,0.4-0.1-0.1,0c-0.4,0.2-0.8,0.3-1.3,0.5c-1,0.3-2,0.6-3.1,0.9
				c-5.8,1.4-11.8,2-17.8,2.5c-8,0.6-16.1,0.7-24.1,0.5c-7-0.2-14.1-0.6-21-1.7c-2.6-0.4-5.2-0.9-7.7-1.5c-0.9-0.3-1.9-0.5-2.8-0.9
				c-0.2-0.1-0.4-0.2-0.7-0.3c-0.5-0.2,0.3,0.2-0.1,0c-0.3-0.2-0.7-0.3-1-0.5c-0.3-0.2-0.9-0.7-0.4-0.2c-0.1-0.1-0.6-0.7-0.4-0.3
				c0.3,0.4,0,0.1,0,0c-0.1-0.1,0.2,0.7,0.1,0.3c-0.1-0.4,0,0.5,0,0.3c0-0.5-0.1,0.7,0,0.2c0-0.1-0.3,0.6-0.1,0.2
				c0,0.1-0.4,0.2-0.1,0.1c0.1,0,0.2-0.2,0.3-0.3c0.2-0.2-0.2,0.2-0.2,0.2c0.1-0.1,0.2-0.1,0.3-0.2c0.4-0.2,0.7-0.4,1.1-0.6
				c0.1,0,0.6-0.3,0.4-0.2c-0.2,0.1,0.4-0.2,0.6-0.2c5.9-2.2,12.5-2.8,18.7-3.4c7.9-0.7,15.9-0.9,23.9-0.8
				c7.7,0.1,15.4,0.5,23.1,1.6c3.1,0.4,6.2,1,9.2,1.8c1,0.3,2.4,0.7,3,1c-0.2-0.1,0.3,0.1,0.4,0.2c0.2,0.1,0.4,0.2,0.5,0.3
				c0.2,0.1,1.1,0.8,0.6,0.3c0.1,0.1,0.2,0.2,0.3,0.3c0.4,0.2,0,0,0-0.1c0.2,0.4-0.1-0.3-0.1-0.2C598.1,408.4,598,407.4,598,407.7
				c0.1,3.2,5.1,3.2,5,0c-0.2-4.7-7.1-6.1-10.7-6.9c-7.8-1.8-16-2.4-24-2.8c-8.8-0.4-17.6-0.3-26.4,0.2c-7.6,0.5-15.4,1.1-22.7,3.2
				c-3.3,0.9-10,3.4-7.5,8.1c0.7,1.4,2.2,2.3,3.6,3c2.1,1,4.3,1.6,6.6,2.1c6.9,1.6,14,2.2,21,2.6c8.8,0.5,17.6,0.6,26.4,0.1
				c7.3-0.4,14.6-1,21.8-2.4c2.3-0.5,4.6-1,6.7-1.9c1.7-0.7,3.6-1.5,4.6-3.1c0.5-0.7,0.7-1.4,0.7-2.3
				C603.1,404.5,598.1,404.5,598,407.7z"/>
		</g>
	</g>
	<g>
		<g>
			<path d="M559.6,397.2c0-1.7,0-3.3,0-5c0-4.5,0-9.1,0-13.6c0-6.7,0-13.4,0-20.1c0-8.1,0-16.3,0-24.4c0-9,0-17.9,0-26.9
				c0-9,0-18.1,0-27.1c0-8.4,0-16.9,0-25.3c0-7.1,0-14.2,0-21.4c0-5.1,0-10.2,0-15.4c0-2.4,0.1-4.8,0-7.3c0-0.1,0-0.2,0-0.3
				c0-3.2-5-3.2-5,0c0,1.7,0,3.3,0,5c0,4.5,0,9.1,0,13.6c0,6.7,0,13.4,0,20.1c0,8.1,0,16.3,0,24.4c0,9,0,17.9,0,26.9
				c0,9,0,18.1,0,27.1c0,8.4,0,16.9,0,25.3c0,7.1,0,14.2,0,21.4c0,5.1,0,10.2,0,15.4c0,2.4-0.1,4.8,0,7.3c0,0.1,0,0.2,0,0.3
				C554.6,400.4,559.6,400.5,559.6,397.2c0-1.7,0-3.3,0-5c0-4.5,0-9.1,0-13.6c0-6.7,0-13.4,0-20.1c0-8.1,0-16.3,0-24.4
				c0-9,0-17.9,0-26.9c0-9,0-18.1,0-27.1c0-8.4,0-16.9,0-25.3c0-7.1,0-14.2,0-21.4c0-5.1,0-10.2,0-15.4c0-2.4,0.1-4.8,0-7.3
				c0-0.1,0-0.2,0-0.3c0-3.2-5-3.2-5,0c0,1.7,0,3.3,0,5c0,4.5,0,9.1,0,13.6c0,6.7,0,13.4,0,20.1c0,8.1,0,16.3,0,24.4
				c0,9,0,17.9,0,26.9c0,9,0,18.1,0,27.1c0,8.4,0,16.9,0,25.3c0,7.1,0,14.2,0,21.4c0,5.1,0,10.2,0,15.4c0,2.4-0.1,4.8,0,7.3
				c0,0.1,0,0.2,0,0.3C554.6,400.4,559.6,400.5,559.6,397.2z"/>
		</g>
	</g>
	<g>
		<circle class="st10" cx="557.1" cy="487.8" r="12.5"/>
		<g>
			<path d="M567.1,487.8c-0.1,4.1-2.6,8-6.5,9.4c-4.1,1.5-8.6,0.2-11.4-3.1c-2.6-3.2-2.9-7.9-0.7-11.4c2.1-3.5,6.3-5.5,10.3-4.7
				C563.6,478.8,567,483,567.1,487.8c0,3.2,5,3.2,5,0c-0.1-6.3-4-11.9-9.9-14.1c-5.8-2.2-12.7-0.3-16.6,4.4
				c-4,4.9-4.7,11.9-1.4,17.3c3.3,5.5,9.6,8.2,15.8,7.1c7-1.3,12-7.7,12.1-14.7C572.1,484.6,567.1,484.6,567.1,487.8z"/>
		</g>
	</g>
	<g>
		<circle class="st3" cx="557.1" cy="447.1" r="39.8"/>
		<g>
			<path d="M594.4,447.1c-0.1,15.4-9.8,29.8-24.4,35c-14.9,5.4-31.7,0.8-41.8-11.4c-9.9-12-11.1-29.6-3-42.9
				c8-13.3,24-20.4,39.2-17.3c15.3,3.1,27.2,15.5,29.7,30.9C594.3,443.3,594.4,445.2,594.4,447.1c0,3.2,5,3.2,5,0
				c-0.1-17.7-11.3-33.7-27.9-39.8c-16.5-6-35.8-0.8-47,12.8c-11.3,13.7-12.9,33.6-3.7,48.9c9.2,15.3,27.4,23.1,44.8,19.6
				c16.9-3.4,30.6-17.6,33.2-34.7c0.3-2.2,0.5-4.5,0.5-6.7C599.4,443.9,594.4,443.9,594.4,447.1z"/>
		</g>
	</g>
	<g>
		<g>
			<path class="st6" d="M90.2,447.8c-1.4,40-18.4,71.7-39.3,71.7c-21.7,0-39.4-34.4-39.4-76.9c0-0.9,0-1.8,0-2.8
				c12.5,3,27.3,5.3,43.2,6.8C67.3,447.7,79.4,448.1,90.2,447.8z"/>
			<g>
				<path d="M87.7,447.8c-0.5,14.3-3,28.7-8.4,42c-2.1,5.2-4.9,10.3-8.3,14.9c-1.3,1.8-3.1,3.8-4.8,5.4c-1.8,1.7-3.1,2.7-5.2,3.9
					c-0.9,0.5-1.9,1-2.9,1.5c0.4-0.2-0.2,0.1-0.3,0.1c-0.3,0.1-0.5,0.2-0.8,0.3c-0.5,0.2-1,0.3-1.5,0.5c-0.5,0.1-1,0.2-1.5,0.3
					c-0.2,0-0.5,0.1-0.7,0.1c0,0-0.4,0.1-0.1,0c0.3,0-0.3,0-0.3,0c-1,0.1-2.1,0.1-3.1,0.1c-0.5,0-1-0.1-1.5-0.1c0.4,0.1-0.1,0-0.2,0
					c-0.3-0.1-0.6-0.1-0.9-0.2c-1-0.2-1.9-0.5-2.8-0.8c-1.1-0.4-1.3-0.5-2.5-1.1c-1-0.5-1.9-1.1-2.8-1.7c-1.7-1.1-3.3-2.6-5-4.3
					c-1.8-1.9-3.2-3.6-4.6-5.7c-3.3-4.8-5.9-10-7.9-15.4c-5.1-13.3-7.3-27.6-7.6-41.8c0-2-0.1-4,0-6.1c-1.1,0.8-2.1,1.6-3.2,2.4
					c20.3,4.8,41.2,7.2,62,8c5.8,0.2,11.5,0.2,17.3,0.1c3.2-0.1,3.2-5.1,0-5c-20.8,0.5-41.8-1.1-62.3-4.7c-5.3-0.9-10.5-2-15.7-3.2
					c-1.6-0.4-3.1,0.7-3.2,2.4c-0.3,15.4,1.6,31.1,6.5,45.7c3.7,10.9,9.2,22.4,18.4,29.8c3.6,3,7.8,5.3,12.5,6.2
					c4.5,0.8,9.2,0.4,13.4-1.4C70,516,77,506.3,81.7,496.7c6.4-13.3,9.6-28.1,10.7-42.7c0.2-2,0.3-4.1,0.3-6.1
					C92.8,444.6,87.8,444.6,87.7,447.8z"/>
			</g>
		</g>
		<g>
			<g>
				<path d="M45.5,448C45.5,448,45.5,448,45.5,448c-0.3,0.2-0.7,0.4-1.1,0.6c0,0,0,0,0,0c-0.4,0-0.9,0-1.3,0c0,0,0,0,0,0
					c-0.4-0.2-0.7-0.4-1.1-0.6c0.1,0.1-0.7-1.4-0.6-1c0-0.1,0-0.8-0.1-0.4c0,0.2,0,0.5,0,0.7c0,0.7-0.1,1.4-0.1,2.1
					c-0.1,2.2-0.3,4.5-0.5,6.7c-0.4,5.5-0.8,11.1-0.6,16.7c0.2,6.4,1.1,12.8,2.3,19c1.1,6,2.5,11.9,4.1,17.7c1,3.7,1.9,7.5,3.4,11
					c0.5,1.2,2.4,1.5,3.4,0.9c1.3-0.7,1.4-2.2,0.9-3.4c0.5,1.1-0.1-0.3-0.2-0.6c-0.2-0.7-0.5-1.4-0.7-2.1c-0.7-2.1-1.3-4.3-1.9-6.4
					c-1.6-6-3.1-12.1-4.2-18.3c-1.2-6.3-2.1-12.7-2.1-19.1c0-5.8,0.4-11.6,0.8-17.4c0.2-2.2,0.4-4.3,0.4-6.5c0-0.6,0-1.3-0.1-1.9
					c-0.5-1.7-3-2.7-4.3-1.1c-0.9,1-1,2.5,0,3.5C42.8,448.9,44.6,449.1,45.5,448L45.5,448z"/>
			</g>
		</g>
		<g>
			<g>
				<path d="M13.1,476c19.6,5.8,40.2,7.7,60.5,5.5c4.8-0.5,9.5-1.2,14.2-2.2c1.3-0.3,2.1-1.8,1.7-3.1c-0.4-1.4-1.7-2-3.1-1.7
					c-18.7,3.7-38.2,3.9-57,0.4c-5.1-1-10.1-2.2-15.1-3.6C11.3,470.2,10,475,13.1,476L13.1,476z"/>
			</g>
		</g>
		<g>
			<g>
				<path d="M21.4,450.9c0.8,3.6,1.8,7.2,2.2,10.9c0.4,3-0.4,6.5,2.1,8.8c0.2,0.2,1.3,0.5,0.9,0.2c-2.4-2.3-1.5-6.3-1.9-9.2
					c-0.6-3.4-1.4-6.8-2.1-10.2C22.5,451,21.4,450.7,21.4,450.9L21.4,450.9z"/>
			</g>
		</g>
		<g>
			<g>
				<path d="M28.2,456.7c4.7,14.4,4.2,29.9,8.5,44.4c0.1,0.5,1.3,0.7,1.2,0.1c-4.3-14.5-3.8-30-8.5-44.4
					C29.2,456.2,28,456,28.2,456.7L28.2,456.7z"/>
			</g>
		</g>
		<g>
			<g>
				<path d="M53.7,458.5c0.6,8.3-2.6,16.6-1,24.9c0.8,4.1,2.8,7.9,3.9,12c1.1,4.1,1.6,8.4,2.2,12.7c0.1,0.6,1.2,0.1,1.1-0.5
					c-0.5-4.2-1-8.4-2.1-12.4c-1.1-4.1-3.1-8-3.9-12.2c-1.6-8.3,1.6-16.6,1-24.9C54.8,457.5,53.7,458,53.7,458.5L53.7,458.5z"/>
			</g>
		</g>
		<g>
			<g>
				<path d="M67.6,459c0.7,13,2,26,3.9,39c0.1,0.5,1.3,0.5,1.2-0.1c-1.9-12.9-3.2-25.8-3.9-38.8C68.9,458.6,67.6,458.5,67.6,459
					L67.6,459z"/>
			</g>
		</g>
		<g>
			<g>
				<path d="M26.5,485.9c1.3,2.7,2.6,5.5,3.8,8.3c0.1,0.3,0.4,0.5,0.6,0.6c0.1,0.1,0.4,0.2,0.3,0c-1.2-2.8-2.5-5.5-3.8-8.3
					c-0.1-0.3-0.3-0.5-0.6-0.6C26.8,485.9,26.4,485.7,26.5,485.9L26.5,485.9z"/>
			</g>
		</g>
		<g>
			<g>
				<path d="M63.2,488.1c0.3,2.9,0.5,5.7,0.8,8.6c0.2,1.9,0.2,4.3,2.3,5.1c0.2,0.1,0.6,0,0.6-0.2c0-0.3-0.4-0.5-0.6-0.6
					c-0.7-0.3-0.9-1.5-1-2.2c-0.1-1.1-0.2-2.2-0.3-3.3c-0.2-2.4-0.4-4.7-0.6-7.1C64.3,487.9,63.1,487.6,63.2,488.1L63.2,488.1z"/>
			</g>
		</g>
		<g>
			<g>
				<path d="M62.7,452.8c0.4,2.9,0.3,5.9-0.3,8.8c-0.1,0.3,0.1,0.6,0.4,0.8c0.2,0.1,0.5,0.2,0.5-0.1c0.6-3,0.7-6,0.3-9
					c0-0.3-0.2-0.6-0.5-0.7C62.9,452.5,62.6,452.6,62.7,452.8L62.7,452.8z"/>
			</g>
		</g>
	</g>
</g>
</svg>
