<?xml version="1.0" encoding="utf-8"?>
<!-- Generator: Adobe Illustrator 28.2.0, SVG Export Plug-In . SVG Version: 6.00 Build 0)  -->
<svg version="1.1" xmlns="http://www.w3.org/2000/svg" xmlns:xlink="http://www.w3.org/1999/xlink" x="0px" y="0px"
	 viewBox="0 0 612 612" style="enable-background:new 0 0 612 612;" xml:space="preserve">
<style type="text/css">
	.st0{fill:url(#SVGID_1_);}
	.st1{fill:#603913;}
	.st2{fill:#414042;}
	.st3{fill:#6D6E71;}
	.st4{fill:#FFFFFF;}
	.st5{fill:#A7A9AC;}
	.st6{fill:#BCBEC0;}
	.st7{fill:#8B5E3C;}
	.st8{fill:#58595B;}
	.st9{fill:#939598;}
	.st10{fill:#D1D3D4;}
	.st11{fill:#754C29;}
	.st12{fill:none;stroke:#000000;stroke-miterlimit:10;}
	.st13{fill:#8255A3;}
	.st14{fill:url(#SVGID_00000119112943937518694170000013925359481917513902_);}
	.st15{fill:#090E17;}
	.st16{fill:#9471B2;}
	.st17{fill:url(#SVGID_00000034812390146572965310000007446461173735215503_);}
	.st18{fill:url(#SVGID_00000145761801703624232980000015559164030121806736_);}
	.st19{fill:url(#SVGID_00000016033060428498055810000005565056122086686124_);}
	.st20{fill:url(#SVGID_00000147204566331782806400000015679730862023012781_);}
	.st21{fill:url(#SVGID_00000074420765760630998110000009088709129420219324_);}
	.st22{fill:url(#SVGID_00000081639114459134806440000013244311802199152514_);}
	.st23{fill:url(#SVGID_00000124881346593183244600000003225531759616683936_);}
	.st24{fill:url(#SVGID_00000172422887415769136560000015582702126147580845_);}
	.st25{fill:url(#SVGID_00000133488573688429703840000015823504794685003399_);}
	.st26{fill:#A97C50;}
	.st27{fill:#009444;}
	.st28{fill:#39B54A;}
	.st29{fill:#FBF398;}
	.st30{fill:url(#SVGID_00000134248565317761289040000015457719173554718117_);}
	.st31{fill:url(#SVGID_00000088826264212200754570000009448068662517520262_);}
	.st32{fill:url(#SVGID_00000177444758423656494800000011467714971090961285_);}
	.st33{fill:url(#SVGID_00000173874543812201058730000012114223650450894258_);}
	.st34{fill:url(#SVGID_00000042706762171519669010000016735649830073342654_);}
	.st35{fill:url(#SVGID_00000138538328563620733110000011523343182678941317_);}
	.st36{fill:url(#SVGID_00000098188107393259715390000002197727207371687305_);}
	.st37{fill:url(#SVGID_00000041265745562660557070000009372234891276245665_);}
	.st38{fill:url(#SVGID_00000164512739827343083360000009148189255524194178_);}
	.st39{fill:url(#SVGID_00000123423055764114339850000012188555842808369046_);}
	.st40{fill:url(#SVGID_00000002379612237944134470000017775091458992888219_);}
	.st41{fill:url(#SVGID_00000098198670593617398650000008474109163327150215_);}
	.st42{fill:url(#SVGID_00000173156196468510044380000004201261577617185970_);}
	.st43{fill:url(#SVGID_00000130611019706656128090000007015939880843985548_);}
	.st44{fill:url(#SVGID_00000000183253537715053980000006244148922767778716_);}
	.st45{fill:url(#SVGID_00000178890307984047254930000006487280921622320259_);}
	.st46{fill:url(#SVGID_00000129207846584739337630000008564477096759430529_);}
	.st47{fill:url(#SVGID_00000027604203190708026180000011862141663058522788_);}
	.st48{fill:url(#SVGID_00000127754916701207276000000014491844765113562790_);}
	.st49{fill:url(#SVGID_00000037680125730145541380000003556663891255621560_);}
	.st50{fill:url(#SVGID_00000137834380978705696300000005642884529781610644_);}
	.st51{fill:url(#SVGID_00000174559965368007840430000015803587178295569326_);}
	.st52{fill:url(#SVGID_00000081649279482201510210000007932101789213052087_);}
	.st53{fill:url(#SVGID_00000044169484653111145510000009127500814450405303_);}
	.st54{fill:url(#SVGID_00000137854966014500391520000011250622819243392423_);}
	.st55{fill:url(#SVGID_00000152241407089339334950000010736674206648707515_);}
	.st56{fill:url(#SVGID_00000119077508127839173970000011373784641127160470_);}
	.st57{fill:url(#SVGID_00000092449821235176895500000004012233731986216623_);}
	.st58{fill:url(#SVGID_00000093157603463696860670000007052119437714345130_);}
	.st59{fill:url(#SVGID_00000034799467706564229370000002857171772250343320_);}
	.st60{fill:url(#SVGID_00000134932596542669972090000015350593873532742538_);}
	.st61{fill:url(#SVGID_00000134237385606597240630000013185346196512442537_);}
	.st62{fill:url(#SVGID_00000005964780344032888590000016006094040542840243_);}
	.st63{fill:url(#SVGID_00000152243257354946661250000003281155955811380156_);}
	.st64{fill:url(#SVGID_00000026877033434427109060000005759064742978942602_);}
	.st65{fill:url(#SVGID_00000174574313943058284640000007277535566987558576_);}
	.st66{fill:url(#SVGID_00000087396024373469935160000013957123751353378213_);}
	.st67{fill:url(#SVGID_00000121259545288424250720000015823295364156343459_);}
	.st68{fill:url(#SVGID_00000098909327460504312540000013873261427524145837_);}
	.st69{fill:url(#SVGID_00000141428222248752908930000012846819125011081140_);}
	.st70{fill:url(#SVGID_00000105424319636596965420000004306277361186703265_);}
	.st71{fill:url(#SVGID_00000060719559507542793690000016077387493441280148_);}
	.st72{fill:url(#SVGID_00000079474572527303309680000009716202283350743205_);}
	.st73{fill:url(#SVGID_00000000931793355331059910000002907496779288067743_);}
	.st74{fill:url(#SVGID_00000178183907374679511020000000889139896592086146_);}
	.st75{fill:url(#SVGID_00000128473722358853210030000000035254019977600664_);}
	.st76{fill:url(#SVGID_00000064325095149425519240000013667533635619100307_);}
	.st77{fill:url(#SVGID_00000183968990543905035920000012718989729300684698_);}
	.st78{fill:url(#SVGID_00000049224022931328330830000010602287935064550318_);}
	.st79{fill:url(#SVGID_00000134208437580464214350000018047298083961431474_);}
	.st80{fill:url(#SVGID_00000084491827585864938960000013301102381244445878_);}
	.st81{fill:url(#SVGID_00000008861541575965846370000014504674912414647436_);}
	.st82{fill:url(#SVGID_00000019659825027696726810000007741948884698507418_);}
	.st83{fill:url(#SVGID_00000165929895875728202220000000511250272257814167_);}
	.st84{fill:url(#SVGID_00000124155094389000655010000012973425531714899896_);}
	.st85{fill:url(#SVGID_00000100364463221608135410000002595324702145944997_);}
	.st86{fill:url(#SVGID_00000119105345349432406170000009973662101963028102_);}
	.st87{fill:#006838;}
	.st88{fill:url(#SVGID_00000168802873125459865690000009634917280396409248_);}
	.st89{fill:url(#SVGID_00000011729194116174723400000004252155930465175710_);}
	.st90{fill:url(#SVGID_00000146458013414690573080000010675089011444260506_);}
	.st91{fill:url(#SVGID_00000040575531250294573940000010429042883517038527_);}
	.st92{fill:url(#SVGID_00000050656625603084120670000014384926630930729881_);}
	.st93{fill:url(#SVGID_00000088837054856639038580000009951517941607736240_);}
	.st94{fill:url(#SVGID_00000036934250857878133090000011908747846551591855_);}
	.st95{fill:url(#SVGID_00000170963104842514431980000012330851169187623317_);}
	.st96{fill:url(#SVGID_00000142154220334549159590000007708014704602440888_);}
	.st97{fill:url(#SVGID_00000072259636468888062780000013503662554127343027_);}
	.st98{fill:url(#SVGID_00000054245501377246601280000004809614548002656900_);}
	.st99{fill:url(#SVGID_00000181768395272365037440000015922802738319184534_);}
	.st100{fill:url(#SVGID_00000119113812962464820940000003766381576215817866_);}
	.st101{fill:url(#SVGID_00000094605787027406732690000003322876144608138416_);}
	.st102{fill:url(#SVGID_00000037660718964820958180000013934810147868933293_);}
	.st103{fill:url(#SVGID_00000029735876268237242520000005939313567409749911_);}
	.st104{fill:url(#SVGID_00000127030235145537994230000008639610390863858874_);}
	.st105{fill:url(#SVGID_00000044148261504575492050000008953777475761436321_);}
	.st106{fill:url(#SVGID_00000078014832107417106690000012268664681462920864_);}
	.st107{fill:url(#SVGID_00000008836784558181053180000013616916468259013024_);}
	.st108{fill:url(#SVGID_00000166643868162098740390000011864753505570334646_);}
	.st109{fill:url(#SVGID_00000113330550170638316520000009444246962454745018_);}
	.st110{fill:url(#SVGID_00000123431794123585781800000015139992939295268022_);}
	.st111{fill:url(#SVGID_00000063601980067913259650000013478047819574975372_);}
	.st112{fill:url(#SVGID_00000105409825484620210750000009580654419650318254_);}
	.st113{fill:url(#SVGID_00000037665407531663847250000004074372770129514408_);}
	.st114{fill:url(#SVGID_00000155119323331471923420000002094568664168115340_);}
	.st115{fill:url(#SVGID_00000070076520856699221890000000477791957220217757_);}
	.st116{fill:url(#SVGID_00000087400203678926512390000014315624719813337772_);}
	.st117{fill:url(#SVGID_00000149383771030197556940000003598709460452982434_);}
	.st118{fill:url(#SVGID_00000061438983174417893280000018243040079587283633_);}
	.st119{fill:url(#SVGID_00000164479438769640361520000003845443552330909324_);}
	.st120{fill:url(#SVGID_00000008861447442980397860000011577099448749761214_);}
	.st121{fill:url(#SVGID_00000032632313936754962830000017141254974997594528_);}
	.st122{fill:url(#SVGID_00000088819065285114637040000012082424212517290168_);}
	.st123{fill:url(#SVGID_00000054973545672612803810000011947260940534377146_);}
	.st124{fill:url(#SVGID_00000151541014100199896400000006983885925247882908_);}
	.st125{fill:url(#SVGID_00000051379244064373758280000004607503687730023060_);}
	.st126{fill:url(#SVGID_00000066486088558541678520000006919804770614389658_);}
	.st127{fill:url(#SVGID_00000163763244271079223480000016056710817143561135_);}
	.st128{fill:url(#SVGID_00000010297391654944066160000008993639161026971009_);}
	.st129{fill:url(#SVGID_00000153680917578771064680000002978224590405111937_);}
	.st130{fill:url(#SVGID_00000130610692084887890080000003615871700849949826_);}
	.st131{fill:url(#SVGID_00000093868122804738073730000007865075616254909603_);}
	.st132{fill:url(#SVGID_00000067958509846424532440000015975127713862757027_);}
	.st133{fill:url(#SVGID_00000069381046029122526260000004789376929670273194_);}
	.st134{fill:url(#SVGID_00000114777232339333492590000007787448106058113176_);}
	.st135{fill:url(#SVGID_00000039099976676750924460000001280957147017340548_);}
	.st136{fill:url(#SVGID_00000177466678660047616990000005067594562826211744_);}
	.st137{fill:url(#SVGID_00000152255949471328664260000011603235433692854933_);}
	.st138{fill:url(#SVGID_00000021108748606507167510000002371322355956995989_);}
	.st139{fill:url(#SVGID_00000153700682357019582100000009480946166088476070_);}
	.st140{fill:url(#SVGID_00000058591468871512751140000000181138337394579129_);}
	.st141{fill:url(#SVGID_00000132767120662023635690000008263576911001528504_);}
	.st142{fill:url(#SVGID_00000094597659059914111440000001650376518032164250_);}
	.st143{fill:url(#SVGID_00000103960933431782994810000012339134594818490771_);}
	.st144{fill:url(#SVGID_00000121995041350676821880000007253966935084218765_);}
	.st145{fill:url(#SVGID_00000070105688288714422050000012198481507682735797_);}
	.st146{fill:url(#SVGID_00000014594113006110216590000001524142554144588991_);}
	.st147{fill:url(#SVGID_00000036970347183027207440000010216770160713427598_);}
	.st148{fill:url(#SVGID_00000062192412118015984910000006312207317472392081_);}
	.st149{fill:url(#SVGID_00000070817276608055293990000015322592806767007921_);}
	.st150{fill:url(#SVGID_00000017476798909941503570000002206493832198645436_);}
	.st151{fill:url(#SVGID_00000049221354865063433870000018032015263137380485_);}
	.st152{fill:url(#SVGID_00000080893861281299693420000001161800099211852473_);}
	.st153{fill:url(#SVGID_00000067914806646177961470000013141028573159850155_);}
	.st154{fill:url(#SVGID_00000021110980234963261200000002497983404514871742_);}
	.st155{fill:url(#SVGID_00000054223706782520833970000012563608202989822394_);}
	.st156{fill:url(#SVGID_00000163761620975869290760000017006059393065099910_);}
	.st157{fill:url(#SVGID_00000029016463305624445650000016203734945137183616_);}
	.st158{fill:url(#SVGID_00000149353097592908191310000015606603736930958265_);}
	.st159{fill:url(#SVGID_00000111193028795026309230000004945202857899534493_);}
	.st160{fill:url(#SVGID_00000156586012467012615190000018345751794632321153_);}
	.st161{fill:url(#SVGID_00000106133924452281322070000015671993293008614303_);}
	.st162{fill:url(#SVGID_00000109009005860428044350000013997797837964363395_);}
	.st163{fill:url(#SVGID_00000136375383686561328440000011293476532304367012_);}
	.st164{fill:url(#SVGID_00000149349957188084560350000015879714151593847438_);}
	.st165{fill:url(#SVGID_00000021803427527310430130000011618819858632958620_);}
	.st166{fill:url(#SVGID_00000125580526925092678670000012103558772671419532_);}
	.st167{fill:url(#SVGID_00000025400949170332127960000006389823034921547427_);}
	.st168{fill:url(#SVGID_00000009556048744343656100000001147187939376706448_);}
	.st169{fill:url(#SVGID_00000111896506899717620120000007115787326821202329_);}
	.st170{fill:url(#SVGID_00000153695712374035456240000017617029469295473799_);}
	.st171{fill:url(#SVGID_00000041287046566425461580000002317375059792127401_);}
	.st172{fill:url(#SVGID_00000126280993752167078130000003611582451835408531_);}
	.st173{fill:url(#SVGID_00000075876030788099156040000016390609493759449767_);}
	.st174{fill:url(#SVGID_00000064345101998401028570000017274164649062345364_);}
	.st175{fill:url(#SVGID_00000051369340157337172700000000194554699311067299_);}
	.st176{fill:url(#SVGID_00000080898062300011725360000005766550020333094306_);}
	.st177{fill:url(#SVGID_00000054248229780382357200000012110382684607239328_);}
	.st178{fill:url(#SVGID_00000142167274122174150370000000013985963302752421_);}
	.st179{fill:url(#SVGID_00000064334825564371677290000009526289747963372685_);}
	.st180{fill:url(#SVGID_00000121971053582082597640000014090772286443885235_);}
	.st181{fill:url(#SVGID_00000147180678945184100270000002591722649879583651_);}
	.st182{fill:url(#SVGID_00000101812641269709696470000014756419544113015724_);}
	.st183{fill:url(#SVGID_00000174563077004317487180000005863733853785871533_);}
	.st184{fill:url(#SVGID_00000138555669677558297480000007023185733578809501_);}
	.st185{fill:url(#SVGID_00000085952453431363741520000011947634597985334925_);}
	.st186{fill:url(#SVGID_00000183211360888236105990000007862553607286381698_);}
	.st187{fill:url(#SVGID_00000168796116437475955770000010415213301243283356_);}
	.st188{fill:url(#SVGID_00000062185934625626056180000009447156022637979307_);}
	.st189{fill:url(#SVGID_00000089539582958602192260000009099459569142518681_);}
	.st190{fill:url(#SVGID_00000177477913666522870430000000370380445451437212_);}
	.st191{fill:url(#SVGID_00000181048751875445285630000014895693067985356684_);}
	.st192{fill:url(#SVGID_00000160913294012139524770000015920129922774135432_);}
	.st193{fill:url(#SVGID_00000129184786581984066690000013059090420908816057_);}
	.st194{fill:url(#SVGID_00000067202844883903158370000015881028901658343305_);}
	.st195{fill:url(#SVGID_00000141449680073963673020000014254812237669767043_);}
	.st196{fill:url(#SVGID_00000005261626393790446140000000275482457590085553_);}
	.st197{fill:url(#SVGID_00000065755429405278732970000003503910771540016041_);}
	.st198{fill:url(#SVGID_00000028286812232324966800000008410418096255443116_);}
	.st199{fill:url(#SVGID_00000014615515895231149560000011042703198351956371_);}
	.st200{fill:url(#SVGID_00000173123270571880013000000009205266347788884121_);}
	.st201{fill:url(#SVGID_00000158025279946243702060000003440818048839652738_);}
	.st202{fill:url(#SVGID_00000105406338067723293630000016563916496063886992_);}
	.st203{fill:url(#SVGID_00000163059080161709160010000006915665511688202658_);}
	.st204{fill:url(#SVGID_00000047019102431835026880000006205818862277446033_);}
	.st205{fill:url(#SVGID_00000116225220601818952690000002477419415387954585_);}
	.st206{fill:url(#SVGID_00000174561877681616285990000000039287873702293681_);}
	.st207{fill:url(#SVGID_00000097478551884898023830000014369123193934974373_);}
	.st208{fill:url(#SVGID_00000118384647734023177620000010056407865383642262_);}
	.st209{fill:url(#SVGID_00000025434774396791147680000005078330490128354699_);}
	.st210{fill:url(#SVGID_00000130634930710895016670000010269423041526697356_);}
	.st211{fill:url(#SVGID_00000039838311802379310430000015851368813266215092_);}
	.st212{fill:url(#SVGID_00000060728670644851531770000012735850465394006446_);}
	.st213{fill:url(#SVGID_00000005245947970889299870000015116194746609359292_);}
	.st214{fill:url(#SVGID_00000108992929848480896880000004313090448950842248_);}
	.st215{fill:url(#SVGID_00000165218799901810458460000017807765896917752759_);}
	.st216{fill:url(#SVGID_00000178921005375845995070000014538909618992557717_);}
	.st217{fill:url(#SVGID_00000111173104927872622520000017266755628554663082_);}
	.st218{fill:url(#SVGID_00000136393382468331115590000006091493957247553964_);}
	.st219{fill:url(#SVGID_00000011013251349434118330000004806006094685271725_);}
	.st220{fill:url(#SVGID_00000028289507329731942990000001979041516059922051_);}
	.st221{fill:url(#SVGID_00000014605167297663317260000010748701648466729132_);}
	.st222{fill:url(#SVGID_00000119819387683151074610000013950640933366734720_);}
	.st223{fill:url(#SVGID_00000005982849277223894610000013722282096288074164_);}
	.st224{fill:url(#SVGID_00000156589555731103738220000018015606906768073895_);}
	.st225{fill:url(#SVGID_00000038412940128011140430000003862714181962201781_);}
	.st226{fill:url(#SVGID_00000130622511420698027800000011487106717162907797_);}
	.st227{fill:url(#SVGID_00000034071644981974789680000011862730199606581152_);}
	.st228{fill:url(#SVGID_00000001640904746688703930000008671993258527714975_);}
	.st229{fill:url(#SVGID_00000158716445135953442580000001744569433745514430_);}
	.st230{fill:url(#SVGID_00000078740007674058215510000015782356967350953605_);}
	.st231{fill:url(#SVGID_00000014604886316324756200000009109548206106850181_);}
	.st232{fill:url(#SVGID_00000034791547414034428120000012009346508399984018_);}
	.st233{fill:url(#SVGID_00000018936482138915951750000004462602393268394685_);}
	.st234{fill:url(#SVGID_00000080918772758872709940000003294385009042099078_);}
	.st235{fill:url(#SVGID_00000047745361187763842860000000833157743078088847_);}
	.st236{fill:url(#SVGID_00000101791502247403146920000007578014043627115705_);}
	.st237{fill:url(#SVGID_00000152946601232494204760000017547654556690588598_);}
	.st238{fill:url(#SVGID_00000083809304223354297860000010777184767283651770_);}
	.st239{fill:url(#SVGID_00000131333391701037045160000004165448559781934003_);}
	.st240{fill:url(#SVGID_00000173881952869986655940000002869232850811921044_);}
	.st241{fill:url(#SVGID_00000019654891069538300270000009637270799378281909_);}
	.st242{fill:url(#SVGID_00000107565324919573391470000016850811648241264517_);}
	.st243{fill:url(#SVGID_00000073681255774551581570000014264365559324746150_);}
	.st244{fill:url(#SVGID_00000060727358322843090540000010324381827865276544_);}
	.st245{fill:url(#SVGID_00000039099277748916122870000001846160834435261340_);}
	.st246{fill:url(#SVGID_00000121256278832593480370000014924252184526886804_);}
	.st247{fill:url(#SVGID_00000149368873678955358430000016977412537381685921_);}
	.st248{fill:url(#SVGID_00000000938452575216690160000006294021462992582806_);}
	.st249{fill:url(#SVGID_00000002351213001689197920000011088747225995726748_);}
	.st250{fill:url(#SVGID_00000037651781760130818550000010875862500095954838_);}
</style>
<g id="Layer_1">
</g>
<g id="Layer_2">
	<g>
		<g>
			<path class="st4" d="M330.1,164c-263.8-0.2-213.5,334.8,38.6,263.7c180-40.3,93.8-301.1-67-260.3"/>
			<g>
				<path d="M330.1,161.5c-10.8,0-21.5,0.5-32.2,1.8c-9.8,1.1-19.5,2.8-29.1,5.1c-8.7,2.1-17.2,4.8-25.5,8.1
					c-7.8,3.1-15.3,6.7-22.6,10.9c-6.7,3.9-13.2,8.3-19.2,13.2c-5.7,4.5-10.9,9.5-15.8,14.9c-4.7,5.3-9.1,10.9-12.9,16.9
					c-3.7,5.7-6.9,11.6-9.6,17.8c-2.7,6.2-5,12.5-6.7,19c-1.7,6.5-2.9,13.1-3.7,19.7c-0.7,6.5-0.9,13-0.7,19.4
					c0.3,6.6,1,13.2,2.2,19.7c1.2,6.4,2.9,12.7,5,18.8c2.2,6.3,4.8,12.5,7.9,18.4c3,5.8,6.5,11.5,10.4,16.8
					c4.1,5.6,8.5,10.8,13.4,15.7c5,5,10.4,9.6,16.1,13.7c5.7,4.2,11.8,8,18.2,11.2c6.8,3.5,13.9,6.5,21.1,8.9
					c7.6,2.5,15.3,4.5,23.2,5.8c8.6,1.5,17.3,2.4,26,2.6c9.3,0.3,18.6-0.1,27.8-1c10.3-1,20.5-2.7,30.6-5c5.3-1.2,10.6-2.8,15.9-4
					c5-1.2,10-2.5,14.9-4.1c9-2.9,17.8-6.6,26.1-11.2c7.6-4.2,14.7-9.1,21.3-14.8c6.1-5.3,11.6-11.3,16.5-17.8
					c4.6-6.1,8.5-12.7,11.7-19.6c3.2-7,5.8-14.3,7.6-21.8c1.8-7.5,3-15.2,3.5-23c0.5-7.6,0.3-15.3-0.5-22.9
					c-0.8-7.9-2.2-15.7-4.2-23.4c-2-7.7-4.6-15.3-7.7-22.7c-3.1-7.3-6.6-14.3-10.7-21c-4.1-6.8-8.8-13.3-13.9-19.4
					c-5-6-10.6-11.6-16.5-16.7c-6-5.2-12.5-9.9-19.4-13.9c-6.9-4.1-14.2-7.5-21.7-10.2c-7.6-2.7-15.5-4.7-23.5-5.8
					c-8.6-1.2-17.2-1.6-25.8-1.1c-8.9,0.5-17.8,2-26.4,4.2c-3.1,0.8-1.8,5.6,1.3,4.8c8.9-2.3,17.2-3.6,26.2-4.1
					c4.3-0.2,8.5-0.2,12.8,0c2.1,0.1,4.1,0.3,6.2,0.5c1,0.1,2.1,0.2,3.1,0.3c0.2,0,0.5,0.1,0.7,0.1c0.3,0,0,0-0.1,0
					c0.1,0,0.2,0,0.4,0c0.5,0.1,1.1,0.2,1.6,0.2c7.9,1.2,15.6,3.2,23.1,5.9c0.9,0.3,1.8,0.7,2.7,1c0.5,0.2,0.9,0.4,1.4,0.6
					c0.2,0.1,0.4,0.2,0.6,0.3c0.1,0,0.2,0.1,0.3,0.1c0.4,0.2-0.3-0.1,0,0c1.8,0.8,3.5,1.6,5.3,2.4c3.5,1.7,6.9,3.5,10.3,5.5
					c3.3,2,6.6,4.2,9.7,6.4c0.8,0.6,1.5,1.1,2.3,1.7c0.1,0.1,0.5,0.4,0.4,0.3c-0.2-0.1,0.4,0.3,0.5,0.4c0.4,0.3,0.8,0.6,1.1,0.9
					c1.5,1.2,3,2.4,4.4,3.7c5.8,5.1,11.3,10.7,16.2,16.7c0.6,0.7,1.2,1.5,1.8,2.2c0.3,0.4,0.6,0.8,0.9,1.2c0.1,0.1,0.4,0.5,0.2,0.2
					c0.2,0.2,0.3,0.4,0.5,0.6c1.2,1.5,2.3,3.1,3.4,4.7c2.2,3.2,4.4,6.5,6.4,9.8c2,3.3,3.8,6.7,5.6,10.2c0.9,1.8,1.7,3.5,2.6,5.3
					c0.4,0.9,0.8,1.7,1.2,2.6c0.2,0.5,0.4,0.9,0.6,1.4c0,0.1,0.1,0.2,0.1,0.3c0,0-0.1-0.3,0-0.1c0.1,0.2,0.2,0.5,0.3,0.7
					c3,7.1,5.4,14.5,7.3,22c0.9,3.7,1.7,7.5,2.4,11.3c0.2,1,0.3,1.9,0.5,2.9c0.1,0.4,0.1,0.9,0.2,1.3c0,0.2,0.1,0.4,0.1,0.7
					c0,0.1,0,0.2,0,0.3c0.1,0.4-0.1-0.4,0,0c0.2,1.9,0.5,3.8,0.6,5.7c0.7,7.6,0.8,15.2,0.3,22.8c-0.1,1.9-0.3,3.7-0.5,5.6
					c0,0.4-0.1,0.9-0.2,1.3c0,0.3-0.1,0.5-0.1,0.8c0,0.1,0,0.2,0,0.3c-0.1,0.4,0.1-0.4,0,0c-0.1,0.9-0.3,1.8-0.4,2.7
					c-0.6,3.7-1.3,7.4-2.3,11c-0.9,3.6-2,7.2-3.3,10.7c-0.6,1.7-1.3,3.5-2,5.2c0,0.1-0.3,0.6-0.2,0.4c0.1-0.2-0.1,0.3-0.2,0.4
					c-0.2,0.5-0.4,0.9-0.6,1.4c-0.4,0.8-0.8,1.7-1.1,2.5c-3.3,6.9-7.3,13.4-11.9,19.4c-0.3,0.4,0.1-0.2-0.2,0.2
					c-0.1,0.2-0.3,0.4-0.4,0.5c-0.3,0.4-0.6,0.8-0.9,1.1c-0.6,0.8-1.2,1.5-1.9,2.3c-1.3,1.5-2.6,2.9-3.9,4.3
					c-2.8,2.9-5.7,5.6-8.8,8.2c-3.2,2.7-5.9,4.8-9.5,7.2c-3.6,2.4-7.3,4.7-11.1,6.7c-8.3,4.4-16.5,7.8-25.5,10.5
					c-4.9,1.5-10,2.6-15,4c-5.2,1.4-10.4,2.7-15.6,3.9c-9.9,2.1-19.5,3.7-29.4,4.6c-9.1,0.8-18.3,1.1-27.4,0.8
					c-4.3-0.2-8.6-0.5-12.9-0.9c-1-0.1-2-0.2-3-0.4c-0.2,0-0.5-0.1-0.7-0.1c-0.5-0.1,0,0-0.4-0.1c-0.5-0.1-1-0.1-1.6-0.2
					c-2-0.3-4-0.6-6-1c-7.7-1.4-15.4-3.4-22.8-5.9c-1.8-0.6-3.5-1.2-5.3-1.9c-0.8-0.3-1.7-0.7-2.5-1c-0.4-0.2-0.9-0.4-1.3-0.5
					c-0.4-0.2-0.1,0-0.2-0.1c-0.2-0.1-0.5-0.2-0.7-0.3c-3.4-1.4-6.7-3-9.9-4.7c-6.2-3.3-12.2-7-17.9-11.2c-0.3-0.2-0.6-0.5-1-0.7
					c-0.2-0.1-0.3-0.2-0.5-0.4c-0.1-0.1-0.2-0.2-0.3-0.2c0.2,0.1,0.2,0.2,0,0c-0.7-0.5-1.3-1-2-1.6c-1.3-1.1-2.7-2.2-4-3.3
					c-2.5-2.2-5-4.5-7.3-6.9c-2.3-2.4-4.6-4.9-6.7-7.4c-1.1-1.3-2.1-2.5-3.1-3.8c-0.3-0.4,0,0-0.1-0.1c-0.1-0.2-0.3-0.4-0.4-0.5
					c-0.3-0.3-0.5-0.7-0.8-1c-0.5-0.6-1-1.3-1.4-1.9c-3.8-5.3-7.2-10.9-10.2-16.8c-0.7-1.4-1.4-2.9-2.1-4.3c-0.3-0.7-0.7-1.5-1-2.2
					c-0.2-0.3-0.3-0.7-0.5-1c-0.1-0.2-0.1-0.3-0.2-0.5c-0.1-0.2-0.3-0.7-0.1-0.2c-1.2-3-2.4-6-3.4-9.1c-2-6.1-3.6-12.3-4.8-18.6
					c-0.3-1.6-0.5-3.2-0.8-4.8c0-0.2-0.2-1.3-0.1-0.6c-0.1-0.4-0.1-0.8-0.2-1.2c-0.1-0.8-0.2-1.6-0.3-2.4c-0.3-3.2-0.5-6.3-0.6-9.5
					c-0.2-6.4,0.1-12.9,0.8-19.3c0-0.4,0.1-0.7,0.1-1.1c0-0.2,0-0.4,0.1-0.6c0.1-0.6,0,0.3,0-0.2c0.1-0.8,0.2-1.6,0.4-2.4
					c0.2-1.6,0.5-3.2,0.8-4.7c0.6-3.2,1.4-6.3,2.2-9.5c0.9-3.1,1.8-6.3,3-9.3c0.5-1.5,1.1-3,1.7-4.6c0.1-0.4,0.3-0.7,0.4-1.1
					c0.1-0.2,0.1-0.4,0.2-0.5c-0.2,0.5,0-0.1,0.1-0.3c0.3-0.7,0.6-1.5,1-2.2c2.7-6.1,5.9-11.9,9.6-17.5c0.9-1.4,1.9-2.9,2.9-4.2
					c0.5-0.7,1-1.3,1.5-2c0.3-0.3,0.5-0.7,0.8-1c0.1-0.2,0.2-0.3,0.4-0.5c0.3-0.3-0.2,0.2,0.2-0.2c2.1-2.7,4.4-5.4,6.7-8
					c4.8-5.3,10.1-10.2,15.7-14.6c0.3-0.3,0.7-0.5,1-0.8c0.1-0.1,0.5-0.4,0.3-0.3c-0.1,0.1,0.4-0.3,0.5-0.4c0.7-0.5,1.4-1.1,2.2-1.6
					c1.5-1.1,3.1-2.2,4.7-3.3c3.2-2.1,6.4-4.2,9.8-6.1c3.5-2,7-3.8,10.7-5.6c1.8-0.9,3.7-1.7,5.6-2.5c1.1-0.5,1.4-0.6,2.5-1.1
					c0.9-0.4,1.9-0.8,2.9-1.1c8.3-3.2,16.8-5.8,25.4-7.9c9.4-2.2,18.8-3.8,28.2-4.8c10.2-1.1,20.5-1.6,30.7-1.6
					C333.4,166.5,333.4,161.5,330.1,161.5L330.1,161.5z"/>
			</g>
		</g>
		<g>
			<path class="st6" d="M471,290.1v0.1c-1.6-0.2-3.2-0.5-4.8-0.7c-45.2-6.6-97.7-11.3-156.1-11.3c-58.3-0.1-110.8,4.6-156.1,11.1
				c-0.1,0-0.2,0-0.4,0c0.2-28.8,11.8-55.3,31.2-76.8c10.9-12,24.2-22.5,39.4-30.8l24.2-10.3l59.4-25.3l47.8,19.2
				c15.4,3.6,34.3,9.6,50.2,19.6c0.8,0.5,1.6,1,2.4,1.6c8.4,5.6,15.7,12.1,22.1,19.1C460.9,239,469.9,284.1,471,290.1z"/>
			<g>
				<path d="M468.5,290.1c0,0,0,0.1,0,0.1c1.1-0.8,2.1-1.6,3.2-2.4c-19.2-2.8-38.5-5.3-57.8-7.1c-21-2-42.1-3.4-63.1-4.2
					c-22.7-0.9-45.4-1-68.1-0.5c-21.5,0.5-42.9,1.7-64.3,3.5c-19.4,1.6-38.7,3.8-58,6.4c-2.2,0.3-4.4,0.6-6.6,0.9
					c0.8,0.8,1.7,1.7,2.5,2.5c0.2-22.9,8-44.9,21.2-63.5c6.8-9.6,15.1-18.2,24.2-25.7c4.7-3.9,9.7-7.5,14.8-10.8
					c3.2-2,6.5-4.3,10-5.8c8.1-3.4,16.2-6.9,24.3-10.3c9.9-4.2,19.8-8.4,29.6-12.7c9.4-4,19-7.8,28.3-12.1c0.2-0.1,0.3-0.1,0.5-0.2
					c-0.6,0.1-1.3,0.2-1.9,0.3c8.6,3.4,17.1,6.9,25.7,10.3c5.5,2.2,11,4.4,16.6,6.6c1.6,0.6,3.1,1.3,4.7,1.9
					c2.1,0.8,4.4,1.2,6.5,1.8c22.8,5.9,44.6,15.4,61.8,31.9c15.2,14.5,26.4,32.8,34.5,52.1c4.9,11.6,8.8,23.8,11.3,36.2
					c0.1,0.5,0.2,1,0.3,1.6c0.6,3.2,5.4,1.8,4.8-1.3c-2.2-11.4-5.7-22.7-9.9-33.5c-7.8-19.9-18.6-38.9-33.5-54.4
					c-8.6-9.1-18.7-16.8-29.7-22.8c-10.6-5.7-22-9.9-33.5-13.2c-3.5-1-7.3-1.6-10.8-2.8c-1.3-0.5-2.6-1-3.9-1.6
					c-5.5-2.2-11-4.4-16.5-6.6c-6.1-2.4-12.2-4.9-18.3-7.3c-2.1-0.8-4.2-1.7-6.3-2.5c-0.8-0.3-1.7-0.8-2.5-1
					c-1.1-0.3-2.4,0.5-3.5,0.9c-1.7,0.7-3.3,1.4-5,2.1c-5.4,2.3-10.8,4.6-16.2,6.9c-11.1,4.7-22.2,9.5-33.3,14.2
					c-7.5,3.2-15,6.4-22.5,9.6c-1.6,0.7-3.3,1.3-4.9,2.1c-5,2.4-9.8,5.7-14.3,8.8c-9.8,6.8-18.8,14.7-26.7,23.6
					c-15.1,17-25.9,37.9-29.4,60.5c-0.9,5.6-1.4,11.2-1.4,16.9c0,1.2,1.2,2.7,2.5,2.5c18.9-2.5,37.8-4.9,56.9-6.7
					c21-1.9,42.1-3.2,63.3-3.9c22.6-0.7,45.3-0.8,67.9-0.1c21.3,0.6,42.5,1.9,63.7,3.8c19.2,1.7,38.4,3.9,57.5,6.6
					c2.5,0.4,5,0.7,7.5,1.1c1.6,0.2,3.2-0.6,3.2-2.4c0,0,0-0.1,0-0.1C473.5,286.9,468.5,286.9,468.5,290.1z"/>
			</g>
		</g>
		<g>
			<circle class="st8" cx="272.1" cy="266.4" r="7.5"/>
			<g>
				<path d="M277.1,266.4c0,0.2,0,0.4,0,0.6c0,0.5,0,0,0-0.1c-0.1,0.3-0.1,0.7-0.2,1c-0.1,0.2-0.1,0.4-0.2,0.6c0-0.1,0.2-0.5,0-0.1
					c-0.2,0.3-0.4,0.7-0.6,1c-0.3,0.5,0.2-0.2,0,0c-0.1,0.1-0.2,0.3-0.3,0.4c-0.1,0.1-0.9,0.7-0.4,0.4c-0.3,0.2-0.5,0.4-0.8,0.5
					c-0.1,0.1-0.2,0.1-0.3,0.2c-0.4,0.2,0.4-0.1-0.2,0.1c-0.3,0.1-0.6,0.2-1,0.3c-0.1,0-0.6,0.1,0,0c-0.2,0-0.3,0-0.5,0
					c-0.4,0-0.7,0-1,0c-0.4,0,0.6,0.1,0,0c-0.2,0-0.4-0.1-0.6-0.1c-0.2-0.1-0.4-0.1-0.6-0.2c-0.1,0-0.4-0.2,0,0
					c-0.3-0.2-0.6-0.3-0.9-0.5c-0.1-0.1-0.3-0.2-0.4-0.3c-0.3-0.2,0.4,0.4,0,0c-0.3-0.3-0.5-0.6-0.8-0.8c0.3,0.3,0.1,0.2,0,0
					c-0.1-0.2-0.2-0.3-0.3-0.5c-0.1-0.1-0.5-1-0.3-0.5c-0.1-0.3-0.2-0.6-0.3-1c0-0.1-0.1-0.3-0.1-0.4c-0.1-0.5,0,0.4,0-0.3
					c0-0.3,0-0.6,0-0.9c0-0.1,0.1-0.8,0-0.2c0-0.1,0-0.3,0.1-0.4c0.1-0.3,0.2-0.6,0.3-1c0.2-0.6-0.3,0.4,0.1-0.1
					c0.1-0.2,0.2-0.3,0.3-0.5c0.1-0.1,0.2-0.3,0.3-0.4c0.1-0.1,0.4-0.4,0,0c0.2-0.2,0.4-0.5,0.7-0.7c0,0,0.5-0.4,0.2-0.2
					c-0.3,0.2,0.2-0.1,0.2-0.2c0.3-0.2,0.7-0.4,1-0.6c-0.1,0-0.5,0.2,0,0c0.2-0.1,0.4-0.1,0.6-0.2c0.1,0,0.3-0.1,0.4-0.1
					c0,0,0.7-0.1,0.3-0.1c-0.4,0.1,0.3,0,0.3,0c0.2,0,0.3,0,0.5,0c0.2,0,0.3,0,0.5,0c0.6,0-0.4-0.1,0.1,0c0.4,0.1,0.8,0.2,1.2,0.3
					c0.6,0.2-0.2-0.2,0,0c0.2,0.1,0.4,0.2,0.6,0.3c0.1,0.1,0.2,0.1,0.3,0.2c0.1,0.1,0.2,0.1,0.3,0.2c-0.2-0.2-0.3-0.2-0.1,0
					c0.2,0.2,0.5,0.5,0.7,0.7c0.4,0.4-0.3-0.4,0.1,0.1c0.1,0.2,0.2,0.3,0.3,0.5c0.1,0.2,0.2,0.3,0.3,0.5c0.3,0.4-0.1-0.4,0.1,0.1
					c0.1,0.4,0.2,0.8,0.3,1.2c0,0.1,0,0.5,0-0.1C277.1,265.8,277.1,266.1,277.1,266.4c0,1.3,1.1,2.6,2.5,2.5
					c1.3-0.1,2.5-1.1,2.5-2.5c-0.1-4.3-2.7-7.9-6.7-9.4c-3.8-1.4-8.4-0.2-11,2.9c-2.7,3.3-3.2,7.9-1,11.6c2.2,3.7,6.4,5.4,10.6,4.7
					c4.7-0.8,7.9-5.2,8-9.8c0-1.3-1.2-2.6-2.5-2.5C278.3,263.9,277.2,265,277.1,266.4z"/>
			</g>
		</g>
		<g>
			<circle class="st8" cx="453.6" cy="275.2" r="7.5"/>
			<g>
				<path d="M458.6,275.2c0,0.2,0,0.4,0,0.6c0,0.5,0,0,0-0.1c-0.1,0.3-0.1,0.7-0.2,1c-0.1,0.2-0.1,0.4-0.2,0.6c0-0.1,0.2-0.5,0-0.1
					c-0.2,0.3-0.4,0.7-0.6,1c-0.3,0.5,0.2-0.2,0,0c-0.1,0.1-0.2,0.3-0.3,0.4c-0.1,0.1-0.9,0.7-0.4,0.4c-0.3,0.2-0.5,0.4-0.8,0.5
					c-0.1,0.1-0.2,0.1-0.3,0.2c-0.4,0.2,0.4-0.1-0.2,0.1c-0.3,0.1-0.6,0.2-1,0.3c-0.1,0-0.6,0.1,0,0c-0.2,0-0.3,0-0.5,0
					c-0.4,0-0.7,0-1,0c-0.4,0,0.6,0.1,0,0c-0.2,0-0.4-0.1-0.6-0.1c-0.2-0.1-0.4-0.1-0.6-0.2c-0.1,0-0.4-0.2,0,0
					c-0.3-0.2-0.6-0.3-0.9-0.5c-0.1-0.1-0.3-0.2-0.4-0.3c-0.3-0.2,0.4,0.4,0,0c-0.3-0.3-0.5-0.6-0.8-0.8c0.3,0.3,0.1,0.2,0,0
					c-0.1-0.2-0.2-0.3-0.3-0.5c-0.1-0.1-0.5-1-0.3-0.5c-0.1-0.3-0.2-0.6-0.3-1c0-0.1-0.1-0.3-0.1-0.4c-0.1-0.5,0,0.4,0-0.3
					c0-0.3,0-0.6,0-0.9c0-0.1,0.1-0.8,0-0.2c0-0.1,0-0.3,0.1-0.4c0.1-0.3,0.2-0.6,0.3-1c0.2-0.6-0.3,0.4,0.1-0.1
					c0.1-0.2,0.2-0.3,0.3-0.5c0.1-0.1,0.2-0.3,0.3-0.4c0.1-0.1,0.4-0.4,0,0c0.2-0.2,0.4-0.5,0.7-0.7c0,0,0.5-0.4,0.2-0.2
					c-0.3,0.2,0.2-0.1,0.2-0.2c0.3-0.2,0.7-0.4,1-0.6c-0.1,0-0.5,0.2,0,0c0.2-0.1,0.4-0.1,0.6-0.2c0.1,0,0.3-0.1,0.4-0.1
					c0,0,0.7-0.1,0.3-0.1c-0.4,0.1,0.3,0,0.3,0c0.2,0,0.3,0,0.5,0c0.2,0,0.3,0,0.5,0c0.6,0-0.4-0.1,0.1,0c0.4,0.1,0.8,0.2,1.2,0.3
					c0.6,0.2-0.2-0.2,0,0c0.2,0.1,0.4,0.2,0.6,0.3c0.1,0.1,0.2,0.1,0.3,0.2c0.1,0.1,0.2,0.1,0.3,0.2c-0.2-0.2-0.3-0.2-0.1,0
					c0.2,0.2,0.5,0.5,0.7,0.7c0.4,0.4-0.3-0.4,0.1,0.1c0.1,0.2,0.2,0.3,0.3,0.5c0.1,0.2,0.2,0.3,0.3,0.5c0.3,0.4-0.1-0.4,0.1,0.1
					c0.1,0.4,0.2,0.8,0.3,1.2c0,0.1,0,0.5,0-0.1C458.6,274.6,458.6,274.9,458.6,275.2c0,1.3,1.1,2.6,2.5,2.5
					c1.3-0.1,2.5-1.1,2.5-2.5c-0.1-4.3-2.7-7.9-6.7-9.4c-3.8-1.4-8.4-0.2-11,2.9c-2.7,3.3-3.2,7.9-1,11.6c2.2,3.7,6.4,5.4,10.6,4.7
					c4.7-0.8,7.9-5.2,8-9.8c0-1.3-1.2-2.6-2.5-2.5C459.7,272.8,458.6,273.8,458.6,275.2z"/>
			</g>
		</g>
		<g>
			<circle class="st8" cx="404.2" cy="270.2" r="7.5"/>
			<g>
				<path d="M409.3,270.2c0,0.2,0,0.4,0,0.6c0,0.5,0,0,0-0.1c-0.1,0.3-0.1,0.7-0.2,1c-0.1,0.2-0.1,0.4-0.2,0.6c0-0.1,0.2-0.5,0-0.1
					c-0.2,0.3-0.4,0.7-0.6,1c-0.3,0.5,0.2-0.2,0,0c-0.1,0.1-0.2,0.3-0.3,0.4c-0.1,0.1-0.9,0.7-0.4,0.4c-0.3,0.2-0.5,0.4-0.8,0.5
					c-0.1,0.1-0.2,0.1-0.3,0.2c-0.4,0.2,0.4-0.1-0.2,0.1c-0.3,0.1-0.6,0.2-1,0.3c-0.1,0-0.6,0.1,0,0c-0.2,0-0.3,0-0.5,0
					c-0.4,0-0.7,0-1,0c-0.4,0,0.6,0.1,0,0c-0.2,0-0.4-0.1-0.6-0.1c-0.2-0.1-0.4-0.1-0.6-0.2c-0.1,0-0.4-0.2,0,0
					c-0.3-0.2-0.6-0.3-0.9-0.5c-0.1-0.1-0.3-0.2-0.4-0.3c-0.3-0.2,0.4,0.4,0,0c-0.3-0.3-0.5-0.6-0.8-0.8c0.3,0.3,0.1,0.2,0,0
					c-0.1-0.2-0.2-0.3-0.3-0.5c-0.1-0.1-0.5-1-0.3-0.5c-0.1-0.3-0.2-0.6-0.3-1c0-0.1-0.1-0.3-0.1-0.4c-0.1-0.5,0,0.4,0-0.3
					c0-0.3,0-0.6,0-0.9c0-0.1,0.1-0.8,0-0.2c0-0.1,0-0.3,0.1-0.4c0.1-0.3,0.2-0.6,0.3-1c0.2-0.6-0.3,0.4,0.1-0.1
					c0.1-0.2,0.2-0.3,0.3-0.5c0.1-0.1,0.2-0.3,0.3-0.4c0.1-0.1,0.4-0.4,0,0c0.2-0.2,0.4-0.5,0.7-0.7c0,0,0.5-0.4,0.2-0.2
					c-0.3,0.2,0.2-0.1,0.2-0.2c0.3-0.2,0.7-0.4,1-0.6c-0.1,0-0.5,0.2,0,0c0.2-0.1,0.4-0.1,0.6-0.2c0.1,0,0.3-0.1,0.4-0.1
					c0,0,0.7-0.1,0.3-0.1c-0.4,0.1,0.3,0,0.3,0c0.2,0,0.3,0,0.5,0c0.2,0,0.3,0,0.5,0c0.6,0-0.4-0.1,0.1,0c0.4,0.1,0.8,0.2,1.2,0.3
					c0.6,0.2-0.2-0.2,0,0c0.2,0.1,0.4,0.2,0.6,0.3c0.1,0.1,0.2,0.1,0.3,0.2c0.1,0.1,0.2,0.1,0.3,0.2c-0.2-0.2-0.3-0.2-0.1,0
					c0.2,0.2,0.5,0.5,0.7,0.7c0.4,0.4-0.3-0.4,0.1,0.1c0.1,0.2,0.2,0.3,0.3,0.5c0.1,0.2,0.2,0.3,0.3,0.5c0.3,0.4-0.1-0.4,0.1,0.1
					c0.1,0.4,0.2,0.8,0.3,1.2c0,0.1,0,0.5,0-0.1C409.2,269.6,409.3,269.9,409.3,270.2c0,1.3,1.1,2.6,2.5,2.5
					c1.3-0.1,2.5-1.1,2.5-2.5c-0.1-4.3-2.7-7.9-6.7-9.4c-3.8-1.4-8.4-0.2-11,2.9c-2.7,3.3-3.2,7.9-1,11.6c2.2,3.7,6.4,5.4,10.6,4.7
					c4.7-0.8,7.9-5.2,8-9.8c0-1.3-1.2-2.6-2.5-2.5C410.4,267.7,409.3,268.8,409.3,270.2z"/>
			</g>
		</g>
		<g>
			<circle class="st8" cx="345.3" cy="266.2" r="7.5"/>
			<g>
				<path d="M350.4,266.2c0,0.2,0,0.4,0,0.6c0,0.5,0,0,0-0.1c-0.1,0.3-0.1,0.7-0.2,1c-0.1,0.2-0.1,0.4-0.2,0.6c0-0.1,0.2-0.5,0-0.1
					c-0.2,0.3-0.4,0.7-0.6,1c-0.3,0.5,0.2-0.2,0,0c-0.1,0.1-0.2,0.3-0.3,0.4c-0.1,0.1-0.9,0.7-0.4,0.4c-0.3,0.2-0.5,0.4-0.8,0.5
					c-0.1,0.1-0.2,0.1-0.3,0.2c-0.4,0.2,0.4-0.1-0.2,0.1c-0.3,0.1-0.6,0.2-1,0.3c-0.1,0-0.6,0.1,0,0c-0.2,0-0.3,0-0.5,0
					c-0.4,0-0.7,0-1,0c-0.4,0,0.6,0.1,0,0c-0.2,0-0.4-0.1-0.6-0.1c-0.2-0.1-0.4-0.1-0.6-0.2c-0.1,0-0.4-0.2,0,0
					c-0.3-0.2-0.6-0.3-0.9-0.5c-0.1-0.1-0.3-0.2-0.4-0.3c-0.3-0.2,0.4,0.4,0,0c-0.3-0.3-0.5-0.6-0.8-0.8c0.3,0.3,0.1,0.2,0,0
					c-0.1-0.2-0.2-0.3-0.3-0.5c-0.1-0.1-0.5-1-0.3-0.5c-0.1-0.3-0.2-0.6-0.3-1c0-0.1-0.1-0.3-0.1-0.4c-0.1-0.5,0,0.4,0-0.3
					c0-0.3,0-0.6,0-0.9c0-0.1,0.1-0.8,0-0.2c0-0.1,0-0.3,0.1-0.4c0.1-0.3,0.2-0.6,0.3-1c0.2-0.6-0.3,0.4,0.1-0.1
					c0.1-0.2,0.2-0.3,0.3-0.5c0.1-0.1,0.2-0.3,0.3-0.4c0.1-0.1,0.4-0.4,0,0c0.2-0.2,0.4-0.5,0.7-0.7c0,0,0.5-0.4,0.2-0.2
					c-0.3,0.2,0.2-0.1,0.2-0.2c0.3-0.2,0.7-0.4,1-0.6c-0.1,0-0.5,0.2,0,0c0.2-0.1,0.4-0.1,0.6-0.2c0.1,0,0.3-0.1,0.4-0.1
					c0,0,0.7-0.1,0.3-0.1c-0.4,0.1,0.3,0,0.3,0c0.2,0,0.3,0,0.5,0c0.2,0,0.3,0,0.5,0c0.6,0-0.4-0.1,0.1,0c0.4,0.1,0.8,0.2,1.2,0.3
					c0.6,0.2-0.2-0.2,0,0c0.2,0.1,0.4,0.2,0.6,0.3c0.1,0.1,0.2,0.1,0.3,0.2c0.1,0.1,0.2,0.1,0.3,0.2c-0.2-0.2-0.3-0.2-0.1,0
					c0.2,0.2,0.5,0.5,0.7,0.7c0.4,0.4-0.3-0.4,0.1,0.1c0.1,0.2,0.2,0.3,0.3,0.5c0.1,0.2,0.2,0.3,0.3,0.5c0.3,0.4-0.1-0.4,0.1,0.1
					c0.1,0.4,0.2,0.8,0.3,1.2c0,0.1,0,0.5,0-0.1C350.3,265.6,350.4,265.9,350.4,266.2c0,1.3,1.1,2.6,2.5,2.5
					c1.3-0.1,2.5-1.1,2.5-2.5c-0.1-4.3-2.7-7.9-6.7-9.4c-3.8-1.4-8.4-0.2-11,2.9c-2.7,3.3-3.2,7.9-1,11.6c2.2,3.7,6.4,5.4,10.6,4.7
					c4.7-0.8,7.9-5.2,8-9.8c0-1.3-1.2-2.6-2.5-2.5C351.5,263.7,350.4,264.8,350.4,266.2z"/>
			</g>
		</g>
		<g>
			<circle class="st8" cx="169.4" cy="275.8" r="7.5"/>
			<g>
				<path d="M174.4,275.8c0,0.2,0,0.4,0,0.6c0,0.5,0,0,0-0.1c-0.1,0.3-0.1,0.7-0.2,1c-0.1,0.2-0.1,0.4-0.2,0.6c0-0.1,0.2-0.5,0-0.1
					c-0.2,0.3-0.4,0.7-0.6,1c-0.3,0.5,0.2-0.2,0,0c-0.1,0.1-0.2,0.3-0.3,0.4c-0.1,0.1-0.9,0.7-0.4,0.4c-0.3,0.2-0.5,0.4-0.8,0.5
					c-0.1,0.1-0.2,0.1-0.3,0.2c-0.4,0.2,0.4-0.1-0.2,0.1c-0.3,0.1-0.6,0.2-1,0.3c-0.1,0-0.6,0.1,0,0c-0.2,0-0.3,0-0.5,0
					c-0.4,0-0.7,0-1,0c-0.4,0,0.6,0.1,0,0c-0.2,0-0.4-0.1-0.6-0.1c-0.2-0.1-0.4-0.1-0.6-0.2c-0.1,0-0.4-0.2,0,0
					c-0.3-0.2-0.6-0.3-0.9-0.5c-0.1-0.1-0.3-0.2-0.4-0.3c-0.3-0.2,0.4,0.4,0,0c-0.3-0.3-0.5-0.6-0.8-0.8c0.3,0.3,0.1,0.2,0,0
					c-0.1-0.2-0.2-0.3-0.3-0.5c-0.1-0.1-0.5-1-0.3-0.5c-0.1-0.3-0.2-0.6-0.3-1c0-0.1-0.1-0.3-0.1-0.4c-0.1-0.5,0,0.4,0-0.3
					c0-0.3,0-0.6,0-0.9c0-0.1,0.1-0.8,0-0.2c0-0.1,0-0.3,0.1-0.4c0.1-0.3,0.2-0.6,0.3-1c0.2-0.6-0.3,0.4,0.1-0.1
					c0.1-0.2,0.2-0.3,0.3-0.5c0.1-0.1,0.2-0.3,0.3-0.4c0.1-0.1,0.4-0.4,0,0c0.2-0.2,0.4-0.5,0.7-0.7c0,0,0.5-0.4,0.2-0.2
					c-0.3,0.2,0.2-0.1,0.2-0.2c0.3-0.2,0.7-0.4,1-0.6c-0.1,0-0.5,0.2,0,0c0.2-0.1,0.4-0.1,0.6-0.2c0.1,0,0.3-0.1,0.4-0.1
					c0,0,0.7-0.1,0.3-0.1c-0.4,0.1,0.3,0,0.3,0c0.2,0,0.3,0,0.5,0c0.2,0,0.3,0,0.5,0c0.6,0-0.4-0.1,0.1,0c0.4,0.1,0.8,0.2,1.2,0.3
					c0.6,0.2-0.2-0.2,0,0c0.2,0.1,0.4,0.2,0.6,0.3c0.1,0.1,0.2,0.1,0.3,0.2c0.1,0.1,0.2,0.1,0.3,0.2c-0.2-0.2-0.3-0.2-0.1,0
					c0.2,0.2,0.5,0.5,0.7,0.7c0.4,0.4-0.3-0.4,0.1,0.1c0.1,0.2,0.2,0.3,0.3,0.5c0.1,0.2,0.2,0.3,0.3,0.5c0.3,0.4-0.1-0.4,0.1,0.1
					c0.1,0.4,0.2,0.8,0.3,1.2c0,0.1,0,0.5,0-0.1C174.3,275.2,174.4,275.5,174.4,275.8c0,1.3,1.1,2.6,2.5,2.5
					c1.3-0.1,2.5-1.1,2.5-2.5c-0.1-4.3-2.7-7.9-6.7-9.4c-3.8-1.4-8.4-0.2-11,2.9c-2.7,3.3-3.2,7.9-1,11.6c2.2,3.7,6.4,5.4,10.6,4.7
					c4.7-0.8,7.9-5.2,8-9.8c0-1.3-1.2-2.6-2.5-2.5C175.5,273.3,174.4,274.4,174.4,275.8z"/>
			</g>
		</g>
		<g>
			<circle class="st8" cx="214.9" cy="269.9" r="7.5"/>
			<g>
				<path d="M219.9,269.9c0,0.2,0,0.4,0,0.6c0,0.5,0,0,0-0.1c-0.1,0.3-0.1,0.7-0.2,1c-0.1,0.2-0.1,0.4-0.2,0.6c0-0.1,0.2-0.5,0-0.1
					c-0.2,0.3-0.4,0.7-0.6,1c-0.3,0.5,0.2-0.2,0,0c-0.1,0.1-0.2,0.3-0.3,0.4c-0.1,0.1-0.9,0.7-0.4,0.4c-0.3,0.2-0.5,0.4-0.8,0.5
					c-0.1,0.1-0.2,0.1-0.3,0.2c-0.4,0.2,0.4-0.1-0.2,0.1c-0.3,0.1-0.6,0.2-1,0.3c-0.1,0-0.6,0.1,0,0c-0.2,0-0.3,0-0.5,0
					c-0.4,0-0.7,0-1,0c-0.4,0,0.6,0.1,0,0c-0.2,0-0.4-0.1-0.6-0.1c-0.2-0.1-0.4-0.1-0.6-0.2c-0.1,0-0.4-0.2,0,0
					c-0.3-0.2-0.6-0.3-0.9-0.5c-0.1-0.1-0.3-0.2-0.4-0.3c-0.3-0.2,0.4,0.4,0,0c-0.3-0.3-0.5-0.6-0.8-0.8c0.3,0.3,0.1,0.2,0,0
					c-0.1-0.2-0.2-0.3-0.3-0.5c-0.1-0.1-0.5-1-0.3-0.5c-0.1-0.3-0.2-0.6-0.3-1c0-0.1-0.1-0.3-0.1-0.4c-0.1-0.5,0,0.4,0-0.3
					c0-0.3,0-0.6,0-0.9c0-0.1,0.1-0.8,0-0.2c0-0.1,0-0.3,0.1-0.4c0.1-0.3,0.2-0.6,0.3-1c0.2-0.6-0.3,0.4,0.1-0.1
					c0.1-0.2,0.2-0.3,0.3-0.5c0.1-0.1,0.2-0.3,0.3-0.4c0.1-0.1,0.4-0.4,0,0c0.2-0.2,0.4-0.5,0.7-0.7c0,0,0.5-0.4,0.2-0.2
					c-0.3,0.2,0.2-0.1,0.2-0.2c0.3-0.2,0.7-0.4,1-0.6c-0.1,0-0.5,0.2,0,0c0.2-0.1,0.4-0.1,0.6-0.2c0.1,0,0.3-0.1,0.4-0.1
					c0,0,0.7-0.1,0.3-0.1c-0.4,0.1,0.3,0,0.3,0c0.2,0,0.3,0,0.5,0c0.2,0,0.3,0,0.5,0c0.6,0-0.4-0.1,0.1,0c0.4,0.1,0.8,0.2,1.2,0.3
					c0.6,0.2-0.2-0.2,0,0c0.2,0.1,0.4,0.2,0.6,0.3c0.1,0.1,0.2,0.1,0.3,0.2c0.1,0.1,0.2,0.1,0.3,0.2c-0.2-0.2-0.3-0.2-0.1,0
					c0.2,0.2,0.5,0.5,0.7,0.7c0.4,0.4-0.3-0.4,0.1,0.1c0.1,0.2,0.2,0.3,0.3,0.5c0.1,0.2,0.2,0.3,0.3,0.5c0.3,0.4-0.1-0.4,0.1,0.1
					c0.1,0.4,0.2,0.8,0.3,1.2c0,0.1,0,0.5,0-0.1C219.9,269.3,219.9,269.6,219.9,269.9c0,1.3,1.1,2.6,2.5,2.5
					c1.3-0.1,2.5-1.1,2.5-2.5c-0.1-4.3-2.7-7.9-6.7-9.4c-3.8-1.4-8.4-0.2-11,2.9c-2.7,3.3-3.2,7.9-1,11.6c2.2,3.7,6.4,5.4,10.6,4.7
					c4.7-0.8,7.9-5.2,8-9.8c0-1.3-1.2-2.6-2.5-2.5C221.1,267.4,220,268.5,219.9,269.9z"/>
			</g>
		</g>
		<g>
			<polygon class="st9" points="322.6,362.3 308.8,375.3 307.3,375.3 293,363.3 293.4,362.2 293.4,152.9 300.8,149.7 308.6,146.4 
				316.8,149.7 322,151.8 322,362.2 			"/>
			<g>
				<path d="M320.9,360.5c-4.6,4.4-9.2,8.7-13.8,13.1c0.6-0.2,1.2-0.5,1.8-0.7c-0.5,0-1,0-1.5,0c0.6,0.2,1.2,0.5,1.8,0.7
					c-4.8-4-9.5-8-14.3-12c0.2,0.8,0.4,1.6,0.6,2.4c0.8-2.1,0.5-4.4,0.5-6.7c0-4.9,0-9.9,0-14.8c0-7.4,0-14.9,0-22.3
					c0-9.2,0-18.3,0-27.5c0-10.1,0-20.2,0-30.3c0-10.2,0-20.4,0-30.6c0-9.5,0-19.1,0-28.6c0-8.1,0-16.1,0-24.2c0-5.8,0-11.6,0-17.4
					c0-2.7,0.1-5.5,0-8.3c0-0.1,0-0.2,0-0.4c-0.4,0.7-0.8,1.4-1.2,2.2c5-2.2,10.1-4.3,15.1-6.5c-0.6,0.1-1.3,0.2-1.9,0.3
					c4.5,1.8,8.9,3.6,13.4,5.4c-0.6-0.8-1.2-1.6-1.8-2.4c0,1.9,0,3.8,0,5.6c0,5.1,0,10.2,0,15.3c0,7.6,0,15.1,0,22.7
					c0,9.2,0,18.4,0,27.5c0,10.1,0,20.2,0,30.3c0,10.2,0,20.4,0,30.6c0,9.5,0,18.9,0,28.4c0,8,0,16.1,0,24.1c0,5.8,0,11.5,0,17.3
					c0,2.7-0.1,5.5,0,8.2c0,0.1,0,0.2,0,0.4c0,1,0.8,2.3,1.8,2.4c0.2,0,0.5,0.1,0.7,0.1c1.3,0.2,2.7-0.3,3.1-1.7
					c0.3-1.2-0.4-2.9-1.7-3.1c-0.2,0-0.5-0.1-0.7-0.1c0.6,0.8,1.2,1.6,1.8,2.4c0-1.9,0-3.8,0-5.6c0-5.1,0-10.2,0-15.3
					c0-7.6,0-15.1,0-22.7c0-9.2,0-18.4,0-27.5c0-10.1,0-20.2,0-30.3c0-10.2,0-20.4,0-30.6c0-9.5,0-18.9,0-28.4c0-8,0-16.1,0-24.1
					c0-5.8,0-11.5,0-17.3c0-2.7,0.1-5.5,0-8.2c0-0.1,0-0.2,0-0.4c0-1.2-0.8-2-1.8-2.4c-4-1.6-8.1-3.2-12.1-4.9
					c-1.2-0.5-1.9-0.8-3.3-0.3c-0.9,0.4-1.9,0.8-2.8,1.2c-1.8,0.8-3.5,1.5-5.3,2.3c-2.3,1-4.6,2-7,3c-0.8,0.3-1.2,1.4-1.2,2.2
					c0,1.9,0,3.8,0,5.7c0,5.1,0,10.2,0,15.3c0,7.6,0,15.2,0,22.8c0,9.2,0,18.4,0,27.6c0,10.1,0,20.2,0,30.3c0,10.2,0,20.4,0,30.6
					c0,9.4,0,18.9,0,28.3c0,8,0,15.9,0,23.9c0,5.6,0,11.3,0,16.9c0,2.5-0.2,5.1,0,7.7c0,0.1,0,0.1,0,0.2c0,0,0,0,0,0
					c-0.4-0.6,0.2-0.8,0-0.5c-0.1,0.1-0.1,0.3-0.1,0.4c-0.1,0.2-0.1,0.4-0.2,0.6c-0.3,0.8,0,1.9,0.6,2.4c4.4,3.7,8.9,7.5,13.3,11.2
					c1,0.8,1.7,1.5,3.1,1.6c1.1,0,2.1,0,3-0.7c0.2-0.2,0.4-0.4,0.6-0.5c2.3-2.2,4.6-4.4,7-6.6c2.1-2,4.2-4,6.3-5.9
					C326.8,361.8,323.2,358.3,320.9,360.5z"/>
			</g>
		</g>
	</g>
	<g>
		<g>
			<path d="M100.6,446.1c-0.1,15.4-9.8,29.8-24.4,35c-14.9,5.4-31.7,0.8-41.8-11.4c-9.9-12-11.1-29.6-3-42.9
				c8-13.3,24-20.4,39.2-17.3c15.3,3.1,27.2,15.5,29.7,30.9C100.5,442.3,100.6,444.2,100.6,446.1c0,3.2,5,3.2,5,0
				c-0.1-17.7-11.3-33.7-27.9-39.8c-16.5-6-35.8-0.8-47,12.8c-11.3,13.7-12.9,33.6-3.7,48.9c9.2,15.3,27.4,23.1,44.8,19.6
				c16.9-3.4,30.6-17.6,33.2-34.7c0.3-2.2,0.5-4.5,0.5-6.7C105.6,442.9,100.6,442.9,100.6,446.1z"/>
		</g>
	</g>
	<g>
		<path class="st10" d="M576.3,225.8v172.8c-5.8-0.9-12.3-1.4-19.2-1.4c-6.9,0-13.4,0.5-19.2,1.4V225.8h0.2l19.1-51.2l19.1,51.2
			H576.3z"/>
		<g>
			<path d="M573.8,225.8c0,1.5,0,3.1,0,4.6c0,4.2,0,8.4,0,12.5c0,6.2,0,12.4,0,18.6c0,7.6,0,15.2,0,22.7c0,8.3,0,16.5,0,24.8
				c0,8.4,0,16.8,0,25.1c0,7.8,0,15.5,0,23.3c0,6.6,0,13.2,0,19.8c0,4.7,0,9.5,0,14.2c0,2.2-0.1,4.5,0,6.7c0,0.1,0,0.2,0,0.3
				c1.1-0.8,2.1-1.6,3.2-2.4c-13.1-2.1-26.7-2.1-39.8,0c1.1,0.8,2.1,1.6,3.2,2.4c0-1.5,0-3.1,0-4.6c0-4.2,0-8.4,0-12.5
				c0-6.2,0-12.4,0-18.6c0-7.6,0-15.2,0-22.7c0-8.3,0-16.5,0-24.8c0-8.4,0-16.8,0-25.1c0-7.8,0-15.5,0-23.3c0-6.6,0-13.2,0-19.8
				c0-4.7,0-9.5,0-14.2c0-2.2,0.1-4.5,0-6.7c0-0.1,0-0.2,0-0.3c-0.8,0.8-1.7,1.7-2.5,2.5c0.1,0,0.1,0,0.2,0c1.2,0,2-0.8,2.4-1.8
				c2.2-5.8,4.3-11.6,6.5-17.3c3.4-9.2,6.8-18.4,10.3-27.5c0.8-2.1,1.6-4.2,2.4-6.4c-1.6,0-3.2,0-4.8,0c2.2,5.8,4.3,11.6,6.5,17.3
				c3.4,9.2,6.8,18.4,10.2,27.5c0.8,2.1,1.6,4.2,2.4,6.4c0.4,1,1.2,1.8,2.4,1.8c0.1,0,0.1,0,0.2,0c3.2,0,3.2-5,0-5
				c-0.1,0-0.1,0-0.2,0c0.8,0.6,1.6,1.2,2.4,1.8c-2.2-5.8-4.3-11.6-6.5-17.3c-3.4-9.2-6.8-18.4-10.2-27.5c-0.8-2.1-1.6-4.2-2.4-6.4
				c-0.9-2.4-3.9-2.4-4.8,0c-2.2,5.8-4.3,11.6-6.5,17.3c-3.4,9.2-6.8,18.4-10.3,27.5c-0.8,2.1-1.6,4.2-2.4,6.4
				c0.8-0.6,1.6-1.2,2.4-1.8c-0.1,0-0.1,0-0.2,0c-1.4,0-2.5,1.1-2.5,2.5c0,1.5,0,3.1,0,4.6c0,4.2,0,8.4,0,12.5c0,6.2,0,12.4,0,18.6
				c0,7.6,0,15.2,0,22.7c0,8.3,0,16.5,0,24.8c0,8.4,0,16.8,0,25.1c0,7.8,0,15.5,0,23.3c0,6.6,0,13.2,0,19.8c0,4.7,0,9.5,0,14.2
				c0,2.2-0.1,4.5,0,6.7c0,0.1,0,0.2,0,0.3c0,1.8,1.6,2.7,3.2,2.4c12.2-1.9,25-1.9,37.1,0c1.6,0.2,3.2-0.6,3.2-2.4
				c0-1.5,0-3.1,0-4.6c0-4.2,0-8.4,0-12.5c0-6.2,0-12.4,0-18.6c0-7.6,0-15.2,0-22.7c0-8.3,0-16.5,0-24.8c0-8.4,0-16.8,0-25.1
				c0-7.8,0-15.5,0-23.3c0-6.6,0-13.2,0-19.8c0-4.7,0-9.5,0-14.2c0-2.2,0.1-4.5,0-6.7c0-0.1,0-0.2,0-0.3
				C578.8,222.6,573.8,222.6,573.8,225.8z"/>
		</g>
	</g>
	<g>
		<path class="st7" d="M600.5,407.7c0,4.1-19.4,7.5-43.4,7.5c-24,0-43.4-3.3-43.4-7.5c0-2.9,9.8-5.5,24.2-6.7
			c5.8-0.5,12.3-0.8,19.2-0.8c6.9,0,13.4,0.3,19.2,0.8C590.7,402.3,600.5,404.8,600.5,407.7z"/>
		<g>
			<path d="M598,407.7c0,0.4,0.1-0.7,0-0.3c-0.1,0.4,0.1-0.1,0.1-0.3c-0.2,0.5,0.4-0.3-0.1,0.1c-0.5,0.5,0.3-0.1-0.2,0.2
				c-0.3,0.2-0.6,0.4-0.9,0.5c-0.2,0.1-0.3,0.1-0.5,0.2c-0.4,0.2,0.4-0.1-0.1,0c-0.4,0.2-0.8,0.3-1.3,0.5c-1,0.3-2,0.6-3.1,0.9
				c-5.8,1.4-11.8,2-17.8,2.5c-8,0.6-16.1,0.7-24.1,0.5c-7-0.2-14.1-0.6-21-1.7c-2.6-0.4-5.2-0.9-7.7-1.5c-0.9-0.3-1.9-0.5-2.8-0.9
				c-0.2-0.1-0.4-0.2-0.7-0.3c-0.5-0.2,0.3,0.2-0.1,0c-0.3-0.2-0.7-0.3-1-0.5c-0.3-0.2-0.9-0.7-0.4-0.2c-0.1-0.1-0.6-0.7-0.4-0.3
				c0.3,0.4,0,0.1,0,0c-0.1-0.1,0.2,0.7,0.1,0.3c-0.1-0.4,0,0.5,0,0.3c0-0.5-0.1,0.7,0,0.2c0-0.1-0.3,0.6-0.1,0.2
				c0,0.1-0.4,0.2-0.1,0.1c0.1,0,0.2-0.2,0.3-0.3c0.2-0.2-0.2,0.2-0.2,0.2c0.1-0.1,0.2-0.1,0.3-0.2c0.4-0.2,0.7-0.4,1.1-0.6
				c0.1,0,0.6-0.3,0.4-0.2c-0.2,0.1,0.4-0.2,0.6-0.2c5.9-2.2,12.5-2.8,18.7-3.4c7.9-0.7,15.9-0.9,23.9-0.8
				c7.7,0.1,15.4,0.5,23.1,1.6c3.1,0.4,6.2,1,9.2,1.8c1,0.3,2.4,0.7,3,1c-0.2-0.1,0.3,0.1,0.4,0.2c0.2,0.1,0.4,0.2,0.5,0.3
				c0.2,0.1,1.1,0.8,0.6,0.3c0.1,0.1,0.2,0.2,0.3,0.3c0.4,0.2,0,0,0-0.1c0.2,0.4-0.1-0.3-0.1-0.2C598.1,408.4,598,407.4,598,407.7
				c0.1,3.2,5.1,3.2,5,0c-0.2-4.7-7.1-6.1-10.7-6.9c-7.8-1.8-16-2.4-24-2.8c-8.8-0.4-17.6-0.3-26.4,0.2c-7.6,0.5-15.4,1.1-22.7,3.2
				c-3.3,0.9-10,3.4-7.5,8.1c0.7,1.4,2.2,2.3,3.6,3c2.1,1,4.3,1.6,6.6,2.1c6.9,1.6,14,2.2,21,2.6c8.8,0.5,17.6,0.6,26.4,0.1
				c7.3-0.4,14.6-1,21.8-2.4c2.3-0.5,4.6-1,6.7-1.9c1.7-0.7,3.6-1.5,4.6-3.1c0.5-0.7,0.7-1.4,0.7-2.3
				C603.1,404.5,598.1,404.5,598,407.7z"/>
		</g>
	</g>
	<g>
		<g>
			<path d="M559.6,397.2c0-1.7,0-3.3,0-5c0-4.5,0-9.1,0-13.6c0-6.7,0-13.4,0-20.1c0-8.1,0-16.3,0-24.4c0-9,0-17.9,0-26.9
				c0-9,0-18.1,0-27.1c0-8.4,0-16.9,0-25.3c0-7.1,0-14.2,0-21.4c0-5.1,0-10.2,0-15.4c0-2.4,0.1-4.8,0-7.3c0-0.1,0-0.2,0-0.3
				c0-3.2-5-3.2-5,0c0,1.7,0,3.3,0,5c0,4.5,0,9.1,0,13.6c0,6.7,0,13.4,0,20.1c0,8.1,0,16.3,0,24.4c0,9,0,17.9,0,26.9
				c0,9,0,18.1,0,27.1c0,8.4,0,16.9,0,25.3c0,7.1,0,14.2,0,21.4c0,5.1,0,10.2,0,15.4c0,2.4-0.1,4.8,0,7.3c0,0.1,0,0.2,0,0.3
				C554.6,400.4,559.6,400.5,559.6,397.2c0-1.7,0-3.3,0-5c0-4.5,0-9.1,0-13.6c0-6.7,0-13.4,0-20.1c0-8.1,0-16.3,0-24.4
				c0-9,0-17.9,0-26.9c0-9,0-18.1,0-27.1c0-8.4,0-16.9,0-25.3c0-7.1,0-14.2,0-21.4c0-5.1,0-10.2,0-15.4c0-2.4,0.1-4.8,0-7.3
				c0-0.1,0-0.2,0-0.3c0-3.2-5-3.2-5,0c0,1.7,0,3.3,0,5c0,4.5,0,9.1,0,13.6c0,6.7,0,13.4,0,20.1c0,8.1,0,16.3,0,24.4
				c0,9,0,17.9,0,26.9c0,9,0,18.1,0,27.1c0,8.4,0,16.9,0,25.3c0,7.1,0,14.2,0,21.4c0,5.1,0,10.2,0,15.4c0,2.4-0.1,4.8,0,7.3
				c0,0.1,0,0.2,0,0.3C554.6,400.4,559.6,400.5,559.6,397.2z"/>
		</g>
	</g>
	<g>
		<circle class="st11" cx="557.1" cy="487.8" r="12.5"/>
		<g>
			<path d="M567.1,487.8c-0.1,4.1-2.6,8-6.5,9.4c-4.1,1.5-8.6,0.2-11.4-3.1c-2.6-3.2-2.9-7.9-0.7-11.4c2.1-3.5,6.3-5.5,10.3-4.7
				C563.6,478.8,567,483,567.1,487.8c0,3.2,5,3.2,5,0c-0.1-6.3-4-11.9-9.9-14.1c-5.8-2.2-12.7-0.3-16.6,4.4
				c-4,4.9-4.7,11.9-1.4,17.3c3.3,5.5,9.6,8.2,15.8,7.1c7-1.3,12-7.7,12.1-14.7C572.1,484.6,567.1,484.6,567.1,487.8z"/>
		</g>
	</g>
	<g>
		<circle class="st4" cx="557.1" cy="447.1" r="39.8"/>
		<g>
			<path d="M594.4,447.1c-0.1,15.4-9.8,29.8-24.4,35c-14.9,5.4-31.7,0.8-41.8-11.4c-9.9-12-11.1-29.6-3-42.9
				c8-13.3,24-20.4,39.2-17.3c15.3,3.1,27.2,15.5,29.7,30.9C594.3,443.3,594.4,445.2,594.4,447.1c0,3.2,5,3.2,5,0
				c-0.1-17.7-11.3-33.7-27.9-39.8c-16.5-6-35.8-0.8-47,12.8c-11.3,13.7-12.9,33.6-3.7,48.9c9.2,15.3,27.4,23.1,44.8,19.6
				c16.9-3.4,30.6-17.6,33.2-34.7c0.3-2.2,0.5-4.5,0.5-6.7C599.4,443.9,594.4,443.9,594.4,447.1z"/>
		</g>
	</g>
	<g>
		<g>
			<path class="st7" d="M90.2,447.8c-1.4,40-18.4,71.7-39.3,71.7c-21.7,0-39.4-34.4-39.4-76.9c0-0.9,0-1.8,0-2.8
				c12.5,3,27.3,5.3,43.2,6.8C67.3,447.7,79.4,448.1,90.2,447.8z"/>
			<g>
				<path d="M87.7,447.8c-0.5,14.3-3,28.7-8.4,42c-2.1,5.2-4.9,10.3-8.3,14.9c-1.3,1.8-3.1,3.8-4.8,5.4c-1.8,1.7-3.1,2.7-5.2,3.9
					c-0.9,0.5-1.9,1-2.9,1.5c0.4-0.2-0.2,0.1-0.3,0.1c-0.3,0.1-0.5,0.2-0.8,0.3c-0.5,0.2-1,0.3-1.5,0.5c-0.5,0.1-1,0.2-1.5,0.3
					c-0.2,0-0.5,0.1-0.7,0.1c0,0-0.4,0.1-0.1,0c0.3,0-0.3,0-0.3,0c-1,0.1-2.1,0.1-3.1,0.1c-0.5,0-1-0.1-1.5-0.1c0.4,0.1-0.1,0-0.2,0
					c-0.3-0.1-0.6-0.1-0.9-0.2c-1-0.2-1.9-0.5-2.8-0.8c-1.1-0.4-1.3-0.5-2.5-1.1c-1-0.5-1.9-1.1-2.8-1.7c-1.7-1.1-3.3-2.6-5-4.3
					c-1.8-1.9-3.2-3.6-4.6-5.7c-3.3-4.8-5.9-10-7.9-15.4c-5.1-13.3-7.3-27.6-7.6-41.8c0-2-0.1-4,0-6.1c-1.1,0.8-2.1,1.6-3.2,2.4
					c20.3,4.8,41.2,7.2,62,8c5.8,0.2,11.5,0.2,17.3,0.1c3.2-0.1,3.2-5.1,0-5c-20.8,0.5-41.8-1.1-62.3-4.7c-5.3-0.9-10.5-2-15.7-3.2
					c-1.6-0.4-3.1,0.7-3.2,2.4c-0.3,15.4,1.6,31.1,6.5,45.7c3.7,10.9,9.2,22.4,18.4,29.8c3.6,3,7.8,5.3,12.5,6.2
					c4.5,0.8,9.2,0.4,13.4-1.4C70,516,77,506.3,81.7,496.7c6.4-13.3,9.6-28.1,10.7-42.7c0.2-2,0.3-4.1,0.3-6.1
					C92.8,444.6,87.8,444.6,87.7,447.8z"/>
			</g>
		</g>
		<g>
			<g>
				<path d="M45.5,448C45.5,448,45.5,448,45.5,448c-0.3,0.2-0.7,0.4-1.1,0.6c0,0,0,0,0,0c-0.4,0-0.9,0-1.3,0c0,0,0,0,0,0
					c-0.4-0.2-0.7-0.4-1.1-0.6c0.1,0.1-0.7-1.4-0.6-1c0-0.1,0-0.8-0.1-0.4c0,0.2,0,0.5,0,0.7c0,0.7-0.1,1.4-0.1,2.1
					c-0.1,2.2-0.3,4.5-0.5,6.7c-0.4,5.5-0.8,11.1-0.6,16.7c0.2,6.4,1.1,12.8,2.3,19c1.1,6,2.5,11.9,4.1,17.7c1,3.7,1.9,7.5,3.4,11
					c0.5,1.2,2.4,1.5,3.4,0.9c1.3-0.7,1.4-2.2,0.9-3.4c0.5,1.1-0.1-0.3-0.2-0.6c-0.2-0.7-0.5-1.4-0.7-2.1c-0.7-2.1-1.3-4.3-1.9-6.4
					c-1.6-6-3.1-12.1-4.2-18.3c-1.2-6.3-2.1-12.7-2.1-19.1c0-5.8,0.4-11.6,0.8-17.4c0.2-2.2,0.4-4.3,0.4-6.5c0-0.6,0-1.3-0.1-1.9
					c-0.5-1.7-3-2.7-4.3-1.1c-0.9,1-1,2.5,0,3.5C42.8,448.9,44.6,449.1,45.5,448L45.5,448z"/>
			</g>
		</g>
		<g>
			<g>
				<path d="M13.1,476c19.6,5.8,40.2,7.7,60.5,5.5c4.8-0.5,9.5-1.2,14.2-2.2c1.3-0.3,2.1-1.8,1.7-3.1c-0.4-1.4-1.7-2-3.1-1.7
					c-18.7,3.7-38.2,3.9-57,0.4c-5.1-1-10.1-2.2-15.1-3.6C11.3,470.2,10,475,13.1,476L13.1,476z"/>
			</g>
		</g>
		<g>
			<g>
				<path d="M21.4,450.9c0.8,3.6,1.8,7.2,2.2,10.9c0.4,3-0.4,6.5,2.1,8.8c0.2,0.2,1.3,0.5,0.9,0.2c-2.4-2.3-1.5-6.3-1.9-9.2
					c-0.6-3.4-1.4-6.8-2.1-10.2C22.5,451,21.4,450.7,21.4,450.9L21.4,450.9z"/>
			</g>
		</g>
		<g>
			<g>
				<path d="M28.2,456.7c4.7,14.4,4.2,29.9,8.5,44.4c0.1,0.5,1.3,0.7,1.2,0.1c-4.3-14.5-3.8-30-8.5-44.4
					C29.2,456.2,28,456,28.2,456.7L28.2,456.7z"/>
			</g>
		</g>
		<g>
			<g>
				<path d="M53.7,458.5c0.6,8.3-2.6,16.6-1,24.9c0.8,4.1,2.8,7.9,3.9,12c1.1,4.1,1.6,8.4,2.2,12.7c0.1,0.6,1.2,0.1,1.1-0.5
					c-0.5-4.2-1-8.4-2.1-12.4c-1.1-4.1-3.1-8-3.9-12.2c-1.6-8.3,1.6-16.6,1-24.9C54.8,457.5,53.7,458,53.7,458.5L53.7,458.5z"/>
			</g>
		</g>
		<g>
			<g>
				<path d="M67.6,459c0.7,13,2,26,3.9,39c0.1,0.5,1.3,0.5,1.2-0.1c-1.9-12.9-3.2-25.8-3.9-38.8C68.9,458.6,67.6,458.5,67.6,459
					L67.6,459z"/>
			</g>
		</g>
		<g>
			<g>
				<path d="M26.5,485.9c1.3,2.7,2.6,5.5,3.8,8.3c0.1,0.3,0.4,0.5,0.6,0.6c0.1,0.1,0.4,0.2,0.3,0c-1.2-2.8-2.5-5.5-3.8-8.3
					c-0.1-0.3-0.3-0.5-0.6-0.6C26.8,485.9,26.4,485.7,26.5,485.9L26.5,485.9z"/>
			</g>
		</g>
		<g>
			<g>
				<path d="M63.2,488.1c0.3,2.9,0.5,5.7,0.8,8.6c0.2,1.9,0.2,4.3,2.3,5.1c0.2,0.1,0.6,0,0.6-0.2c0-0.3-0.4-0.5-0.6-0.6
					c-0.7-0.3-0.9-1.5-1-2.2c-0.1-1.1-0.2-2.2-0.3-3.3c-0.2-2.4-0.4-4.7-0.6-7.1C64.3,487.9,63.1,487.6,63.2,488.1L63.2,488.1z"/>
			</g>
		</g>
		<g>
			<g>
				<path d="M62.7,452.8c0.4,2.9,0.3,5.9-0.3,8.8c-0.1,0.3,0.1,0.6,0.4,0.8c0.2,0.1,0.5,0.2,0.5-0.1c0.6-3,0.7-6,0.3-9
					c0-0.3-0.2-0.6-0.5-0.7C62.9,452.5,62.6,452.6,62.7,452.8L62.7,452.8z"/>
			</g>
		</g>
	</g>
</g>
</svg>
